<svg width="463" height="336" viewBox="0 0 463 336" fill="none" xmlns="http://www.w3.org/2000/svg">
<path d="M48.06 23.55V37.59H22.68V48.75H41.4V62.16H22.68V87H5.04V23.55H48.06ZM52.6092 61.71C52.6092 56.49 53.5392 51.93 55.3992 48.03C57.3192 44.13 59.8992 41.13 63.1392 39.03C66.4392 36.93 70.0992 35.88 74.1192 35.88C77.5992 35.88 80.5992 36.57 83.1192 37.95C85.6392 39.33 87.5892 41.19 88.9692 43.53V36.51H106.609V87H88.9692V79.98C87.5892 82.32 85.6092 84.18 83.0292 85.56C80.5092 86.94 77.5392 87.63 74.1192 87.63C70.0992 87.63 66.4392 86.58 63.1392 84.48C59.8992 82.38 57.3192 79.38 55.3992 75.48C53.5392 71.52 52.6092 66.93 52.6092 61.71ZM88.9692 61.71C88.9692 58.47 88.0692 55.92 86.2692 54.06C84.5292 52.2 82.3692 51.27 79.7892 51.27C77.1492 51.27 74.9592 52.2 73.2192 54.06C71.4792 55.86 70.6092 58.41 70.6092 61.71C70.6092 64.95 71.4792 67.53 73.2192 69.45C74.9592 71.31 77.1492 72.24 79.7892 72.24C82.3692 72.24 84.5292 71.31 86.2692 69.45C88.0692 67.59 88.9692 65.01 88.9692 61.71ZM113.781 61.71C113.781 56.49 114.861 51.93 117.021 48.03C119.181 44.13 122.181 41.13 126.021 39.03C129.921 36.93 134.361 35.88 139.341 35.88C145.761 35.88 151.161 37.65 155.541 41.19C159.921 44.67 162.741 49.56 164.001 55.86H145.281C144.201 52.56 142.101 50.91 138.981 50.91C136.761 50.91 134.991 51.84 133.671 53.7C132.411 55.5 131.781 58.17 131.781 61.71C131.781 65.25 132.411 67.95 133.671 69.81C134.991 71.67 136.761 72.6 138.981 72.6C142.161 72.6 144.261 70.95 145.281 67.65H164.001C162.741 73.89 159.921 78.78 155.541 82.32C151.161 85.86 145.761 87.63 139.341 87.63C134.361 87.63 129.921 86.58 126.021 84.48C122.181 82.38 119.181 79.38 117.021 75.48C114.861 71.58 113.781 66.99 113.781 61.71ZM180.239 31.83C177.119 31.83 174.599 30.99 172.679 29.31C170.819 27.57 169.889 25.41 169.889 22.83C169.889 20.19 170.819 18 172.679 16.26C174.599 14.52 177.119 13.65 180.239 13.65C183.299 13.65 185.759 14.52 187.619 16.26C189.539 18 190.499 20.19 190.499 22.83C190.499 25.41 189.539 27.57 187.619 29.31C185.759 30.99 183.299 31.83 180.239 31.83ZM188.969 36.51V87H171.329V36.51H188.969ZM216.655 20.4V87H199.015V20.4H216.655ZM274.94 61.17C274.94 62.55 274.85 63.93 274.67 65.31H241.28C241.46 68.07 242.21 70.14 243.53 71.52C244.91 72.84 246.65 73.5 248.75 73.5C251.69 73.5 253.79 72.18 255.05 69.54H273.86C273.08 73.02 271.55 76.14 269.27 78.9C267.05 81.6 264.23 83.73 260.81 85.29C257.39 86.85 253.61 87.63 249.47 87.63C244.49 87.63 240.05 86.58 236.15 84.48C232.31 82.38 229.28 79.38 227.06 75.48C224.9 71.58 223.82 66.99 223.82 61.71C223.82 56.43 224.9 51.87 227.06 48.03C229.22 44.13 232.22 41.13 236.06 39.03C239.96 36.93 244.43 35.88 249.47 35.88C254.45 35.88 258.86 36.9 262.7 38.94C266.54 40.98 269.54 43.92 271.7 47.76C273.86 51.54 274.94 56.01 274.94 61.17ZM256.94 56.76C256.94 54.6 256.22 52.92 254.78 51.72C253.34 50.46 251.54 49.83 249.38 49.83C247.22 49.83 245.45 50.43 244.07 51.63C242.69 52.77 241.79 54.48 241.37 56.76H256.94ZM301.149 71.88L291.519 98.16H280.359L285.039 71.88H301.149ZM66.78 133.55L44.91 197H22.32L0.36 133.55H19.26L33.66 179.36L47.97 133.55H66.78ZM120.516 171.17C120.516 172.55 120.426 173.93 120.246 175.31H86.8563C87.0363 178.07 87.7863 180.14 89.1063 181.52C90.4863 182.84 92.2263 183.5 94.3263 183.5C97.2663 183.5 99.3663 182.18 100.626 179.54H119.436C118.656 183.02 117.126 186.14 114.846 188.9C112.626 191.6 109.806 193.73 106.386 195.29C102.966 196.85 99.1863 197.63 95.0463 197.63C90.0663 197.63 85.6263 196.58 81.7263 194.48C77.8863 192.38 74.8563 189.38 72.6363 185.48C70.4763 181.58 69.3963 176.99 69.3963 171.71C69.3963 166.43 70.4763 161.87 72.6363 158.03C74.7963 154.13 77.7963 151.13 81.6363 149.03C85.5363 146.93 90.0063 145.88 95.0463 145.88C100.026 145.88 104.436 146.9 108.276 148.94C112.116 150.98 115.116 153.92 117.276 157.76C119.436 161.54 120.516 166.01 120.516 171.17ZM102.516 166.76C102.516 164.6 101.796 162.92 100.356 161.72C98.9163 160.46 97.1163 159.83 94.9563 159.83C92.7963 159.83 91.0263 160.43 89.6463 161.63C88.2663 162.77 87.3663 164.48 86.9463 166.76H102.516ZM145.375 130.4V197H127.735V130.4H145.375ZM178.911 197.63C173.871 197.63 169.341 196.58 165.321 194.48C161.361 192.38 158.241 189.38 155.961 185.48C153.681 181.58 152.541 176.99 152.541 171.71C152.541 166.49 153.681 161.93 155.961 158.03C158.301 154.13 161.451 151.13 165.411 149.03C169.431 146.93 173.961 145.88 179.001 145.88C184.041 145.88 188.541 146.93 192.501 149.03C196.521 151.13 199.671 154.13 201.951 158.03C204.291 161.93 205.461 166.49 205.461 171.71C205.461 176.93 204.291 181.52 201.951 185.48C199.671 189.38 196.521 192.38 192.501 194.48C188.481 196.58 183.951 197.63 178.911 197.63ZM178.911 182.33C181.371 182.33 183.411 181.43 185.031 179.63C186.711 177.77 187.551 175.13 187.551 171.71C187.551 168.29 186.711 165.68 185.031 163.88C183.411 162.08 181.401 161.18 179.001 161.18C176.601 161.18 174.591 162.08 172.971 163.88C171.351 165.68 170.541 168.29 170.541 171.71C170.541 175.19 171.321 177.83 172.881 179.63C174.441 181.43 176.451 182.33 178.911 182.33ZM209.758 171.71C209.758 166.49 210.838 161.93 212.998 158.03C215.158 154.13 218.158 151.13 221.998 149.03C225.898 146.93 230.338 145.88 235.318 145.88C241.738 145.88 247.138 147.65 251.518 151.19C255.898 154.67 258.718 159.56 259.978 165.86H241.258C240.178 162.56 238.078 160.91 234.958 160.91C232.738 160.91 230.968 161.84 229.648 163.7C228.388 165.5 227.758 168.17 227.758 171.71C227.758 175.25 228.388 177.95 229.648 179.81C230.968 181.67 232.738 182.6 234.958 182.6C238.138 182.6 240.238 180.95 241.258 177.65H259.978C258.718 183.89 255.898 188.78 251.518 192.32C247.138 195.86 241.738 197.63 235.318 197.63C230.338 197.63 225.898 196.58 221.998 194.48C218.158 192.38 215.158 189.38 212.998 185.48C210.838 181.58 209.758 176.99 209.758 171.71ZM315.546 171.17C315.546 172.55 315.456 173.93 315.276 175.31H281.886C282.066 178.07 282.816 180.14 284.136 181.52C285.516 182.84 287.256 183.5 289.356 183.5C292.296 183.5 294.396 182.18 295.656 179.54H314.466C313.686 183.02 312.156 186.14 309.876 188.9C307.656 191.6 304.836 193.73 301.416 195.29C297.996 196.85 294.216 197.63 290.076 197.63C285.096 197.63 280.656 196.58 276.756 194.48C272.916 192.38 269.886 189.38 267.666 185.48C265.506 181.58 264.426 176.99 264.426 171.71C264.426 166.43 265.506 161.87 267.666 158.03C269.826 154.13 272.826 151.13 276.666 149.03C280.566 146.93 285.036 145.88 290.076 145.88C295.056 145.88 299.466 146.9 303.306 148.94C307.146 150.98 310.146 153.92 312.306 157.76C314.466 161.54 315.546 166.01 315.546 171.17ZM297.546 166.76C297.546 164.6 296.826 162.92 295.386 161.72C293.946 160.46 292.146 159.83 289.986 159.83C287.826 159.83 286.056 160.43 284.676 161.63C283.296 162.77 282.396 164.48 281.976 166.76H297.546ZM341.755 181.88L332.125 208.16H320.965L325.645 181.88H341.755ZM22.68 243.55V307H5.04V243.55H22.68ZM65.7555 256.06C71.5755 256.06 76.1955 258.01 79.6155 261.91C83.0355 265.75 84.7455 270.97 84.7455 277.57V307H67.1055V279.91C67.1055 277.03 66.3555 274.78 64.8555 273.16C63.3555 271.48 61.3455 270.64 58.8255 270.64C56.1855 270.64 54.1155 271.48 52.6155 273.16C51.1155 274.78 50.3655 277.03 50.3655 279.91V307H32.7255V256.51H50.3655V263.71C51.9255 261.43 54.0255 259.6 56.6655 258.22C59.3055 256.78 62.3355 256.06 65.7555 256.06ZM124.215 291.97V307H116.565C103.665 307 97.2148 300.61 97.2148 287.83V271.18H91.0048V256.51H97.2148V244.27H114.945V256.51H124.125V271.18H114.945V288.1C114.945 289.48 115.245 290.47 115.845 291.07C116.505 291.67 117.585 291.97 119.085 291.97H124.215ZM183.966 256.51V307H166.236V299.8C164.736 302.08 162.666 303.94 160.026 305.38C157.386 306.76 154.356 307.45 150.936 307.45C145.056 307.45 140.406 305.53 136.986 301.69C133.626 297.79 131.946 292.51 131.946 285.85V256.51H149.496V283.6C149.496 286.48 150.246 288.76 151.746 290.44C153.306 292.06 155.346 292.87 157.866 292.87C160.446 292.87 162.486 292.06 163.986 290.44C165.486 288.76 166.236 286.48 166.236 283.6V256.51H183.966ZM202.915 251.83C199.795 251.83 197.275 250.99 195.355 249.31C193.495 247.57 192.565 245.41 192.565 242.83C192.565 240.19 193.495 238 195.355 236.26C197.275 234.52 199.795 233.65 202.915 233.65C205.975 233.65 208.435 234.52 210.295 236.26C212.215 238 213.175 240.19 213.175 242.83C213.175 245.41 212.215 247.57 210.295 249.31C208.435 250.99 205.975 251.83 202.915 251.83ZM211.645 256.51V307H194.005V256.51H211.645ZM251.48 291.97V307H243.83C230.93 307 224.48 300.61 224.48 287.83V271.18H218.27V256.51H224.48V244.27H242.21V256.51H251.39V271.18H242.21V288.1C242.21 289.48 242.51 290.47 243.11 291.07C243.77 291.67 244.85 291.97 246.35 291.97H251.48ZM268.481 251.83C265.361 251.83 262.841 250.99 260.921 249.31C259.061 247.57 258.131 245.41 258.131 242.83C258.131 240.19 259.061 238 260.921 236.26C262.841 234.52 265.361 233.65 268.481 233.65C271.541 233.65 274.001 234.52 275.861 236.26C277.781 238 278.741 240.19 278.741 242.83C278.741 245.41 277.781 247.57 275.861 249.31C274.001 250.99 271.541 251.83 268.481 251.83ZM277.211 256.51V307H259.571V256.51H277.211ZM311.467 290.35L320.917 256.51H339.727L322.357 307H300.397L283.027 256.51H301.837L311.467 290.35ZM369.194 307.63C364.154 307.63 359.624 306.58 355.604 304.48C351.644 302.38 348.524 299.38 346.244 295.48C343.964 291.58 342.824 286.99 342.824 281.71C342.824 276.49 343.964 271.93 346.244 268.03C348.584 264.13 351.734 261.13 355.694 259.03C359.714 256.93 364.244 255.88 369.284 255.88C374.324 255.88 378.824 256.93 382.784 259.03C386.804 261.13 389.954 264.13 392.234 268.03C394.574 271.93 395.744 276.49 395.744 281.71C395.744 286.93 394.574 291.52 392.234 295.48C389.954 299.38 386.804 302.38 382.784 304.48C378.764 306.58 374.234 307.63 369.194 307.63ZM369.194 292.33C371.654 292.33 373.694 291.43 375.314 289.63C376.994 287.77 377.834 285.13 377.834 281.71C377.834 278.29 376.994 275.68 375.314 273.88C373.694 272.08 371.684 271.18 369.284 271.18C366.884 271.18 364.874 272.08 363.254 273.88C361.634 275.68 360.824 278.29 360.824 281.71C360.824 285.19 361.604 287.83 363.164 289.63C364.724 291.43 366.734 292.33 369.194 292.33ZM411.471 307.72C408.351 307.72 405.831 306.88 403.911 305.2C402.051 303.46 401.121 301.27 401.121 298.63C401.121 295.99 402.051 293.8 403.911 292.06C405.831 290.32 408.351 289.45 411.471 289.45C414.531 289.45 416.991 290.32 418.851 292.06C420.771 293.8 421.731 295.99 421.731 298.63C421.731 301.21 420.771 303.37 418.851 305.11C416.991 306.85 414.531 307.72 411.471 307.72Z" fill="#111849"/>
</svg>
