<svg width="582" height="432" viewBox="0 0 582 432" fill="none" xmlns="http://www.w3.org/2000/svg">
<mask id="mask0_128_472" style="mask-type:alpha" maskUnits="userSpaceOnUse" x="0" y="56" width="278" height="177">
<path d="M-1.49012e-05 136.504C-1.49012e-05 92.321 35.8172 56.5038 80 56.5038H277.048V152.18C277.048 196.362 241.231 232.18 197.048 232.18H80C35.8172 232.18 -1.49012e-05 196.362 -1.49012e-05 152.18V136.504Z" fill="white"/>
</mask>
<g mask="url(#mask0_128_472)">
<g opacity="0.2" filter="url(#filter0_d_128_472)">
<rect x="488.322" y="350.324" width="1153.04" height="793.109" transform="rotate(180 488.322 350.324)" fill="#0E5ECC"/>
</g>
<path d="M61.44 144.324L52.508 134.6L61.44 124.876H70.9L61.924 134.6L70.9 144.324H61.44ZM75.4224 124.876V117.88H87.6104V150H79.7784V124.876H75.4224ZM134.158 125.184C137.208 125.184 139.628 126.108 141.418 127.956C143.236 129.804 144.146 132.371 144.146 135.656V150H136.666V136.668C136.666 135.084 136.24 133.867 135.39 133.016C134.568 132.136 133.424 131.696 131.958 131.696C130.491 131.696 129.332 132.136 128.482 133.016C127.66 133.867 127.25 135.084 127.25 136.668V150H119.77V136.668C119.77 135.084 119.344 133.867 118.494 133.016C117.672 132.136 116.528 131.696 115.062 131.696C113.595 131.696 112.436 132.136 111.586 133.016C110.764 133.867 110.354 135.084 110.354 136.668V150H102.83V125.448H110.354V128.528C111.116 127.501 112.114 126.695 113.346 126.108C114.578 125.492 115.971 125.184 117.526 125.184C119.374 125.184 121.016 125.58 122.454 126.372C123.92 127.164 125.064 128.293 125.886 129.76C126.736 128.411 127.895 127.311 129.362 126.46C130.828 125.609 132.427 125.184 134.158 125.184ZM153.192 122.896C151.872 122.896 150.786 122.515 149.936 121.752C149.114 120.96 148.704 119.992 148.704 118.848C148.704 117.675 149.114 116.707 149.936 115.944C150.786 115.152 151.872 114.756 153.192 114.756C154.482 114.756 155.538 115.152 156.36 115.944C157.21 116.707 157.636 117.675 157.636 118.848C157.636 119.992 157.21 120.96 156.36 121.752C155.538 122.515 154.482 122.896 153.192 122.896ZM156.932 125.448V150H149.408V125.448H156.932ZM177.344 125.184C180.219 125.184 182.507 126.123 184.208 128C185.939 129.848 186.804 132.4 186.804 135.656V150H179.324V136.668C179.324 135.025 178.899 133.749 178.048 132.84C177.198 131.931 176.054 131.476 174.616 131.476C173.179 131.476 172.035 131.931 171.184 132.84C170.334 133.749 169.908 135.025 169.908 136.668V150H162.384V125.448H169.908V128.704C170.671 127.619 171.698 126.768 172.988 126.152C174.279 125.507 175.731 125.184 177.344 125.184Z" fill="#3029D9"/>
</g>
<path d="M58.2128 173.255V174.743H55.2528V184.375H53.4288V174.743H50.4528V173.255H58.2128ZM68.14 179.751C68.14 180.082 68.1187 180.38 68.076 180.647H61.34C61.3934 181.351 61.6547 181.916 62.124 182.343C62.5934 182.77 63.1694 182.983 63.852 182.983C64.8334 182.983 65.5267 182.572 65.932 181.751H67.9C67.6334 182.562 67.148 183.228 66.444 183.751C65.7507 184.263 64.8867 184.519 63.852 184.519C63.0094 184.519 62.252 184.332 61.58 183.959C60.9187 183.575 60.396 183.042 60.012 182.359C59.6387 181.666 59.452 180.866 59.452 179.959C59.452 179.052 59.6334 178.258 59.996 177.575C60.3694 176.882 60.8867 176.348 61.548 175.975C62.22 175.602 62.988 175.415 63.852 175.415C64.684 175.415 65.4254 175.596 66.076 175.959C66.7267 176.322 67.2334 176.834 67.596 177.495C67.9587 178.146 68.14 178.898 68.14 179.751ZM66.236 179.175C66.2254 178.503 65.9854 177.964 65.516 177.559C65.0467 177.154 64.4654 176.951 63.772 176.951C63.1427 176.951 62.604 177.154 62.156 177.559C61.708 177.954 61.4414 178.492 61.356 179.175H66.236ZM80.607 175.415C81.3004 175.415 81.919 175.559 82.463 175.847C83.0177 176.135 83.4497 176.562 83.759 177.127C84.079 177.692 84.239 178.375 84.239 179.175V184.375H82.431V179.447C82.431 178.658 82.2337 178.055 81.839 177.639C81.4444 177.212 80.9057 176.999 80.223 176.999C79.5404 176.999 78.9964 177.212 78.591 177.639C78.1964 178.055 77.999 178.658 77.999 179.447V184.375H76.191V179.447C76.191 178.658 75.9937 178.055 75.599 177.639C75.2044 177.212 74.6657 176.999 73.983 176.999C73.3004 176.999 72.7564 177.212 72.351 177.639C71.9564 178.055 71.759 178.658 71.759 179.447V184.375H69.935V175.559H71.759V176.567C72.0577 176.204 72.4364 175.922 72.895 175.719C73.3537 175.516 73.8444 175.415 74.367 175.415C75.071 175.415 75.7004 175.564 76.255 175.863C76.8097 176.162 77.2364 176.594 77.535 177.159C77.8017 176.626 78.2177 176.204 78.783 175.895C79.3484 175.575 79.9564 175.415 80.607 175.415ZM88.384 176.855C88.6934 176.45 89.1147 176.108 89.648 175.831C90.1814 175.554 90.784 175.415 91.456 175.415C92.224 175.415 92.9227 175.607 93.552 175.991C94.192 176.364 94.6934 176.892 95.056 177.575C95.4187 178.258 95.6 179.042 95.6 179.927C95.6 180.812 95.4187 181.607 95.056 182.311C94.6934 183.004 94.192 183.548 93.552 183.943C92.9227 184.327 92.224 184.519 91.456 184.519C90.784 184.519 90.1867 184.386 89.664 184.119C89.1414 183.842 88.7147 183.5 88.384 183.095V188.567H86.56V175.559H88.384V176.855ZM93.744 179.927C93.744 179.319 93.616 178.796 93.36 178.359C93.1147 177.911 92.784 177.575 92.368 177.351C91.9627 177.116 91.5254 176.999 91.056 176.999C90.5974 176.999 90.16 177.116 89.744 177.351C89.3387 177.586 89.008 177.927 88.752 178.375C88.5067 178.823 88.384 179.351 88.384 179.959C88.384 180.567 88.5067 181.1 88.752 181.559C89.008 182.007 89.3387 182.348 89.744 182.583C90.16 182.818 90.5974 182.935 91.056 182.935C91.5254 182.935 91.9627 182.818 92.368 182.583C92.784 182.338 93.1147 181.986 93.36 181.527C93.616 181.068 93.744 180.535 93.744 179.927ZM101.228 184.519C100.396 184.519 99.6438 184.332 98.9718 183.959C98.2998 183.575 97.7718 183.042 97.3878 182.359C97.0038 181.666 96.8118 180.866 96.8118 179.959C96.8118 179.063 97.0091 178.268 97.4038 177.575C97.7984 176.882 98.3371 176.348 99.0198 175.975C99.7024 175.602 100.465 175.415 101.308 175.415C102.15 175.415 102.913 175.602 103.596 175.975C104.278 176.348 104.817 176.882 105.212 177.575C105.606 178.268 105.804 179.063 105.804 179.959C105.804 180.855 105.601 181.65 105.196 182.343C104.79 183.036 104.236 183.575 103.532 183.959C102.838 184.332 102.07 184.519 101.228 184.519ZM101.228 182.935C101.697 182.935 102.134 182.823 102.54 182.599C102.956 182.375 103.292 182.039 103.548 181.591C103.804 181.143 103.932 180.599 103.932 179.959C103.932 179.319 103.809 178.78 103.564 178.343C103.318 177.895 102.993 177.559 102.588 177.335C102.182 177.111 101.745 176.999 101.276 176.999C100.806 176.999 100.369 177.111 99.9638 177.335C99.5691 177.559 99.2544 177.895 99.0198 178.343C98.7851 178.78 98.6678 179.319 98.6678 179.959C98.6678 180.908 98.9078 181.644 99.3878 182.167C99.8784 182.679 100.492 182.935 101.228 182.935ZM111.155 179.927C111.155 179.042 111.336 178.258 111.699 177.575C112.072 176.892 112.574 176.364 113.203 175.991C113.843 175.607 114.552 175.415 115.331 175.415C115.907 175.415 116.472 175.543 117.027 175.799C117.592 176.044 118.04 176.375 118.371 176.791V172.535H120.211V184.375H118.371V183.047C118.072 183.474 117.656 183.826 117.123 184.103C116.6 184.38 115.998 184.519 115.315 184.519C114.547 184.519 113.843 184.327 113.203 183.943C112.574 183.548 112.072 183.004 111.699 182.311C111.336 181.607 111.155 180.812 111.155 179.927ZM118.371 179.959C118.371 179.351 118.243 178.823 117.987 178.375C117.742 177.927 117.416 177.586 117.011 177.351C116.606 177.116 116.168 176.999 115.699 176.999C115.23 176.999 114.792 177.116 114.387 177.351C113.982 177.575 113.651 177.911 113.395 178.359C113.15 178.796 113.027 179.319 113.027 179.927C113.027 180.535 113.15 181.068 113.395 181.527C113.651 181.986 113.982 182.338 114.387 182.583C114.803 182.818 115.24 182.935 115.699 182.935C116.168 182.935 116.606 182.818 117.011 182.583C117.416 182.348 117.742 182.007 117.987 181.559C118.243 181.1 118.371 180.567 118.371 179.959ZM123.535 174.391C123.204 174.391 122.927 174.279 122.703 174.055C122.479 173.831 122.367 173.554 122.367 173.223C122.367 172.892 122.479 172.615 122.703 172.391C122.927 172.167 123.204 172.055 123.535 172.055C123.855 172.055 124.127 172.167 124.351 172.391C124.575 172.615 124.687 172.892 124.687 173.223C124.687 173.554 124.575 173.831 124.351 174.055C124.127 174.279 123.855 174.391 123.535 174.391ZM124.431 175.559V184.375H122.607V175.559H124.431ZM130.374 179.927C130.374 179.042 130.555 178.258 130.918 177.575C131.291 176.892 131.793 176.364 132.422 175.991C133.062 175.607 133.766 175.415 134.534 175.415C135.227 175.415 135.83 175.554 136.342 175.831C136.865 176.098 137.281 176.434 137.59 176.839V175.559H139.43V184.375H137.59V183.063C137.281 183.479 136.859 183.826 136.326 184.103C135.793 184.38 135.185 184.519 134.502 184.519C133.745 184.519 133.051 184.327 132.422 183.943C131.793 183.548 131.291 183.004 130.918 182.311C130.555 181.607 130.374 180.812 130.374 179.927ZM137.59 179.959C137.59 179.351 137.462 178.823 137.206 178.375C136.961 177.927 136.635 177.586 136.23 177.351C135.825 177.116 135.387 176.999 134.918 176.999C134.449 176.999 134.011 177.116 133.606 177.351C133.201 177.575 132.87 177.911 132.614 178.359C132.369 178.796 132.246 179.319 132.246 179.927C132.246 180.535 132.369 181.068 132.614 181.527C132.87 181.986 133.201 182.338 133.606 182.583C134.022 182.818 134.459 182.935 134.918 182.935C135.387 182.935 135.825 182.818 136.23 182.583C136.635 182.348 136.961 182.007 137.206 181.559C137.462 181.1 137.59 180.567 137.59 179.959ZM146.274 175.415C146.967 175.415 147.586 175.559 148.13 175.847C148.684 176.135 149.116 176.562 149.426 177.127C149.735 177.692 149.89 178.375 149.89 179.175V184.375H148.082V179.447C148.082 178.658 147.884 178.055 147.49 177.639C147.095 177.212 146.556 176.999 145.874 176.999C145.191 176.999 144.647 177.212 144.242 177.639C143.847 178.055 143.65 178.658 143.65 179.447V184.375H141.826V175.559H143.65V176.567C143.948 176.204 144.327 175.922 144.786 175.719C145.255 175.516 145.751 175.415 146.274 175.415ZM151.608 179.927C151.608 179.042 151.79 178.258 152.152 177.575C152.526 176.892 153.027 176.364 153.656 175.991C154.296 175.607 155 175.415 155.768 175.415C156.462 175.415 157.064 175.554 157.576 175.831C158.099 176.098 158.515 176.434 158.824 176.839V175.559H160.664V184.375H158.824V183.063C158.515 183.479 158.094 183.826 157.56 184.103C157.027 184.38 156.419 184.519 155.736 184.519C154.979 184.519 154.286 184.327 153.656 183.943C153.027 183.548 152.526 183.004 152.152 182.311C151.79 181.607 151.608 180.812 151.608 179.927ZM158.824 179.959C158.824 179.351 158.696 178.823 158.44 178.375C158.195 177.927 157.87 177.586 157.464 177.351C157.059 177.116 156.622 176.999 156.152 176.999C155.683 176.999 155.246 177.116 154.84 177.351C154.435 177.575 154.104 177.911 153.848 178.359C153.603 178.796 153.48 179.319 153.48 179.927C153.48 180.535 153.603 181.068 153.848 181.527C154.104 181.986 154.435 182.338 154.84 182.583C155.256 182.818 155.694 182.935 156.152 182.935C156.622 182.935 157.059 182.818 157.464 182.583C157.87 182.348 158.195 182.007 158.44 181.559C158.696 181.1 158.824 180.567 158.824 179.959ZM164.884 172.535V184.375H163.06V172.535H164.884ZM168.207 174.391C167.876 174.391 167.599 174.279 167.375 174.055C167.151 173.831 167.039 173.554 167.039 173.223C167.039 172.892 167.151 172.615 167.375 172.391C167.599 172.167 167.876 172.055 168.207 172.055C168.527 172.055 168.799 172.167 169.023 172.391C169.247 172.615 169.359 172.892 169.359 173.223C169.359 173.554 169.247 173.831 169.023 174.055C168.799 174.279 168.527 174.391 168.207 174.391ZM169.103 175.559V184.375H167.279V175.559H169.103ZM174.698 184.519C174.004 184.519 173.38 184.396 172.826 184.151C172.282 183.895 171.85 183.554 171.53 183.127C171.21 182.69 171.039 182.204 171.018 181.671H172.906C172.938 182.044 173.114 182.359 173.434 182.615C173.764 182.86 174.175 182.983 174.666 182.983C175.178 182.983 175.572 182.887 175.85 182.695C176.138 182.492 176.282 182.236 176.282 181.927C176.282 181.596 176.122 181.351 175.802 181.191C175.492 181.031 174.996 180.855 174.314 180.663C173.652 180.482 173.114 180.306 172.698 180.135C172.282 179.964 171.919 179.703 171.61 179.351C171.311 178.999 171.162 178.535 171.162 177.959C171.162 177.49 171.3 177.063 171.578 176.679C171.855 176.284 172.25 175.975 172.762 175.751C173.284 175.527 173.882 175.415 174.554 175.415C175.556 175.415 176.362 175.671 176.97 176.183C177.588 176.684 177.919 177.372 177.962 178.247H176.138C176.106 177.852 175.946 177.538 175.658 177.303C175.37 177.068 174.98 176.951 174.49 176.951C174.01 176.951 173.642 177.042 173.386 177.223C173.13 177.404 173.002 177.644 173.002 177.943C173.002 178.178 173.087 178.375 173.258 178.535C173.428 178.695 173.636 178.823 173.882 178.919C174.127 179.004 174.49 179.116 174.97 179.255C175.61 179.426 176.132 179.602 176.538 179.783C176.954 179.954 177.311 180.21 177.61 180.551C177.908 180.892 178.063 181.346 178.074 181.911C178.074 182.412 177.935 182.86 177.658 183.255C177.38 183.65 176.986 183.959 176.474 184.183C175.972 184.407 175.38 184.519 174.698 184.519ZM180.972 174.391C180.642 174.391 180.364 174.279 180.14 174.055C179.916 173.831 179.804 173.554 179.804 173.223C179.804 172.892 179.916 172.615 180.14 172.391C180.364 172.167 180.642 172.055 180.972 172.055C181.292 172.055 181.564 172.167 181.788 172.391C182.012 172.615 182.124 172.892 182.124 173.223C182.124 173.554 182.012 173.831 181.788 174.055C181.564 174.279 181.292 174.391 180.972 174.391ZM181.868 175.559V184.375H180.044V175.559H181.868Z" fill="#3029D9"/>
<mask id="mask1_128_472" style="mask-type:alpha" maskUnits="userSpaceOnUse" x="0" y="255" width="278" height="177">
<path d="M1.56164e-05 335.809C1.56164e-05 291.626 35.8172 255.809 80 255.809H277.048V351.484C277.048 395.667 241.231 431.484 197.048 431.484H80C35.8173 431.484 1.56164e-05 395.667 1.56164e-05 351.484V335.809Z" fill="white"/>
</mask>
<g mask="url(#mask1_128_472)">
<g opacity="0.2" filter="url(#filter1_d_128_472)">
<rect x="488.322" y="549.629" width="1153.04" height="793.109" transform="rotate(180 488.322 549.629)" fill="#0E5ECC"/>
</g>
</g>
<path d="M51.188 317.653V310.657H63.376V342.777H55.544V317.653H51.188ZM68.523 326.277C68.523 321.231 69.491 317.257 71.427 314.353C73.3923 311.449 76.5457 309.997 80.887 309.997C85.2283 309.997 88.367 311.449 90.303 314.353C92.2683 317.257 93.251 321.231 93.251 326.277C93.251 331.381 92.2683 335.385 90.303 338.289C88.367 341.193 85.2283 342.645 80.887 342.645C76.5457 342.645 73.3923 341.193 71.427 338.289C69.491 335.385 68.523 331.381 68.523 326.277ZM85.859 326.277C85.859 323.314 85.5363 321.041 84.891 319.457C84.2457 317.843 82.911 317.037 80.887 317.037C78.863 317.037 77.5283 317.843 76.883 319.457C76.2377 321.041 75.915 323.314 75.915 326.277C75.915 328.271 76.0323 329.929 76.267 331.249C76.5017 332.539 76.971 333.595 77.675 334.417C78.4083 335.209 79.479 335.605 80.887 335.605C82.295 335.605 83.351 335.209 84.055 334.417C84.7883 333.595 85.2723 332.539 85.507 331.249C85.7417 329.929 85.859 328.271 85.859 326.277ZM97.2261 326.277C97.2261 321.231 98.1941 317.257 100.13 314.353C102.095 311.449 105.249 309.997 109.59 309.997C113.931 309.997 117.07 311.449 119.006 314.353C120.971 317.257 121.954 321.231 121.954 326.277C121.954 331.381 120.971 335.385 119.006 338.289C117.07 341.193 113.931 342.645 109.59 342.645C105.249 342.645 102.095 341.193 100.13 338.289C98.1941 335.385 97.2261 331.381 97.2261 326.277ZM114.562 326.277C114.562 323.314 114.239 321.041 113.594 319.457C112.949 317.843 111.614 317.037 109.59 317.037C107.566 317.037 106.231 317.843 105.586 319.457C104.941 321.041 104.618 323.314 104.618 326.277C104.618 328.271 104.735 329.929 104.97 331.249C105.205 332.539 105.674 333.595 106.378 334.417C107.111 335.209 108.182 335.605 109.59 335.605C110.998 335.605 112.054 335.209 112.758 334.417C113.491 333.595 113.975 332.539 114.21 331.249C114.445 329.929 114.562 328.271 114.562 326.277ZM143.441 300.977L131.649 351.005H124.389L136.181 300.977H143.441ZM145.075 317.653V310.657H157.263V342.777H149.431V317.653H145.075ZM162.41 326.277C162.41 321.231 163.378 317.257 165.314 314.353C167.279 311.449 170.432 309.997 174.774 309.997C179.115 309.997 182.254 311.449 184.19 314.353C186.155 317.257 187.138 321.231 187.138 326.277C187.138 331.381 186.155 335.385 184.19 338.289C182.254 341.193 179.115 342.645 174.774 342.645C170.432 342.645 167.279 341.193 165.314 338.289C163.378 335.385 162.41 331.381 162.41 326.277ZM179.746 326.277C179.746 323.314 179.423 321.041 178.778 319.457C178.132 317.843 176.798 317.037 174.774 317.037C172.75 317.037 171.415 317.843 170.77 319.457C170.124 321.041 169.802 323.314 169.802 326.277C169.802 328.271 169.919 329.929 170.154 331.249C170.388 332.539 170.858 333.595 171.562 334.417C172.295 335.209 173.366 335.605 174.774 335.605C176.182 335.605 177.238 335.209 177.942 334.417C178.675 333.595 179.159 332.539 179.394 331.249C179.628 329.929 179.746 328.271 179.746 326.277Z" fill="#3029D9"/>
<path d="M60.784 372.88L56.608 384H54.496L50.304 372.88H52.256L55.552 382.128L58.864 372.88H60.784ZM66.1334 384.144C65.3014 384.144 64.5494 383.957 63.8774 383.584C63.2054 383.2 62.6774 382.667 62.2934 381.984C61.9094 381.291 61.7174 380.491 61.7174 379.584C61.7174 378.688 61.9147 377.893 62.3094 377.2C62.704 376.507 63.2427 375.973 63.9254 375.6C64.608 375.227 65.3707 375.04 66.2134 375.04C67.056 375.04 67.8187 375.227 68.5014 375.6C69.184 375.973 69.7227 376.507 70.1174 377.2C70.512 377.893 70.7094 378.688 70.7094 379.584C70.7094 380.48 70.5067 381.275 70.1014 381.968C69.696 382.661 69.1414 383.2 68.4374 383.584C67.744 383.957 66.976 384.144 66.1334 384.144ZM66.1334 382.56C66.6027 382.56 67.04 382.448 67.4454 382.224C67.8614 382 68.1974 381.664 68.4534 381.216C68.7094 380.768 68.8374 380.224 68.8374 379.584C68.8374 378.944 68.7147 378.405 68.4694 377.968C68.224 377.52 67.8987 377.184 67.4934 376.96C67.088 376.736 66.6507 376.624 66.1814 376.624C65.712 376.624 65.2747 376.736 64.8694 376.96C64.4747 377.184 64.16 377.52 63.9254 377.968C63.6907 378.405 63.5734 378.944 63.5734 379.584C63.5734 380.533 63.8134 381.269 64.2934 381.792C64.784 382.304 65.3974 382.56 66.1334 382.56ZM74.6405 376.672V381.552C74.6405 381.883 74.7152 382.123 74.8645 382.272C75.0245 382.411 75.2912 382.48 75.6645 382.48H76.7845V384H75.3445C74.5232 384 73.8938 383.808 73.4565 383.424C73.0192 383.04 72.8005 382.416 72.8005 381.552V376.672H71.7605V375.184H72.8005V372.992H74.6405V375.184H76.7845V376.672H74.6405ZM82.2896 384.144C81.4576 384.144 80.7056 383.957 80.0336 383.584C79.3616 383.2 78.8336 382.667 78.4496 381.984C78.0656 381.291 77.8736 380.491 77.8736 379.584C77.8736 378.688 78.071 377.893 78.4656 377.2C78.8603 376.507 79.399 375.973 80.0816 375.6C80.7643 375.227 81.527 375.04 82.3696 375.04C83.2123 375.04 83.975 375.227 84.6576 375.6C85.3403 375.973 85.879 376.507 86.2736 377.2C86.6683 377.893 86.8656 378.688 86.8656 379.584C86.8656 380.48 86.663 381.275 86.2576 381.968C85.8523 382.661 85.2976 383.2 84.5936 383.584C83.9003 383.957 83.1323 384.144 82.2896 384.144ZM82.2896 382.56C82.759 382.56 83.1963 382.448 83.6016 382.224C84.0176 382 84.3536 381.664 84.6096 381.216C84.8656 380.768 84.9936 380.224 84.9936 379.584C84.9936 378.944 84.871 378.405 84.6256 377.968C84.3803 377.52 84.055 377.184 83.6496 376.96C83.2443 376.736 82.807 376.624 82.3376 376.624C81.8683 376.624 81.431 376.736 81.0256 376.96C80.631 377.184 80.3163 377.52 80.0816 377.968C79.847 378.405 79.7296 378.944 79.7296 379.584C79.7296 380.533 79.9696 381.269 80.4496 381.792C80.9403 382.304 81.5536 382.56 82.2896 382.56ZM92.217 379.552C92.217 378.667 92.3983 377.883 92.761 377.2C93.1343 376.517 93.6357 375.989 94.265 375.616C94.905 375.232 95.6143 375.04 96.393 375.04C96.969 375.04 97.5343 375.168 98.089 375.424C98.6543 375.669 99.1023 376 99.433 376.416V372.16H101.273V384H99.433V382.672C99.1343 383.099 98.7183 383.451 98.185 383.728C97.6623 384.005 97.0597 384.144 96.377 384.144C95.609 384.144 94.905 383.952 94.265 383.568C93.6357 383.173 93.1343 382.629 92.761 381.936C92.3983 381.232 92.217 380.437 92.217 379.552ZM99.433 379.584C99.433 378.976 99.305 378.448 99.049 378C98.8037 377.552 98.4783 377.211 98.073 376.976C97.6677 376.741 97.2303 376.624 96.761 376.624C96.2917 376.624 95.8543 376.741 95.449 376.976C95.0437 377.2 94.713 377.536 94.457 377.984C94.2117 378.421 94.089 378.944 94.089 379.552C94.089 380.16 94.2117 380.693 94.457 381.152C94.713 381.611 95.0437 381.963 95.449 382.208C95.865 382.443 96.3023 382.56 96.761 382.56C97.2303 382.56 97.6677 382.443 98.073 382.208C98.4783 381.973 98.8037 381.632 99.049 381.184C99.305 380.725 99.433 380.192 99.433 379.584ZM103.061 379.552C103.061 378.667 103.242 377.883 103.605 377.2C103.978 376.517 104.479 375.989 105.109 375.616C105.749 375.232 106.453 375.04 107.221 375.04C107.914 375.04 108.517 375.179 109.029 375.456C109.551 375.723 109.967 376.059 110.277 376.464V375.184H112.117V384H110.277V382.688C109.967 383.104 109.546 383.451 109.013 383.728C108.479 384.005 107.871 384.144 107.189 384.144C106.431 384.144 105.738 383.952 105.109 383.568C104.479 383.173 103.978 382.629 103.605 381.936C103.242 381.232 103.061 380.437 103.061 379.552ZM110.277 379.584C110.277 378.976 110.149 378.448 109.893 378C109.647 377.552 109.322 377.211 108.917 376.976C108.511 376.741 108.074 376.624 107.605 376.624C107.135 376.624 106.698 376.741 106.293 376.976C105.887 377.2 105.557 377.536 105.301 377.984C105.055 378.421 104.933 378.944 104.933 379.552C104.933 380.16 105.055 380.693 105.301 381.152C105.557 381.611 105.887 381.963 106.293 382.208C106.709 382.443 107.146 382.56 107.605 382.56C108.074 382.56 108.511 382.443 108.917 382.208C109.322 381.973 109.647 381.632 109.893 381.184C110.149 380.725 110.277 380.192 110.277 379.584ZM118.065 375.04C118.747 375.04 119.35 375.179 119.873 375.456C120.406 375.723 120.822 376.059 121.121 376.464V375.184H122.961V384.144C122.961 384.955 122.79 385.675 122.449 386.304C122.107 386.944 121.611 387.445 120.961 387.808C120.321 388.171 119.553 388.352 118.657 388.352C117.462 388.352 116.47 388.069 115.681 387.504C114.891 386.949 114.443 386.192 114.337 385.232H116.145C116.283 385.691 116.577 386.059 117.025 386.336C117.483 386.624 118.027 386.768 118.657 386.768C119.393 386.768 119.985 386.544 120.433 386.096C120.891 385.648 121.121 384.997 121.121 384.144V382.672C120.811 383.088 120.39 383.44 119.857 383.728C119.334 384.005 118.737 384.144 118.065 384.144C117.297 384.144 116.593 383.952 115.953 383.568C115.323 383.173 114.822 382.629 114.449 381.936C114.086 381.232 113.905 380.437 113.905 379.552C113.905 378.667 114.086 377.883 114.449 377.2C114.822 376.517 115.323 375.989 115.953 375.616C116.593 375.232 117.297 375.04 118.065 375.04ZM121.121 379.584C121.121 378.976 120.993 378.448 120.737 378C120.491 377.552 120.166 377.211 119.761 376.976C119.355 376.741 118.918 376.624 118.449 376.624C117.979 376.624 117.542 376.741 117.137 376.976C116.731 377.2 116.401 377.536 116.145 377.984C115.899 378.421 115.777 378.944 115.777 379.552C115.777 380.16 115.899 380.693 116.145 381.152C116.401 381.611 116.731 381.963 117.137 382.208C117.553 382.443 117.99 382.56 118.449 382.56C118.918 382.56 119.355 382.443 119.761 382.208C120.166 381.973 120.491 381.632 120.737 381.184C120.993 380.725 121.121 380.192 121.121 379.584ZM127.18 372.16V384H125.356V372.16H127.18ZM130.503 374.016C130.172 374.016 129.895 373.904 129.671 373.68C129.447 373.456 129.335 373.179 129.335 372.848C129.335 372.517 129.447 372.24 129.671 372.016C129.895 371.792 130.172 371.68 130.503 371.68C130.823 371.68 131.095 371.792 131.319 372.016C131.543 372.24 131.655 372.517 131.655 372.848C131.655 373.179 131.543 373.456 131.319 373.68C131.095 373.904 130.823 374.016 130.503 374.016ZM131.399 375.184V384H129.575V375.184H131.399ZM145.934 375.184V384H144.11V382.96C143.822 383.323 143.443 383.611 142.974 383.824C142.515 384.027 142.025 384.128 141.502 384.128C140.809 384.128 140.185 383.984 139.63 383.696C139.086 383.408 138.654 382.981 138.334 382.416C138.025 381.851 137.87 381.168 137.87 380.368V375.184H139.678V380.096C139.678 380.885 139.875 381.493 140.27 381.92C140.665 382.336 141.203 382.544 141.886 382.544C142.569 382.544 143.107 382.336 143.502 381.92C143.907 381.493 144.11 380.885 144.11 380.096V375.184H145.934ZM150.469 376.672V381.552C150.469 381.883 150.543 382.123 150.693 382.272C150.853 382.411 151.119 382.48 151.493 382.48H152.613V384H151.173C150.351 384 149.722 383.808 149.285 383.424C148.847 383.04 148.629 382.416 148.629 381.552V376.672H147.589V375.184H148.629V372.992H150.469V375.184H152.613V376.672H150.469ZM162.374 379.376C162.374 379.707 162.352 380.005 162.31 380.272H155.574C155.627 380.976 155.888 381.541 156.358 381.968C156.827 382.395 157.403 382.608 158.086 382.608C159.067 382.608 159.76 382.197 160.166 381.376H162.134C161.867 382.187 161.382 382.853 160.678 383.376C159.984 383.888 159.12 384.144 158.086 384.144C157.243 384.144 156.486 383.957 155.814 383.584C155.152 383.2 154.63 382.667 154.246 381.984C153.872 381.291 153.686 380.491 153.686 379.584C153.686 378.677 153.867 377.883 154.23 377.2C154.603 376.507 155.12 375.973 155.782 375.6C156.454 375.227 157.222 375.04 158.086 375.04C158.918 375.04 159.659 375.221 160.31 375.584C160.96 375.947 161.467 376.459 161.83 377.12C162.192 377.771 162.374 378.523 162.374 379.376ZM160.47 378.8C160.459 378.128 160.219 377.589 159.75 377.184C159.28 376.779 158.699 376.576 158.006 376.576C157.376 376.576 156.838 376.779 156.39 377.184C155.942 377.579 155.675 378.117 155.59 378.8H160.47ZM168.617 375.04C169.31 375.04 169.929 375.184 170.473 375.472C171.027 375.76 171.459 376.187 171.769 376.752C172.078 377.317 172.233 378 172.233 378.8V384H170.425V379.072C170.425 378.283 170.227 377.68 169.833 377.264C169.438 376.837 168.899 376.624 168.217 376.624C167.534 376.624 166.99 376.837 166.585 377.264C166.19 377.68 165.993 378.283 165.993 379.072V384H164.169V375.184H165.993V376.192C166.291 375.829 166.67 375.547 167.129 375.344C167.598 375.141 168.094 375.04 168.617 375.04ZM176.687 376.672V381.552C176.687 381.883 176.762 382.123 176.911 382.272C177.071 382.411 177.338 382.48 177.711 382.48H178.831V384H177.391C176.57 384 175.941 383.808 175.503 383.424C175.066 383.04 174.847 382.416 174.847 381.552V376.672H173.807V375.184H174.847V372.992H176.687V375.184H178.831V376.672H176.687ZM181.441 374.016C181.11 374.016 180.833 373.904 180.609 373.68C180.385 373.456 180.273 373.179 180.273 372.848C180.273 372.517 180.385 372.24 180.609 372.016C180.833 371.792 181.11 371.68 181.441 371.68C181.761 371.68 182.033 371.792 182.257 372.016C182.481 372.24 182.593 372.517 182.593 372.848C182.593 373.179 182.481 373.456 182.257 373.68C182.033 373.904 181.761 374.016 181.441 374.016ZM182.337 375.184V384H180.513V375.184H182.337Z" fill="#3029D9"/>
<mask id="mask2_128_472" style="mask-type:alpha" maskUnits="userSpaceOnUse" x="304" y="202" width="278" height="177">
<path d="M582 298.062C582 342.245 546.183 378.062 502 378.062L304.952 378.062L304.952 282.387C304.952 238.204 340.769 202.387 384.952 202.387L502 202.387C546.183 202.387 582 238.204 582 282.387L582 298.062Z" fill="white"/>
</mask>
<g mask="url(#mask2_128_472)">
<g opacity="0.2" filter="url(#filter2_d_128_472)">
<rect x="93.6781" y="84.2419" width="1153.04" height="793.109" fill="#0E5ECC" fill-opacity="0.9"/>
</g>
</g>
<path d="M355.969 265.302V258.306H368.157V290.426H360.325V265.302H355.969ZM395.92 264.862H382.192V270.934C382.778 270.288 383.6 269.76 384.656 269.35C385.712 268.939 386.856 268.734 388.088 268.734C390.288 268.734 392.106 269.232 393.544 270.23C395.01 271.227 396.081 272.518 396.756 274.102C397.43 275.686 397.768 277.402 397.768 279.25C397.768 282.682 396.8 285.41 394.864 287.434C392.928 289.428 390.2 290.426 386.68 290.426C384.333 290.426 382.294 290.03 380.564 289.238C378.833 288.416 377.498 287.287 376.56 285.85C375.621 284.412 375.108 282.755 375.02 280.878H382.368C382.544 281.787 382.969 282.55 383.644 283.166C384.318 283.752 385.242 284.046 386.416 284.046C387.794 284.046 388.821 283.606 389.496 282.726C390.17 281.846 390.508 280.672 390.508 279.206C390.508 277.768 390.156 276.668 389.452 275.906C388.748 275.143 387.721 274.762 386.372 274.762C385.374 274.762 384.553 275.011 383.908 275.51C383.262 275.979 382.837 276.61 382.632 277.402H375.372V258.262H395.92V264.862ZM401.921 273.926C401.921 268.88 402.889 264.906 404.825 262.002C406.79 259.098 409.944 257.646 414.285 257.646C418.626 257.646 421.765 259.098 423.701 262.002C425.666 264.906 426.649 268.88 426.649 273.926C426.649 279.03 425.666 283.034 423.701 285.938C421.765 288.842 418.626 290.294 414.285 290.294C409.944 290.294 406.79 288.842 404.825 285.938C402.889 283.034 401.921 279.03 401.921 273.926ZM419.257 273.926C419.257 270.963 418.934 268.69 418.289 267.106C417.644 265.492 416.309 264.686 414.285 264.686C412.261 264.686 410.926 265.492 410.281 267.106C409.636 268.69 409.313 270.963 409.313 273.926C409.313 275.92 409.43 277.578 409.665 278.898C409.9 280.188 410.369 281.244 411.073 282.066C411.806 282.858 412.877 283.254 414.285 283.254C415.693 283.254 416.749 282.858 417.453 282.066C418.186 281.244 418.67 280.188 418.905 278.898C419.14 277.578 419.257 275.92 419.257 273.926ZM453.68 278.414H446.024V286.246H438.896V278.414H431.24V271.682H438.896V263.806H446.024V271.682H453.68V278.414Z" fill="#0E5ECC" fill-opacity="0.9"/>
<path d="M362.904 328.845H358.248L357.448 331.117H355.544L359.528 319.981H361.64L365.624 331.117H363.704L362.904 328.845ZM362.392 327.357L360.584 322.189L358.76 327.357H362.392ZM368.972 329.629H372.972V331.117H366.86V329.629L370.876 323.789H366.86V322.301H372.972V323.789L368.972 329.629ZM375.815 321.133C375.485 321.133 375.207 321.021 374.983 320.797C374.759 320.573 374.647 320.296 374.647 319.965C374.647 319.635 374.759 319.357 374.983 319.133C375.207 318.909 375.485 318.797 375.815 318.797C376.135 318.797 376.407 318.909 376.631 319.133C376.855 319.357 376.967 319.635 376.967 319.965C376.967 320.296 376.855 320.573 376.631 320.797C376.407 321.021 376.135 321.133 375.815 321.133ZM376.711 322.301V331.117H374.887V322.301H376.711ZM387.186 326.493C387.186 326.824 387.165 327.123 387.122 327.389H380.386C380.44 328.093 380.701 328.659 381.17 329.085C381.64 329.512 382.216 329.725 382.898 329.725C383.88 329.725 384.573 329.315 384.978 328.493H386.946C386.68 329.304 386.194 329.971 385.49 330.493C384.797 331.005 383.933 331.261 382.898 331.261C382.056 331.261 381.298 331.075 380.626 330.701C379.965 330.317 379.442 329.784 379.058 329.101C378.685 328.408 378.498 327.608 378.498 326.701C378.498 325.795 378.68 325 379.042 324.317C379.416 323.624 379.933 323.091 380.594 322.717C381.266 322.344 382.034 322.157 382.898 322.157C383.73 322.157 384.472 322.339 385.122 322.701C385.773 323.064 386.28 323.576 386.642 324.237C387.005 324.888 387.186 325.64 387.186 326.493ZM385.282 325.917C385.272 325.245 385.032 324.707 384.562 324.301C384.093 323.896 383.512 323.693 382.818 323.693C382.189 323.693 381.65 323.896 381.202 324.301C380.754 324.696 380.488 325.235 380.402 325.917H385.282ZM393.429 322.157C394.123 322.157 394.741 322.301 395.285 322.589C395.84 322.877 396.272 323.304 396.581 323.869C396.891 324.435 397.045 325.117 397.045 325.917V331.117H395.237V326.189C395.237 325.4 395.04 324.797 394.645 324.381C394.251 323.955 393.712 323.741 393.029 323.741C392.347 323.741 391.803 323.955 391.397 324.381C391.003 324.797 390.805 325.4 390.805 326.189V331.117H388.981V322.301H390.805V323.309C391.104 322.947 391.483 322.664 391.941 322.461C392.411 322.259 392.907 322.157 393.429 322.157ZM398.764 326.669C398.764 325.784 398.945 325 399.308 324.317C399.681 323.635 400.183 323.107 400.812 322.733C401.452 322.349 402.161 322.157 402.94 322.157C403.516 322.157 404.081 322.285 404.636 322.541C405.201 322.787 405.649 323.117 405.98 323.533V319.277H407.82V331.117H405.98V329.789C405.681 330.216 405.265 330.568 404.732 330.845C404.209 331.123 403.607 331.261 402.924 331.261C402.156 331.261 401.452 331.069 400.812 330.685C400.183 330.291 399.681 329.747 399.308 329.053C398.945 328.349 398.764 327.555 398.764 326.669ZM405.98 326.701C405.98 326.093 405.852 325.565 405.596 325.117C405.351 324.669 405.025 324.328 404.62 324.093C404.215 323.859 403.777 323.741 403.308 323.741C402.839 323.741 402.401 323.859 401.996 324.093C401.591 324.317 401.26 324.653 401.004 325.101C400.759 325.539 400.636 326.061 400.636 326.669C400.636 327.277 400.759 327.811 401.004 328.269C401.26 328.728 401.591 329.08 401.996 329.325C402.412 329.56 402.849 329.677 403.308 329.677C403.777 329.677 404.215 329.56 404.62 329.325C405.025 329.091 405.351 328.749 405.596 328.301C405.852 327.843 405.98 327.309 405.98 326.701ZM418.296 326.493C418.296 326.824 418.274 327.123 418.232 327.389H411.496C411.549 328.093 411.81 328.659 412.28 329.085C412.749 329.512 413.325 329.725 414.008 329.725C414.989 329.725 415.682 329.315 416.088 328.493H418.056C417.789 329.304 417.304 329.971 416.6 330.493C415.906 331.005 415.042 331.261 414.008 331.261C413.165 331.261 412.408 331.075 411.736 330.701C411.074 330.317 410.552 329.784 410.168 329.101C409.794 328.408 409.608 327.608 409.608 326.701C409.608 325.795 409.789 325 410.152 324.317C410.525 323.624 411.042 323.091 411.704 322.717C412.376 322.344 413.144 322.157 414.008 322.157C414.84 322.157 415.581 322.339 416.232 322.701C416.882 323.064 417.389 323.576 417.752 324.237C418.114 324.888 418.296 325.64 418.296 326.493ZM416.392 325.917C416.381 325.245 416.141 324.707 415.672 324.301C415.202 323.896 414.621 323.693 413.928 323.693C413.298 323.693 412.76 323.896 412.312 324.301C411.864 324.696 411.597 325.235 411.512 325.917H416.392Z" fill="#0E5ECC" fill-opacity="0.9"/>
<mask id="mask3_128_472" style="mask-type:alpha" maskUnits="userSpaceOnUse" x="304" y="0" width="278" height="176">
<path d="M582 95.6758C582 139.859 546.183 175.676 502 175.676L304.952 175.676L304.952 80C304.952 35.8173 340.769 6.98126e-05 384.952 7.37944e-05L502 8.4343e-05C546.183 8.83248e-05 582 35.8173 582 80.0001L582 95.6758Z" fill="white"/>
</mask>
<g mask="url(#mask3_128_472)">
<g opacity="0.2" filter="url(#filter3_d_128_472)">
<rect x="93.6781" y="-118.145" width="1153.04" height="793.109" fill="#0E5ECC" fill-opacity="0.8"/>
</g>
</g>
<path d="M356.497 87.1478C357.494 86.3558 357.949 85.9892 357.861 86.0478C360.735 83.6718 362.994 81.7212 364.637 80.1958C366.309 78.6705 367.717 77.0718 368.861 75.3998C370.005 73.7278 370.577 72.0998 370.577 70.5158C370.577 69.3132 370.298 68.3745 369.741 67.6998C369.183 67.0252 368.347 66.6878 367.233 66.6878C366.118 66.6878 365.238 67.1132 364.593 67.9638C363.977 68.7852 363.669 69.9585 363.669 71.4838H356.409C356.467 68.9905 356.995 66.9078 357.993 65.2358C359.019 63.5638 360.354 62.3318 361.997 61.5398C363.669 60.7478 365.517 60.3518 367.541 60.3518C371.031 60.3518 373.657 61.2465 375.417 63.0358C377.206 64.8252 378.101 67.1572 378.101 70.0318C378.101 73.1705 377.03 76.0892 374.889 78.7878C372.747 81.4572 370.019 84.0678 366.705 86.6198H378.585V92.7358H356.497V87.1478ZM381.898 76.6758C381.898 71.6305 382.866 67.6558 384.802 64.7518C386.767 61.8478 389.92 60.3958 394.262 60.3958C398.603 60.3958 401.742 61.8478 403.678 64.7518C405.643 67.6558 406.626 71.6305 406.626 76.6758C406.626 81.7798 405.643 85.7838 403.678 88.6878C401.742 91.5918 398.603 93.0438 394.262 93.0438C389.92 93.0438 386.767 91.5918 384.802 88.6878C382.866 85.7838 381.898 81.7798 381.898 76.6758ZM399.234 76.6758C399.234 73.7132 398.911 71.4398 398.266 69.8558C397.62 68.2425 396.286 67.4358 394.262 67.4358C392.238 67.4358 390.903 68.2425 390.258 69.8558C389.612 71.4398 389.29 73.7132 389.29 76.6758C389.29 78.6705 389.407 80.3278 389.642 81.6478C389.876 82.9385 390.346 83.9945 391.05 84.8158C391.783 85.6078 392.854 86.0038 394.262 86.0038C395.67 86.0038 396.726 85.6078 397.43 84.8158C398.163 83.9945 398.647 82.9385 398.882 81.6478C399.116 80.3278 399.234 78.6705 399.234 76.6758ZM433.657 81.1638H426.001V88.9958H418.873V81.1638H411.217V74.4318H418.873V66.5558H426.001V74.4318H433.657V81.1638Z" fill="#0E5ECC" fill-opacity="0.8"/>
<path d="M357.805 110.587V121.707H355.981V110.587H357.805ZM364.648 112.747C365.341 112.747 365.96 112.891 366.504 113.179C367.058 113.467 367.49 113.894 367.8 114.459C368.109 115.024 368.264 115.707 368.264 116.507V121.707H366.456V116.779C366.456 115.99 366.258 115.387 365.864 114.971C365.469 114.544 364.93 114.331 364.248 114.331C363.565 114.331 363.021 114.544 362.616 114.971C362.221 115.387 362.024 115.99 362.024 116.779V121.707H360.2V112.891H362.024V113.899C362.322 113.536 362.701 113.254 363.16 113.051C363.629 112.848 364.125 112.747 364.648 112.747ZM369.982 117.259C369.982 116.374 370.164 115.59 370.526 114.907C370.9 114.224 371.401 113.696 372.03 113.323C372.67 112.939 373.38 112.747 374.158 112.747C374.734 112.747 375.3 112.875 375.854 113.131C376.42 113.376 376.868 113.707 377.198 114.123V109.867H379.038V121.707H377.198V120.379C376.9 120.806 376.484 121.158 375.95 121.435C375.428 121.712 374.825 121.851 374.142 121.851C373.374 121.851 372.67 121.659 372.03 121.275C371.401 120.88 370.9 120.336 370.526 119.643C370.164 118.939 369.982 118.144 369.982 117.259ZM377.198 117.291C377.198 116.683 377.07 116.155 376.814 115.707C376.569 115.259 376.244 114.918 375.838 114.683C375.433 114.448 374.996 114.331 374.526 114.331C374.057 114.331 373.62 114.448 373.214 114.683C372.809 114.907 372.478 115.243 372.222 115.691C371.977 116.128 371.854 116.651 371.854 117.259C371.854 117.867 371.977 118.4 372.222 118.859C372.478 119.318 372.809 119.67 373.214 119.915C373.63 120.15 374.068 120.267 374.526 120.267C374.996 120.267 375.433 120.15 375.838 119.915C376.244 119.68 376.569 119.339 376.814 118.891C377.07 118.432 377.198 117.899 377.198 117.291ZM382.362 111.723C382.031 111.723 381.754 111.611 381.53 111.387C381.306 111.163 381.194 110.886 381.194 110.555C381.194 110.224 381.306 109.947 381.53 109.723C381.754 109.499 382.031 109.387 382.362 109.387C382.682 109.387 382.954 109.499 383.178 109.723C383.402 109.947 383.514 110.224 383.514 110.555C383.514 110.886 383.402 111.163 383.178 111.387C382.954 111.611 382.682 111.723 382.362 111.723ZM383.258 112.891V121.707H381.434V112.891H383.258ZM385.045 117.291C385.045 116.384 385.226 115.59 385.589 114.907C385.962 114.214 386.474 113.68 387.125 113.307C387.775 112.934 388.522 112.747 389.365 112.747C390.431 112.747 391.311 113.003 392.005 113.515C392.709 114.016 393.183 114.736 393.429 115.675H391.461C391.301 115.238 391.045 114.896 390.693 114.651C390.341 114.406 389.898 114.283 389.365 114.283C388.618 114.283 388.021 114.55 387.573 115.083C387.135 115.606 386.917 116.342 386.917 117.291C386.917 118.24 387.135 118.982 387.573 119.515C388.021 120.048 388.618 120.315 389.365 120.315C390.421 120.315 391.119 119.851 391.461 118.923H393.429C393.173 119.819 392.693 120.534 391.989 121.067C391.285 121.59 390.41 121.851 389.365 121.851C388.522 121.851 387.775 121.664 387.125 121.291C386.474 120.907 385.962 120.374 385.589 119.691C385.226 118.998 385.045 118.198 385.045 117.291ZM396.174 111.723C395.844 111.723 395.566 111.611 395.342 111.387C395.118 111.163 395.006 110.886 395.006 110.555C395.006 110.224 395.118 109.947 395.342 109.723C395.566 109.499 395.844 109.387 396.174 109.387C396.494 109.387 396.766 109.499 396.99 109.723C397.214 109.947 397.326 110.224 397.326 110.555C397.326 110.886 397.214 111.163 396.99 111.387C396.766 111.611 396.494 111.723 396.174 111.723ZM397.07 112.891V121.707H395.246V112.891H397.07ZM411.605 112.891V121.707H409.781V120.667C409.493 121.03 409.115 121.318 408.645 121.531C408.187 121.734 407.696 121.835 407.173 121.835C406.48 121.835 405.856 121.691 405.301 121.403C404.757 121.115 404.325 120.688 404.005 120.123C403.696 119.558 403.541 118.875 403.541 118.075V112.891H405.349V117.803C405.349 118.592 405.547 119.2 405.941 119.627C406.336 120.043 406.875 120.251 407.557 120.251C408.24 120.251 408.779 120.043 409.173 119.627C409.579 119.2 409.781 118.592 409.781 117.803V112.891H411.605ZM416.14 114.379V119.259C416.14 119.59 416.215 119.83 416.364 119.979C416.524 120.118 416.791 120.187 417.164 120.187H418.284V121.707H416.844C416.023 121.707 415.393 121.515 414.956 121.131C414.519 120.747 414.3 120.123 414.3 119.259V114.379H413.26V112.891H414.3V110.699H416.14V112.891H418.284V114.379H416.14ZM420.893 111.723C420.563 111.723 420.285 111.611 420.061 111.387C419.837 111.163 419.725 110.886 419.725 110.555C419.725 110.224 419.837 109.947 420.061 109.723C420.285 109.499 420.563 109.387 420.893 109.387C421.213 109.387 421.485 109.499 421.709 109.723C421.933 109.947 422.045 110.224 422.045 110.555C422.045 110.886 421.933 111.163 421.709 111.387C421.485 111.611 421.213 111.723 420.893 111.723ZM421.789 112.891V121.707H419.965V112.891H421.789ZM426.008 109.867V121.707H424.184V109.867H426.008ZM429.331 111.723C429 111.723 428.723 111.611 428.499 111.387C428.275 111.163 428.163 110.886 428.163 110.555C428.163 110.224 428.275 109.947 428.499 109.723C428.723 109.499 429 109.387 429.331 109.387C429.651 109.387 429.923 109.499 430.147 109.723C430.371 109.947 430.483 110.224 430.483 110.555C430.483 110.886 430.371 111.163 430.147 111.387C429.923 111.611 429.651 111.723 429.331 111.723ZM430.227 112.891V121.707H428.403V112.891H430.227ZM434.237 120.219H438.237V121.707H432.125V120.219L436.141 114.379H432.125V112.891H438.237V114.379L434.237 120.219ZM441.769 120.219H445.769V121.707H439.657V120.219L443.673 114.379H439.657V112.891H445.769V114.379L441.769 120.219ZM447.076 117.259C447.076 116.374 447.257 115.59 447.62 114.907C447.993 114.224 448.495 113.696 449.124 113.323C449.764 112.939 450.468 112.747 451.236 112.747C451.929 112.747 452.532 112.886 453.044 113.163C453.567 113.43 453.983 113.766 454.292 114.171V112.891H456.132V121.707H454.292V120.395C453.983 120.811 453.561 121.158 453.028 121.435C452.495 121.712 451.887 121.851 451.204 121.851C450.447 121.851 449.753 121.659 449.124 121.275C448.495 120.88 447.993 120.336 447.62 119.643C447.257 118.939 447.076 118.144 447.076 117.259ZM454.292 117.291C454.292 116.683 454.164 116.155 453.908 115.707C453.663 115.259 453.337 114.918 452.932 114.683C452.527 114.448 452.089 114.331 451.62 114.331C451.151 114.331 450.713 114.448 450.308 114.683C449.903 114.907 449.572 115.243 449.316 115.691C449.071 116.128 448.948 116.651 448.948 117.259C448.948 117.867 449.071 118.4 449.316 118.859C449.572 119.318 449.903 119.67 450.308 119.915C450.724 120.15 451.161 120.267 451.62 120.267C452.089 120.267 452.527 120.15 452.932 119.915C453.337 119.68 453.663 119.339 453.908 118.891C454.164 118.432 454.292 117.899 454.292 117.291ZM460.656 114.379V119.259C460.656 119.59 460.73 119.83 460.88 119.979C461.04 120.118 461.306 120.187 461.68 120.187H462.8V121.707H461.36C460.538 121.707 459.909 121.515 459.472 121.131C459.034 120.747 458.816 120.123 458.816 119.259V114.379H457.776V112.891H458.816V110.699H460.656V112.891H462.8V114.379H460.656ZM465.409 111.723C465.078 111.723 464.801 111.611 464.577 111.387C464.353 111.163 464.241 110.886 464.241 110.555C464.241 110.224 464.353 109.947 464.577 109.723C464.801 109.499 465.078 109.387 465.409 109.387C465.729 109.387 466.001 109.499 466.225 109.723C466.449 109.947 466.561 110.224 466.561 110.555C466.561 110.886 466.449 111.163 466.225 111.387C466.001 111.611 465.729 111.723 465.409 111.723ZM466.305 112.891V121.707H464.481V112.891H466.305Z" fill="#0E5ECC" fill-opacity="0.8"/>
<rect x="0.5" y="0.5" width="581" height="430.484" stroke="black"/>
<defs>
<filter id="filter0_d_128_472" x="-714.716" y="-482.785" width="1253.04" height="893.109" filterUnits="userSpaceOnUse" color-interpolation-filters="sRGB">
<feFlood flood-opacity="0" result="BackgroundImageFix"/>
<feColorMatrix in="SourceAlpha" type="matrix" values="0 0 0 0 0 0 0 0 0 0 0 0 0 0 0 0 0 0 127 0" result="hardAlpha"/>
<feOffset dy="10"/>
<feGaussianBlur stdDeviation="25"/>
<feColorMatrix type="matrix" values="0 0 0 0 0.188235 0 0 0 0 0.160784 0 0 0 0 0.85098 0 0 0 0.3 0"/>
<feBlend mode="normal" in2="BackgroundImageFix" result="effect1_dropShadow_128_472"/>
<feBlend mode="normal" in="SourceGraphic" in2="effect1_dropShadow_128_472" result="shape"/>
</filter>
<filter id="filter1_d_128_472" x="-714.716" y="-283.48" width="1253.04" height="893.109" filterUnits="userSpaceOnUse" color-interpolation-filters="sRGB">
<feFlood flood-opacity="0" result="BackgroundImageFix"/>
<feColorMatrix in="SourceAlpha" type="matrix" values="0 0 0 0 0 0 0 0 0 0 0 0 0 0 0 0 0 0 127 0" result="hardAlpha"/>
<feOffset dy="10"/>
<feGaussianBlur stdDeviation="25"/>
<feColorMatrix type="matrix" values="0 0 0 0 0.188235 0 0 0 0 0.160784 0 0 0 0 0.85098 0 0 0 0.3 0"/>
<feBlend mode="normal" in2="BackgroundImageFix" result="effect1_dropShadow_128_472"/>
<feBlend mode="normal" in="SourceGraphic" in2="effect1_dropShadow_128_472" result="shape"/>
</filter>
<filter id="filter2_d_128_472" x="43.6781" y="44.2419" width="1253.04" height="893.109" filterUnits="userSpaceOnUse" color-interpolation-filters="sRGB">
<feFlood flood-opacity="0" result="BackgroundImageFix"/>
<feColorMatrix in="SourceAlpha" type="matrix" values="0 0 0 0 0 0 0 0 0 0 0 0 0 0 0 0 0 0 127 0" result="hardAlpha"/>
<feOffset dy="10"/>
<feGaussianBlur stdDeviation="25"/>
<feColorMatrix type="matrix" values="0 0 0 0 0.188235 0 0 0 0 0.160784 0 0 0 0 0.85098 0 0 0 0.3 0"/>
<feBlend mode="normal" in2="BackgroundImageFix" result="effect1_dropShadow_128_472"/>
<feBlend mode="normal" in="SourceGraphic" in2="effect1_dropShadow_128_472" result="shape"/>
</filter>
<filter id="filter3_d_128_472" x="43.6781" y="-158.145" width="1253.04" height="893.109" filterUnits="userSpaceOnUse" color-interpolation-filters="sRGB">
<feFlood flood-opacity="0" result="BackgroundImageFix"/>
<feColorMatrix in="SourceAlpha" type="matrix" values="0 0 0 0 0 0 0 0 0 0 0 0 0 0 0 0 0 0 127 0" result="hardAlpha"/>
<feOffset dy="10"/>
<feGaussianBlur stdDeviation="25"/>
<feColorMatrix type="matrix" values="0 0 0 0 0.188235 0 0 0 0 0.160784 0 0 0 0 0.85098 0 0 0 0.3 0"/>
<feBlend mode="normal" in2="BackgroundImageFix" result="effect1_dropShadow_128_472"/>
<feBlend mode="normal" in="SourceGraphic" in2="effect1_dropShadow_128_472" result="shape"/>
</filter>
</defs>
</svg>
