<svg width="716" height="604" viewBox="0 0 716 604" fill="none" xmlns="http://www.w3.org/2000/svg">
<g filter="url(#filter0_d_23_235)">
<rect x="66" y="50" width="256.431" height="229.457" rx="8" fill="white"/>
</g>
<path d="M140.531 181.768V185.056H136.067V198.616H131.963V185.056H127.499V181.768H140.531ZM155.215 191.704C155.215 192.088 155.191 192.488 155.143 192.904H145.855C145.919 193.736 146.183 194.376 146.647 194.824C147.127 195.256 147.711 195.472 148.399 195.472C149.423 195.472 150.135 195.04 150.535 194.176H154.903C154.679 195.056 154.271 195.848 153.679 196.552C153.103 197.256 152.375 197.808 151.495 198.208C150.615 198.608 149.631 198.808 148.543 198.808C147.231 198.808 146.063 198.528 145.039 197.968C144.015 197.408 143.215 196.608 142.639 195.568C142.063 194.528 141.775 193.312 141.775 191.92C141.775 190.528 142.055 189.312 142.615 188.272C143.191 187.232 143.991 186.432 145.015 185.872C146.039 185.312 147.215 185.032 148.543 185.032C149.839 185.032 150.991 185.304 151.999 185.848C153.007 186.392 153.791 187.168 154.351 188.176C154.927 189.184 155.215 190.36 155.215 191.704ZM151.015 190.624C151.015 189.92 150.775 189.36 150.295 188.944C149.815 188.528 149.215 188.32 148.495 188.32C147.807 188.32 147.223 188.52 146.743 188.92C146.279 189.32 145.991 189.888 145.879 190.624H151.015ZM156.564 191.92C156.564 190.528 156.844 189.312 157.404 188.272C157.98 187.232 158.772 186.432 159.78 185.872C160.804 185.312 161.972 185.032 163.284 185.032C164.964 185.032 166.364 185.472 167.484 186.352C168.62 187.232 169.364 188.472 169.716 190.072H165.348C164.98 189.048 164.268 188.536 163.212 188.536C162.46 188.536 161.86 188.832 161.412 189.424C160.964 190 160.74 190.832 160.74 191.92C160.74 193.008 160.964 193.848 161.412 194.44C161.86 195.016 162.46 195.304 163.212 195.304C164.268 195.304 164.98 194.792 165.348 193.768H169.716C169.364 195.336 168.62 196.568 167.484 197.464C166.348 198.36 164.948 198.808 163.284 198.808C161.972 198.808 160.804 198.528 159.78 197.968C158.772 197.408 157.98 196.608 157.404 195.568C156.844 194.528 156.564 193.312 156.564 191.92ZM180.071 185.08C181.639 185.08 182.887 185.592 183.815 186.616C184.759 187.624 185.231 189.016 185.231 190.792V198.616H181.151V191.344C181.151 190.448 180.919 189.752 180.455 189.256C179.991 188.76 179.367 188.512 178.583 188.512C177.799 188.512 177.175 188.76 176.711 189.256C176.247 189.752 176.015 190.448 176.015 191.344V198.616H171.911V185.224H176.015V187C176.431 186.408 176.991 185.944 177.695 185.608C178.399 185.256 179.191 185.08 180.071 185.08ZM194.179 198.808C192.867 198.808 191.683 198.528 190.627 197.968C189.587 197.408 188.763 196.608 188.155 195.568C187.563 194.528 187.267 193.312 187.267 191.92C187.267 190.544 187.571 189.336 188.179 188.296C188.787 187.24 189.619 186.432 190.675 185.872C191.731 185.312 192.915 185.032 194.227 185.032C195.539 185.032 196.723 185.312 197.779 185.872C198.835 186.432 199.667 187.24 200.275 188.296C200.883 189.336 201.187 190.544 201.187 191.92C201.187 193.296 200.875 194.512 200.251 195.568C199.643 196.608 198.803 197.408 197.731 197.968C196.675 198.528 195.491 198.808 194.179 198.808ZM194.179 195.256C194.963 195.256 195.627 194.968 196.171 194.392C196.731 193.816 197.011 192.992 197.011 191.92C197.011 190.848 196.739 190.024 196.195 189.448C195.667 188.872 195.011 188.584 194.227 188.584C193.427 188.584 192.763 188.872 192.235 189.448C191.707 190.008 191.443 190.832 191.443 191.92C191.443 192.992 191.699 193.816 192.211 194.392C192.739 194.968 193.395 195.256 194.179 195.256ZM207.468 180.856V198.616H203.364V180.856H207.468ZM216.538 198.808C215.226 198.808 214.042 198.528 212.986 197.968C211.946 197.408 211.122 196.608 210.514 195.568C209.922 194.528 209.626 193.312 209.626 191.92C209.626 190.544 209.93 189.336 210.538 188.296C211.146 187.24 211.978 186.432 213.034 185.872C214.09 185.312 215.274 185.032 216.586 185.032C217.898 185.032 219.082 185.312 220.138 185.872C221.194 186.432 222.026 187.24 222.634 188.296C223.242 189.336 223.546 190.544 223.546 191.92C223.546 193.296 223.234 194.512 222.61 195.568C222.002 196.608 221.162 197.408 220.09 197.968C219.034 198.528 217.85 198.808 216.538 198.808ZM216.538 195.256C217.322 195.256 217.986 194.968 218.53 194.392C219.09 193.816 219.37 192.992 219.37 191.92C219.37 190.848 219.098 190.024 218.554 189.448C218.026 188.872 217.37 188.584 216.586 188.584C215.786 188.584 215.122 188.872 214.594 189.448C214.066 190.008 213.802 190.832 213.802 191.92C213.802 192.992 214.058 193.816 214.57 194.392C215.098 194.968 215.754 195.256 216.538 195.256ZM230.812 185.032C231.756 185.032 232.58 185.224 233.284 185.608C234.004 185.992 234.556 186.496 234.94 187.12V185.224H239.044V198.592C239.044 199.824 238.796 200.936 238.3 201.928C237.82 202.936 237.076 203.736 236.068 204.328C235.076 204.92 233.836 205.216 232.348 205.216C230.364 205.216 228.756 204.744 227.524 203.8C226.292 202.872 225.588 201.608 225.412 200.008H229.468C229.596 200.52 229.9 200.92 230.38 201.208C230.86 201.512 231.452 201.664 232.156 201.664C233.004 201.664 233.676 201.416 234.172 200.92C234.684 200.44 234.94 199.664 234.94 198.592V196.696C234.54 197.32 233.988 197.832 233.284 198.232C232.58 198.616 231.756 198.808 230.812 198.808C229.708 198.808 228.708 198.528 227.812 197.968C226.916 197.392 226.204 196.584 225.676 195.544C225.164 194.488 224.908 193.272 224.908 191.896C224.908 190.52 225.164 189.312 225.676 188.272C226.204 187.232 226.916 186.432 227.812 185.872C228.708 185.312 229.708 185.032 230.812 185.032ZM234.94 191.92C234.94 190.896 234.652 190.088 234.076 189.496C233.516 188.904 232.828 188.608 232.012 188.608C231.196 188.608 230.5 188.904 229.924 189.496C229.364 190.072 229.084 190.872 229.084 191.896C229.084 192.92 229.364 193.736 229.924 194.344C230.5 194.936 231.196 195.232 232.012 195.232C232.828 195.232 233.516 194.936 234.076 194.344C234.652 193.752 234.94 192.944 234.94 191.92ZM244.077 183.832C243.357 183.832 242.765 183.624 242.301 183.208C241.853 182.776 241.629 182.248 241.629 181.624C241.629 180.984 241.853 180.456 242.301 180.04C242.765 179.608 243.357 179.392 244.077 179.392C244.781 179.392 245.357 179.608 245.805 180.04C246.269 180.456 246.501 180.984 246.501 181.624C246.501 182.248 246.269 182.776 245.805 183.208C245.357 183.624 244.781 183.832 244.077 183.832ZM246.117 185.224V198.616H242.013V185.224H246.117ZM261.715 191.704C261.715 192.088 261.691 192.488 261.643 192.904H252.355C252.419 193.736 252.683 194.376 253.147 194.824C253.627 195.256 254.211 195.472 254.899 195.472C255.923 195.472 256.635 195.04 257.035 194.176H261.403C261.179 195.056 260.771 195.848 260.179 196.552C259.603 197.256 258.875 197.808 257.995 198.208C257.115 198.608 256.131 198.808 255.043 198.808C253.731 198.808 252.563 198.528 251.539 197.968C250.515 197.408 249.715 196.608 249.139 195.568C248.563 194.528 248.275 193.312 248.275 191.92C248.275 190.528 248.555 189.312 249.115 188.272C249.691 187.232 250.491 186.432 251.515 185.872C252.539 185.312 253.715 185.032 255.043 185.032C256.339 185.032 257.491 185.304 258.499 185.848C259.507 186.392 260.291 187.168 260.851 188.176C261.427 189.184 261.715 190.36 261.715 191.704ZM257.515 190.624C257.515 189.92 257.275 189.36 256.795 188.944C256.315 188.528 255.715 188.32 254.995 188.32C254.307 188.32 253.723 188.52 253.243 188.92C252.779 189.32 252.491 189.888 252.379 190.624H257.515ZM131.881 217.832C131.161 217.832 130.569 217.624 130.105 217.208C129.657 216.776 129.433 216.248 129.433 215.624C129.433 214.984 129.657 214.456 130.105 214.04C130.569 213.608 131.161 213.392 131.881 213.392C132.585 213.392 133.161 213.608 133.609 214.04C134.073 214.456 134.305 214.984 134.305 215.624C134.305 216.248 134.073 216.776 133.609 217.208C133.161 217.624 132.585 217.832 131.881 217.832ZM133.921 219.224V232.616H129.817V219.224H133.921ZM145.056 219.08C146.624 219.08 147.872 219.592 148.8 220.616C149.744 221.624 150.216 223.016 150.216 224.792V232.616H146.136V225.344C146.136 224.448 145.904 223.752 145.44 223.256C144.976 222.76 144.352 222.512 143.568 222.512C142.784 222.512 142.16 222.76 141.696 223.256C141.232 223.752 141 224.448 141 225.344V232.616H136.896V219.224H141V221C141.416 220.408 141.976 219.944 142.68 219.608C143.384 219.256 144.176 219.08 145.056 219.08ZM161.227 219.08C162.795 219.08 164.043 219.592 164.971 220.616C165.915 221.624 166.387 223.016 166.387 224.792V232.616H162.307V225.344C162.307 224.448 162.075 223.752 161.611 223.256C161.147 222.76 160.523 222.512 159.739 222.512C158.955 222.512 158.331 222.76 157.867 223.256C157.403 223.752 157.171 224.448 157.171 225.344V232.616H153.067V219.224H157.171V221C157.587 220.408 158.147 219.944 158.851 219.608C159.555 219.256 160.347 219.08 161.227 219.08ZM175.335 232.808C174.023 232.808 172.839 232.528 171.783 231.968C170.743 231.408 169.919 230.608 169.311 229.568C168.719 228.528 168.423 227.312 168.423 225.92C168.423 224.544 168.727 223.336 169.335 222.296C169.943 221.24 170.775 220.432 171.831 219.872C172.887 219.312 174.071 219.032 175.383 219.032C176.695 219.032 177.879 219.312 178.935 219.872C179.991 220.432 180.823 221.24 181.431 222.296C182.039 223.336 182.343 224.544 182.343 225.92C182.343 227.296 182.031 228.512 181.407 229.568C180.799 230.608 179.959 231.408 178.887 231.968C177.831 232.528 176.647 232.808 175.335 232.808ZM175.335 229.256C176.119 229.256 176.783 228.968 177.327 228.392C177.887 227.816 178.167 226.992 178.167 225.92C178.167 224.848 177.895 224.024 177.351 223.448C176.823 222.872 176.167 222.584 175.383 222.584C174.583 222.584 173.919 222.872 173.391 223.448C172.863 224.008 172.599 224.832 172.599 225.92C172.599 226.992 172.855 227.816 173.367 228.392C173.895 228.968 174.551 229.256 175.335 229.256ZM190.545 228.776L193.449 219.224H197.817L193.065 232.616H188.001L183.249 219.224H187.641L190.545 228.776ZM198.728 225.896C198.728 224.52 198.984 223.312 199.496 222.272C200.024 221.232 200.736 220.432 201.632 219.872C202.528 219.312 203.528 219.032 204.632 219.032C205.576 219.032 206.4 219.224 207.104 219.608C207.824 219.992 208.376 220.496 208.76 221.12V219.224H212.864V232.616H208.76V230.72C208.36 231.344 207.8 231.848 207.08 232.232C206.376 232.616 205.552 232.808 204.608 232.808C203.52 232.808 202.528 232.528 201.632 231.968C200.736 231.392 200.024 230.584 199.496 229.544C198.984 228.488 198.728 227.272 198.728 225.896ZM208.76 225.92C208.76 224.896 208.472 224.088 207.896 223.496C207.336 222.904 206.648 222.608 205.832 222.608C205.016 222.608 204.32 222.904 203.744 223.496C203.184 224.072 202.904 224.872 202.904 225.896C202.904 226.92 203.184 227.736 203.744 228.344C204.32 228.936 205.016 229.232 205.832 229.232C206.648 229.232 207.336 228.936 207.896 228.344C208.472 227.752 208.76 226.944 208.76 225.92ZM223.297 229.136V232.616H221.209C219.721 232.616 218.561 232.256 217.729 231.536C216.897 230.8 216.481 229.608 216.481 227.96V222.632H214.849V219.224H216.481V215.96H220.585V219.224H223.273V222.632H220.585V228.008C220.585 228.408 220.681 228.696 220.873 228.872C221.065 229.048 221.385 229.136 221.833 229.136H223.297ZM227.647 217.832C226.927 217.832 226.335 217.624 225.871 217.208C225.423 216.776 225.199 216.248 225.199 215.624C225.199 214.984 225.423 214.456 225.871 214.04C226.335 213.608 226.927 213.392 227.647 213.392C228.351 213.392 228.927 213.608 229.375 214.04C229.839 214.456 230.071 214.984 230.071 215.624C230.071 216.248 229.839 216.776 229.375 217.208C228.927 217.624 228.351 217.832 227.647 217.832ZM229.687 219.224V232.616H225.583V219.224H229.687ZM238.685 228.776L241.589 219.224H245.957L241.205 232.616H236.141L231.389 219.224H235.781L238.685 228.776ZM260.309 225.704C260.309 226.088 260.285 226.488 260.237 226.904H250.949C251.013 227.736 251.277 228.376 251.741 228.824C252.221 229.256 252.805 229.472 253.493 229.472C254.517 229.472 255.229 229.04 255.629 228.176H259.997C259.773 229.056 259.365 229.848 258.773 230.552C258.197 231.256 257.469 231.808 256.589 232.208C255.709 232.608 254.725 232.808 253.637 232.808C252.325 232.808 251.157 232.528 250.133 231.968C249.109 231.408 248.309 230.608 247.733 229.568C247.157 228.528 246.869 227.312 246.869 225.92C246.869 224.528 247.149 223.312 247.709 222.272C248.285 221.232 249.085 220.432 250.109 219.872C251.133 219.312 252.309 219.032 253.637 219.032C254.933 219.032 256.085 219.304 257.093 219.848C258.101 220.392 258.885 221.168 259.445 222.176C260.021 223.184 260.309 224.36 260.309 225.704ZM256.109 224.624C256.109 223.92 255.869 223.36 255.389 222.944C254.909 222.528 254.309 222.32 253.589 222.32C252.901 222.32 252.317 222.52 251.837 222.92C251.373 223.32 251.085 223.888 250.973 224.624H256.109Z" fill="#0B1131"/>
<g filter="url(#filter1_d_23_235)">
<path d="M226.048 129.987C226.048 113.923 213.026 100.901 196.962 100.901H194.215C176.635 100.901 162.383 115.153 162.383 132.733V159.073H196.962C213.026 159.073 226.048 146.051 226.048 129.987Z" fill="#0E5ECC"/>
</g>
<path d="M188.642 130.494V136.546" stroke="white" stroke-width="4" stroke-linecap="round" stroke-linejoin="round"/>
<path d="M192.021 133.52H185.263" stroke="white" stroke-width="4" stroke-linecap="round" stroke-linejoin="round"/>
<path d="M200.168 130.678H199.979" stroke="white" stroke-width="4" stroke-linecap="round" stroke-linejoin="round"/>
<path d="M203.375 136.455H203.186" stroke="white" stroke-width="4" stroke-linecap="round" stroke-linejoin="round"/>
<path opacity="0.4" d="M187.269 113.828C187.269 115.024 188.352 115.994 189.688 115.994H191.557C193.618 116.001 195.288 117.496 195.297 119.342V120.433" stroke="white" stroke-width="4" stroke-linecap="round" stroke-linejoin="round"/>
<path fill-rule="evenodd" clip-rule="evenodd" d="M202.047 146.085C196.732 146.168 191.515 146.164 186.386 146.085C180.693 146.085 176.531 142.375 176.531 137.277V129.763C176.531 124.665 180.693 120.955 186.386 120.955C191.543 120.874 196.764 120.876 202.047 120.955C207.74 120.955 211.9 124.667 211.9 129.763V137.277C211.9 142.375 207.74 146.085 202.047 146.085Z" stroke="white" stroke-width="4" stroke-linecap="round" stroke-linejoin="round"/>
<g filter="url(#filter2_d_23_235)">
<rect x="359.569" y="206.742" width="256.431" height="229.457" rx="8" fill="white"/>
</g>
<path d="M425.998 347.291C425.998 348.267 425.774 349.163 425.326 349.979C424.878 350.779 424.19 351.427 423.262 351.923C422.334 352.419 421.182 352.667 419.806 352.667H417.262V358.715H413.158V341.867H419.806C421.15 341.867 422.286 342.099 423.214 342.563C424.142 343.027 424.838 343.667 425.302 344.483C425.766 345.299 425.998 346.235 425.998 347.291ZM419.494 349.403C420.278 349.403 420.862 349.219 421.246 348.851C421.63 348.483 421.822 347.963 421.822 347.291C421.822 346.619 421.63 346.099 421.246 345.731C420.862 345.363 420.278 345.179 419.494 345.179H417.262V349.403H419.494ZM432.238 347.555C432.718 346.819 433.318 346.243 434.038 345.827C434.758 345.395 435.558 345.179 436.438 345.179V349.523H435.31C434.286 349.523 433.518 349.747 433.006 350.195C432.494 350.627 432.238 351.395 432.238 352.499V358.715H428.134V345.323H432.238V347.555ZM444.496 358.907C443.184 358.907 442 358.627 440.944 358.067C439.904 357.507 439.08 356.707 438.472 355.667C437.88 354.627 437.584 353.411 437.584 352.019C437.584 350.643 437.888 349.435 438.496 348.395C439.104 347.339 439.936 346.531 440.992 345.971C442.048 345.411 443.232 345.131 444.544 345.131C445.856 345.131 447.04 345.411 448.096 345.971C449.152 346.531 449.984 347.339 450.592 348.395C451.2 349.435 451.504 350.643 451.504 352.019C451.504 353.395 451.192 354.611 450.568 355.667C449.96 356.707 449.12 357.507 448.048 358.067C446.992 358.627 445.808 358.907 444.496 358.907ZM444.496 355.355C445.28 355.355 445.944 355.067 446.488 354.491C447.048 353.915 447.328 353.091 447.328 352.019C447.328 350.947 447.056 350.123 446.512 349.547C445.984 348.971 445.328 348.683 444.544 348.683C443.744 348.683 443.08 348.971 442.552 349.547C442.024 350.107 441.76 350.931 441.76 352.019C441.76 353.091 442.016 353.915 442.528 354.491C443.056 355.067 443.712 355.355 444.496 355.355ZM460.401 348.731H458.193V358.715H454.089V348.731H452.601V345.323H454.089V344.939C454.089 343.291 454.561 342.043 455.505 341.195C456.449 340.331 457.833 339.899 459.657 339.899C459.961 339.899 460.185 339.907 460.329 339.923V343.403C459.545 343.355 458.993 343.467 458.673 343.739C458.353 344.011 458.193 344.499 458.193 345.203V345.323H460.401V348.731ZM474.954 351.803C474.954 352.187 474.93 352.587 474.882 353.003H465.594C465.658 353.835 465.922 354.475 466.386 354.923C466.866 355.355 467.45 355.571 468.138 355.571C469.162 355.571 469.874 355.139 470.274 354.275H474.642C474.418 355.155 474.01 355.947 473.418 356.651C472.842 357.355 472.114 357.907 471.234 358.307C470.354 358.707 469.37 358.907 468.282 358.907C466.97 358.907 465.802 358.627 464.778 358.067C463.754 357.507 462.954 356.707 462.378 355.667C461.802 354.627 461.514 353.411 461.514 352.019C461.514 350.627 461.794 349.411 462.354 348.371C462.93 347.331 463.73 346.531 464.754 345.971C465.778 345.411 466.954 345.131 468.282 345.131C469.578 345.131 470.73 345.403 471.738 345.947C472.746 346.491 473.53 347.267 474.09 348.275C474.666 349.283 474.954 350.459 474.954 351.803ZM470.754 350.723C470.754 350.019 470.514 349.459 470.034 349.043C469.554 348.627 468.954 348.419 468.234 348.419C467.546 348.419 466.962 348.619 466.482 349.019C466.018 349.419 465.73 349.987 465.618 350.723H470.754ZM482.567 358.907C481.399 358.907 480.359 358.707 479.447 358.307C478.535 357.907 477.815 357.363 477.287 356.675C476.759 355.971 476.463 355.187 476.399 354.323H480.455C480.503 354.787 480.719 355.163 481.103 355.451C481.487 355.739 481.959 355.883 482.519 355.883C483.031 355.883 483.423 355.787 483.695 355.595C483.983 355.387 484.127 355.123 484.127 354.803C484.127 354.419 483.927 354.139 483.527 353.963C483.127 353.771 482.479 353.563 481.583 353.339C480.623 353.115 479.823 352.883 479.183 352.643C478.543 352.387 477.991 351.995 477.527 351.467C477.063 350.923 476.831 350.195 476.831 349.283C476.831 348.515 477.039 347.819 477.455 347.195C477.887 346.555 478.511 346.051 479.327 345.683C480.159 345.315 481.143 345.131 482.279 345.131C483.959 345.131 485.279 345.547 486.239 346.379C487.215 347.211 487.775 348.315 487.919 349.691H484.127C484.063 349.227 483.855 348.859 483.503 348.587C483.167 348.315 482.719 348.179 482.159 348.179C481.679 348.179 481.311 348.275 481.055 348.467C480.799 348.643 480.671 348.891 480.671 349.211C480.671 349.595 480.871 349.883 481.271 350.075C481.687 350.267 482.327 350.459 483.191 350.651C484.183 350.907 484.991 351.163 485.615 351.419C486.239 351.659 486.783 352.059 487.247 352.619C487.727 353.163 487.975 353.899 487.991 354.827C487.991 355.611 487.767 356.315 487.319 356.939C486.887 357.547 486.255 358.027 485.423 358.379C484.607 358.731 483.655 358.907 482.567 358.907ZM495.95 358.907C494.782 358.907 493.742 358.707 492.83 358.307C491.918 357.907 491.198 357.363 490.67 356.675C490.142 355.971 489.846 355.187 489.782 354.323H493.838C493.886 354.787 494.102 355.163 494.486 355.451C494.87 355.739 495.342 355.883 495.902 355.883C496.414 355.883 496.806 355.787 497.078 355.595C497.366 355.387 497.51 355.123 497.51 354.803C497.51 354.419 497.31 354.139 496.91 353.963C496.51 353.771 495.862 353.563 494.966 353.339C494.006 353.115 493.206 352.883 492.566 352.643C491.926 352.387 491.374 351.995 490.91 351.467C490.446 350.923 490.214 350.195 490.214 349.283C490.214 348.515 490.422 347.819 490.838 347.195C491.27 346.555 491.894 346.051 492.71 345.683C493.542 345.315 494.526 345.131 495.662 345.131C497.342 345.131 498.662 345.547 499.622 346.379C500.598 347.211 501.158 348.315 501.302 349.691H497.51C497.446 349.227 497.238 348.859 496.886 348.587C496.55 348.315 496.102 348.179 495.542 348.179C495.062 348.179 494.694 348.275 494.438 348.467C494.182 348.643 494.054 348.891 494.054 349.211C494.054 349.595 494.254 349.883 494.654 350.075C495.07 350.267 495.71 350.459 496.574 350.651C497.566 350.907 498.374 351.163 498.998 351.419C499.622 351.659 500.166 352.059 500.63 352.619C501.11 353.163 501.358 353.899 501.374 354.827C501.374 355.611 501.15 356.315 500.702 356.939C500.27 357.547 499.638 358.027 498.806 358.379C497.99 358.731 497.038 358.907 495.95 358.907ZM505.948 343.931C505.228 343.931 504.636 343.723 504.172 343.307C503.724 342.875 503.5 342.347 503.5 341.723C503.5 341.083 503.724 340.555 504.172 340.139C504.636 339.707 505.228 339.491 505.948 339.491C506.652 339.491 507.228 339.707 507.676 340.139C508.14 340.555 508.372 341.083 508.372 341.723C508.372 342.347 508.14 342.875 507.676 343.307C507.228 343.723 506.652 343.931 505.948 343.931ZM507.988 345.323V358.715H503.884V345.323H507.988ZM517.059 358.907C515.747 358.907 514.563 358.627 513.507 358.067C512.467 357.507 511.643 356.707 511.035 355.667C510.443 354.627 510.147 353.411 510.147 352.019C510.147 350.643 510.451 349.435 511.059 348.395C511.667 347.339 512.499 346.531 513.555 345.971C514.611 345.411 515.795 345.131 517.107 345.131C518.419 345.131 519.603 345.411 520.659 345.971C521.715 346.531 522.547 347.339 523.155 348.395C523.763 349.435 524.067 350.643 524.067 352.019C524.067 353.395 523.755 354.611 523.131 355.667C522.523 356.707 521.683 357.507 520.611 358.067C519.555 358.627 518.371 358.907 517.059 358.907ZM517.059 355.355C517.843 355.355 518.507 355.067 519.051 354.491C519.611 353.915 519.891 353.091 519.891 352.019C519.891 350.947 519.619 350.123 519.075 349.547C518.547 348.971 517.891 348.683 517.107 348.683C516.307 348.683 515.643 348.971 515.115 349.547C514.587 350.107 514.323 350.931 514.323 352.019C514.323 353.091 514.579 353.915 515.091 354.491C515.619 355.067 516.275 355.355 517.059 355.355ZM534.404 345.179C535.972 345.179 537.22 345.691 538.148 346.715C539.092 347.723 539.564 349.115 539.564 350.891V358.715H535.484V351.443C535.484 350.547 535.252 349.851 534.788 349.355C534.324 348.859 533.7 348.611 532.916 348.611C532.132 348.611 531.508 348.859 531.044 349.355C530.58 349.851 530.348 350.547 530.348 351.443V358.715H526.244V345.323H530.348V347.099C530.764 346.507 531.324 346.043 532.028 345.707C532.732 345.355 533.524 345.179 534.404 345.179ZM541.6 351.995C541.6 350.619 541.856 349.411 542.368 348.371C542.896 347.331 543.608 346.531 544.504 345.971C545.4 345.411 546.4 345.131 547.504 345.131C548.448 345.131 549.272 345.323 549.976 345.707C550.696 346.091 551.248 346.595 551.632 347.219V345.323H555.736V358.715H551.632V356.819C551.232 357.443 550.672 357.947 549.952 358.331C549.248 358.715 548.424 358.907 547.48 358.907C546.392 358.907 545.4 358.627 544.504 358.067C543.608 357.491 542.896 356.683 542.368 355.643C541.856 354.587 541.6 353.371 541.6 351.995ZM551.632 352.019C551.632 350.995 551.344 350.187 550.768 349.595C550.208 349.003 549.52 348.707 548.704 348.707C547.888 348.707 547.192 349.003 546.616 349.595C546.056 350.171 545.776 350.971 545.776 351.995C545.776 353.019 546.056 353.835 546.616 354.443C547.192 355.035 547.888 355.331 548.704 355.331C549.52 355.331 550.208 355.035 550.768 354.443C551.344 353.851 551.632 353.043 551.632 352.019ZM562.809 340.955V358.715H558.705V340.955H562.809ZM466.258 375.867V379.155H461.794V392.715H457.69V379.155H453.226V375.867H466.258ZM480.942 385.803C480.942 386.187 480.918 386.587 480.87 387.003H471.582C471.646 387.835 471.91 388.475 472.374 388.923C472.854 389.355 473.438 389.571 474.126 389.571C475.15 389.571 475.862 389.139 476.262 388.275H480.63C480.406 389.155 479.998 389.947 479.406 390.651C478.83 391.355 478.102 391.907 477.222 392.307C476.342 392.707 475.358 392.907 474.27 392.907C472.958 392.907 471.79 392.627 470.766 392.067C469.742 391.507 468.942 390.707 468.366 389.667C467.79 388.627 467.502 387.411 467.502 386.019C467.502 384.627 467.782 383.411 468.342 382.371C468.918 381.331 469.718 380.531 470.742 379.971C471.766 379.411 472.942 379.131 474.27 379.131C475.566 379.131 476.718 379.403 477.726 379.947C478.734 380.491 479.518 381.267 480.078 382.275C480.654 383.283 480.942 384.459 480.942 385.803ZM476.742 384.723C476.742 384.019 476.502 383.459 476.022 383.043C475.542 382.627 474.942 382.419 474.222 382.419C473.534 382.419 472.95 382.619 472.47 383.019C472.006 383.419 471.718 383.987 471.606 384.723H476.742ZM482.291 385.995C482.291 384.619 482.547 383.411 483.059 382.371C483.587 381.331 484.299 380.531 485.195 379.971C486.091 379.411 487.091 379.131 488.195 379.131C489.139 379.131 489.963 379.323 490.667 379.707C491.387 380.091 491.939 380.595 492.323 381.219V379.323H496.427V392.715H492.323V390.819C491.923 391.443 491.363 391.947 490.643 392.331C489.939 392.715 489.115 392.907 488.171 392.907C487.083 392.907 486.091 392.627 485.195 392.067C484.299 391.491 483.587 390.683 483.059 389.643C482.547 388.587 482.291 387.371 482.291 385.995ZM492.323 386.019C492.323 384.995 492.035 384.187 491.459 383.595C490.899 383.003 490.211 382.707 489.395 382.707C488.579 382.707 487.883 383.003 487.307 383.595C486.747 384.171 486.467 384.971 486.467 385.995C486.467 387.019 486.747 387.835 487.307 388.443C487.883 389.035 488.579 389.331 489.395 389.331C490.211 389.331 490.899 389.035 491.459 388.443C492.035 387.851 492.323 387.043 492.323 386.019ZM516.484 379.179C518.148 379.179 519.468 379.683 520.444 380.691C521.436 381.699 521.932 383.099 521.932 384.891V392.715H517.852V385.443C517.852 384.579 517.62 383.915 517.156 383.451C516.708 382.971 516.084 382.731 515.284 382.731C514.484 382.731 513.852 382.971 513.388 383.451C512.94 383.915 512.716 384.579 512.716 385.443V392.715H508.636V385.443C508.636 384.579 508.404 383.915 507.94 383.451C507.492 382.971 506.868 382.731 506.068 382.731C505.268 382.731 504.636 382.971 504.172 383.451C503.724 383.915 503.5 384.579 503.5 385.443V392.715H499.396V379.323H503.5V381.003C503.916 380.443 504.46 380.003 505.132 379.683C505.804 379.347 506.564 379.179 507.412 379.179C508.42 379.179 509.316 379.395 510.1 379.827C510.9 380.259 511.524 380.875 511.972 381.675C512.436 380.939 513.068 380.339 513.868 379.875C514.668 379.411 515.54 379.179 516.484 379.179Z" fill="#0B1131"/>
<g filter="url(#filter3_d_23_235)">
<path d="M519.373 290.086C519.373 274.022 506.351 261 490.287 261H487.54C469.959 261 455.707 275.252 455.707 292.833V319.172H490.287C506.351 319.172 519.373 306.15 519.373 290.086Z" fill="#0E5ECC" fill-opacity="0.8"/>
</g>
<path opacity="0.4" d="M497.288 288.594C500.051 288.594 502.293 286.548 502.293 284.023C502.293 281.498 500.051 279.451 497.288 279.451" stroke="white" stroke-width="4" stroke-linecap="round" stroke-linejoin="round"/>
<path d="M499.589 293.562C500.414 293.614 501.234 293.721 502.042 293.887C503.164 294.088 504.515 294.508 504.995 295.428C505.302 296.018 505.302 296.704 504.995 297.295C504.516 298.215 503.164 298.634 502.042 298.844" stroke="white" stroke-width="4" stroke-linecap="round" stroke-linejoin="round"/>
<path opacity="0.4" d="M477.792 288.594C475.029 288.594 472.787 286.548 472.787 284.023C472.787 281.498 475.029 279.451 477.792 279.451" stroke="white" stroke-width="4" stroke-linecap="round" stroke-linejoin="round"/>
<path d="M475.491 293.562C474.666 293.614 473.846 293.721 473.038 293.887C471.915 294.088 470.565 294.508 470.086 295.428C469.778 296.018 469.778 296.704 470.086 297.295C470.564 298.215 471.915 298.634 473.038 298.844" stroke="white" stroke-width="4" stroke-linecap="round" stroke-linejoin="round"/>
<path fill-rule="evenodd" clip-rule="evenodd" d="M487.532 294.547C493.131 294.547 497.915 295.321 497.915 298.419C497.915 301.516 493.163 302.319 487.532 302.319C481.931 302.319 477.149 301.545 477.149 298.447C477.149 295.348 481.901 294.547 487.532 294.547Z" stroke="white" stroke-width="4" stroke-linecap="round" stroke-linejoin="round"/>
<path opacity="0.4" fill-rule="evenodd" clip-rule="evenodd" d="M487.532 290.128C483.839 290.128 480.878 287.422 480.878 284.047C480.878 280.672 483.839 277.967 487.532 277.967C491.225 277.967 494.186 280.672 494.186 284.047C494.186 287.422 491.225 290.128 487.532 290.128Z" stroke="white" stroke-width="4" stroke-linecap="round" stroke-linejoin="round"/>
<g filter="url(#filter4_d_23_235)">
<rect x="66" y="308.543" width="256.431" height="229.457" rx="8" fill="white"/>
</g>
<path d="M104.494 461.168C103.262 461.168 102.158 460.968 101.182 460.568C100.206 460.168 99.4222 459.576 98.8302 458.792C98.2542 458.008 97.9502 457.064 97.9182 455.96H102.286C102.35 456.584 102.566 457.064 102.934 457.4C103.302 457.72 103.782 457.88 104.374 457.88C104.982 457.88 105.462 457.744 105.814 457.472C106.166 457.184 106.342 456.792 106.342 456.296C106.342 455.88 106.198 455.536 105.91 455.264C105.638 454.992 105.294 454.768 104.878 454.592C104.478 454.416 103.902 454.216 103.15 453.992C102.062 453.656 101.174 453.32 100.486 452.984C99.7982 452.648 99.2062 452.152 98.7102 451.496C98.2142 450.84 97.9662 449.984 97.9662 448.928C97.9662 447.36 98.5342 446.136 99.6702 445.256C100.806 444.36 102.286 443.912 104.11 443.912C105.966 443.912 107.462 444.36 108.598 445.256C109.734 446.136 110.342 447.368 110.422 448.952H105.982C105.95 448.408 105.75 447.984 105.382 447.68C105.014 447.36 104.542 447.2 103.966 447.2C103.47 447.2 103.07 447.336 102.766 447.608C102.462 447.864 102.31 448.24 102.31 448.736C102.31 449.28 102.566 449.704 103.078 450.008C103.59 450.312 104.39 450.64 105.478 450.992C106.566 451.36 107.446 451.712 108.118 452.048C108.806 452.384 109.398 452.872 109.894 453.512C110.39 454.152 110.638 454.976 110.638 455.984C110.638 456.944 110.39 457.816 109.894 458.6C109.414 459.384 108.71 460.008 107.782 460.472C106.854 460.936 105.758 461.168 104.494 461.168ZM125.788 454.088C125.788 454.472 125.764 454.872 125.716 455.288H116.428C116.492 456.12 116.756 456.76 117.22 457.208C117.7 457.64 118.284 457.856 118.972 457.856C119.996 457.856 120.708 457.424 121.108 456.56H125.476C125.252 457.44 124.844 458.232 124.252 458.936C123.676 459.64 122.948 460.192 122.068 460.592C121.188 460.992 120.204 461.192 119.116 461.192C117.804 461.192 116.636 460.912 115.612 460.352C114.588 459.792 113.788 458.992 113.212 457.952C112.636 456.912 112.348 455.696 112.348 454.304C112.348 452.912 112.628 451.696 113.188 450.656C113.764 449.616 114.564 448.816 115.588 448.256C116.612 447.696 117.788 447.416 119.116 447.416C120.412 447.416 121.564 447.688 122.572 448.232C123.58 448.776 124.364 449.552 124.924 450.56C125.5 451.568 125.788 452.744 125.788 454.088ZM121.588 453.008C121.588 452.304 121.348 451.744 120.868 451.328C120.388 450.912 119.788 450.704 119.068 450.704C118.38 450.704 117.796 450.904 117.316 451.304C116.852 451.704 116.564 452.272 116.452 453.008H121.588ZM145.041 447.464C146.705 447.464 148.025 447.968 149.001 448.976C149.993 449.984 150.489 451.384 150.489 453.176V461H146.409V453.728C146.409 452.864 146.177 452.2 145.713 451.736C145.265 451.256 144.641 451.016 143.841 451.016C143.041 451.016 142.409 451.256 141.945 451.736C141.497 452.2 141.273 452.864 141.273 453.728V461H137.193V453.728C137.193 452.864 136.961 452.2 136.497 451.736C136.049 451.256 135.425 451.016 134.625 451.016C133.825 451.016 133.193 451.256 132.729 451.736C132.281 452.2 132.057 452.864 132.057 453.728V461H127.953V447.608H132.057V449.288C132.473 448.728 133.017 448.288 133.689 447.968C134.361 447.632 135.121 447.464 135.969 447.464C136.977 447.464 137.873 447.68 138.657 448.112C139.457 448.544 140.081 449.16 140.529 449.96C140.993 449.224 141.625 448.624 142.425 448.16C143.225 447.696 144.097 447.464 145.041 447.464ZM157.463 449.504C157.863 448.88 158.415 448.376 159.119 447.992C159.823 447.608 160.647 447.416 161.591 447.416C162.695 447.416 163.695 447.696 164.591 448.256C165.487 448.816 166.191 449.616 166.703 450.656C167.231 451.696 167.495 452.904 167.495 454.28C167.495 455.656 167.231 456.872 166.703 457.928C166.191 458.968 165.487 459.776 164.591 460.352C163.695 460.912 162.695 461.192 161.591 461.192C160.663 461.192 159.839 461 159.119 460.616C158.415 460.232 157.863 459.736 157.463 459.128V467.384H153.359V447.608H157.463V449.504ZM163.319 454.28C163.319 453.256 163.031 452.456 162.455 451.88C161.895 451.288 161.199 450.992 160.367 450.992C159.551 450.992 158.855 451.288 158.279 451.88C157.719 452.472 157.439 453.28 157.439 454.304C157.439 455.328 157.719 456.136 158.279 456.728C158.855 457.32 159.551 457.616 160.367 457.616C161.183 457.616 161.879 457.32 162.455 456.728C163.031 456.12 163.319 455.304 163.319 454.28ZM173.752 443.24V461H169.648V443.24H173.752ZM178.79 446.216C178.07 446.216 177.478 446.008 177.014 445.592C176.566 445.16 176.342 444.632 176.342 444.008C176.342 443.368 176.566 442.84 177.014 442.424C177.478 441.992 178.07 441.776 178.79 441.776C179.494 441.776 180.07 441.992 180.518 442.424C180.982 442.84 181.214 443.368 181.214 444.008C181.214 444.632 180.982 445.16 180.518 445.592C180.07 446.008 179.494 446.216 178.79 446.216ZM180.83 447.608V461H176.726V447.608H180.83ZM190.524 451.016H188.316V461H184.212V451.016H182.724V447.608H184.212V447.224C184.212 445.576 184.684 444.328 185.628 443.48C186.572 442.616 187.956 442.184 189.78 442.184C190.084 442.184 190.308 442.192 190.452 442.208V445.688C189.668 445.64 189.116 445.752 188.796 446.024C188.476 446.296 188.316 446.784 188.316 447.488V447.608H190.524V451.016ZM194.517 446.216C193.797 446.216 193.205 446.008 192.741 445.592C192.293 445.16 192.069 444.632 192.069 444.008C192.069 443.368 192.293 442.84 192.741 442.424C193.205 441.992 193.797 441.776 194.517 441.776C195.221 441.776 195.797 441.992 196.245 442.424C196.709 442.84 196.941 443.368 196.941 444.008C196.941 444.632 196.709 445.16 196.245 445.592C195.797 446.008 195.221 446.216 194.517 446.216ZM196.557 447.608V461H192.453V447.608H196.557ZM198.715 454.304C198.715 452.912 198.995 451.696 199.555 450.656C200.131 449.616 200.923 448.816 201.931 448.256C202.955 447.696 204.123 447.416 205.435 447.416C207.115 447.416 208.515 447.856 209.635 448.736C210.771 449.616 211.515 450.856 211.867 452.456H207.499C207.131 451.432 206.419 450.92 205.363 450.92C204.611 450.92 204.011 451.216 203.563 451.808C203.115 452.384 202.891 453.216 202.891 454.304C202.891 455.392 203.115 456.232 203.563 456.824C204.011 457.4 204.611 457.688 205.363 457.688C206.419 457.688 207.131 457.176 207.499 456.152H211.867C211.515 457.72 210.771 458.952 209.635 459.848C208.499 460.744 207.099 461.192 205.435 461.192C204.123 461.192 202.955 460.912 201.931 460.352C200.923 459.792 200.131 458.992 199.555 457.952C198.995 456.912 198.715 455.696 198.715 454.304ZM213.246 454.28C213.246 452.904 213.502 451.696 214.014 450.656C214.542 449.616 215.254 448.816 216.15 448.256C217.046 447.696 218.046 447.416 219.15 447.416C220.094 447.416 220.918 447.608 221.622 447.992C222.342 448.376 222.894 448.88 223.278 449.504V447.608H227.382V461H223.278V459.104C222.878 459.728 222.318 460.232 221.598 460.616C220.894 461 220.07 461.192 219.126 461.192C218.038 461.192 217.046 460.912 216.15 460.352C215.254 459.776 214.542 458.968 214.014 457.928C213.502 456.872 213.246 455.656 213.246 454.28ZM223.278 454.304C223.278 453.28 222.99 452.472 222.414 451.88C221.854 451.288 221.166 450.992 220.35 450.992C219.534 450.992 218.838 451.288 218.262 451.88C217.702 452.456 217.422 453.256 217.422 454.28C217.422 455.304 217.702 456.12 218.262 456.728C218.838 457.32 219.534 457.616 220.35 457.616C221.166 457.616 221.854 457.32 222.414 456.728C222.99 456.136 223.278 455.328 223.278 454.304ZM234.191 457.616H239.999V461H229.607V457.736L235.175 450.992H229.655V447.608H239.879V450.872L234.191 457.616ZM244.322 446.216C243.602 446.216 243.01 446.008 242.546 445.592C242.098 445.16 241.874 444.632 241.874 444.008C241.874 443.368 242.098 442.84 242.546 442.424C243.01 441.992 243.602 441.776 244.322 441.776C245.026 441.776 245.602 441.992 246.05 442.424C246.514 442.84 246.746 443.368 246.746 444.008C246.746 444.632 246.514 445.16 246.05 445.592C245.602 446.008 245.026 446.216 244.322 446.216ZM246.362 447.608V461H242.258V447.608H246.362ZM255.432 461.192C254.12 461.192 252.936 460.912 251.88 460.352C250.84 459.792 250.016 458.992 249.408 457.952C248.816 456.912 248.52 455.696 248.52 454.304C248.52 452.928 248.824 451.72 249.432 450.68C250.04 449.624 250.872 448.816 251.928 448.256C252.984 447.696 254.168 447.416 255.48 447.416C256.792 447.416 257.976 447.696 259.032 448.256C260.088 448.816 260.92 449.624 261.528 450.68C262.136 451.72 262.44 452.928 262.44 454.304C262.44 455.68 262.128 456.896 261.504 457.952C260.896 458.992 260.056 459.792 258.984 460.352C257.928 460.912 256.744 461.192 255.432 461.192ZM255.432 457.64C256.216 457.64 256.88 457.352 257.424 456.776C257.984 456.2 258.264 455.376 258.264 454.304C258.264 453.232 257.992 452.408 257.448 451.832C256.92 451.256 256.264 450.968 255.48 450.968C254.68 450.968 254.016 451.256 253.488 451.832C252.96 452.392 252.696 453.216 252.696 454.304C252.696 455.376 252.952 456.2 253.464 456.776C253.992 457.352 254.648 457.64 255.432 457.64ZM272.777 447.464C274.345 447.464 275.593 447.976 276.521 449C277.465 450.008 277.937 451.4 277.937 453.176V461H273.857V453.728C273.857 452.832 273.625 452.136 273.161 451.64C272.697 451.144 272.073 450.896 271.289 450.896C270.505 450.896 269.881 451.144 269.417 451.64C268.953 452.136 268.721 452.832 268.721 453.728V461H264.617V447.608H268.721V449.384C269.137 448.792 269.697 448.328 270.401 447.992C271.105 447.64 271.897 447.464 272.777 447.464ZM293.413 454.088C293.413 454.472 293.389 454.872 293.341 455.288H284.053C284.117 456.12 284.381 456.76 284.845 457.208C285.325 457.64 285.909 457.856 286.597 457.856C287.621 457.856 288.333 457.424 288.733 456.56H293.101C292.877 457.44 292.469 458.232 291.877 458.936C291.301 459.64 290.573 460.192 289.693 460.592C288.813 460.992 287.829 461.192 286.741 461.192C285.429 461.192 284.261 460.912 283.237 460.352C282.213 459.792 281.413 458.992 280.837 457.952C280.261 456.912 279.973 455.696 279.973 454.304C279.973 452.912 280.253 451.696 280.813 450.656C281.389 449.616 282.189 448.816 283.213 448.256C284.237 447.696 285.413 447.416 286.741 447.416C288.037 447.416 289.189 447.688 290.197 448.232C291.205 448.776 291.989 449.552 292.549 450.56C293.125 451.568 293.413 452.744 293.413 454.088ZM289.213 453.008C289.213 452.304 288.973 451.744 288.493 451.328C288.013 450.912 287.413 450.704 286.693 450.704C286.005 450.704 285.421 450.904 284.941 451.304C284.477 451.704 284.189 452.272 284.077 453.008H289.213ZM116.59 488.28C116.59 486.904 116.846 485.696 117.358 484.656C117.886 483.616 118.598 482.816 119.494 482.256C120.39 481.696 121.39 481.416 122.494 481.416C123.374 481.416 124.174 481.6 124.894 481.968C125.63 482.336 126.206 482.832 126.622 483.456V477.24H130.726V495H126.622V493.08C126.238 493.72 125.686 494.232 124.966 494.616C124.262 495 123.438 495.192 122.494 495.192C121.39 495.192 120.39 494.912 119.494 494.352C118.598 493.776 117.886 492.968 117.358 491.928C116.846 490.872 116.59 489.656 116.59 488.28ZM126.622 488.304C126.622 487.28 126.334 486.472 125.758 485.88C125.198 485.288 124.51 484.992 123.694 484.992C122.878 484.992 122.182 485.288 121.606 485.88C121.046 486.456 120.766 487.256 120.766 488.28C120.766 489.304 121.046 490.12 121.606 490.728C122.182 491.32 122.878 491.616 123.694 491.616C124.51 491.616 125.198 491.32 125.758 490.728C126.334 490.136 126.622 489.328 126.622 488.304ZM146.319 488.088C146.319 488.472 146.295 488.872 146.247 489.288H136.959C137.023 490.12 137.287 490.76 137.751 491.208C138.231 491.64 138.815 491.856 139.503 491.856C140.527 491.856 141.239 491.424 141.639 490.56H146.007C145.783 491.44 145.375 492.232 144.783 492.936C144.207 493.64 143.479 494.192 142.599 494.592C141.719 494.992 140.735 495.192 139.647 495.192C138.335 495.192 137.167 494.912 136.143 494.352C135.119 493.792 134.319 492.992 133.743 491.952C133.167 490.912 132.879 489.696 132.879 488.304C132.879 486.912 133.159 485.696 133.719 484.656C134.295 483.616 135.095 482.816 136.119 482.256C137.143 481.696 138.319 481.416 139.647 481.416C140.943 481.416 142.095 481.688 143.103 482.232C144.111 482.776 144.895 483.552 145.455 484.56C146.031 485.568 146.319 486.744 146.319 488.088ZM142.119 487.008C142.119 486.304 141.879 485.744 141.399 485.328C140.919 484.912 140.319 484.704 139.599 484.704C138.911 484.704 138.327 484.904 137.847 485.304C137.383 485.704 137.095 486.272 136.983 487.008H142.119ZM152.588 477.24V495H148.484V477.24H152.588ZM159.666 477.24V495H155.562V477.24H159.666ZM161.824 488.28C161.824 486.904 162.08 485.696 162.592 484.656C163.12 483.616 163.832 482.816 164.728 482.256C165.624 481.696 166.624 481.416 167.728 481.416C168.672 481.416 169.496 481.608 170.2 481.992C170.92 482.376 171.472 482.88 171.856 483.504V481.608H175.96V495H171.856V493.104C171.456 493.728 170.896 494.232 170.176 494.616C169.472 495 168.648 495.192 167.704 495.192C166.616 495.192 165.624 494.912 164.728 494.352C163.832 493.776 163.12 492.968 162.592 491.928C162.08 490.872 161.824 489.656 161.824 488.28ZM171.856 488.304C171.856 487.28 171.568 486.472 170.992 485.88C170.432 485.288 169.744 484.992 168.928 484.992C168.112 484.992 167.416 485.288 166.84 485.88C166.28 486.456 166 487.256 166 488.28C166 489.304 166.28 490.12 166.84 490.728C167.416 491.32 168.112 491.616 168.928 491.616C169.744 491.616 170.432 491.32 170.992 490.728C171.568 490.136 171.856 489.328 171.856 488.304ZM190.735 485.016H188.527V495H184.423V485.016H182.935V481.608H184.423V481.224C184.423 479.576 184.895 478.328 185.839 477.48C186.783 476.616 188.167 476.184 189.991 476.184C190.295 476.184 190.519 476.192 190.663 476.208V479.688C189.879 479.64 189.327 479.752 189.007 480.024C188.687 480.296 188.527 480.784 188.527 481.488V481.608H190.735V485.016ZM194.728 480.216C194.008 480.216 193.416 480.008 192.952 479.592C192.504 479.16 192.28 478.632 192.28 478.008C192.28 477.368 192.504 476.84 192.952 476.424C193.416 475.992 194.008 475.776 194.728 475.776C195.432 475.776 196.008 475.992 196.456 476.424C196.92 476.84 197.152 477.368 197.152 478.008C197.152 478.632 196.92 479.16 196.456 479.592C196.008 480.008 195.432 480.216 194.728 480.216ZM196.768 481.608V495H192.664V481.608H196.768ZM207.902 481.464C209.47 481.464 210.718 481.976 211.646 483C212.59 484.008 213.062 485.4 213.062 487.176V495H208.982V487.728C208.982 486.832 208.75 486.136 208.286 485.64C207.822 485.144 207.198 484.896 206.414 484.896C205.63 484.896 205.006 485.144 204.542 485.64C204.078 486.136 203.846 486.832 203.846 487.728V495H199.742V481.608H203.846V483.384C204.262 482.792 204.822 482.328 205.526 481.992C206.23 481.64 207.022 481.464 207.902 481.464ZM215.098 488.28C215.098 486.904 215.354 485.696 215.866 484.656C216.394 483.616 217.106 482.816 218.002 482.256C218.898 481.696 219.898 481.416 221.002 481.416C221.946 481.416 222.77 481.608 223.474 481.992C224.194 482.376 224.746 482.88 225.13 483.504V481.608H229.234V495H225.13V493.104C224.73 493.728 224.17 494.232 223.45 494.616C222.746 495 221.922 495.192 220.978 495.192C219.89 495.192 218.898 494.912 218.002 494.352C217.106 493.776 216.394 492.968 215.866 491.928C215.354 490.872 215.098 489.656 215.098 488.28ZM225.13 488.304C225.13 487.28 224.842 486.472 224.266 485.88C223.706 485.288 223.018 484.992 222.202 484.992C221.386 484.992 220.69 485.288 220.114 485.88C219.554 486.456 219.274 487.256 219.274 488.28C219.274 489.304 219.554 490.12 220.114 490.728C220.69 491.32 221.386 491.616 222.202 491.616C223.018 491.616 223.706 491.32 224.266 490.728C224.842 490.136 225.13 489.328 225.13 488.304ZM240.363 481.464C241.931 481.464 243.179 481.976 244.107 483C245.051 484.008 245.523 485.4 245.523 487.176V495H241.443V487.728C241.443 486.832 241.211 486.136 240.747 485.64C240.283 485.144 239.659 484.896 238.875 484.896C238.091 484.896 237.467 485.144 237.003 485.64C236.539 486.136 236.307 486.832 236.307 487.728V495H232.203V481.608H236.307V483.384C236.723 482.792 237.283 482.328 237.987 481.992C238.691 481.64 239.483 481.464 240.363 481.464ZM252.215 491.616H258.023V495H247.631V491.736L253.199 484.992H247.679V481.608H257.903V484.872L252.215 491.616ZM259.465 488.28C259.465 486.904 259.721 485.696 260.233 484.656C260.761 483.616 261.473 482.816 262.369 482.256C263.265 481.696 264.265 481.416 265.369 481.416C266.313 481.416 267.137 481.608 267.841 481.992C268.561 482.376 269.113 482.88 269.497 483.504V481.608H273.601V495H269.497V493.104C269.097 493.728 268.537 494.232 267.817 494.616C267.113 495 266.289 495.192 265.345 495.192C264.257 495.192 263.265 494.912 262.369 494.352C261.473 493.776 260.761 492.968 260.233 491.928C259.721 490.872 259.465 489.656 259.465 488.28ZM269.497 488.304C269.497 487.28 269.209 486.472 268.633 485.88C268.073 485.288 267.385 484.992 266.569 484.992C265.753 484.992 265.057 485.288 264.481 485.88C263.921 486.456 263.641 487.256 263.641 488.28C263.641 489.304 263.921 490.12 264.481 490.728C265.057 491.32 265.753 491.616 266.569 491.616C267.385 491.616 268.073 491.32 268.633 490.728C269.209 490.136 269.497 489.328 269.497 488.304Z" fill="#0B1131"/>
<defs>
<filter id="filter0_d_23_235" x="-34" y="0" width="456.431" height="429.457" filterUnits="userSpaceOnUse" color-interpolation-filters="sRGB">
<feFlood flood-opacity="0" result="BackgroundImageFix"/>
<feColorMatrix in="SourceAlpha" type="matrix" values="0 0 0 0 0 0 0 0 0 0 0 0 0 0 0 0 0 0 127 0" result="hardAlpha"/>
<feOffset dy="50"/>
<feGaussianBlur stdDeviation="50"/>
<feColorMatrix type="matrix" values="0 0 0 0 0 0 0 0 0 0 0 0 0 0 0 0 0 0 0.1 0"/>
<feBlend mode="normal" in2="BackgroundImageFix" result="effect1_dropShadow_23_235"/>
<feBlend mode="normal" in="SourceGraphic" in2="effect1_dropShadow_23_235" result="shape"/>
</filter>
<filter id="filter1_d_23_235" x="112.383" y="60.9006" width="163.666" height="158.172" filterUnits="userSpaceOnUse" color-interpolation-filters="sRGB">
<feFlood flood-opacity="0" result="BackgroundImageFix"/>
<feColorMatrix in="SourceAlpha" type="matrix" values="0 0 0 0 0 0 0 0 0 0 0 0 0 0 0 0 0 0 127 0" result="hardAlpha"/>
<feOffset dy="10"/>
<feGaussianBlur stdDeviation="25"/>
<feColorMatrix type="matrix" values="0 0 0 0 0.188235 0 0 0 0 0.160784 0 0 0 0 0.85098 0 0 0 0.3 0"/>
<feBlend mode="normal" in2="BackgroundImageFix" result="effect1_dropShadow_23_235"/>
<feBlend mode="normal" in="SourceGraphic" in2="effect1_dropShadow_23_235" result="shape"/>
</filter>
<filter id="filter2_d_23_235" x="259.569" y="156.742" width="456.431" height="429.457" filterUnits="userSpaceOnUse" color-interpolation-filters="sRGB">
<feFlood flood-opacity="0" result="BackgroundImageFix"/>
<feColorMatrix in="SourceAlpha" type="matrix" values="0 0 0 0 0 0 0 0 0 0 0 0 0 0 0 0 0 0 127 0" result="hardAlpha"/>
<feOffset dy="50"/>
<feGaussianBlur stdDeviation="50"/>
<feColorMatrix type="matrix" values="0 0 0 0 0 0 0 0 0 0 0 0 0 0 0 0 0 0 0.1 0"/>
<feBlend mode="normal" in2="BackgroundImageFix" result="effect1_dropShadow_23_235"/>
<feBlend mode="normal" in="SourceGraphic" in2="effect1_dropShadow_23_235" result="shape"/>
</filter>
<filter id="filter3_d_23_235" x="405.707" y="221" width="163.666" height="158.172" filterUnits="userSpaceOnUse" color-interpolation-filters="sRGB">
<feFlood flood-opacity="0" result="BackgroundImageFix"/>
<feColorMatrix in="SourceAlpha" type="matrix" values="0 0 0 0 0 0 0 0 0 0 0 0 0 0 0 0 0 0 127 0" result="hardAlpha"/>
<feOffset dy="10"/>
<feGaussianBlur stdDeviation="25"/>
<feColorMatrix type="matrix" values="0 0 0 0 0.188235 0 0 0 0 0.160784 0 0 0 0 0.85098 0 0 0 0.3 0"/>
<feBlend mode="normal" in2="BackgroundImageFix" result="effect1_dropShadow_23_235"/>
<feBlend mode="normal" in="SourceGraphic" in2="effect1_dropShadow_23_235" result="shape"/>
</filter>
<filter id="filter4_d_23_235" x="-34" y="258.543" width="456.431" height="429.457" filterUnits="userSpaceOnUse" color-interpolation-filters="sRGB">
<feFlood flood-opacity="0" result="BackgroundImageFix"/>
<feColorMatrix in="SourceAlpha" type="matrix" values="0 0 0 0 0 0 0 0 0 0 0 0 0 0 0 0 0 0 127 0" result="hardAlpha"/>
<feOffset dy="50"/>
<feGaussianBlur stdDeviation="50"/>
<feColorMatrix type="matrix" values="0 0 0 0 0 0 0 0 0 0 0 0 0 0 0 0 0 0 0.1 0"/>
<feBlend mode="normal" in2="BackgroundImageFix" result="effect1_dropShadow_23_235"/>
<feBlend mode="normal" in="SourceGraphic" in2="effect1_dropShadow_23_235" result="shape"/>
</filter>
</defs>
</svg>
