<svg width="722" height="719" viewBox="0 0 722 719" fill="none" xmlns="http://www.w3.org/2000/svg">
<path opacity="0.35" fill-rule="evenodd" clip-rule="evenodd" d="M607.548 265.256C654.962 359.69 663.912 479.142 567.725 557.785C468.732 638.721 324.226 635.332 216.458 585.012C115.555 537.897 65.4268 440.035 94.9104 337.013C125.19 231.21 224.57 139.457 348.952 122.047C468.999 105.243 562.263 175.058 607.548 265.256Z" fill="#8EC2F2" fill-opacity="0.6"/>
<path opacity="0.4" fill-rule="evenodd" clip-rule="evenodd" d="M391.507 55.5919C499.594 78.0191 606.15 144.708 615.952 265.276C626.041 389.362 537.736 495.807 431.365 545.819C331.77 592.645 219.173 570.15 149.267 484.694C77.4746 396.931 58.4459 265.907 117.221 161.794C173.947 61.3087 288.27 34.1711 391.507 55.5919Z" fill="#0E5ECC" fill-opacity="0.7"/>
</svg>
