<?xml version="1.0" encoding="UTF-8" standalone="no"?>
<!DOCTYPE svg PUBLIC "-//W3C//DTD SVG 1.1//EN" "http://www.w3.org/Graphics/SVG/1.1/DTD/svg11.dtd">
<!-- Created with Vectornator (http://vectornator.io/) -->
<svg height="100%" stroke-miterlimit="10" style="fill-rule:nonzero;clip-rule:evenodd;stroke-linecap:round;stroke-linejoin:round;" version="1.1" viewBox="0 0 500 500" width="100%" xml:space="preserve" xmlns="http://www.w3.org/2000/svg" xmlns:xlink="http://www.w3.org/1999/xlink">
<defs/>
<g id="Livello-1">
<g opacity="1">
<g opacity="1">
<path d="M136.07 271.397C136.07 269.183 135.289 267.484 133.727 266.299C132.164 265.114 129.352 263.864 125.289 262.549C121.227 261.234 118.01 259.938 115.641 258.662C109.182 255.173 105.953 250.472 105.953 244.561C105.953 241.488 106.819 238.747 108.551 236.338C110.283 233.929 112.77 232.048 116.012 230.694C119.254 229.339 122.893 228.662 126.93 228.662C130.992 228.662 134.612 229.398 137.789 230.869C140.966 232.341 143.434 234.418 145.191 237.1C146.949 239.782 147.828 242.829 147.828 246.241L136.109 246.241C136.109 243.636 135.289 241.612 133.648 240.166C132.008 238.721 129.703 237.998 126.734 237.998C123.87 237.998 121.643 238.604 120.055 239.815C118.466 241.026 117.672 242.621 117.672 244.6C117.672 246.449 118.603 247.998 120.465 249.248C122.327 250.498 125.068 251.67 128.688 252.764C135.354 254.769 140.211 257.256 143.258 260.225C146.305 263.194 147.828 266.892 147.828 271.319C147.828 276.241 145.966 280.101 142.242 282.901C138.518 285.7 133.505 287.1 127.203 287.1C122.828 287.1 118.844 286.299 115.25 284.698C111.656 283.096 108.915 280.902 107.027 278.116C105.139 275.329 104.195 272.1 104.195 268.428L115.953 268.428C115.953 274.704 119.703 277.842 127.203 277.842C129.99 277.842 132.164 277.276 133.727 276.143C135.289 275.01 136.07 273.428 136.07 271.397Z" fill="#0e5ecc" fill-rule="nonzero" opacity="1" stroke="none"/>
<path d="M162.031 248.662C165.026 245.069 168.789 243.272 173.32 243.272C182.487 243.272 187.135 248.597 187.266 259.248L187.266 286.319L175.977 286.319L175.977 259.561C175.977 257.139 175.456 255.349 174.414 254.19C173.372 253.031 171.641 252.451 169.219 252.451C165.911 252.451 163.516 253.727 162.031 256.28L162.031 286.319L150.742 286.319L150.742 226.319L162.031 226.319L162.031 248.662Z" fill="#0e5ecc" fill-rule="nonzero" opacity="1" stroke="none"/>
<path d="M216.273 286.319C215.753 285.303 215.375 284.04 215.141 282.53C212.406 285.576 208.852 287.1 204.477 287.1C200.336 287.1 196.905 285.902 194.184 283.506C191.462 281.11 190.102 278.089 190.102 274.444C190.102 269.964 191.762 266.527 195.082 264.131C198.402 261.735 203.201 260.524 209.477 260.498L214.672 260.498L214.672 258.076C214.672 256.123 214.171 254.561 213.168 253.389C212.165 252.217 210.583 251.631 208.422 251.631C206.521 251.631 205.03 252.087 203.949 252.998C202.868 253.91 202.328 255.16 202.328 256.748L191.039 256.748C191.039 254.3 191.794 252.035 193.305 249.951C194.815 247.868 196.951 246.234 199.711 245.049C202.471 243.864 205.57 243.272 209.008 243.272C214.216 243.272 218.35 244.58 221.41 247.198C224.47 249.815 226 253.493 226 258.233L226 276.553C226.026 280.563 226.586 283.597 227.68 285.655L227.68 286.319L216.273 286.319ZM206.938 278.467C208.604 278.467 210.141 278.096 211.547 277.354C212.953 276.612 213.995 275.616 214.672 274.366L214.672 267.1L210.453 267.1C204.802 267.1 201.794 269.053 201.43 272.959L201.391 273.623C201.391 275.03 201.885 276.188 202.875 277.1C203.865 278.011 205.219 278.467 206.938 278.467Z" fill="#0e5ecc" fill-rule="nonzero" opacity="1" stroke="none"/>
<path d="M254.422 254.639C252.885 254.431 251.531 254.326 250.359 254.326C246.089 254.326 243.289 255.772 241.961 258.662L241.961 286.319L230.672 286.319L230.672 244.053L241.336 244.053L241.648 249.092C243.914 245.212 247.052 243.272 251.062 243.272C252.313 243.272 253.484 243.441 254.578 243.78L254.422 254.639Z" fill="#0e5ecc" fill-rule="nonzero" opacity="1" stroke="none"/>
<path d="M274.562 287.1C268.365 287.1 263.319 285.199 259.426 281.397C255.533 277.595 253.586 272.53 253.586 266.201L253.586 265.108C253.586 260.863 254.406 257.067 256.047 253.721C257.688 250.375 260.012 247.797 263.02 245.987C266.027 244.177 269.458 243.272 273.312 243.272C279.094 243.272 283.645 245.095 286.965 248.741C290.285 252.386 291.945 257.556 291.945 264.248L291.945 268.858L265.031 268.858C265.396 271.618 266.496 273.832 268.332 275.498C270.168 277.165 272.492 277.998 275.305 277.998C279.654 277.998 283.052 276.423 285.5 273.272L291.047 279.483C289.354 281.879 287.063 283.747 284.172 285.088C281.281 286.429 278.078 287.1 274.562 287.1ZM273.273 252.412C271.034 252.412 269.217 253.168 267.824 254.678C266.431 256.188 265.539 258.35 265.148 261.162L280.852 261.162L280.852 260.264C280.799 257.764 280.122 255.83 278.82 254.463C277.518 253.096 275.669 252.412 273.273 252.412Z" fill="#0e5ecc" fill-rule="nonzero" opacity="1" stroke="none"/>
<path d="M295.094 286.319L295.094 229.444L315.016 229.444C321.917 229.444 327.151 230.765 330.719 233.408C334.286 236.052 336.07 239.925 336.07 245.03C336.07 247.816 335.354 250.27 333.922 252.393C332.49 254.515 330.497 256.071 327.945 257.061C330.862 257.79 333.16 259.261 334.84 261.475C336.52 263.688 337.359 266.397 337.359 269.6C337.359 275.069 335.615 279.209 332.125 282.022C328.635 284.834 323.661 286.267 317.203 286.319L295.094 286.319ZM306.812 261.553L306.812 276.905L316.852 276.905C319.612 276.905 321.767 276.247 323.316 274.932C324.866 273.617 325.641 271.8 325.641 269.483C325.641 264.274 322.945 261.631 317.555 261.553L306.812 261.553ZM306.812 253.272L315.484 253.272C321.396 253.168 324.352 250.811 324.352 246.201C324.352 243.623 323.603 241.768 322.105 240.635C320.608 239.502 318.245 238.936 315.016 238.936L306.812 238.936L306.812 253.272Z" fill="#0e5ecc" fill-rule="nonzero" opacity="1" stroke="none"/>
<path d="M359.609 255.069L371.445 229.444L384.258 229.444L365.586 265.694L365.586 286.319L353.672 286.319L353.672 265.694L335 229.444L347.852 229.444L359.609 255.069Z" fill="#0e5ecc" fill-rule="nonzero" opacity="1" stroke="none"/>
</g>
<g opacity="1">
<path d="M292.272 311.096L284.978 311.096L284.978 318.401L283.657 318.401L283.657 302.76L293.346 302.76L293.346 303.888L284.978 303.888L284.978 309.968L292.272 309.968L292.272 311.096Z" fill="#0e5ecc" fill-rule="nonzero" opacity="1" stroke="none"/>
<path d="M298.67 318.401L297.381 318.401L297.381 306.778L298.67 306.778L298.67 318.401ZM297.156 303.416C297.156 303.172 297.234 302.966 297.392 302.798C297.549 302.63 297.764 302.546 298.036 302.546C298.309 302.546 298.525 302.63 298.686 302.798C298.847 302.966 298.928 303.172 298.928 303.416C298.928 303.659 298.847 303.863 298.686 304.028C298.525 304.193 298.309 304.275 298.036 304.275C297.764 304.275 297.549 304.193 297.392 304.028C297.234 303.863 297.156 303.659 297.156 303.416Z" fill="#0e5ecc" fill-rule="nonzero" opacity="1" stroke="none"/>
<path d="M304.886 306.778L304.929 308.765C305.366 308.049 305.91 307.503 306.562 307.127C307.214 306.751 307.933 306.563 308.721 306.563C309.967 306.563 310.895 306.914 311.503 307.616C312.112 308.318 312.42 309.37 312.427 310.774L312.427 318.401L311.149 318.401L311.149 310.763C311.142 309.725 310.921 308.952 310.488 308.443C310.055 307.935 309.362 307.68 308.409 307.68C307.615 307.68 306.911 307.929 306.299 308.427C305.686 308.925 305.233 309.596 304.94 310.441L304.94 318.401L303.661 318.401L303.661 306.778L304.886 306.778Z" fill="#0e5ecc" fill-rule="nonzero" opacity="1" stroke="none"/>
<path d="M324.583 318.401C324.454 318.036 324.372 317.495 324.336 316.779C323.885 317.366 323.31 317.819 322.612 318.138C321.914 318.457 321.174 318.616 320.394 318.616C319.277 318.616 318.373 318.304 317.681 317.681C316.99 317.058 316.645 316.271 316.645 315.318C316.645 314.187 317.116 313.291 318.057 312.633C318.999 311.974 320.312 311.644 321.994 311.644L324.326 311.644L324.326 310.323C324.326 309.492 324.069 308.839 323.557 308.362C323.045 307.886 322.299 307.648 321.318 307.648C320.423 307.648 319.681 307.877 319.094 308.336C318.507 308.794 318.213 309.345 318.213 309.99L316.924 309.979C316.924 309.055 317.354 308.255 318.213 307.578C319.073 306.902 320.129 306.563 321.382 306.563C322.678 306.563 323.701 306.887 324.449 307.535C325.197 308.183 325.582 309.088 325.604 310.248L325.604 315.748C325.604 316.872 325.722 317.714 325.958 318.272L325.958 318.401L324.583 318.401ZM320.544 317.477C321.404 317.477 322.172 317.27 322.848 316.854C323.525 316.439 324.018 315.884 324.326 315.189L324.326 312.633L322.027 312.633C320.745 312.647 319.742 312.881 319.019 313.336C318.296 313.791 317.934 314.416 317.934 315.211C317.934 315.862 318.176 316.403 318.659 316.833C319.142 317.262 319.771 317.477 320.544 317.477Z" fill="#0e5ecc" fill-rule="nonzero" opacity="1" stroke="none"/>
<path d="M331.755 306.778L331.798 308.765C332.235 308.049 332.779 307.503 333.431 307.127C334.083 306.751 334.802 306.563 335.59 306.563C336.836 306.563 337.764 306.914 338.372 307.616C338.981 308.318 339.289 309.37 339.296 310.774L339.296 318.401L338.018 318.401L338.018 310.763C338.011 309.725 337.791 308.952 337.357 308.443C336.924 307.935 336.231 307.68 335.279 307.68C334.484 307.68 333.78 307.929 333.168 308.427C332.555 308.925 332.103 309.596 331.809 310.441L331.809 318.401L330.531 318.401L330.531 306.778L331.755 306.778Z" fill="#0e5ecc" fill-rule="nonzero" opacity="1" stroke="none"/>
<path d="M348.412 317.531C349.308 317.531 350.058 317.279 350.663 316.774C351.268 316.269 351.596 315.615 351.646 314.813L352.881 314.813C352.845 315.522 352.623 316.168 352.215 316.752C351.807 317.336 351.264 317.792 350.588 318.122C349.911 318.451 349.186 318.616 348.412 318.616C346.887 318.616 345.679 318.086 344.787 317.026C343.895 315.966 343.45 314.541 343.45 312.751L343.45 312.364C343.45 311.218 343.65 310.205 344.051 309.324C344.452 308.443 345.027 307.763 345.775 307.283C346.524 306.803 347.399 306.563 348.402 306.563C349.676 306.563 350.727 306.943 351.555 307.702C352.382 308.461 352.824 309.46 352.881 310.699L351.646 310.699C351.589 309.789 351.261 309.055 350.663 308.497C350.065 307.938 349.311 307.659 348.402 307.659C347.242 307.659 346.341 308.078 345.7 308.916C345.059 309.754 344.739 310.928 344.739 312.439L344.739 312.815C344.739 314.298 345.059 315.454 345.7 316.285C346.341 317.116 347.245 317.531 348.412 317.531Z" fill="#0e5ecc" fill-rule="nonzero" opacity="1" stroke="none"/>
<path d="M361.45 318.616C360.461 318.616 359.568 318.372 358.769 317.885C357.971 317.398 357.35 316.72 356.906 315.85C356.462 314.98 356.24 314.004 356.24 312.923L356.24 312.461C356.24 311.343 356.456 310.337 356.889 309.442C357.323 308.547 357.926 307.843 358.7 307.331C359.473 306.819 360.311 306.563 361.213 306.563C362.624 306.563 363.743 307.045 364.57 308.008C365.397 308.971 365.811 310.287 365.811 311.956L365.811 312.675L357.518 312.675L357.518 312.923C357.518 314.24 357.896 315.338 358.651 316.215C359.407 317.092 360.357 317.531 361.503 317.531C362.191 317.531 362.798 317.406 363.324 317.155C363.85 316.904 364.328 316.503 364.758 315.952L365.564 316.564C364.618 317.932 363.247 318.616 361.45 318.616ZM361.213 307.659C360.246 307.659 359.432 308.013 358.769 308.722C358.107 309.431 357.704 310.384 357.561 311.58L364.533 311.58L364.533 311.44C364.497 310.323 364.178 309.413 363.576 308.712C362.975 308.01 362.187 307.659 361.213 307.659Z" fill="#0e5ecc" fill-rule="nonzero" opacity="1" stroke="none"/>
</g>
</g>
<g opacity="1">
<path d="M244.934 197.993C238.859 197.993 233.934 202.917 233.934 208.993C233.934 215.068 238.859 219.993 244.934 219.993C251.009 219.993 255.934 215.068 255.934 208.993C255.934 202.917 251.009 197.993 244.934 197.993ZM244.934 201.659C248.984 201.659 252.267 204.943 252.267 208.993C252.267 213.043 248.984 216.326 244.934 216.326C240.884 216.326 237.601 213.043 237.601 208.993C237.601 204.943 240.884 201.659 244.934 201.659Z" fill="#0e5ecc" fill-rule="nonzero" opacity="1" stroke="none"/>
<path d="M279.037 164.018C272.962 164.018 268.037 168.943 268.037 175.018C268.037 181.093 272.962 186.018 279.037 186.018C285.112 186.018 290.037 181.093 290.037 175.018C290.037 168.943 285.112 164.018 279.037 164.018ZM279.037 167.684C283.087 167.684 286.37 170.968 286.37 175.018C286.37 179.068 283.087 182.351 279.037 182.351C274.987 182.351 271.704 179.068 271.704 175.018C271.704 170.968 274.987 167.684 279.037 167.684Z" fill="#0e5ecc" fill-rule="nonzero" opacity="1" stroke="none"/>
<path d="M347.526 163.927C341.451 163.927 336.526 168.852 336.526 174.927C336.526 181.002 341.451 185.927 347.526 185.927C353.601 185.927 358.526 181.002 358.526 174.927C358.526 168.852 353.601 163.927 347.526 163.927ZM347.526 167.594C351.576 167.594 354.86 170.877 354.86 174.927C354.86 178.977 351.576 182.261 347.526 182.261C343.476 182.261 340.193 178.977 340.193 174.927C340.193 170.877 343.476 167.594 347.526 167.594Z" fill="#0e5ecc" fill-rule="nonzero" opacity="1" stroke="none"/>
<path d="M307.686 201.272L287.887 181.473L285.766 183.595L305.564 203.394L307.686 201.272Z" fill="#0e5ecc" fill-rule="nonzero" opacity="1" stroke="none"/>
<path d="M250.913 201.144L270.712 181.345L272.833 183.466L253.034 203.265L250.913 201.144Z" fill="#0e5ecc" fill-rule="nonzero" opacity="1" stroke="none"/>
<path d="M319.244 201.076L339.043 181.277L341.164 183.399L321.365 203.198L319.244 201.076Z" fill="#0e5ecc" fill-rule="nonzero" opacity="1" stroke="none"/>
<path d="M313.138 197.993C307.063 197.993 302.138 202.917 302.138 208.993C302.138 215.068 307.063 219.993 313.138 219.993C319.213 219.993 324.138 215.068 324.138 208.993C324.138 202.917 319.213 197.993 313.138 197.993ZM313.138 201.659C317.188 201.659 320.472 204.943 320.472 208.993C320.472 213.043 317.188 216.326 313.138 216.326C309.088 216.326 305.805 213.043 305.805 208.993C305.805 204.943 309.088 201.659 313.138 201.659Z" fill="#0e5ecc" fill-rule="nonzero" opacity="1" stroke="none"/>
</g>
</g>
</svg>
