<?xml version="1.0" encoding="UTF-8" standalone="no"?>
<!DOCTYPE svg PUBLIC "-//W3C//DTD SVG 1.1//EN" "http://www.w3.org/Graphics/SVG/1.1/DTD/svg11.dtd">
<!-- Created with Vectornator (http://vectornator.io/) -->
<svg height="100%" stroke-miterlimit="10" style="fill-rule:nonzero;clip-rule:evenodd;stroke-linecap:round;stroke-linejoin:round;" version="1.1" viewBox="0 0 699.698 500.29" width="100%" xml:space="preserve" xmlns="http://www.w3.org/2000/svg" xmlns:vectornator="http://vectornator.io" xmlns:xlink="http://www.w3.org/1999/xlink">
<defs>
<filter color-interpolation-filters="sRGB" filterUnits="userSpaceOnUse" height="550" id="Filter" width="750" x="-25" y="-17">
<feDropShadow dx="-2.93856e-05" dy="8" flood-color="#000000" flood-opacity="1" in="SourceGraphic" result="Shadow" stdDeviation="10"/>
</filter>
</defs>
<clipPath id="ArtboardFrame">
<rect height="500.29" width="699.698" x="0" y="0"/>
</clipPath>
<g clip-path="url(#ArtboardFrame)" id="Livello-1" vectornator:layerName="Livello 1">
<g filter="url(#Filter)" vectornator:layerName="Raggruppa" vectornator:shadowAngle="1.5708" vectornator:shadowColor="#000000" vectornator:shadowOffset="8" vectornator:shadowOpacity="1" vectornator:shadowRadius="20">
<g opacity="1">
<path d="M50.1301 1.77636e-14L649.227 1.77636e-14C676.913 1.77636e-14 699.357 20.3507 699.357 45.4545L699.357 454.545C699.357 479.649 676.913 500 649.227 500L50.1301 500C22.444 500 0 479.649 0 454.545L0 45.4545C0 20.3507 22.444 1.77636e-14 50.1301 1.77636e-14Z" fill="#282944" fill-rule="nonzero" opacity="1" stroke="none" vectornator:layerName="Rettangolo"/>
<path d="M566.789 0L700 0L700 500L566.789 500L566.789 0Z" fill="#282944" fill-rule="nonzero" opacity="1" stroke="none"/>
</g>
<g fill="#f4f5fb" opacity="1" stroke="none">
<path d="M64.772 84.294C62.616 84.294 60.684 83.944 58.976 83.244C57.268 82.544 55.903 81.508 54.881 80.136C53.859 78.764 53.32 77.112 53.264 75.18L60.908 75.18C61.02 76.272 61.398 77.105 62.042 77.679C62.686 78.253 63.526 78.54 64.562 78.54C65.626 78.54 66.466 78.295 67.082 77.805C67.698 77.315 68.006 76.636 68.006 75.768C68.006 75.04 67.761 74.438 67.271 73.962C66.781 73.486 66.179 73.094 65.465 72.786C64.751 72.478 63.736 72.128 62.42 71.736C60.516 71.148 58.962 70.56 57.758 69.972C56.554 69.384 55.518 68.516 54.65 67.368C53.782 66.22 53.348 64.722 53.348 62.874C53.348 60.13 54.342 57.981 56.33 56.427C58.318 54.873 60.908 54.096 64.1 54.096C67.348 54.096 69.966 54.873 71.954 56.427C73.942 57.981 75.006 60.144 75.146 62.916L67.376 62.916C67.32 61.964 66.97 61.215 66.326 60.669C65.682 60.123 64.856 59.85 63.848 59.85C62.98 59.85 62.28 60.081 61.748 60.543C61.216 61.005 60.95 61.67 60.95 62.538C60.95 63.49 61.398 64.232 62.294 64.764C63.19 65.296 64.59 65.87 66.494 66.486C68.398 67.13 69.945 67.746 71.135 68.334C72.325 68.922 73.354 69.776 74.222 70.896C75.09 72.016 75.524 73.458 75.524 75.222C75.524 76.902 75.097 78.428 74.243 79.8C73.389 81.172 72.15 82.264 70.526 83.076C68.902 83.888 66.984 84.294 64.772 84.294Z"/>
<path d="M92.996 77.91L92.996 84L89.342 84C86.738 84 84.708 83.363 83.252 82.089C81.796 80.815 81.068 78.736 81.068 75.852L81.068 66.528L78.212 66.528L78.212 60.564L81.068 60.564L81.068 54.852L88.25 54.852L88.25 60.564L92.954 60.564L92.954 66.528L88.25 66.528L88.25 75.936C88.25 76.636 88.418 77.14 88.754 77.448C89.09 77.756 89.65 77.91 90.434 77.91L92.996 77.91Z"/>
<path d="M95.558 72.24C95.558 69.832 96.013 67.718 96.923 65.898C97.833 64.078 99.072 62.678 100.64 61.698C102.208 60.718 103.958 60.228 105.89 60.228C107.542 60.228 108.991 60.564 110.237 61.236C111.483 61.908 112.442 62.79 113.114 63.882L113.114 60.564L120.296 60.564L120.296 84L113.114 84L113.114 80.682C112.414 81.774 111.441 82.656 110.195 83.328C108.949 84 107.5 84.336 105.848 84.336C103.944 84.336 102.208 83.839 100.64 82.845C99.072 81.851 97.833 80.437 96.923 78.603C96.013 76.769 95.558 74.648 95.558 72.24ZM113.114 72.282C113.114 70.49 112.617 69.076 111.623 68.04C110.629 67.004 109.418 66.486 107.99 66.486C106.562 66.486 105.351 66.997 104.357 68.019C103.363 69.041 102.866 70.448 102.866 72.24C102.866 74.032 103.363 75.453 104.357 76.503C105.351 77.553 106.562 78.078 107.99 78.078C109.418 78.078 110.629 77.56 111.623 76.524C112.617 75.488 113.114 74.074 113.114 72.282Z"/>
<path d="M138.566 77.91L138.566 84L134.912 84C132.308 84 130.278 83.363 128.822 82.089C127.366 80.815 126.638 78.736 126.638 75.852L126.638 66.528L123.782 66.528L123.782 60.564L126.638 60.564L126.638 54.852L133.82 54.852L133.82 60.564L138.524 60.564L138.524 66.528L133.82 66.528L133.82 75.936C133.82 76.636 133.988 77.14 134.324 77.448C134.66 77.756 135.22 77.91 136.004 77.91L138.566 77.91Z"/>
<path d="M146.168 58.128C144.908 58.128 143.879 57.757 143.081 57.015C142.283 56.273 141.884 55.356 141.884 54.264C141.884 53.144 142.283 52.213 143.081 51.471C143.879 50.729 144.908 50.358 146.168 50.358C147.4 50.358 148.415 50.729 149.213 51.471C150.011 52.213 150.41 53.144 150.41 54.264C150.41 55.356 150.011 56.273 149.213 57.015C148.415 57.757 147.4 58.128 146.168 58.128ZM149.738 60.564L149.738 84L142.556 84L142.556 60.564L149.738 60.564Z"/>
<path d="M164.48 84.336C162.436 84.336 160.616 83.986 159.02 83.286C157.424 82.586 156.164 81.627 155.24 80.409C154.316 79.191 153.798 77.826 153.686 76.314L160.784 76.314C160.868 77.126 161.246 77.784 161.918 78.288C162.59 78.792 163.416 79.044 164.396 79.044C165.292 79.044 165.985 78.869 166.475 78.519C166.965 78.169 167.21 77.714 167.21 77.154C167.21 76.482 166.86 75.985 166.16 75.663C165.46 75.341 164.326 74.984 162.758 74.592C161.078 74.2 159.678 73.787 158.558 73.353C157.438 72.919 156.472 72.233 155.66 71.295C154.848 70.357 154.442 69.09 154.442 67.494C154.442 66.15 154.813 64.925 155.555 63.819C156.297 62.713 157.389 61.838 158.831 61.194C160.273 60.55 161.988 60.228 163.976 60.228C166.916 60.228 169.233 60.956 170.927 62.412C172.621 63.868 173.594 65.8 173.846 68.208L167.21 68.208C167.098 67.396 166.741 66.752 166.139 66.276C165.537 65.8 164.746 65.562 163.766 65.562C162.926 65.562 162.282 65.723 161.834 66.045C161.386 66.367 161.162 66.808 161.162 67.368C161.162 68.04 161.519 68.544 162.233 68.88C162.947 69.216 164.06 69.552 165.572 69.888C167.308 70.336 168.722 70.777 169.814 71.211C170.906 71.645 171.865 72.345 172.691 73.311C173.517 74.277 173.944 75.572 173.972 77.196C173.972 78.568 173.587 79.793 172.817 80.871C172.047 81.949 170.941 82.796 169.499 83.412C168.057 84.028 166.384 84.336 164.48 84.336Z"/>
<path d="M191.444 77.91L191.444 84L187.79 84C185.186 84 183.156 83.363 181.7 82.089C180.244 80.815 179.516 78.736 179.516 75.852L179.516 66.528L176.66 66.528L176.66 60.564L179.516 60.564L179.516 54.852L186.698 54.852L186.698 60.564L191.402 60.564L191.402 66.528L186.698 66.528L186.698 75.936C186.698 76.636 186.866 77.14 187.202 77.448C187.538 77.756 188.098 77.91 188.882 77.91L191.444 77.91Z"/>
<path d="M199.046 58.128C197.786 58.128 196.757 57.757 195.959 57.015C195.161 56.273 194.762 55.356 194.762 54.264C194.762 53.144 195.161 52.213 195.959 51.471C196.757 50.729 197.786 50.358 199.046 50.358C200.278 50.358 201.293 50.729 202.091 51.471C202.889 52.213 203.288 53.144 203.288 54.264C203.288 55.356 202.889 56.273 202.091 57.015C201.293 57.757 200.278 58.128 199.046 58.128ZM202.616 60.564L202.616 84L195.434 84L195.434 60.564L202.616 60.564Z"/>
<path d="M206.396 72.282C206.396 69.846 206.893 67.718 207.887 65.898C208.881 64.078 210.267 62.678 212.045 61.698C213.823 60.718 215.86 60.228 218.156 60.228C221.096 60.228 223.553 60.998 225.527 62.538C227.501 64.078 228.796 66.248 229.412 69.048L221.768 69.048C221.124 67.256 219.878 66.36 218.03 66.36C216.714 66.36 215.664 66.871 214.88 67.893C214.096 68.915 213.704 70.378 213.704 72.282C213.704 74.186 214.096 75.649 214.88 76.671C215.664 77.693 216.714 78.204 218.03 78.204C219.878 78.204 221.124 77.308 221.768 75.516L229.412 75.516C228.796 78.26 227.494 80.416 225.506 81.984C223.518 83.552 221.068 84.336 218.156 84.336C215.86 84.336 213.823 83.846 212.045 82.866C210.267 81.886 208.881 80.486 207.887 78.666C206.893 76.846 206.396 74.718 206.396 72.282Z"/>
<path d="M247.64 60.312C250.328 60.312 252.484 61.201 254.108 62.979C255.732 64.757 256.544 67.2 256.544 70.308L256.544 84L249.404 84L249.404 71.274C249.404 69.706 248.998 68.488 248.186 67.62C247.374 66.752 246.282 66.318 244.91 66.318C243.538 66.318 242.446 66.752 241.634 67.62C240.822 68.488 240.416 69.706 240.416 71.274L240.416 84L233.234 84L233.234 52.92L240.416 52.92L240.416 63.714C241.144 62.678 242.138 61.852 243.398 61.236C244.658 60.62 246.072 60.312 247.64 60.312Z"/>
<path d="M283.634 71.904C283.634 72.576 283.592 73.276 283.508 74.004L267.254 74.004C267.366 75.46 267.835 76.573 268.661 77.343C269.487 78.113 270.502 78.498 271.706 78.498C273.498 78.498 274.744 77.742 275.444 76.23L283.088 76.23C282.696 77.77 281.989 79.156 280.967 80.388C279.945 81.62 278.664 82.586 277.124 83.286C275.584 83.986 273.862 84.336 271.958 84.336C269.662 84.336 267.618 83.846 265.826 82.866C264.034 81.886 262.634 80.486 261.626 78.666C260.618 76.846 260.114 74.718 260.114 72.282C260.114 69.846 260.611 67.718 261.605 65.898C262.599 64.078 263.992 62.678 265.784 61.698C267.576 60.718 269.634 60.228 271.958 60.228C274.226 60.228 276.242 60.704 278.006 61.656C279.77 62.608 281.149 63.966 282.143 65.73C283.137 67.494 283.634 69.552 283.634 71.904ZM276.284 70.014C276.284 68.782 275.864 67.802 275.024 67.074C274.184 66.346 273.134 65.982 271.874 65.982C270.67 65.982 269.655 66.332 268.829 67.032C268.003 67.732 267.492 68.726 267.296 70.014L276.284 70.014Z"/>
</g>
<path d="M102 300L112 300C120.284 300 127 306.716 127 315L127 405C127 413.284 120.284 420 112 420L102 420C93.7157 420 87 413.284 87 405L87 315C87 306.716 93.7157 300 102 300Z" fill="#0e5ecc" fill-opacity="0.7" fill-rule="nonzero" opacity="1" stroke="none"/>
<path d="M172 238.247L182 238.247C190.284 238.247 197 244.962 197 253.247L197 404.875C197 413.159 190.284 419.875 182 419.875L172 419.875C163.716 419.875 157 413.159 157 404.875L157 253.247C157 244.962 163.716 238.247 172 238.247Z" fill="#0e5ecc" fill-opacity="0.4" fill-rule="nonzero" opacity="1" stroke="none"/>
<path d="M242 178.483L252 178.483C260.284 178.483 267 185.199 267 193.483L267 404.875C267 413.159 260.284 419.875 252 419.875L242 419.875C233.716 419.875 227 413.159 227 404.875L227 193.483C227 185.199 233.716 178.483 242 178.483Z" fill="#0e5ecc" fill-rule="nonzero" opacity="1" stroke="none"/>
<path d="M312 277.947L322 277.947C330.284 277.947 337 284.662 337 292.947L337 404.875C337 413.159 330.284 419.875 322 419.875L312 419.875C303.716 419.875 297 413.159 297 404.875L297 292.947C297 284.662 303.716 277.947 312 277.947Z" fill="#0e5ecc" fill-opacity="0.5" fill-rule="nonzero" opacity="1" stroke="none"/>
<path d="M382 118.521L392 118.521C400.284 118.521 407 125.236 407 133.521L407 404.875C407 413.159 400.284 419.875 392 419.875L382 419.875C373.716 419.875 367 413.159 367 404.875L367 133.521C367 125.236 373.716 118.521 382 118.521Z" fill="#0e5ecc" fill-rule="nonzero" opacity="1" stroke="none"/>
<path d="M452 140.881L462 140.881C470.284 140.881 477 147.597 477 155.881L477 404.875C477 413.159 470.284 419.875 462 419.875L452 419.875C443.716 419.875 437 413.159 437 404.875L437 155.881C437 147.597 443.716 140.881 452 140.881Z" fill="#0e5ecc" fill-opacity="0.6" fill-rule="nonzero" opacity="1" stroke="none"/>
<path d="M522 81.4377L532 81.4377C540.284 81.4377 547 88.1534 547 96.4377L547 404.875C547 413.159 540.284 419.875 532 419.875L522 419.875C513.716 419.875 507 413.159 507 404.875L507 96.4377C507 88.1534 513.716 81.4377 522 81.4377Z" fill="#0e5ecc" fill-rule="nonzero" opacity="1" stroke="none"/>
<path d="M592 206.541L602 206.541C610.284 206.541 617 213.257 617 221.541L617 404.875C617 413.159 610.284 419.875 602 419.875L592 419.875C583.716 419.875 577 413.159 577 404.875L577 221.541C577 213.257 583.716 206.541 592 206.541Z" fill="#0e5ecc" fill-opacity="0.6" fill-rule="nonzero" opacity="1" stroke="none"/>
</g>
</g>
</svg>
