<?xml version="1.0" encoding="UTF-8" standalone="no"?>
<!DOCTYPE svg PUBLIC "-//W3C//DTD SVG 1.1//EN" "http://www.w3.org/Graphics/SVG/1.1/DTD/svg11.dtd">
<!-- Created with Vectornator (http://vectornator.io/) -->
<svg height="100%" stroke-miterlimit="10" style="fill-rule:nonzero;clip-rule:evenodd;stroke-linecap:round;stroke-linejoin:round;" version="1.1" viewBox="0 0 872.329 701.242" width="100%" xml:space="preserve" xmlns="http://www.w3.org/2000/svg" xmlns:vectornator="http://vectornator.io" xmlns:xlink="http://www.w3.org/1999/xlink">
<defs>
<filter color-interpolation-filters="sRGB" filterUnits="userSpaceOnUse" height="232.383" id="Filter" width="507" x="391.5" y="444.961">
<feDropShadow dx="-2.93856e-05" dy="8" flood-color="#0e5ecc" flood-opacity="0.9" in="SourceGraphic" result="Shadow" stdDeviation="10"/>
</filter>
</defs>
<clipPath id="ArtboardFrame">
<rect height="701.242" width="872.329" x="0" y="0"/>
</clipPath>
<g clip-path="url(#ArtboardFrame)" id="Livello-1" vectornator:layerName="Livello 1">
<g opacity="1">
<path d="M30 50L770 50C786.569 50 800 63.4315 800 80L800 520C800 536.569 786.569 550 770 550L30 550C13.4315 550 5.68434e-14 536.569 5.68434e-14 520L5.68434e-14 80C5.68434e-14 63.4315 13.4315 50 30 50Z" fill="#191a33" fill-rule="nonzero" opacity="1" stroke="none" vectornator:layerName="sfondo"/>
<g opacity="1" vectornator:layerName="Barra laterale">
<path d="M15.6693 491.881C15.6693 480.835 24.6236 471.881 35.6693 471.881C46.715 471.881 55.6693 480.835 55.6693 491.881C55.6693 502.926 46.715 511.881 35.6693 511.881C24.6236 511.881 15.6693 502.926 15.6693 491.881Z" fill="#454763" fill-rule="nonzero" opacity="1" stroke="none"/>
<path d="M70 550L69.9541 120" fill="none" opacity="1" stroke="#292a46" stroke-linecap="butt" stroke-linejoin="round" stroke-width="4"/>
<path d="M27 210L43 210C49.6274 210 55 215.373 55 222L55 238C55 244.627 49.6274 250 43 250L27 250C20.3726 250 15 244.627 15 238L15 222C15 215.373 20.3726 210 27 210Z" fill="#282944" fill-rule="nonzero" opacity="1" stroke="none"/>
<path d="M27 150L43 150C49.6274 150 55 155.373 55 162L55 178C55 184.627 49.6274 190 43 190L27 190C20.3726 190 15 184.627 15 178L15 162C15 155.373 20.3726 150 27 150Z" fill="#282944" fill-rule="nonzero" opacity="1" stroke="none"/>
<path d="M27 270L43 270C49.6274 270 55 275.373 55 282L55 298C55 304.627 49.6274 310 43 310L27 310C20.3726 310 15 304.627 15 298L15 282C15 275.373 20.3726 270 27 270Z" fill="#282944" fill-rule="nonzero" opacity="1" stroke="none"/>
</g>
<g opacity="1" vectornator:layerName="Barra in alto">
<path d="M0 120.085L800 120" fill="none" opacity="1" stroke="#292a46" stroke-linecap="butt" stroke-linejoin="round" stroke-width="4"/>
<g opacity="1">
<path d="M25 85C25 79.4772 29.4772 75 35 75C40.5228 75 45 79.4772 45 85C45 90.5228 40.5228 95 35 95C29.4772 95 25 90.5228 25 85Z" fill="#e6074a" fill-rule="nonzero" opacity="1" stroke="none"/>
<path d="M57 85C57 79.4772 61.4772 75 67 75C72.5228 75 77 79.4772 77 85C77 90.5228 72.5228 95 67 95C61.4772 95 57 90.5228 57 85Z" fill="#e6b417" fill-rule="nonzero" opacity="1" stroke="none"/>
<path d="M89 85C89 79.4772 93.4772 75 99 75C104.523 75 109 79.4772 109 85C109 90.5228 104.523 95 99 95C93.4772 95 89 90.5228 89 85Z" fill="#4ae71a" fill-rule="nonzero" opacity="1" stroke="none"/>
</g>
</g>
<g opacity="1" vectornator:layerName="Barra di ricerca">
<path d="M112 150L408 150C414.627 150 420 155.373 420 162L420 178C420 184.627 414.627 190 408 190L112 190C105.373 190 100 184.627 100 178L100 162C100 155.373 105.373 150 112 150Z" fill="#282944" fill-rule="nonzero" opacity="1" stroke="none"/>
<path d="M124.25 130L475.75 130C483.62 130 490 136.38 490 144.25L490 163.25C490 171.12 483.62 177.5 475.75 177.5L124.25 177.5C116.38 177.5 110 171.12 110 163.25L110 144.25C110 136.38 116.38 130 124.25 130Z" fill="#0e5ecc" fill-opacity="0.8" fill-rule="nonzero" opacity="1" stroke="none"/>
<path d="M142.796 157.811L148 163M145 152.5C145 156.642 141.642 160 137.5 160C133.358 160 130 156.642 130 152.5C130 148.358 133.358 145 137.5 145C141.642 145 145 148.358 145 152.5Z" fill="none" opacity="1" stroke="#ffffff" stroke-linecap="round" stroke-linejoin="round" stroke-opacity="0.5" stroke-width="2" vectornator:layerName="path"/>
</g>
<g opacity="1" vectornator:layerName="widget1">
<path d="M140 220L350 220C361.046 220 370 228.954 370 240L370 500C370 511.046 361.046 520 350 520L140 520C128.954 520 120 511.046 120 500L120 240C120 228.954 128.954 220 140 220Z" fill="#282944" fill-rule="nonzero" opacity="1" stroke="none"/>
<g opacity="1" vectornator:layerName="grafico">
<path d="M150 310.843C159.092 302.185 192.55 279.086 208.032 292.07C223.513 305.054 212.77 330.639 225.911 339.506C239.052 348.372 249.109 342.696 261.336 326.966C273.564 311.237 275.642 290.684 293.303 276.504C310.964 262.325 326.939 276.851 340 290.738" fill="none" opacity="1" stroke="#0e5ecc" stroke-linecap="round" stroke-linejoin="round" stroke-opacity="0.8" stroke-width="4"/>
<path d="M145 360L345 360.375" fill="none" opacity="1" stroke="#ffffff" stroke-linecap="round" stroke-linejoin="round" stroke-opacity="0.6" stroke-width="2"/>
</g>
<g opacity="1" vectornator:layerName="titoli">
<path d="M147.5 240L172.5 240C176.642 240 180 242.686 180 246L180 246C180 249.314 176.642 252 172.5 252L147.5 252C143.358 252 140 249.314 140 246L140 246C140 242.686 143.358 240 147.5 240Z" fill="#ffffff" fill-opacity="0.3" fill-rule="nonzero" opacity="1" stroke="none"/>
<path d="M197.5 240L222.5 240C226.642 240 230 242.686 230 246L230 246C230 249.314 226.642 252 222.5 252L197.5 252C193.358 252 190 249.314 190 246L190 246C190 242.686 193.358 240 197.5 240Z" fill="#ffffff" fill-opacity="0.3" fill-rule="nonzero" opacity="1" stroke="none"/>
<path d="M247.5 240L272.5 240C276.642 240 280 242.686 280 246L280 246C280 249.314 276.642 252 272.5 252L247.5 252C243.358 252 240 249.314 240 246L240 246C240 242.686 243.358 240 247.5 240Z" fill="#ffffff" fill-opacity="0.3" fill-rule="nonzero" opacity="1" stroke="none"/>
</g>
<g opacity="1" vectornator:layerName="aziende">
<path d="M150 390C150 384.477 154.477 380 160 380C165.523 380 170 384.477 170 390C170 395.523 165.523 400 160 400C154.477 400 150 395.523 150 390Z" fill="#454763" fill-rule="nonzero" opacity="1" stroke="none"/>
<path d="M150 420C150 414.477 154.477 410 160 410C165.523 410 170 414.477 170 420C170 425.523 165.523 430 160 430C154.477 430 150 425.523 150 420Z" fill="#454763" fill-rule="nonzero" opacity="1" stroke="none"/>
<path d="M150 450C150 444.477 154.477 440 160 440C165.523 440 170 444.477 170 450C170 455.523 165.523 460 160 460C154.477 460 150 455.523 150 450Z" fill="#454763" fill-rule="nonzero" opacity="1" stroke="none"/>
<path d="M150 480C150 474.477 154.477 470 160 470C165.523 470 170 474.477 170 480C170 485.523 165.523 490 160 490C154.477 490 150 485.523 150 480Z" fill="#454763" fill-rule="nonzero" opacity="1" stroke="none"/>
<path d="M188.871 386.5L291.129 386.5C293.267 386.5 295 388.067 295 390L295 390C295 391.933 293.267 393.5 291.129 393.5L188.871 393.5C186.733 393.5 185 391.933 185 390L185 390C185 388.067 186.733 386.5 188.871 386.5Z" fill="#ffffff" fill-opacity="0.5" fill-rule="nonzero" opacity="1" stroke="none"/>
<path d="M188.871 416.5L291.129 416.5C293.267 416.5 295 418.067 295 420L295 420C295 421.933 293.267 423.5 291.129 423.5L188.871 423.5C186.733 423.5 185 421.933 185 420L185 420C185 418.067 186.733 416.5 188.871 416.5Z" fill="#ffffff" fill-opacity="0.5" fill-rule="nonzero" opacity="1" stroke="none"/>
<path d="M188.871 446.5L291.129 446.5C293.267 446.5 295 448.067 295 450L295 450C295 451.933 293.267 453.5 291.129 453.5L188.871 453.5C186.733 453.5 185 451.933 185 450L185 450C185 448.067 186.733 446.5 188.871 446.5Z" fill="#ffffff" fill-opacity="0.5" fill-rule="nonzero" opacity="1" stroke="none"/>
<path d="M188.871 476.5L291.129 476.5C293.267 476.5 295 478.067 295 480L295 480C295 481.933 293.267 483.5 291.129 483.5L188.871 483.5C186.733 483.5 185 481.933 185 480L185 480C185 478.067 186.733 476.5 188.871 476.5Z" fill="#ffffff" fill-opacity="0.5" fill-rule="nonzero" opacity="1" stroke="none"/>
</g>
</g>
<g opacity="1" vectornator:layerName="widget3">
<path d="M445 220L725 220C738.807 220 750 231.193 750 245L750 345C750 358.807 738.807 370 725 370L445 370C431.193 370 420 358.807 420 345L420 245C420 231.193 431.193 220 445 220Z" fill="#282944" fill-rule="nonzero" opacity="1" stroke="none"/>
<path d="M446 240L514 240C517.314 240 520 242.686 520 246L520 246C520 249.314 517.314 252 514 252L446 252C442.686 252 440 249.314 440 246L440 246C440 242.686 442.686 240 446 240Z" fill="#ffffff" fill-opacity="0.3" fill-rule="nonzero" opacity="1" stroke="none"/>
<g opacity="1" vectornator:layerName="aziende">
<path d="M460 280C460 274.477 464.477 270 470 270C475.523 270 480 274.477 480 280C480 285.523 475.523 290 470 290C464.477 290 460 285.523 460 280Z" fill="#454763" fill-rule="nonzero" opacity="1" stroke="none"/>
<path d="M460 310C460 304.477 464.477 300 470 300C475.523 300 480 304.477 480 310C480 315.523 475.523 320 470 320C464.477 320 460 315.523 460 310Z" fill="#454763" fill-rule="nonzero" opacity="1" stroke="none"/>
<path d="M460 340C460 334.477 464.477 330 470 330C475.523 330 480 334.477 480 340C480 345.523 475.523 350 470 350C464.477 350 460 345.523 460 340Z" fill="#454763" fill-rule="nonzero" opacity="1" stroke="none"/>
<path d="M492.815 276.5L567.185 276.5C568.74 276.5 570 278.067 570 280L570 280C570 281.933 568.74 283.5 567.185 283.5L492.815 283.5C491.26 283.5 490 281.933 490 280L490 280C490 278.067 491.26 276.5 492.815 276.5Z" fill="#ffffff" fill-opacity="0.5" fill-rule="nonzero" opacity="1" stroke="none"/>
<path d="M492.815 306.5L567.185 306.5C568.74 306.5 570 308.067 570 310L570 310C570 311.933 568.74 313.5 567.185 313.5L492.815 313.5C491.26 313.5 490 311.933 490 310L490 310C490 308.067 491.26 306.5 492.815 306.5Z" fill="#ffffff" fill-opacity="0.5" fill-rule="nonzero" opacity="1" stroke="none"/>
<path d="M492.815 336.5L567.185 336.5C568.74 336.5 570 338.067 570 340L570 340C570 341.933 568.74 343.5 567.185 343.5L492.815 343.5C491.26 343.5 490 341.933 490 340L490 340C490 338.067 491.26 336.5 492.815 336.5Z" fill="#ffffff" fill-opacity="0.5" fill-rule="nonzero" opacity="1" stroke="none"/>
</g>
<g opacity="1" vectornator:layerName="aziende">
<path d="M610 280C610 274.477 614.477 270 620 270C625.523 270 630 274.477 630 280C630 285.523 625.523 290 620 290C614.477 290 610 285.523 610 280Z" fill="#454763" fill-rule="nonzero" opacity="1" stroke="none"/>
<path d="M610 310C610 304.477 614.477 300 620 300C625.523 300 630 304.477 630 310C630 315.523 625.523 320 620 320C614.477 320 610 315.523 610 310Z" fill="#454763" fill-rule="nonzero" opacity="1" stroke="none"/>
<path d="M610 340C610 334.477 614.477 330 620 330C625.523 330 630 334.477 630 340C630 345.523 625.523 350 620 350C614.477 350 610 345.523 610 340Z" fill="#454763" fill-rule="nonzero" opacity="1" stroke="none"/>
<path d="M642.815 276.5L717.185 276.5C718.74 276.5 720 278.067 720 280L720 280C720 281.933 718.74 283.5 717.185 283.5L642.815 283.5C641.26 283.5 640 281.933 640 280L640 280C640 278.067 641.26 276.5 642.815 276.5Z" fill="#ffffff" fill-opacity="0.5" fill-rule="nonzero" opacity="1" stroke="none"/>
<path d="M642.815 306.5L717.185 306.5C718.74 306.5 720 308.067 720 310L720 310C720 311.933 718.74 313.5 717.185 313.5L642.815 313.5C641.26 313.5 640 311.933 640 310L640 310C640 308.067 641.26 306.5 642.815 306.5Z" fill="#ffffff" fill-opacity="0.5" fill-rule="nonzero" opacity="1" stroke="none"/>
<path d="M642.815 336.5L717.185 336.5C718.74 336.5 720 338.067 720 340L720 340C720 341.933 718.74 343.5 717.185 343.5L642.815 343.5C641.26 343.5 640 341.933 640 340L640 340C640 338.067 641.26 336.5 642.815 336.5Z" fill="#ffffff" fill-opacity="0.5" fill-rule="nonzero" opacity="1" stroke="none"/>
</g>
</g>
<g opacity="1" vectornator:layerName="wiget2">
<path d="M450 400L840 400C856.569 400 870 413.431 870 430L870 670C870 686.569 856.569 700 840 700L450 700C433.431 700 420 686.569 420 670L420 430C420 413.431 433.431 400 450 400Z" fill="#282944" fill-rule="nonzero" opacity="1" stroke="none"/>
<g opacity="1">
<path d="M440 427.5C440 423.358 443.358 420 447.5 420C451.642 420 455 423.358 455 427.5C455 431.642 451.642 435 447.5 435C443.358 435 440 431.642 440 427.5Z" fill="#e6074a" fill-rule="nonzero" opacity="1" stroke="none"/>
<path d="M464 427.5C464 423.358 467.358 420 471.5 420C475.642 420 479 423.358 479 427.5C479 431.642 475.642 435 471.5 435C467.358 435 464 431.642 464 427.5Z" fill="#e6b417" fill-rule="nonzero" opacity="1" stroke="none"/>
<path d="M488 427.5C488 423.358 491.358 420 495.5 420C499.642 420 503 423.358 503 427.5C503 431.642 499.642 435 495.5 435C491.358 435 488 431.642 488 427.5Z" fill="#4ae71a" fill-rule="nonzero" opacity="1" stroke="none"/>
</g>
<path d="M420 558.591C438.011 558.119 432.98 608.958 471.494 617.254C510.008 625.551 525.663 575.496 566.438 581.135C607.213 586.774 613.414 660.538 645.682 635.779C677.95 611.021 670.968 484.111 710.143 467.583C745.776 452.548 736.891 521.947 760.316 533.021C792.569 548.267 796.146 590.927 822.051 585.307C847.956 579.687 845.405 503.583 870 503.994" fill="none" filter="url(#Filter)" stroke="#0e5ecc" stroke-linecap="butt" stroke-linejoin="round" stroke-opacity="0.9" stroke-width="7" vectornator:shadowAngle="1.5708" vectornator:shadowColor="#0e5ecc" vectornator:shadowOffset="8" vectornator:shadowOpacity="0.9" vectornator:shadowRadius="20"/>
<g opacity="1" vectornator:layerName="titoli">
<path d="M450 472.5C450 465.596 455.596 460 462.5 460C469.404 460 475 465.596 475 472.5C475 479.404 469.404 485 462.5 485C455.596 485 450 479.404 450 472.5Z" fill="#454763" fill-rule="nonzero" opacity="1" stroke="none"/>
<path d="M492.815 469L567.185 469C568.74 469 570 470.567 570 472.5L570 472.5C570 474.433 568.74 476 567.185 476L492.815 476C491.26 476 490 474.433 490 472.5L490 472.5C490 470.567 491.26 469 492.815 469Z" fill="#ffffff" fill-opacity="0.5" fill-rule="nonzero" opacity="1" stroke="none"/>
<path d="M493.5 485L526.5 485C528.433 485 530 486.567 530 488.5L530 488.5C530 490.433 528.433 492 526.5 492L493.5 492C491.567 492 490 490.433 490 488.5L490 488.5C490 486.567 491.567 485 493.5 485Z" fill="#ffffff" fill-opacity="0.5" fill-rule="nonzero" opacity="1" stroke="none"/>
</g>
</g>
<g opacity="1">
<path d="M470 0L830 0C841.046 0 850 8.95431 850 20L850 80C850 91.0457 841.046 100 830 100L470 100C458.954 100 450 91.0457 450 80L450 20C450 8.95431 458.954 0 470 0Z" fill="#0e5ecc" fill-rule="nonzero" opacity="1" stroke="none"/>
<g opacity="1">
<g opacity="1">
<g fill="#ffffff" opacity="1" stroke="none">
<path d="M675.401 42.3147C675.401 43.1947 675.173 44.0067 674.717 44.7507C674.261 45.4947 673.589 46.1027 672.701 46.5747C671.813 47.0467 670.761 47.3067 669.545 47.3547L669.545 49.2987L668.009 49.2987L668.009 47.3307C666.313 47.1867 664.945 46.6787 663.905 45.8067C662.865 44.9347 662.313 43.7467 662.249 42.2427L666.617 42.2427C666.713 43.2027 667.177 43.8187 668.009 44.0907L668.009 40.2987C666.761 39.9787 665.765 39.6667 665.021 39.3627C664.277 39.0587 663.625 38.5707 663.065 37.8987C662.505 37.2267 662.225 36.3067 662.225 35.1387C662.225 33.6827 662.765 32.5147 663.845 31.6347C664.925 30.7547 666.313 30.2587 668.009 30.1467L668.009 28.2027L669.545 28.2027L669.545 30.1467C671.225 30.2747 672.553 30.7627 673.529 31.6107C674.505 32.4587 675.049 33.6347 675.161 35.1387L670.769 35.1387C670.673 34.2747 670.265 33.7147 669.545 33.4587L669.545 37.1787C670.873 37.5467 671.897 37.8747 672.617 38.1627C673.337 38.4507 673.981 38.9267 674.549 39.5907C675.117 40.2547 675.401 41.1627 675.401 42.3147ZM666.569 34.9467C666.569 35.3467 666.693 35.6827 666.941 35.9547C667.189 36.2267 667.545 36.4667 668.009 36.6747L668.009 33.3387C667.561 33.4187 667.209 33.5907 666.953 33.8547C666.697 34.1187 666.569 34.4827 666.569 34.9467ZM669.545 44.1627C670.025 44.0827 670.405 43.8907 670.685 43.5867C670.965 43.2827 671.105 42.9067 671.105 42.4587C671.105 42.0427 670.973 41.7027 670.709 41.4387C670.445 41.1747 670.057 40.9467 669.545 40.7547L669.545 44.1627Z"/>
<path d="M678.609 33.5067L678.609 29.6907L685.257 29.6907L685.257 47.2107L680.985 47.2107L680.985 33.5067L678.609 33.5067Z"/>
<path d="M689.209 34.6347C689.273 32.9227 689.833 31.6027 690.889 30.6747C691.945 29.7467 693.377 29.2827 695.185 29.2827C696.385 29.2827 697.413 29.4907 698.269 29.9067C699.125 30.3227 699.773 30.8907 700.213 31.6107C700.653 32.3307 700.873 33.1387 700.873 34.0347C700.873 35.0907 700.609 35.9507 700.081 36.6147C699.553 37.2787 698.937 37.7307 698.233 37.9707L698.233 38.0667C699.145 38.3707 699.865 38.8747 700.393 39.5787C700.921 40.2827 701.185 41.1867 701.185 42.2907C701.185 43.2827 700.957 44.1587 700.501 44.9187C700.045 45.6787 699.381 46.2747 698.509 46.7067C697.637 47.1387 696.601 47.3547 695.401 47.3547C693.481 47.3547 691.949 46.8827 690.805 45.9387C689.661 44.9947 689.057 43.5707 688.993 41.6667L692.977 41.6667C692.993 42.3707 693.193 42.9267 693.577 43.3347C693.961 43.7427 694.521 43.9467 695.257 43.9467C695.881 43.9467 696.365 43.7667 696.709 43.4067C697.053 43.0467 697.225 42.5707 697.225 41.9787C697.225 41.2107 696.981 40.6547 696.493 40.3107C696.005 39.9667 695.225 39.7947 694.153 39.7947L693.385 39.7947L693.385 36.4587L694.153 36.4587C694.969 36.4587 695.629 36.3187 696.133 36.0387C696.637 35.7587 696.889 35.2587 696.889 34.5387C696.889 33.9627 696.729 33.5147 696.409 33.1947C696.089 32.8747 695.649 32.7147 695.089 32.7147C694.481 32.7147 694.029 32.8987 693.733 33.2667C693.437 33.6347 693.265 34.0907 693.217 34.6347L689.209 34.6347Z"/>
<path d="M707.465 37.8027C705.961 37.0027 705.209 35.7467 705.209 34.0347C705.209 33.1707 705.433 32.3827 705.881 31.6707C706.329 30.9587 707.009 30.3907 707.921 29.9667C708.833 29.5427 709.953 29.3307 711.281 29.3307C712.609 29.3307 713.725 29.5427 714.629 29.9667C715.533 30.3907 716.209 30.9587 716.657 31.6707C717.105 32.3827 717.329 33.1707 717.329 34.0347C717.329 34.8987 717.125 35.6507 716.717 36.2907C716.309 36.9307 715.761 37.4347 715.073 37.8027C715.937 38.2187 716.601 38.7907 717.065 39.5187C717.529 40.2467 717.761 41.0987 717.761 42.0747C717.761 43.2107 717.473 44.1907 716.897 45.0147C716.321 45.8387 715.541 46.4667 714.557 46.8987C713.573 47.3307 712.481 47.5467 711.281 47.5467C710.081 47.5467 708.989 47.3307 708.005 46.8987C707.021 46.4667 706.241 45.8387 705.665 45.0147C705.089 44.1907 704.801 43.2107 704.801 42.0747C704.801 41.0827 705.033 40.2227 705.497 39.4947C705.961 38.7667 706.617 38.2027 707.465 37.8027ZM713.345 34.6587C713.345 34.0027 713.157 33.4947 712.781 33.1347C712.405 32.7747 711.905 32.5947 711.281 32.5947C710.657 32.5947 710.157 32.7787 709.781 33.1467C709.405 33.5147 709.217 34.0267 709.217 34.6827C709.217 35.3067 709.409 35.7987 709.793 36.1587C710.177 36.5187 710.673 36.6987 711.281 36.6987C711.889 36.6987 712.385 36.5147 712.769 36.1467C713.153 35.7787 713.345 35.2827 713.345 34.6587ZM711.281 39.5787C710.529 39.5787 709.921 39.7827 709.457 40.1907C708.993 40.5987 708.761 41.1627 708.761 41.8827C708.761 42.5547 708.989 43.1067 709.445 43.5387C709.901 43.9707 710.513 44.1867 711.281 44.1867C712.049 44.1867 712.653 43.9707 713.093 43.5387C713.533 43.1067 713.753 42.5547 713.753 41.8827C713.753 41.1787 713.525 40.6187 713.069 40.2027C712.613 39.7867 712.017 39.5787 711.281 39.5787Z"/>
</g>
<path d="M664.679 56.8935L714.179 56.8935C717.078 56.8935 719.429 59.1321 719.429 61.8935L719.429 61.8935C719.429 64.6549 717.078 66.8935 714.179 66.8935L664.679 66.8935C661.779 66.8935 659.429 64.6549 659.429 61.8935L659.429 61.8935C659.429 59.1321 661.779 56.8935 664.679 56.8935Z" fill="#ffffff" fill-opacity="0.5" fill-rule="nonzero" opacity="1" stroke="none"/>
</g>
<g opacity="1">
<g fill="#ffffff" opacity="1" stroke="none">
<path d="M595.401 42.3147C595.401 43.1947 595.173 44.0067 594.717 44.7507C594.261 45.4947 593.589 46.1027 592.701 46.5747C591.813 47.0467 590.761 47.3067 589.545 47.3547L589.545 49.2987L588.009 49.2987L588.009 47.3307C586.313 47.1867 584.945 46.6787 583.905 45.8067C582.865 44.9347 582.313 43.7467 582.249 42.2427L586.617 42.2427C586.713 43.2027 587.177 43.8187 588.009 44.0907L588.009 40.2987C586.761 39.9787 585.765 39.6667 585.021 39.3627C584.277 39.0587 583.625 38.5707 583.065 37.8987C582.505 37.2267 582.225 36.3067 582.225 35.1387C582.225 33.6827 582.765 32.5147 583.845 31.6347C584.925 30.7547 586.313 30.2587 588.009 30.1467L588.009 28.2027L589.545 28.2027L589.545 30.1467C591.225 30.2747 592.553 30.7627 593.529 31.6107C594.505 32.4587 595.049 33.6347 595.161 35.1387L590.769 35.1387C590.673 34.2747 590.265 33.7147 589.545 33.4587L589.545 37.1787C590.873 37.5467 591.897 37.8747 592.617 38.1627C593.337 38.4507 593.981 38.9267 594.549 39.5907C595.117 40.2547 595.401 41.1627 595.401 42.3147ZM586.569 34.9467C586.569 35.3467 586.693 35.6827 586.941 35.9547C587.189 36.2267 587.545 36.4667 588.009 36.6747L588.009 33.3387C587.561 33.4187 587.209 33.5907 586.953 33.8547C586.697 34.1187 586.569 34.4827 586.569 34.9467ZM589.545 44.1627C590.025 44.0827 590.405 43.8907 590.685 43.5867C590.965 43.2827 591.105 42.9067 591.105 42.4587C591.105 42.0427 590.973 41.7027 590.709 41.4387C590.445 41.1747 590.057 40.9467 589.545 40.7547L589.545 44.1627Z"/>
<path d="M599.185 34.6347C599.249 32.9227 599.809 31.6027 600.865 30.6747C601.921 29.7467 603.353 29.2827 605.161 29.2827C606.361 29.2827 607.389 29.4907 608.245 29.9067C609.101 30.3227 609.749 30.8907 610.189 31.6107C610.629 32.3307 610.849 33.1387 610.849 34.0347C610.849 35.0907 610.585 35.9507 610.057 36.6147C609.529 37.2787 608.913 37.7307 608.209 37.9707L608.209 38.0667C609.121 38.3707 609.841 38.8747 610.369 39.5787C610.897 40.2827 611.161 41.1867 611.161 42.2907C611.161 43.2827 610.933 44.1587 610.477 44.9187C610.021 45.6787 609.357 46.2747 608.485 46.7067C607.613 47.1387 606.577 47.3547 605.377 47.3547C603.457 47.3547 601.925 46.8827 600.781 45.9387C599.637 44.9947 599.033 43.5707 598.969 41.6667L602.953 41.6667C602.969 42.3707 603.169 42.9267 603.553 43.3347C603.937 43.7427 604.497 43.9467 605.233 43.9467C605.857 43.9467 606.341 43.7667 606.685 43.4067C607.029 43.0467 607.201 42.5707 607.201 41.9787C607.201 41.2107 606.957 40.6547 606.469 40.3107C605.981 39.9667 605.201 39.7947 604.129 39.7947L603.361 39.7947L603.361 36.4587L604.129 36.4587C604.945 36.4587 605.605 36.3187 606.109 36.0387C606.613 35.7587 606.865 35.2587 606.865 34.5387C606.865 33.9627 606.705 33.5147 606.385 33.1947C606.065 32.8747 605.625 32.7147 605.065 32.7147C604.457 32.7147 604.005 32.8987 603.709 33.2667C603.413 33.6347 603.241 34.0907 603.193 34.6347L599.185 34.6347Z"/>
<path d="M613.417 43.9227C613.961 43.4907 614.209 43.2907 614.161 43.3227C615.729 42.0267 616.965 40.9627 617.869 40.1307C618.773 39.2987 619.537 38.4267 620.161 37.5147C620.785 36.6027 621.097 35.7147 621.097 34.8507C621.097 34.1947 620.945 33.6827 620.641 33.3147C620.337 32.9467 619.881 32.7627 619.273 32.7627C618.665 32.7627 618.189 32.9907 617.845 33.4467C617.501 33.9027 617.329 34.5467 617.329 35.3787L613.369 35.3787C613.401 34.0187 613.693 32.8827 614.245 31.9707C614.797 31.0587 615.525 30.3867 616.429 29.9547C617.333 29.5227 618.337 29.3067 619.441 29.3067C621.345 29.3067 622.781 29.7947 623.749 30.7707C624.717 31.7467 625.201 33.0187 625.201 34.5867C625.201 36.2987 624.617 37.8867 623.449 39.3507C622.281 40.8147 620.793 42.2427 618.985 43.6347L625.465 43.6347L625.465 46.9707L613.417 46.9707L613.417 43.9227Z"/>
<path d="M626.833 33.5067L626.833 29.6907L633.481 29.6907L633.481 47.2107L629.209 47.2107L629.209 33.5067L626.833 33.5067Z"/>
</g>
<path d="M584.679 56.8935L634.179 56.8935C637.078 56.8935 639.429 59.1321 639.429 61.8935L639.429 61.8935C639.429 64.6549 637.078 66.8935 634.179 66.8935L584.679 66.8935C581.779 66.8935 579.429 64.6549 579.429 61.8935L579.429 61.8935C579.429 59.1321 581.779 56.8935 584.679 56.8935Z" fill="#ffffff" fill-opacity="0.5" fill-rule="nonzero" opacity="1" stroke="none"/>
</g>
<g opacity="1">
<g fill="#ffffff" opacity="1" stroke="none">
<path d="M515.401 42.3147C515.401 43.1947 515.173 44.0067 514.717 44.7507C514.261 45.4947 513.589 46.1027 512.701 46.5747C511.813 47.0467 510.761 47.3067 509.545 47.3547L509.545 49.2987L508.009 49.2987L508.009 47.3307C506.313 47.1867 504.945 46.6787 503.905 45.8067C502.865 44.9347 502.313 43.7467 502.249 42.2427L506.617 42.2427C506.713 43.2027 507.177 43.8187 508.009 44.0907L508.009 40.2987C506.761 39.9787 505.765 39.6667 505.021 39.3627C504.277 39.0587 503.625 38.5707 503.065 37.8987C502.505 37.2267 502.225 36.3067 502.225 35.1387C502.225 33.6827 502.765 32.5147 503.845 31.6347C504.925 30.7547 506.313 30.2587 508.009 30.1467L508.009 28.2027L509.545 28.2027L509.545 30.1467C511.225 30.2747 512.553 30.7627 513.529 31.6107C514.505 32.4587 515.049 33.6347 515.161 35.1387L510.769 35.1387C510.673 34.2747 510.265 33.7147 509.545 33.4587L509.545 37.1787C510.873 37.5467 511.897 37.8747 512.617 38.1627C513.337 38.4507 513.981 38.9267 514.549 39.5907C515.117 40.2547 515.401 41.1627 515.401 42.3147ZM506.569 34.9467C506.569 35.3467 506.693 35.6827 506.941 35.9547C507.189 36.2267 507.545 36.4667 508.009 36.6747L508.009 33.3387C507.561 33.4187 507.209 33.5907 506.953 33.8547C506.697 34.1187 506.569 34.4827 506.569 34.9467ZM509.545 44.1627C510.025 44.0827 510.405 43.8907 510.685 43.5867C510.965 43.2827 511.105 42.9067 511.105 42.4587C511.105 42.0427 510.973 41.7027 510.709 41.4387C510.445 41.1747 510.057 40.9467 509.545 40.7547L509.545 44.1627Z"/>
<path d="M518.609 33.5067L518.609 29.6907L525.257 29.6907L525.257 47.2107L520.985 47.2107L520.985 33.5067L518.609 33.5067Z"/>
<path d="M540.249 32.7627L534.225 47.2107L530.025 47.2107L536.121 33.2187L528.657 33.2187L528.657 29.7147L540.249 29.7147L540.249 32.7627Z"/>
<path d="M554.089 32.7627L548.065 47.2107L543.865 47.2107L549.961 33.2187L542.497 33.2187L542.497 29.7147L554.089 29.7147L554.089 32.7627Z"/>
</g>
<path d="M504.679 56.8935L554.179 56.8935C557.078 56.8935 559.429 59.1321 559.429 61.8935L559.429 61.8935C559.429 64.6549 557.078 66.8935 554.179 66.8935L504.679 66.8935C501.779 66.8935 499.429 64.6549 499.429 61.8935L499.429 61.8935C499.429 59.1321 501.779 56.8935 504.679 56.8935Z" fill="#ffffff" fill-opacity="0.5" fill-rule="nonzero" opacity="1" stroke="none"/>
</g>
<g opacity="1">
<g fill="#ffffff" opacity="1" stroke="none">
<path d="M755.401 42.3147C755.401 43.1947 755.173 44.0067 754.717 44.7507C754.261 45.4947 753.589 46.1027 752.701 46.5747C751.813 47.0467 750.761 47.3067 749.545 47.3547L749.545 49.2987L748.009 49.2987L748.009 47.3307C746.313 47.1867 744.945 46.6787 743.905 45.8067C742.865 44.9347 742.313 43.7467 742.249 42.2427L746.617 42.2427C746.713 43.2027 747.177 43.8187 748.009 44.0907L748.009 40.2987C746.761 39.9787 745.765 39.6667 745.021 39.3627C744.277 39.0587 743.625 38.5707 743.065 37.8987C742.505 37.2267 742.225 36.3067 742.225 35.1387C742.225 33.6827 742.765 32.5147 743.845 31.6347C744.925 30.7547 746.313 30.2587 748.009 30.1467L748.009 28.2027L749.545 28.2027L749.545 30.1467C751.225 30.2747 752.553 30.7627 753.529 31.6107C754.505 32.4587 755.049 33.6347 755.161 35.1387L750.769 35.1387C750.673 34.2747 750.265 33.7147 749.545 33.4587L749.545 37.1787C750.873 37.5467 751.897 37.8747 752.617 38.1627C753.337 38.4507 753.981 38.9267 754.549 39.5907C755.117 40.2547 755.401 41.1627 755.401 42.3147ZM746.569 34.9467C746.569 35.3467 746.693 35.6827 746.941 35.9547C747.189 36.2267 747.545 36.4667 748.009 36.6747L748.009 33.3387C747.561 33.4187 747.209 33.5907 746.953 33.8547C746.697 34.1187 746.569 34.4827 746.569 34.9467ZM749.545 44.1627C750.025 44.0827 750.405 43.8907 750.685 43.5867C750.965 43.2827 751.105 42.9067 751.105 42.4587C751.105 42.0427 750.973 41.7027 750.709 41.4387C750.445 41.1747 750.057 40.9467 749.545 40.7547L749.545 44.1627Z"/>
<path d="M758.897 43.9227C759.441 43.4907 759.689 43.2907 759.641 43.3227C761.209 42.0267 762.445 40.9627 763.349 40.1307C764.253 39.2987 765.017 38.4267 765.641 37.5147C766.265 36.6027 766.577 35.7147 766.577 34.8507C766.577 34.1947 766.425 33.6827 766.121 33.3147C765.817 32.9467 765.361 32.7627 764.753 32.7627C764.145 32.7627 763.669 32.9907 763.325 33.4467C762.981 33.9027 762.809 34.5467 762.809 35.3787L758.849 35.3787C758.881 34.0187 759.173 32.8827 759.725 31.9707C760.277 31.0587 761.005 30.3867 761.909 29.9547C762.813 29.5227 763.817 29.3067 764.921 29.3067C766.825 29.3067 768.261 29.7947 769.229 30.7707C770.197 31.7467 770.681 33.0187 770.681 34.5867C770.681 36.2987 770.097 37.8867 768.929 39.3507C767.761 40.8147 766.273 42.2427 764.465 43.6347L770.945 43.6347L770.945 46.9707L758.897 46.9707L758.897 43.9227Z"/>
<path d="M773.841 44.0907L773.841 40.7787L781.425 29.9307L786.009 29.9307L786.009 40.5387L787.977 40.5387L787.977 44.0907L786.009 44.0907L786.009 47.2107L781.905 47.2107L781.905 44.0907L773.841 44.0907ZM782.193 34.4427L778.161 40.5387L782.193 40.5387L782.193 34.4427Z"/>
<path d="M790.561 33.5067L790.561 29.6907L797.209 29.6907L797.209 47.2107L792.937 47.2107L792.937 33.5067L790.561 33.5067Z"/>
</g>
<path d="M744.679 56.8935L794.179 56.8935C797.078 56.8935 799.429 59.1321 799.429 61.8935L799.429 61.8935C799.429 64.6549 797.078 66.8935 794.179 66.8935L744.679 66.8935C741.779 66.8935 739.429 64.6549 739.429 61.8935L739.429 61.8935C739.429 59.1321 741.779 56.8935 744.679 56.8935Z" fill="#ffffff" fill-opacity="0.5" fill-rule="nonzero" opacity="1" stroke="none"/>
</g>
</g>
</g>
</g>
</g>
</svg>
