<?xml version="1.0" encoding="UTF-8" standalone="no"?>
<!DOCTYPE svg PUBLIC "-//W3C//DTD SVG 1.1//EN" "http://www.w3.org/Graphics/SVG/1.1/DTD/svg11.dtd">
<!-- Created with Vectornator (http://vectornator.io/) -->
<svg height="100%" stroke-miterlimit="10" style="fill-rule:nonzero;clip-rule:evenodd;stroke-linecap:round;stroke-linejoin:round;" version="1.1" viewBox="0 0 559.761 572.366" width="100%" xml:space="preserve" xmlns="http://www.w3.org/2000/svg" xmlns:xlink="http://www.w3.org/1999/xlink">
<defs/>
<clipPath id="ArtboardFrame">
<rect height="572.366" width="559.761" x="0" y="0"/>
</clipPath>
<g clip-path="url(#ArtboardFrame)" id="Sfondo">
<path d="M525.246 216.634C572.66 311.068 581.61 430.52 485.423 509.163C386.43 590.099 241.924 586.71 134.156 536.39C33.253 489.275-16.8752 391.413 12.6084 288.391C42.888 182.588 142.268 90.8353 266.65 73.4253C386.697 56.6213 479.961 126.436 525.246 216.634Z" fill="#8ec2f2" fill-opacity="0.6" fill-rule="evenodd" opacity="0.35" stroke="none"/>
<path d="M309.205 6.97025C417.292 29.3974 523.848 96.0863 533.65 216.654C543.739 340.74 455.434 447.185 349.063 497.197C249.468 544.023 136.871 521.528 66.965 436.072C-4.82735 348.309-23.8561 217.285 34.919 113.172C91.645 12.687 205.968-14.4506 309.205 6.97025Z" fill="#0e5ecc" fill-opacity="0.7" fill-rule="evenodd" opacity="0.4" stroke="none"/>
</g>
<g id="Testo">
<path d="M108.95 113.955L108.95 127.676L84.1466 127.676L84.1466 138.582L102.441 138.582L102.441 151.687L84.1466 151.687L84.1466 175.963L66.9075 175.963L66.9075 113.955L108.95 113.955ZM113.395 151.247C113.395 146.146 114.304 141.69 116.122 137.878C117.998 134.067 120.52 131.135 123.686 129.083C126.911 127.031 130.488 126.005 134.417 126.005C137.817 126.005 140.749 126.679 143.212 128.028C145.675 129.376 147.58 131.194 148.929 133.481L148.929 126.62L166.168 126.62L166.168 175.963L148.929 175.963L148.929 169.102C147.58 171.389 145.645 173.207 143.124 174.555C140.661 175.904 137.759 176.578 134.417 176.578C130.488 176.578 126.911 175.552 123.686 173.5C120.52 171.448 117.998 168.516 116.122 164.704C114.304 160.834 113.395 156.349 113.395 151.247ZM148.929 151.247C148.929 148.081 148.049 145.589 146.29 143.771C144.59 141.954 142.479 141.045 139.958 141.045C137.378 141.045 135.237 141.954 133.537 143.771C131.837 145.53 130.986 148.022 130.986 151.247C130.986 154.414 131.837 156.935 133.537 158.812C135.237 160.629 137.378 161.538 139.958 161.538C142.479 161.538 144.59 160.629 146.29 158.812C148.049 156.994 148.929 154.472 148.929 151.247ZM173.177 151.247C173.177 146.146 174.232 141.69 176.343 137.878C178.454 134.067 181.386 131.135 185.139 129.083C188.95 127.031 193.289 126.005 198.156 126.005C204.43 126.005 209.707 127.734 213.988 131.194C218.268 134.595 221.024 139.374 222.255 145.53L203.961 145.53C202.905 142.305 200.853 140.693 197.804 140.693C195.634 140.693 193.905 141.602 192.615 143.42C191.383 145.179 190.768 147.788 190.768 151.247C190.768 154.707 191.383 157.346 192.615 159.163C193.905 160.981 195.634 161.89 197.804 161.89C200.912 161.89 202.964 160.277 203.961 157.052L222.255 157.052C221.024 163.151 218.268 167.929 213.988 171.389C209.707 174.848 204.43 176.578 198.156 176.578C193.289 176.578 188.95 175.552 185.139 173.5C181.386 171.448 178.454 168.516 176.343 164.704C174.232 160.893 173.177 156.407 173.177 151.247ZM238.124 122.047C235.075 122.047 232.612 121.226 230.736 119.584C228.918 117.883 228.009 115.773 228.009 113.251C228.009 110.671 228.918 108.531 230.736 106.831C232.612 105.13 235.075 104.28 238.124 104.28C241.115 104.28 243.519 105.13 245.336 106.831C247.213 108.531 248.151 110.671 248.151 113.251C248.151 115.773 247.213 117.883 245.336 119.584C243.519 121.226 241.115 122.047 238.124 122.047ZM246.656 126.62L246.656 175.963L229.417 175.963L229.417 126.62L246.656 126.62ZM273.712 110.876L273.712 175.963L256.473 175.963L256.473 110.876L273.712 110.876ZM330.673 150.72C330.673 152.068 330.585 153.417 330.409 154.766L297.778 154.766C297.954 157.463 298.686 159.486 299.976 160.834C301.325 162.124 303.026 162.769 305.078 162.769C307.951 162.769 310.003 161.479 311.235 158.899L329.617 158.899C328.855 162.3 327.36 165.349 325.131 168.047C322.962 170.685 320.206 172.767 316.864 174.291C313.521 175.816 309.827 176.578 305.781 176.578C300.915 176.578 296.576 175.552 292.764 173.5C289.012 171.448 286.05 168.516 283.881 164.704C281.77 160.893 280.714 156.407 280.714 151.247C280.714 146.087 281.77 141.631 283.881 137.878C285.992 134.067 288.924 131.135 292.676 129.083C296.488 127.031 300.856 126.005 305.781 126.005C310.648 126.005 314.958 127.001 318.711 128.995C322.463 130.989 325.395 133.862 327.506 137.615C329.617 141.309 330.673 145.677 330.673 150.72ZM313.082 146.41C313.082 144.299 312.378 142.657 310.971 141.485C309.563 140.253 307.804 139.637 305.693 139.637C303.583 139.637 301.853 140.224 300.504 141.397C299.156 142.511 298.276 144.182 297.866 146.41L313.082 146.41ZM356.286 161.186L346.875 186.869L335.968 186.869L340.542 161.186L356.286 161.186ZM127.244 221.454L105.871 283.462L83.7947 283.462L62.3339 221.454L80.8043 221.454L94.877 266.223L108.862 221.454L127.244 221.454ZM179.759 258.219C179.759 259.568 179.671 260.917 179.495 262.265L146.864 262.265C147.04 264.962 147.773 266.985 149.063 268.334C150.412 269.624 152.112 270.269 154.164 270.269C157.037 270.269 159.09 268.979 160.321 266.399L178.703 266.399C177.941 269.8 176.446 272.849 174.218 275.546C172.048 278.185 169.292 280.267 165.95 281.791C162.608 283.316 158.914 284.078 154.868 284.078C150.001 284.078 145.662 283.052 141.851 280.999C138.098 278.947 135.137 276.015 132.967 272.204C130.856 268.393 129.801 263.907 129.801 258.747C129.801 253.587 130.856 249.131 132.967 245.378C135.078 241.567 138.01 238.635 141.763 236.583C145.574 234.53 149.942 233.504 154.868 233.504C159.734 233.504 164.044 234.501 167.797 236.495C171.55 238.488 174.481 241.361 176.592 245.114C178.703 248.808 179.759 253.177 179.759 258.219ZM162.168 253.91C162.168 251.799 161.464 250.157 160.057 248.984C158.65 247.753 156.891 247.137 154.78 247.137C152.669 247.137 150.939 247.723 149.591 248.896C148.242 250.01 147.362 251.681 146.952 253.91L162.168 253.91ZM204.053 218.376L204.053 283.462L186.814 283.462L186.814 218.376L204.053 218.376ZM236.826 284.078C231.901 284.078 227.474 283.052 223.545 280.999C219.675 278.947 216.626 276.015 214.398 272.204C212.17 268.393 211.056 263.907 211.056 258.747C211.056 253.646 212.17 249.189 214.398 245.378C216.685 241.567 219.763 238.635 223.633 236.583C227.562 234.53 231.989 233.504 236.914 233.504C241.84 233.504 246.237 234.53 250.107 236.583C254.036 238.635 257.114 241.567 259.343 245.378C261.629 249.189 262.773 253.646 262.773 258.747C262.773 263.848 261.629 268.334 259.343 272.204C257.114 276.015 254.036 278.947 250.107 280.999C246.179 283.052 241.752 284.078 236.826 284.078ZM236.826 269.126C239.23 269.126 241.224 268.246 242.807 266.487C244.449 264.669 245.27 262.089 245.27 258.747C245.27 255.405 244.449 252.854 242.807 251.095C241.224 249.336 239.26 248.456 236.914 248.456C234.569 248.456 232.605 249.336 231.021 251.095C229.438 252.854 228.647 255.405 228.647 258.747C228.647 262.148 229.409 264.728 230.933 266.487C232.458 268.246 234.422 269.126 236.826 269.126ZM266.972 258.747C266.972 253.646 268.028 249.189 270.138 245.378C272.249 241.567 275.181 238.635 278.934 236.583C282.745 234.53 287.084 233.504 291.951 233.504C298.225 233.504 303.502 235.234 307.783 238.693C312.063 242.094 314.819 246.873 316.051 253.03L297.756 253.03C296.701 249.805 294.648 248.193 291.599 248.193C289.43 248.193 287.7 249.101 286.41 250.919C285.179 252.678 284.563 255.288 284.563 258.747C284.563 262.207 285.179 264.845 286.41 266.663C287.7 268.481 289.43 269.39 291.599 269.39C294.707 269.39 296.759 267.777 297.756 264.552L316.051 264.552C314.819 270.65 312.063 275.429 307.783 278.889C303.502 282.348 298.225 284.078 291.951 284.078C287.084 284.078 282.745 283.052 278.934 280.999C275.181 278.947 272.249 276.015 270.138 272.204C268.028 268.393 266.972 263.907 266.972 258.747ZM370.355 258.219C370.355 259.568 370.268 260.917 370.092 262.265L337.461 262.265C337.637 264.962 338.369 266.985 339.659 268.334C341.008 269.624 342.709 270.269 344.761 270.269C347.634 270.269 349.686 268.979 350.918 266.399L369.3 266.399C368.538 269.8 367.043 272.849 364.814 275.546C362.645 278.185 359.889 280.267 356.547 281.791C353.204 283.316 349.51 284.078 345.464 284.078C340.598 284.078 336.259 283.052 332.447 280.999C328.695 278.947 325.733 276.015 323.564 272.204C321.453 268.393 320.397 263.907 320.397 258.747C320.397 253.587 321.453 249.131 323.564 245.378C325.675 241.567 328.607 238.635 332.359 236.583C336.171 234.53 340.539 233.504 345.464 233.504C350.331 233.504 354.641 234.501 358.394 236.495C362.146 238.488 365.078 241.361 367.189 245.114C369.3 248.808 370.355 253.177 370.355 258.219ZM352.765 253.91C352.765 251.799 352.061 250.157 350.654 248.984C349.246 247.753 347.487 247.137 345.376 247.137C343.266 247.137 341.536 247.723 340.187 248.896C338.839 250.01 337.959 251.681 337.549 253.91L352.765 253.91ZM395.969 268.686L386.558 294.369L375.651 294.369L380.225 268.686L395.969 268.686ZM84.1466 328.954L84.1466 390.962L66.9075 390.962L66.9075 328.954L84.1466 328.954ZM126.243 341.18C131.931 341.18 136.446 343.085 139.788 346.897C143.13 350.649 144.801 355.751 144.801 362.201L144.801 390.962L127.562 390.962L127.562 364.488C127.562 361.673 126.829 359.474 125.363 357.891C123.897 356.249 121.933 355.428 119.47 355.428C116.89 355.428 114.868 356.249 113.402 357.891C111.936 359.474 111.203 361.673 111.203 364.488L111.203 390.962L93.9637 390.962L93.9637 341.619L111.203 341.619L111.203 348.656C112.727 346.428 114.78 344.639 117.36 343.291C119.94 341.883 122.901 341.18 126.243 341.18ZM183.374 376.273L183.374 390.962L175.897 390.962C163.291 390.962 156.987 384.717 156.987 372.228L156.987 355.956L150.918 355.956L150.918 341.619L156.987 341.619L156.987 329.658L174.314 329.658L174.314 341.619L183.286 341.619L183.286 355.956L174.314 355.956L174.314 372.491C174.314 373.84 174.607 374.808 175.194 375.394C175.839 375.98 176.894 376.273 178.36 376.273L183.374 376.273ZM241.766 341.619L241.766 390.962L224.439 390.962L224.439 383.925C222.974 386.154 220.951 387.971 218.371 389.379C215.791 390.727 212.829 391.402 209.487 391.402C203.741 391.402 199.197 389.525 195.854 385.773C192.571 381.961 190.929 376.801 190.929 370.293L190.929 341.619L208.08 341.619L208.08 368.094C208.08 370.908 208.813 373.136 210.279 374.778C211.803 376.361 213.797 377.153 216.26 377.153C218.781 377.153 220.775 376.361 222.241 374.778C223.706 373.136 224.439 370.908 224.439 368.094L224.439 341.619L241.766 341.619ZM260.285 337.046C257.236 337.046 254.773 336.225 252.897 334.583C251.079 332.883 250.17 330.772 250.17 328.25C250.17 325.67 251.079 323.53 252.897 321.83C254.773 320.129 257.236 319.279 260.285 319.279C263.275 319.279 265.679 320.129 267.497 321.83C269.373 323.53 270.311 325.67 270.311 328.25C270.311 330.772 269.373 332.883 267.497 334.583C265.679 336.225 263.275 337.046 260.285 337.046ZM268.816 341.619L268.816 390.962L251.577 390.962L251.577 341.619L268.816 341.619ZM307.746 376.273L307.746 390.962L300.27 390.962C287.663 390.962 281.359 384.717 281.359 372.228L281.359 355.956L275.291 355.956L275.291 341.619L281.359 341.619L281.359 329.658L298.686 329.658L298.686 341.619L307.658 341.619L307.658 355.956L298.686 355.956L298.686 372.491C298.686 373.84 298.98 374.808 299.566 375.394C300.211 375.98 301.266 376.273 302.732 376.273L307.746 376.273ZM324.36 337.046C321.311 337.046 318.849 336.225 316.972 334.583C315.154 332.883 314.246 330.772 314.246 328.25C314.246 325.67 315.154 323.53 316.972 321.83C318.849 320.129 321.311 319.279 324.36 319.279C327.351 319.279 329.755 320.129 331.573 321.83C333.449 323.53 334.387 325.67 334.387 328.25C334.387 330.772 333.449 332.883 331.573 334.583C329.755 336.225 327.351 337.046 324.36 337.046ZM332.892 341.619L332.892 390.962L315.653 390.962L315.653 341.619L332.892 341.619ZM366.369 374.69L375.604 341.619L393.987 341.619L377.012 390.962L355.551 390.962L338.576 341.619L356.958 341.619L366.369 374.69ZM422.784 391.577C417.859 391.577 413.432 390.551 409.503 388.499C405.633 386.447 402.584 383.515 400.356 379.704C398.128 375.892 397.013 371.407 397.013 366.247C397.013 361.145 398.128 356.689 400.356 352.878C402.643 349.066 405.721 346.134 409.591 344.082C413.52 342.03 417.947 341.004 422.872 341.004C427.797 341.004 432.195 342.03 436.065 344.082C439.994 346.134 443.072 349.066 445.3 352.878C447.587 356.689 448.731 361.145 448.731 366.247C448.731 371.348 447.587 375.834 445.3 379.704C443.072 383.515 439.994 386.447 436.065 388.499C432.137 390.551 427.709 391.577 422.784 391.577ZM422.784 376.625C425.188 376.625 427.182 375.746 428.765 373.987C430.407 372.169 431.228 369.589 431.228 366.247C431.228 362.904 430.407 360.354 428.765 358.595C427.182 356.836 425.217 355.956 422.872 355.956C420.527 355.956 418.562 356.836 416.979 358.595C415.396 360.354 414.604 362.904 414.604 366.247C414.604 369.648 415.367 372.228 416.891 373.987C418.416 375.746 420.38 376.625 422.784 376.625ZM464.1 391.665C461.051 391.665 458.588 390.845 456.712 389.203C454.894 387.502 453.985 385.362 453.985 382.782C453.985 380.202 454.894 378.062 456.712 376.361C458.588 374.661 461.051 373.811 464.1 373.811C467.09 373.811 469.495 374.661 471.312 376.361C473.189 378.062 474.127 380.202 474.127 382.782C474.127 385.303 473.189 387.414 471.312 389.115C469.495 390.815 467.09 391.665 464.1 391.665Z" fill="#121843" fill-rule="nonzero" opacity="1" stroke="none"/>
</g>
</svg>
