<?xml version="1.0" encoding="UTF-8" standalone="no"?>
<!DOCTYPE svg PUBLIC "-//W3C//DTD SVG 1.1//EN" "http://www.w3.org/Graphics/SVG/1.1/DTD/svg11.dtd">
<!-- Created with Vectornator (http://vectornator.io/) -->
<svg height="100%" stroke-miterlimit="10" style="fill-rule:nonzero;clip-rule:evenodd;stroke-linecap:round;stroke-linejoin:round;" version="1.1" viewBox="0 0 855.158 702.472" width="100%" xml:space="preserve" xmlns="http://www.w3.org/2000/svg" xmlns:vectornator="http://vectornator.io" xmlns:xlink="http://www.w3.org/1999/xlink">
<defs>
<path d="M473.908 164.928L524.673 146.452L544.117 199.873L493.352 218.35L473.908 164.928Z" id="Fill"/>
<path d="M391.979 102.942L496.091 65.0485L520.233 131.379L416.121 169.273L391.979 102.942Z" id="Fill_2"/>
<path d="M414.214 186.859L467.485 167.47L487.704 223.022L434.433 242.411L414.214 186.859Z" id="Fill_3"/>
<path d="M630.011 228.07L747.727 296.033L704.427 371.031L586.711 303.068L630.011 228.07Z" id="Fill_4"/>
<path d="M740.565 345.649L778.207 367.381L755.544 406.635L717.902 384.902L740.565 345.649Z" id="Fill_5"/>
<path d="M766.224 301.775L803.005 323.01L780.658 361.716L743.877 340.481L766.224 301.775Z" id="Fill_6"/>
<path d="M266.731 358.104L338.952 358.104L338.952 434.104L266.731 434.104L266.731 358.104Z" id="Fill_7"/>
<path d="M175.013 358.104L247.893 358.104L247.893 434.104L175.013 434.104L175.013 358.104Z" id="Fill_8"/>
<path d="M175.296 237.86L340.149 237.86L340.149 342.889L175.296 342.889L175.296 237.86Z" id="Fill_9"/>
</defs>
<clipPath id="ArtboardFrame">
<rect height="702.472" width="855.158" x="0" y="0"/>
</clipPath>
<g clip-path="url(#ArtboardFrame)" id="Senza-Titolo" vectornator:layerName="Senza Titolo">
<path d="M590.87 432.691C491.066 432.691 409.87 351.495 409.87 251.691C409.87 151.887 491.066 70.6909 590.87 70.6909C601.421 70.6896 611.953 71.6022 622.347 73.4184C622.7 73.4793 622.993 73.724 623.116 74.06C623.239 74.396 623.173 74.7722 622.943 75.0463C622.713 75.3205 622.354 75.4509 622.002 75.3882C611.722 73.5922 601.306 72.6898 590.87 72.6909C492.169 72.6909 411.87 152.99 411.87 251.691C411.87 350.392 492.169 430.691 590.87 430.691C689.571 430.691 769.87 350.392 769.87 251.691C769.914 207.079 753.256 164.067 723.175 131.122C722.807 130.713 722.837 130.084 723.244 129.713C723.651 129.343 724.28 129.37 724.653 129.774C755.07 163.087 771.915 206.58 771.87 251.691C771.87 351.495 690.674 432.691 590.87 432.691Z" fill="#e4e4e4" fill-rule="nonzero" opacity="1" stroke="none" vectornator:layerName="path"/>
<path d="M634.866 96.9565C634.866 77.1786 650.9 61.1455 670.678 61.1455C690.455 61.1455 706.489 77.1786 706.489 96.9565C706.489 116.734 690.455 132.767 670.678 132.767C650.9 132.767 634.866 116.734 634.866 96.9565Z" fill="#0e5ecc" fill-rule="nonzero" opacity="1" stroke="#ffffff" stroke-linecap="butt" stroke-linejoin="round" stroke-width="3" vectornator:layerName="circle"/>
<path d="M665.792 115.594C664.538 115.594 663.358 115.004 662.606 114.001L652.836 100.974C651.516 99.2141 651.873 96.7173 653.633 95.3974C655.393 94.0775 657.89 94.4342 659.209 96.1943L665.601 104.716L682.018 80.0917C683.241 78.269 685.708 77.7796 687.535 78.9972C689.361 80.2149 689.859 82.6808 688.647 84.5111L669.107 113.82C668.39 114.896 667.195 115.557 665.903 115.593C665.866 115.594 665.829 115.594 665.792 115.594Z" fill="#ffffff" fill-rule="nonzero" opacity="1" stroke="none" vectornator:layerName="path"/>
<g opacity="1" vectornator:layerName="iphone">
<path d="M598.58 331.718L488.015 371.961C474.208 376.968 458.952 369.855 453.913 356.059L352.05 76.1925C347.043 62.3852 354.156 47.1297 367.952 42.0906L478.518 1.84813C492.325-3.15965 507.58 3.95413 512.619 17.7502L614.482 297.616C619.49 311.424 612.376 326.679 598.58 331.718Z" fill="#3f3d56" fill-rule="nonzero" opacity="1" stroke="none" vectornator:layerName="path"/>
<path d="M480.105 10.0601L467.798 14.5395C465.512 15.3742 464.333 17.9023 465.163 20.1902C466.861 24.8677 464.45 30.0365 459.776 31.7428L399.585 53.6508C394.907 55.3483 389.738 52.938 388.032 48.2637C387.197 45.9775 384.669 44.7986 382.381 45.6288L371.529 49.5785C361.067 53.4016 355.672 64.9709 359.469 75.443L460.608 353.32C464.431 363.782 476 369.177 486.472 365.381L595.048 325.862C605.51 322.039 610.905 310.47 607.109 299.998L505.97 22.121C502.147 11.6586 490.577 6.26369 480.105 10.0601Z" fill="#ffffff" fill-rule="nonzero" opacity="1" stroke="none" vectornator:layerName="path"/>
<path d="M442.28 30.1452L408.322 42.5047C407.653 42.7484 406.912 42.4031 406.668 41.7333C406.424 41.0635 406.77 40.3229 407.44 40.0791L441.397 27.7197C442.067 27.4759 442.807 27.8213 443.051 28.4911C443.295 29.1609 442.949 29.9015 442.28 30.1452Z" fill="#ffffff" fill-rule="nonzero" opacity="1" stroke="none" vectornator:layerName="path"/>
<path d="M446.204 27.3434C446.009 26.8076 446.285 26.2151 446.821 26.0201C447.357 25.8251 447.95 26.1013 448.145 26.6372C448.34 27.173 448.063 27.7655 447.528 27.9605C446.992 28.1555 446.399 27.8792 446.204 27.3434Z" fill="#ffffff" fill-rule="nonzero" opacity="1" stroke="none" vectornator:layerName="circle"/>
<path d="M544.658 102.756C543.452 103.193 542.12 102.572 541.68 101.368L526.143 58.6785C525.704 57.4729 526.326 56.1398 527.531 55.701C528.737 55.2622 530.07 55.8838 530.509 57.0894L546.046 99.7785C546.483 100.984 545.862 102.316 544.658 102.756Z" fill="#3f3d56" fill-rule="nonzero" opacity="1" stroke="none" vectornator:layerName="path"/>
<path d="M371.642 130.02C370.436 130.457 369.104 129.836 368.664 128.631L365.133 118.929C364.694 117.724 365.316 116.391 366.522 115.952C367.727 115.513 369.06 116.135 369.499 117.34L373.03 127.042C373.468 128.248 372.846 129.58 371.642 130.02Z" fill="#3f3d56" fill-rule="nonzero" opacity="1" stroke="none" vectornator:layerName="path"/>
<path d="M378.175 147.969C376.969 148.406 375.637 147.785 375.197 146.58L371.666 136.878C371.227 135.672 371.849 134.339 373.054 133.901C374.26 133.462 375.593 134.083 376.032 135.289L379.563 144.991C380 146.197 379.379 147.529 378.175 147.969Z" fill="#3f3d56" fill-rule="nonzero" opacity="1" stroke="none" vectornator:layerName="path"/>
<g opacity="1" vectornator:layerName="grafico 3">
<g opacity="1" vectornator:layerName="Rettangolo">
<use fill="#ffffff" fill-rule="nonzero" stroke="none" xlink:href="#Fill"/>
<mask height="74.1427" id="StrokeMask" maskUnits="userSpaceOnUse" width="72.453" x="472.786" y="145.329">
<rect fill="#ffffff" height="74.1427" stroke="none" width="72.453" x="472.786" y="145.329"/>
<use fill="#000000" fill-rule="evenodd" stroke="none" xlink:href="#Fill"/>
</mask>
<use fill="none" mask="url(#StrokeMask)" stroke="#cacaca" stroke-linecap="round" stroke-linejoin="round" stroke-width="2.24408" xlink:href="#Fill"/>
</g>
<g opacity="1" vectornator:layerName="grafico valori">
<path d="M482.63 172.844C482.196 171.65 482.85 170.317 484.091 169.866C485.331 169.414 486.689 170.015 487.123 171.208C487.558 172.401 486.904 173.735 485.663 174.186C484.422 174.638 483.065 174.037 482.63 172.844Z" fill="#3f3d56" fill-rule="nonzero" opacity="1" stroke="none" vectornator:layerName="circle"/>
<path d="M520.362 157.207C520.906 157.007 521.512 157.103 521.95 157.458C522.387 157.812 522.591 158.371 522.483 158.924C522.376 159.477 521.973 159.939 521.428 160.137L497.8 168.737C496.958 169.043 496.038 168.635 495.743 167.826C495.449 167.017 495.892 166.113 496.733 165.807L520.362 157.207M520.231 156.848L496.603 165.448C495.924 165.694 495.423 166.269 495.289 166.958C495.156 167.646 495.409 168.342 495.954 168.783C496.499 169.224 497.253 169.344 497.931 169.096L521.559 160.496C522.237 160.25 522.738 159.674 522.872 158.986C523.006 158.298 522.753 157.601 522.208 157.16C521.663 156.719 520.909 156.6 520.231 156.848Z" fill="#3f3d56" fill-rule="nonzero" opacity="1" stroke="none" vectornator:layerName="path"/>
<path d="M512.235 163.889L494.448 170.363C493.401 170.744 492.254 170.237 491.888 169.229C491.521 168.222 492.073 167.096 493.121 166.715L510.908 160.241C511.955 159.86 513.102 160.367 513.468 161.375C513.835 162.382 513.283 163.508 512.235 163.889Z" fill="#0dbbfc" fill-rule="nonzero" opacity="1" stroke="none" vectornator:layerName="path"/>
<path d="M485.895 181.815C485.461 180.621 486.115 179.288 487.356 178.837C488.596 178.385 489.954 178.986 490.389 180.179C490.823 181.372 490.169 182.706 488.928 183.157C487.688 183.609 486.33 183.008 485.895 181.815Z" fill="#3f3d56" fill-rule="nonzero" opacity="1" stroke="none" vectornator:layerName="circle"/>
<path d="M523.627 166.178C524.171 165.978 524.777 166.074 525.215 166.428C525.653 166.783 525.856 167.342 525.748 167.895C525.641 168.448 525.239 168.91 524.693 169.108L501.065 177.708C500.224 178.014 499.303 177.606 499.008 176.797C498.714 175.988 499.157 175.084 499.999 174.778L523.627 166.178M523.496 165.819L499.868 174.419C498.82 174.8 498.268 175.926 498.635 176.933C499.002 177.94 500.148 178.448 501.196 178.067L524.824 169.467C525.871 169.085 526.423 167.96 526.057 166.952C525.69 165.945 524.544 165.438 523.496 165.819Z" fill="#3f3d56" fill-rule="nonzero" opacity="1" stroke="none" vectornator:layerName="path"/>
<path d="M522.217 170.415L497.714 179.334C496.666 179.715 495.52 179.208 495.153 178.2C494.786 177.193 495.338 176.067 496.386 175.686L520.89 166.767C521.937 166.386 523.084 166.894 523.45 167.901C523.817 168.908 523.265 170.034 522.217 170.415Z" fill="#010e43" fill-rule="nonzero" opacity="1" stroke="none" vectornator:layerName="path"/>
<path d="M489.161 190.786C488.726 189.592 489.38 188.259 490.621 187.807C491.862 187.356 493.219 187.957 493.654 189.15C494.088 190.343 493.434 191.677 492.194 192.128C490.953 192.58 489.595 191.979 489.161 190.786Z" fill="#3f3d56" fill-rule="nonzero" opacity="1" stroke="none" vectornator:layerName="circle"/>
<path d="M526.892 175.149C527.437 174.949 528.042 175.045 528.48 175.399C528.918 175.754 529.121 176.313 529.014 176.866C528.906 177.419 528.504 177.881 527.958 178.079L504.33 186.679C503.489 186.985 502.568 186.577 502.273 185.768C501.979 184.959 502.422 184.055 503.264 183.749L526.892 175.149M526.761 174.79L503.133 183.39C502.086 183.771 501.534 184.897 501.9 185.904C502.267 186.911 503.413 187.419 504.461 187.038L528.089 178.438C529.137 178.056 529.689 176.931 529.322 175.923C528.955 174.916 527.809 174.409 526.761 174.79Z" fill="#3f3d56" fill-rule="nonzero" opacity="1" stroke="none" vectornator:layerName="path"/>
<path d="M510.93 184.683L500.979 188.305C500.301 188.553 499.547 188.434 499.002 187.993C498.457 187.551 498.204 186.855 498.338 186.167C498.472 185.479 498.972 184.903 499.651 184.657L509.602 181.035C510.649 180.656 511.793 181.164 512.16 182.17C512.526 183.176 511.975 184.301 510.93 184.683Z" fill="#0e5ecc" fill-rule="nonzero" opacity="1" stroke="none" vectornator:layerName="path"/>
</g>
<path d="M494.133 198.85L530.03 185.784C530.603 185.575 531.244 185.889 531.46 186.484L531.46 186.484C531.677 187.079 531.388 187.731 530.814 187.94L494.917 201.005C494.344 201.214 493.703 200.9 493.486 200.305L493.486 200.305C493.27 199.71 493.559 199.058 494.133 198.85Z" fill="#cacaca" fill-opacity="0.800335" fill-rule="nonzero" opacity="1" stroke="none"/>
<path d="M496.479 206.31L521.123 197.34C521.517 197.197 522.011 197.563 522.228 198.158L522.228 198.158C522.445 198.753 522.301 199.352 521.907 199.495L497.264 208.465C496.87 208.608 496.375 208.242 496.159 207.647L496.159 207.647C495.942 207.052 496.085 206.453 496.479 206.31Z" fill="#cacaca" fill-opacity="0.800335" fill-rule="nonzero" opacity="1" stroke="none"/>
<path d="M494.921 202.703L510.779 196.931C511.033 196.839 511.414 197.247 511.63 197.842L511.63 197.842C511.847 198.437 511.817 198.994 511.564 199.086L495.706 204.858C495.452 204.95 495.071 204.543 494.855 203.948L494.855 203.948C494.638 203.352 494.668 202.795 494.921 202.703Z" fill="#cacaca" fill-opacity="0.800335" fill-rule="nonzero" opacity="1" stroke="none"/>
</g>
<g opacity="1" vectornator:layerName="Grafico 1">
<g opacity="1" vectornator:layerName="Rettangolo">
<use fill="#ffffff" fill-rule="nonzero" stroke="none" xlink:href="#Fill_2"/>
<mask height="106.24" id="StrokeMask_2" maskUnits="userSpaceOnUse" width="130.27" x="390.971" y="64.0404">
<rect fill="#ffffff" height="106.24" stroke="none" width="130.27" x="390.971" y="64.0404"/>
<use fill="#000000" fill-rule="evenodd" stroke="none" xlink:href="#Fill_2"/>
</mask>
<use fill="none" mask="url(#StrokeMask_2)" stroke="#cacaca" stroke-linecap="round" stroke-linejoin="round" stroke-width="2.01621" xlink:href="#Fill_2"/>
</g>
<g opacity="1" vectornator:layerName="grafico a barra">
<path d="M510.177 126.038L421.863 158.182C421.71 158.238 421.535 158.142 421.472 157.969L403.96 109.853C403.896 109.68 403.969 109.494 404.122 109.439C404.274 109.383 404.449 109.479 404.512 109.652L421.911 157.453L509.949 125.41C510.101 125.355 510.276 125.45 510.339 125.624C510.403 125.797 510.33 125.983 510.177 126.038Z" fill="#3f3d56" fill-rule="nonzero" opacity="1" stroke="none" vectornator:layerName="path"/>
<path d="M439.474 147.859L431.441 150.782C430.988 150.947 430.47 150.663 430.282 150.148L425.701 137.562C425.514 137.047 425.729 136.496 426.182 136.331L434.214 133.407C434.667 133.243 435.186 133.526 435.374 134.041L439.955 146.628C440.142 147.143 439.927 147.693 439.474 147.859Z" fill="#0e5ecc" fill-rule="nonzero" opacity="1" stroke="none" vectornator:layerName="path"/>
<path d="M454.122 142.527L446.09 145.451C445.637 145.615 445.118 145.331 444.93 144.817L436.004 120.292C435.817 119.777 436.032 119.226 436.485 119.061L444.517 116.137C444.97 115.973 445.489 116.257 445.677 116.771L454.603 141.296C454.79 141.811 454.575 142.362 454.122 142.527Z" fill="#0e5ecc" fill-rule="nonzero" opacity="1" stroke="none" vectornator:layerName="path"/>
<path d="M468.771 137.196L460.738 140.119C460.285 140.283 459.766 140 459.578 139.485L454.997 126.899C454.81 126.384 455.026 125.833 455.478 125.668L463.511 122.744C463.964 122.58 464.483 122.863 464.671 123.378L469.252 135.964C469.439 136.479 469.223 137.03 468.771 137.196Z" fill="#0e5ecc" fill-rule="nonzero" opacity="1" stroke="none" vectornator:layerName="path"/>
<path d="M483.419 131.864L475.387 134.788C474.948 134.96 474.436 134.695 474.242 134.196L463.57 104.874C463.398 104.367 463.62 103.836 464.066 103.685L472.099 100.762C472.537 100.59 473.049 100.854 473.243 101.353L483.916 130.675C484.088 131.182 483.866 131.714 483.419 131.864Z" fill="#0e5ecc" fill-rule="nonzero" opacity="1" stroke="none" vectornator:layerName="path"/>
<path d="M498.067 126.532L490.035 129.456C489.582 129.62 489.063 129.337 488.875 128.822L475.146 91.1025C474.959 90.5875 475.175 90.0368 475.627 89.8714L483.66 86.9478C484.113 86.7835 484.632 87.0671 484.82 87.5817L498.549 125.301C498.735 125.816 498.52 126.367 498.067 126.532Z" fill="#0e5ecc" fill-rule="nonzero" opacity="1" stroke="none" vectornator:layerName="path"/>
<path d="M426.481 129.818C426.102 128.777 426.538 127.662 427.454 127.329C428.369 126.996 429.419 127.569 429.798 128.61C430.177 129.651 429.742 130.766 428.826 131.099C427.91 131.432 426.86 130.859 426.481 129.818Z" fill="#3f3d56" fill-rule="nonzero" opacity="1" stroke="none" vectornator:layerName="circle"/>
<path d="M436.67 112.234C436.291 111.193 436.727 110.078 437.642 109.745C438.558 109.412 439.608 109.985 439.987 111.026C440.366 112.068 439.93 113.182 439.015 113.515C438.099 113.848 437.049 113.275 436.67 112.234Z" fill="#3f3d56" fill-rule="nonzero" opacity="1" stroke="none" vectornator:layerName="circle"/>
<path d="M455.778 119.154C455.399 118.113 455.834 116.999 456.75 116.666C457.666 116.333 458.716 116.906 459.095 117.947C459.474 118.988 459.038 120.103 458.122 120.436C457.207 120.769 456.157 120.195 455.778 119.154Z" fill="#3f3d56" fill-rule="nonzero" opacity="1" stroke="none" vectornator:layerName="circle"/>
<path d="M463.794 95.6014C463.415 94.5603 463.851 93.4462 464.767 93.1128C465.682 92.7795 466.732 93.3532 467.111 94.3942C467.49 95.4353 467.055 96.5494 466.139 96.8828C465.223 97.2161 464.173 96.6424 463.794 95.6014Z" fill="#3f3d56" fill-rule="nonzero" opacity="1" stroke="none" vectornator:layerName="circle"/>
<path d="M475.927 83.3582C475.548 82.3171 475.983 81.203 476.899 80.8696C477.815 80.5363 478.865 81.11 479.244 82.151C479.623 83.1921 479.187 84.3063 478.271 84.6396C477.356 84.9729 476.306 84.3992 475.927 83.3582Z" fill="#3f3d56" fill-rule="nonzero" opacity="1" stroke="none" vectornator:layerName="circle"/>
<path d="M457.625 118.96L438.392 111.803L428.397 129.405L427.883 129.023L438.106 111.018L457.248 118.141L465.195 94.792L465.243 94.7439L477.45 82.7037L477.869 83.2112L465.71 95.2037L457.625 118.96Z" fill="#3f3d56" fill-rule="nonzero" opacity="1" stroke="none" vectornator:layerName="polygon"/>
</g>
</g>
<g opacity="1" vectornator:layerName="titolo">
<path d="M382.511 80.4982L452.921 55.3733C454.046 54.9719 455.343 55.6438 455.819 56.8741L455.819 56.8741C456.295 58.1043 455.769 59.427 454.644 59.8284L384.234 84.9532C383.109 85.3546 381.812 84.6827 381.336 83.4525L381.336 83.4525C380.86 82.2222 381.386 80.8995 382.511 80.4982Z" fill="#000000" fill-opacity="0.800335" fill-rule="nonzero" opacity="1" stroke="none"/>
<path d="M386.264 86.476L419.154 74.7395C419.679 74.552 420.358 75.0545 420.671 75.8618L420.671 75.8618C420.983 76.6691 420.81 77.4756 420.285 77.6631L387.394 89.3995C386.869 89.587 386.19 89.0846 385.878 88.2772L385.878 88.2772C385.565 87.4699 385.738 86.6635 386.264 86.476Z" fill="#d5d5d5" fill-rule="nonzero" opacity="1" stroke="none"/>
</g>
<g opacity="1" vectornator:layerName="Grafico 2">
<g opacity="1" vectornator:layerName="Rettangolo">
<use fill="#ffffff" fill-rule="nonzero" stroke="none" xlink:href="#Fill_3"/>
<mask height="77.274" id="StrokeMask_3" maskUnits="userSpaceOnUse" width="75.8235" x="413.047" y="166.303">
<rect fill="#ffffff" height="77.274" stroke="none" width="75.8235" x="413.047" y="166.303"/>
<use fill="#000000" fill-rule="evenodd" stroke="none" xlink:href="#Fill_3"/>
</mask>
<use fill="none" mask="url(#StrokeMask_3)" stroke="#cacaca" stroke-linecap="round" stroke-linejoin="round" stroke-width="2.33355" xlink:href="#Fill_3"/>
</g>
<g opacity="1" vectornator:layerName="Grafico a torta">
<path d="M456.278 214.685C456.286 214.682 456.295 214.679 456.303 214.675C464.911 211.051 469.336 201.736 466.412 193.397C463.488 185.057 454.221 180.562 445.242 183.128C445.134 183.159 445.042 183.231 444.989 183.327C444.936 183.422 444.926 183.532 444.961 183.632L455.769 214.459C455.84 214.658 456.067 214.759 456.278 214.685Z" fill="#3f3d56" fill-rule="nonzero" opacity="1" stroke="none" vectornator:layerName="path"/>
<path d="M433.646 193.097C433.776 193.051 433.918 193.056 434.04 193.11L449.142 199.852C449.265 199.906 449.358 200.006 449.401 200.129L454.573 214.88C454.618 215.008 454.605 215.15 454.536 215.272C454.468 215.395 454.351 215.487 454.212 215.527C447.715 217.384 440.811 215.592 436.386 210.902C431.962 206.211 430.778 199.428 433.331 193.389C433.386 193.26 433.493 193.156 433.628 193.103C433.634 193.101 433.64 193.099 433.646 193.097Z" fill="#e6e6e6" fill-rule="nonzero" opacity="1" stroke="none" vectornator:layerName="path"/>
<path d="M443.11 183.762C443.235 183.718 443.372 183.721 443.491 183.769C443.621 183.822 443.72 183.925 443.764 184.053L448.431 197.362C448.496 197.549 448.436 197.76 448.279 197.896C448.121 198.033 447.896 198.067 447.71 197.984L434.531 192.101C434.405 192.045 434.31 191.94 434.269 191.812C434.228 191.683 434.244 191.542 434.314 191.422C436.289 188.03 439.378 185.335 443.08 183.773C443.09 183.769 443.1 183.765 443.11 183.762Z" fill="#0e5ecc" fill-rule="nonzero" opacity="1" stroke="none" vectornator:layerName="path"/>
<path d="M451.885 223.492C452.434 225.06 449.881 227.387 449.881 227.387C449.881 227.387 446.436 227.172 445.886 225.604C445.336 224.036 446.234 222.292 447.89 221.709C449.546 221.128 451.333 221.926 451.885 223.492Z" fill="#0e5ecc" fill-rule="nonzero" opacity="1" stroke="none" vectornator:layerName="path"/>
<path d="M460.454 220.476C461.004 222.044 460.106 223.787 458.45 224.37C456.794 224.954 455.005 224.155 454.455 222.587C453.906 221.02 454.803 219.276 456.459 218.693C458.116 218.112 459.903 218.909 460.454 220.476Z" fill="#3f3d56" fill-rule="nonzero" opacity="1" stroke="none" vectornator:layerName="path"/>
<path d="M469.023 217.459C469.573 219.027 468.676 220.771 467.019 221.354C465.363 221.937 463.574 221.139 463.025 219.571C462.475 218.003 463.372 216.259 465.029 215.676C466.685 215.095 468.472 215.893 469.023 217.459Z" fill="#e6e6e6" fill-rule="nonzero" opacity="1" stroke="none" vectornator:layerName="path"/>
</g>
</g>
</g>
<g opacity="1" vectornator:layerName="tablet">
<path d="M666.813 580.45L476.425 470.529C467.035 465.094 463.817 453.084 469.231 443.682L628.641 167.575C634.076 158.186 646.087 154.967 655.489 160.381L845.877 270.303C855.267 275.738 858.485 287.748 853.071 297.15L693.661 573.257C688.226 582.646 676.215 585.865 666.813 580.45Z" fill="#3f3d56" fill-rule="nonzero" opacity="1" stroke="none" vectornator:layerName="path"/>
<path d="M673.418 569.784L482.359 459.476C479.465 457.801 478.473 454.099 480.142 451.2L640.608 173.265C642.283 170.371 645.985 169.379 648.884 171.047L839.943 281.356C842.837 283.031 843.829 286.733 842.16 289.632L681.694 567.567C680.019 570.461 676.317 571.453 673.418 569.784Z" fill="#ffffff" fill-rule="nonzero" opacity="1" stroke="none" vectornator:layerName="path"/>
<path d="M745.502 219.301C745.963 218.501 746.986 218.227 747.786 218.689C748.585 219.15 748.859 220.173 748.397 220.973C747.936 221.772 746.913 222.046 746.114 221.585C745.314 221.123 745.04 220.1 745.502 219.301Z" fill="#ffffff" fill-rule="nonzero" opacity="1" stroke="none" vectornator:layerName="circle"/>
<g opacity="1" vectornator:layerName="Grafico 1">
<g opacity="1" vectornator:layerName="Rettangolo">
<use fill="#ffffff" fill-rule="nonzero" stroke="none" xlink:href="#Fill_4"/>
<mask height="145.435" id="StrokeMask_4" maskUnits="userSpaceOnUse" width="163.49" x="585.474" y="226.833">
<rect fill="#ffffff" height="145.435" stroke="none" width="163.49" x="585.474" y="226.833"/>
<use fill="#000000" fill-rule="evenodd" stroke="none" xlink:href="#Fill_4"/>
</mask>
<use fill="none" mask="url(#StrokeMask_4)" stroke="#cacaca" stroke-linecap="round" stroke-linejoin="round" stroke-width="2.47359" xlink:href="#Fill_4"/>
</g>
<g opacity="1" vectornator:layerName="grafico a barra">
<path d="M701.517 357.369L601.662 299.718C601.489 299.618 601.441 299.378 601.555 299.182L632.964 244.78C633.077 244.584 633.309 244.505 633.481 244.605C633.654 244.705 633.702 244.944 633.589 245.141L602.385 299.188L701.927 356.659C702.099 356.758 702.147 356.998 702.034 357.194C701.921 357.39 701.689 357.469 701.517 357.369Z" fill="#3f3d56" fill-rule="nonzero" opacity="1" stroke="none" vectornator:layerName="path"/>
<path d="M625.252 308.128L616.17 302.884C615.659 302.588 615.516 301.877 615.851 301.295L624.068 287.063C624.404 286.482 625.092 286.25 625.604 286.545L634.686 291.788C635.198 292.084 635.341 292.796 635.005 293.378L626.789 307.609C626.452 308.191 625.765 308.423 625.252 308.128Z" fill="#0e5ecc" fill-rule="nonzero" opacity="1" stroke="none" vectornator:layerName="path"/>
<path d="M641.815 317.69L632.733 312.447C632.221 312.151 632.078 311.439 632.414 310.857L648.423 283.127C648.76 282.546 649.447 282.314 649.96 282.609L659.042 287.852C659.554 288.149 659.696 288.86 659.361 289.442L643.351 317.172C643.015 317.753 642.327 317.985 641.815 317.69Z" fill="#0e5ecc" fill-rule="nonzero" opacity="1" stroke="none" vectornator:layerName="path"/>
<path d="M658.377 327.253L649.295 322.009C648.784 321.713 648.641 321.002 648.976 320.419L657.193 306.188C657.529 305.606 658.217 305.374 658.729 305.669L667.811 310.913C668.323 311.209 668.466 311.92 668.13 312.503L659.914 326.734C659.577 327.316 658.89 327.548 658.377 327.253Z" fill="#0e5ecc" fill-rule="nonzero" opacity="1" stroke="none" vectornator:layerName="path"/>
<path d="M674.94 336.815L665.858 331.571C665.35 331.295 665.195 330.605 665.511 330.029L684.652 296.876C684.993 296.315 685.668 296.104 686.161 296.405L695.243 301.649C695.751 301.925 695.906 302.615 695.59 303.191L676.449 336.344C676.108 336.906 675.433 337.116 674.94 336.815Z" fill="#0e5ecc" fill-rule="nonzero" opacity="1" stroke="none" vectornator:layerName="path"/>
<path d="M691.502 346.377L682.42 341.134C681.908 340.838 681.766 340.126 682.101 339.544L706.724 296.895C707.061 296.314 707.748 296.082 708.261 296.377L717.343 301.62C717.855 301.917 717.997 302.628 717.662 303.21L693.039 345.859C692.702 346.44 692.015 346.672 691.502 346.377Z" fill="#0e5ecc" fill-rule="nonzero" opacity="1" stroke="none" vectornator:layerName="path"/>
<path d="M631.962 281.69C632.641 280.513 634.032 280.043 635.067 280.641C636.103 281.239 636.391 282.678 635.712 283.855C635.032 285.032 633.642 285.502 632.606 284.904C631.571 284.306 631.282 282.867 631.962 281.69Z" fill="#3f3d56" fill-rule="nonzero" opacity="1" stroke="none" vectornator:layerName="circle"/>
<path d="M656.522 277.399C657.202 276.222 658.592 275.752 659.628 276.35C660.664 276.948 660.952 278.387 660.272 279.564C659.593 280.741 658.202 281.211 657.167 280.613C656.131 280.015 655.843 278.576 656.522 277.399Z" fill="#3f3d56" fill-rule="nonzero" opacity="1" stroke="none" vectornator:layerName="circle"/>
<path d="M665.087 300.815C665.766 299.638 667.157 299.168 668.192 299.766C669.228 300.364 669.516 301.803 668.837 302.98C668.157 304.157 666.767 304.626 665.731 304.028C664.696 303.431 664.407 301.992 665.087 300.815Z" fill="#3f3d56" fill-rule="nonzero" opacity="1" stroke="none" vectornator:layerName="circle"/>
<path d="M693.544 289.774C694.224 288.597 695.614 288.128 696.649 288.726C697.685 289.324 697.974 290.762 697.294 291.94C696.614 293.117 695.224 293.586 694.188 292.988C693.153 292.39 692.864 290.952 693.544 289.774Z" fill="#3f3d56" fill-rule="nonzero" opacity="1" stroke="none" vectornator:layerName="circle"/>
<path d="M714.618 291.522C715.298 290.345 716.688 289.875 717.724 290.473C718.759 291.071 719.048 292.51 718.368 293.687C717.689 294.864 716.298 295.334 715.263 294.736C714.227 294.138 713.939 292.699 714.618 291.522Z" fill="#3f3d56" fill-rule="nonzero" opacity="1" stroke="none" vectornator:layerName="circle"/>
<path d="M666.725 302.397L658.284 278.677L633.86 283.165L633.813 282.38L658.797 277.79L667.198 301.397L695.409 290.452L695.492 290.46L716.434 292.437L716.287 293.231L695.429 291.262L666.725 302.397Z" fill="#3f3d56" fill-rule="nonzero" opacity="1" stroke="none" vectornator:layerName="polygon"/>
</g>
</g>
<g opacity="1" vectornator:layerName="Grafico 2">
<g opacity="1" vectornator:layerName="Rettangolo">
<use fill="#ffffff" fill-rule="nonzero" stroke="none" xlink:href="#Fill_5"/>
<mask height="62.7754" id="StrokeMask_5" maskUnits="userSpaceOnUse" width="62.0944" x="717.008" y="344.754">
<rect fill="#ffffff" height="62.7754" stroke="none" width="62.0944" x="717.008" y="344.754"/>
<use fill="#000000" fill-rule="evenodd" stroke="none" xlink:href="#Fill_5"/>
</mask>
<use fill="none" mask="url(#StrokeMask_5)" stroke="#cacaca" stroke-linecap="round" stroke-linejoin="round" stroke-width="1.78919" xlink:href="#Fill_5"/>
</g>
<g opacity="1" vectornator:layerName="Grafico a torta">
<path d="M744.953 384.069C744.959 384.072 744.965 384.075 744.971 384.078C751.342 387.348 758.994 385.356 762.451 379.529C765.908 373.701 763.981 366.043 758.049 362.034C757.977 361.985 757.89 361.967 757.807 361.983C757.725 361.999 757.655 362.047 757.614 362.117L744.835 383.658C744.753 383.798 744.805 383.981 744.953 384.069Z" fill="#3f3d56" fill-rule="nonzero" opacity="1" stroke="none" vectornator:layerName="path"/>
<path d="M746.478 360.136C746.569 360.19 746.636 360.275 746.665 360.374L750.148 372.567C750.177 372.666 750.164 372.769 750.113 372.855L743.998 383.163C743.945 383.252 743.855 383.315 743.75 383.335C743.644 383.355 743.532 383.332 743.44 383.27C739.147 380.369 736.797 375.431 737.371 370.52C737.946 365.61 741.346 361.572 746.152 360.095C746.254 360.063 746.368 360.076 746.466 360.129C746.47 360.131 746.474 360.133 746.478 360.136Z" fill="#e6e6e6" fill-rule="nonzero" opacity="1" stroke="none" vectornator:layerName="path"/>
<path d="M756.626 361.094C756.713 361.146 756.779 361.227 756.809 361.322C756.842 361.424 756.831 361.533 756.777 361.622L751.26 370.922C751.182 371.053 751.029 371.121 750.871 371.096C750.713 371.07 750.582 370.955 750.539 370.805L747.5 360.165C747.47 360.063 747.485 359.956 747.54 359.868C747.595 359.781 747.686 359.721 747.791 359.703C750.757 359.191 753.862 359.677 756.604 361.082C756.611 361.086 756.619 361.09 756.626 361.094Z" fill="#0e5ecc" fill-rule="nonzero" opacity="1" stroke="none" vectornator:layerName="path"/>
<path d="M737.615 385.829C736.965 386.924 734.34 386.571 734.34 386.571C734.34 386.571 732.768 384.442 733.418 383.346C734.068 382.251 735.534 381.918 736.693 382.604C737.851 383.29 738.263 384.733 737.615 385.829Z" fill="#0e5ecc" fill-rule="nonzero" opacity="1" stroke="none" vectornator:layerName="path"/>
<path d="M743.61 389.375C742.96 390.471 741.493 390.803 740.335 390.118C739.176 389.432 738.763 387.988 739.413 386.893C740.063 385.797 741.529 385.465 742.688 386.15C743.846 386.837 744.258 388.279 743.61 389.375Z" fill="#3f3d56" fill-rule="nonzero" opacity="1" stroke="none" vectornator:layerName="path"/>
<path d="M749.605 392.922C748.955 394.017 747.488 394.35 746.329 393.664C745.171 392.979 744.758 391.535 745.408 390.439C746.058 389.344 747.524 389.011 748.683 389.697C749.841 390.383 750.253 391.826 749.605 392.922Z" fill="#e6e6e6" fill-rule="nonzero" opacity="1" stroke="none" vectornator:layerName="path"/>
</g>
</g>
<g opacity="1" vectornator:layerName="grafico 3">
<g opacity="1" vectornator:layerName="Rettangolo">
<use fill="#ffffff" fill-rule="nonzero" stroke="none" xlink:href="#Fill_6"/>
<mask height="61.706" id="StrokeMask_6" maskUnits="userSpaceOnUse" width="60.8925" x="742.994" y="300.893">
<rect fill="#ffffff" height="61.706" stroke="none" width="60.8925" x="742.994" y="300.893"/>
<use fill="#000000" fill-rule="evenodd" stroke="none" xlink:href="#Fill_6"/>
</mask>
<use fill="none" mask="url(#StrokeMask_6)" stroke="#cacaca" stroke-linecap="round" stroke-linejoin="round" stroke-width="1.76423" xlink:href="#Fill_6"/>
</g>
<g opacity="1" vectornator:layerName="grafico valori">
<path d="M765.864 311.027C766.363 310.163 767.497 309.883 768.396 310.402C769.295 310.921 769.619 312.042 769.12 312.907C768.621 313.771 767.487 314.051 766.588 313.532C765.689 313.013 765.365 311.892 765.864 311.027Z" fill="#3f3d56" fill-rule="nonzero" opacity="1" stroke="none" vectornator:layerName="circle"/>
<path d="M794.349 325.849C794.744 326.076 794.992 326.489 795 326.932C795.008 327.375 794.774 327.78 794.387 327.994C793.999 328.209 793.517 328.2 793.123 327.972L776.003 318.088C775.394 317.736 775.174 316.975 775.512 316.389C775.851 315.803 776.619 315.613 777.229 315.965L794.349 325.849M794.499 325.589L777.379 315.705C776.888 315.42 776.288 315.41 775.806 315.677C775.324 315.944 775.033 316.448 775.043 316.999C775.052 317.551 775.361 318.065 775.853 318.348L792.973 328.232C793.464 328.516 794.064 328.527 794.546 328.26C795.028 327.992 795.319 327.488 795.309 326.937C795.3 326.386 794.991 325.872 794.499 325.589Z" fill="#3f3d56" fill-rule="nonzero" opacity="1" stroke="none" vectornator:layerName="path"/>
<path d="M786.218 324.332L773.33 316.891C772.571 316.453 772.298 315.506 772.719 314.776C773.14 314.046 774.097 313.81 774.856 314.248L787.744 321.689C788.503 322.127 788.776 323.074 788.355 323.804C787.934 324.533 786.977 324.77 786.218 324.332Z" fill="#0dbbfc" fill-rule="nonzero" opacity="1" stroke="none" vectornator:layerName="path"/>
<path d="M762.112 317.527C762.611 316.663 763.744 316.383 764.643 316.902C765.542 317.421 765.866 318.542 765.367 319.407C764.868 320.271 763.735 320.551 762.836 320.032C761.937 319.513 761.612 318.392 762.112 317.527Z" fill="#3f3d56" fill-rule="nonzero" opacity="1" stroke="none" vectornator:layerName="circle"/>
<path d="M790.596 332.348C790.991 332.576 791.24 332.989 791.247 333.432C791.255 333.874 791.021 334.28 790.634 334.494C790.247 334.709 789.765 334.7 789.37 334.472L772.251 324.588C771.641 324.236 771.421 323.475 771.76 322.889C772.098 322.302 772.867 322.113 773.476 322.465L790.596 332.348M790.746 332.088L773.627 322.205C772.868 321.766 771.911 322.003 771.489 322.733C771.068 323.463 771.342 324.409 772.101 324.848L789.22 334.732C789.979 335.17 790.936 334.933 791.357 334.203C791.779 333.474 791.505 332.527 790.746 332.088Z" fill="#3f3d56" fill-rule="nonzero" opacity="1" stroke="none" vectornator:layerName="path"/>
<path d="M787.332 333.641L769.578 323.391C768.819 322.953 768.545 322.006 768.966 321.276C769.388 320.546 770.345 320.31 771.104 320.748L788.858 330.998C789.617 331.436 789.89 332.383 789.469 333.113C789.048 333.843 788.091 334.079 787.332 333.641Z" fill="#010e43" fill-rule="nonzero" opacity="1" stroke="none" vectornator:layerName="path"/>
<path d="M758.359 324.027C758.858 323.162 759.991 322.882 760.89 323.401C761.789 323.92 762.113 325.042 761.614 325.906C761.115 326.771 759.982 327.051 759.083 326.532C758.184 326.013 757.86 324.891 758.359 324.027Z" fill="#3f3d56" fill-rule="nonzero" opacity="1" stroke="none" vectornator:layerName="circle"/>
<path d="M786.843 338.848C787.239 339.076 787.487 339.489 787.495 339.931C787.503 340.374 787.269 340.779 786.881 340.994C786.494 341.209 786.012 341.2 785.618 340.971L768.498 331.087C767.888 330.735 767.669 329.975 768.007 329.389C768.345 328.802 769.114 328.612 769.724 328.964L786.843 338.848M786.993 338.588L769.874 328.704C769.115 328.266 768.158 328.503 767.737 329.232C767.315 329.962 767.589 330.909 768.348 331.347L785.467 341.231C786.226 341.67 787.183 341.433 787.605 340.703C788.026 339.973 787.752 339.027 786.993 338.588Z" fill="#3f3d56" fill-rule="nonzero" opacity="1" stroke="none" vectornator:layerName="path"/>
<path d="M773.035 334.053L765.825 329.891C765.333 329.608 765.024 329.094 765.014 328.543C765.005 327.991 765.296 327.487 765.778 327.22C766.26 326.953 766.86 326.963 767.351 327.248L774.561 331.41C775.318 331.849 775.591 332.795 775.17 333.524C774.749 334.253 773.794 334.49 773.035 334.053Z" fill="#0e5ecc" fill-rule="nonzero" opacity="1" stroke="none" vectornator:layerName="path"/>
</g>
<path d="M756.015 331.096L782.024 346.113C782.439 346.352 782.574 346.897 782.325 347.328L782.325 347.328C782.076 347.759 781.538 347.914 781.122 347.674L755.113 332.658C754.698 332.418 754.563 331.874 754.812 331.443L754.812 331.443C755.061 331.012 755.599 330.857 756.015 331.096Z" fill="#cacaca" fill-opacity="0.800335" fill-rule="nonzero" opacity="1" stroke="none"/>
<path d="M752.708 336.279L770.563 346.588C770.849 346.753 770.878 347.236 770.629 347.667L770.629 347.667C770.38 348.098 769.947 348.315 769.662 348.15L751.806 337.841C751.521 337.676 751.492 337.193 751.741 336.762L751.741 336.762C751.99 336.331 752.423 336.115 752.708 336.279Z" fill="#cacaca" fill-opacity="0.800335" fill-rule="nonzero" opacity="1" stroke="none"/>
<path d="M754.093 333.519L765.583 340.152C765.766 340.258 765.713 340.694 765.464 341.125L765.464 341.125C765.215 341.556 764.865 341.82 764.681 341.714L753.191 335.08C753.008 334.974 753.061 334.539 753.31 334.108L753.31 334.108C753.559 333.676 753.909 333.413 754.093 333.519Z" fill="#cacaca" fill-opacity="0.800335" fill-rule="nonzero" opacity="1" stroke="none"/>
</g>
<path d="M610.681 339.842L693.811 387.837C695.139 388.604 695.44 390.568 694.483 392.226L694.483 392.226C693.527 393.883 691.674 394.604 690.346 393.837L607.216 345.842C605.888 345.075 605.587 343.111 606.544 341.454L606.544 341.454C607.5 339.797 609.353 339.075 610.681 339.842Z" fill="#000000" fill-opacity="0.800335" fill-rule="nonzero" opacity="1" stroke="none" vectornator:layerName="Rettangolo"/>
<g opacity="1" vectornator:layerName="stock1">
<path d="M600.673 356.562L709.147 419.189C709.899 419.623 710.156 420.584 709.722 421.336L691.556 452.801C691.122 453.553 690.16 453.811 689.409 453.376L580.935 390.749C580.183 390.315 579.926 389.354 580.36 388.602L598.526 357.137C598.96 356.385 599.921 356.127 600.673 356.562Z" fill="none" opacity="1" stroke="#e6e6e6" stroke-linecap="butt" stroke-linejoin="round" stroke-width="1.5"/>
<path d="M582.369 386.592L689.056 448.188L705.963 418.904L599.276 357.308L582.369 386.592Z" fill="#ffffff" fill-rule="nonzero" opacity="1" stroke="none" vectornator:layerName="path"/>
<path d="M679.097 434.338C678.236 433.84 677.134 434.135 676.637 434.997C676.139 435.858 676.434 436.96 677.296 437.458L683.536 441.06C684.397 441.558 685.499 441.262 685.996 440.401C686.494 439.539 686.199 438.438 685.337 437.94L679.097 434.338Z" fill="#0e5ecc" fill-rule="nonzero" opacity="1" stroke="none" vectornator:layerName="path"/>
<path d="M616.612 394.228L688.644 435.815L688.644 435.815L688.407 436.226L688.407 436.226L616.375 394.638L616.375 394.638L616.612 394.228L616.612 394.228Z" fill="#e6e6e6" fill-rule="nonzero" opacity="1" stroke="none" vectornator:layerName="rect"/>
<path d="M595.669 374.748C598.566 369.73 604.982 368.011 610.001 370.908C615.019 373.805 616.738 380.222 613.841 385.24C610.944 390.258 604.527 391.977 599.509 389.08C594.491 386.183 592.772 379.766 595.669 374.748Z" fill="#e6e6e6" fill-rule="nonzero" opacity="1" stroke="none" vectornator:layerName="circle"/>
<path d="M618.05 392.002L618.02 391.529L628.386 390.86L632.096 396.288L642.202 395.833L642.277 395.933L653.272 410.577L668.284 411.584L676.982 422.746L689.578 433.885L689.672 434.35L676.789 423.269L668.04 412.043L653.023 411.035L641.973 396.318L631.853 396.772L628.147 391.35L618.05 392.002Z" fill="#3f3d56" fill-rule="nonzero" opacity="1" stroke="none" vectornator:layerName="path"/>
<path d="M616.075 398.239C615.34 397.83 614.413 398.086 613.993 398.815C613.572 399.543 613.814 400.474 614.535 400.906L628.49 408.963C629.22 409.399 630.164 409.161 630.601 408.432C631.038 407.703 630.801 406.758 630.073 406.32C630.059 406.312 630.044 406.303 630.03 406.295L616.075 398.239Z" fill="#e6e6e6" fill-rule="nonzero" opacity="1" stroke="none" vectornator:layerName="path"/>
<path d="M608.475 381.991C608.385 381.655 608.04 381.456 607.704 381.546L607.704 381.546L604.014 382.535L607.345 376.766C607.515 376.466 607.411 376.084 607.112 375.912C606.812 375.739 606.43 375.84 606.255 376.137L602.924 381.905L601.936 378.216C601.846 377.881 601.502 377.681 601.167 377.77C600.831 377.859 600.631 378.203 600.719 378.538L600.72 378.541L602.102 383.698C602.192 384.034 602.537 384.233 602.873 384.143L608.03 382.762C608.365 382.672 608.565 382.327 608.475 381.991Z" fill="#ffffff" fill-rule="nonzero" opacity="1" stroke="none" vectornator:layerName="path"/>
</g>
<g opacity="1" vectornator:layerName="stock2">
<path d="M577.671 396.403L686.144 459.031C686.896 459.465 687.154 460.426 686.719 461.178L668.553 492.643C668.119 493.395 667.158 493.652 666.406 493.218L557.932 430.591C557.18 430.157 556.923 429.196 557.357 428.444L575.523 396.979C575.957 396.227 576.919 395.969 577.671 396.403Z" fill="none" opacity="1" stroke="#e6e6e6" stroke-linecap="butt" stroke-linejoin="round" stroke-width="1.5"/>
<path d="M559.761 428.058L666.448 489.654L683.355 460.37L576.668 398.774L559.761 428.058Z" fill="#ffffff" fill-rule="nonzero" opacity="1" stroke="none" vectornator:layerName="path"/>
<path d="M656.489 475.804C655.627 475.306 654.525 475.602 654.028 476.463C653.53 477.325 653.826 478.426 654.687 478.924L660.926 482.526C661.788 483.023 662.89 482.728 663.387 481.867C663.884 481.005 663.589 479.903 662.728 479.406L656.489 475.804Z" fill="#0e5ecc" fill-rule="nonzero" opacity="1" stroke="none" vectornator:layerName="path"/>
<path d="M594.004 435.693L666.036 477.281L666.036 477.281L665.799 477.692L665.799 477.692L593.767 436.104L593.767 436.104L594.004 435.693L594.004 435.693Z" fill="#e6e6e6" fill-rule="nonzero" opacity="1" stroke="none" vectornator:layerName="rect"/>
<path d="M573.06 416.214C575.957 411.196 582.374 409.476 587.392 412.373C592.41 415.271 594.129 421.687 591.232 426.705C588.335 431.723 581.918 433.443 576.9 430.545C571.882 427.648 570.163 421.232 573.06 416.214Z" fill="#0e5ecc" fill-rule="nonzero" opacity="1" stroke="none" vectornator:layerName="circle"/>
<path d="M595.441 433.467L595.411 432.994L605.777 432.326L609.487 437.753L619.593 437.299L619.668 437.399L630.662 452.043L645.675 453.05L654.374 464.211L675.941 459.811L676.035 460.275L654.181 464.733L645.432 453.507L630.414 452.5L619.365 437.782L609.245 438.237L605.539 432.817L595.441 433.467Z" fill="#3f3d56" fill-rule="nonzero" opacity="1" stroke="none" vectornator:layerName="path"/>
<path d="M593.467 439.704C592.737 439.267 591.791 439.504 591.354 440.234C590.917 440.963 591.154 441.91 591.883 442.347L591.883 442.347C591.898 442.355 591.912 442.364 591.927 442.372L605.882 450.429C606.617 450.837 607.544 450.581 607.964 449.853C608.385 449.124 608.143 448.193 607.422 447.761L593.467 439.704Z" fill="#e6e6e6" fill-rule="nonzero" opacity="1" stroke="none" vectornator:layerName="path"/>
<path d="M578.426 419.462C578.516 419.798 578.861 419.997 579.197 419.907L579.197 419.907L582.886 418.918L579.556 424.687C579.382 424.988 579.485 425.372 579.786 425.546C580.087 425.72 580.472 425.617 580.646 425.316L583.976 419.548L584.965 423.237C585.055 423.573 585.4 423.772 585.736 423.682C586.071 423.592 586.27 423.247 586.18 422.912L584.799 417.755C584.709 417.419 584.364 417.22 584.028 417.31L578.871 418.692C578.535 418.782 578.336 419.127 578.426 419.462Z" fill="#ffffff" fill-rule="nonzero" opacity="1" stroke="none" vectornator:layerName="path"/>
</g>
<g opacity="1" vectornator:layerName="stock3">
<path d="M535.778 465.82L642.465 527.416L659.372 498.132L552.685 436.537L535.778 465.82Z" fill="#ffffff" fill-rule="nonzero" opacity="1" stroke="none" vectornator:layerName="path"/>
<path d="M632.505 513.566C631.643 513.069 630.542 513.364 630.044 514.225C629.547 515.087 629.842 516.189 630.704 516.686L636.943 520.289C637.805 520.786 638.907 520.491 639.404 519.629C639.902 518.768 639.606 517.666 638.745 517.169L632.505 513.566Z" fill="#0e5ecc" fill-rule="nonzero" opacity="1" stroke="none" vectornator:layerName="path"/>
<path d="M570.02 473.456L642.052 515.044L642.052 515.044L641.815 515.454L641.815 515.454L569.783 473.867L569.783 473.867L570.02 473.456L570.02 473.456Z" fill="#e6e6e6" fill-rule="nonzero" opacity="1" stroke="none" vectornator:layerName="rect"/>
<path d="M549.077 453.976C551.974 448.958 558.39 447.239 563.408 450.136C568.427 453.033 570.146 459.45 567.249 464.468C564.352 469.486 557.935 471.205 552.917 468.308C547.899 465.411 546.18 458.994 549.077 453.976Z" fill="#0e5ecc" fill-rule="nonzero" opacity="1" stroke="none" vectornator:layerName="circle"/>
<path d="M571.457 471.23L571.427 470.757L581.793 470.088L585.503 475.515L595.611 475.06L606.68 489.804L621.692 490.811L630.389 501.972L647.968 504.479L648.063 504.943L630.197 502.497L621.448 491.271L606.431 490.263L595.381 475.546L585.262 476.001L581.555 470.579L571.457 471.23Z" fill="#3f3d56" fill-rule="nonzero" opacity="1" stroke="none" vectornator:layerName="path"/>
<path d="M569.484 477.467C568.748 477.058 567.821 477.314 567.401 478.043C566.98 478.771 567.222 479.702 567.943 480.134L581.898 488.191C582.628 488.628 583.574 488.391 584.011 487.662C584.449 486.932 584.211 485.986 583.482 485.548C583.467 485.54 583.453 485.531 583.438 485.523L569.484 477.467Z" fill="#e6e6e6" fill-rule="nonzero" opacity="1" stroke="none" vectornator:layerName="path"/>
<path d="M554.443 457.225C554.533 457.56 554.878 457.76 555.213 457.67L555.213 457.67L558.903 456.681L555.573 462.449C555.401 462.749 555.504 463.132 555.803 463.305C556.102 463.479 556.485 463.379 556.661 463.082L559.993 457.31L560.982 461C561.071 461.336 561.415 461.536 561.751 461.447C562.087 461.358 562.287 461.013 562.198 460.677L562.197 460.674L560.815 455.517C560.725 455.182 560.38 454.982 560.045 455.072L554.888 456.454C554.552 456.544 554.353 456.889 554.443 457.225Z" fill="#ffffff" fill-rule="nonzero" opacity="1" stroke="none" vectornator:layerName="path"/>
<path d="M555.384 436.832L663.858 499.459C664.609 499.893 664.867 500.855 664.433 501.606L646.267 533.071C645.833 533.823 644.871 534.081 644.119 533.647L535.646 471.02C534.894 470.585 534.636 469.624 535.07 468.872L553.237 437.407C553.671 436.655 554.632 436.398 555.384 436.832Z" fill="none" opacity="1" stroke="#e6e6e6" stroke-linecap="butt" stroke-linejoin="round" stroke-width="1.5"/>
</g>
<g opacity="1">
<path d="M650.357 208.38L698.808 236.354C699.582 236.8 699.7 238.044 699.073 239.132L699.073 239.132C698.445 240.219 697.308 240.738 696.534 240.291L648.084 212.318C647.31 211.871 647.191 210.628 647.819 209.54L647.819 209.54C648.447 208.453 649.583 207.934 650.357 208.38Z" fill="#d5d5d5" fill-rule="nonzero" opacity="1" stroke="none"/>
<path d="M653.492 198.643L757.213 258.527C758.87 259.483 759.438 261.602 758.481 263.259L758.481 263.259C757.524 264.916 755.406 265.484 753.749 264.527L650.027 204.644C648.37 203.687 647.803 201.568 648.759 199.911L648.759 199.911C649.716 198.254 651.835 197.687 653.492 198.643Z" fill="#000000" fill-opacity="0.800335" fill-rule="nonzero" opacity="1" stroke="none"/>
</g>
</g>
<g opacity="1" vectornator:layerName="pc">
<path d="M117.794 467.71L604.975 467.71L604.975 183.178C604.97 178.739 601.404 175.142 597.004 175.137L125.765 175.137C121.365 175.142 117.799 178.739 117.794 183.178L117.794 467.71Z" fill="#cacaca" fill-rule="nonzero" opacity="1" stroke="none" vectornator:layerName="path"/>
<path d="M132.846 188.715L589.923 188.715L589.923 188.715L589.923 448.206L589.923 448.206L132.846 448.206L132.846 448.206L132.846 188.715L132.846 188.715Z" fill="#ffffff" fill-rule="nonzero" opacity="1" stroke="none" vectornator:layerName="rect"/>
<path d="M117.37 460.078L117.37 494.883C117.37 500.951 122.289 505.87 128.357 505.87L308.172 505.87L308.172 574.559L305.783 574.559C304.995 574.559 304.356 575.198 304.356 575.986L304.356 580.764C304.356 581.552 304.995 582.191 305.783 582.191L417.41 582.191C418.198 582.191 418.837 581.552 418.837 580.764L418.837 575.986C418.837 575.198 418.198 574.559 417.41 574.559L415.021 574.559L415.021 505.87L594.836 505.87C600.904 505.87 605.823 500.951 605.823 494.883L605.823 460.078L117.37 460.078Z" fill="#3f3d56" fill-rule="nonzero" opacity="1" stroke="none" vectornator:layerName="path"/>
<path d="M359.476 181.507C359.476 180.57 360.236 179.811 361.172 179.811C362.109 179.811 362.869 180.57 362.869 181.507C362.869 182.444 362.109 183.203 361.172 183.203C360.236 183.203 359.476 182.444 359.476 181.507Z" fill="#ffffff" fill-rule="nonzero" opacity="1" stroke="none" vectornator:layerName="circle"/>
<path d="M401.19 421.352L422.315 421.352C422.653 421.352 422.926 422.37 422.926 423.625L422.926 423.625C422.926 424.881 422.653 425.899 422.315 425.899L401.19 425.899C400.853 425.899 400.579 424.881 400.579 423.625L400.579 423.625C400.579 422.37 400.853 421.352 401.19 421.352Z" fill="#d5d5d5" fill-rule="nonzero" opacity="1" stroke="none" vectornator:layerName="(rectangle)"/>
<path d="M403.081 414.352L489.572 414.352C490.953 414.352 492.074 415.37 492.074 416.625L492.074 416.625C492.074 417.881 490.953 418.899 489.572 418.899L403.081 418.899C401.699 418.899 400.579 417.881 400.579 416.625L400.579 416.625C400.579 415.37 401.699 414.352 403.081 414.352Z" fill="#d5d5d5" fill-rule="nonzero" opacity="1" stroke="none" vectornator:layerName="(rectangle)"/>
<path d="M402.591 407.352L472.135 407.352C473.246 407.352 474.146 408.37 474.146 409.625L474.146 409.625C474.146 410.881 473.246 411.899 472.135 411.899L402.591 411.899C401.48 411.899 400.579 410.881 400.579 409.625L400.579 409.625C400.579 408.37 401.48 407.352 402.591 407.352Z" fill="#d5d5d5" fill-rule="nonzero" opacity="1" stroke="none" vectornator:layerName="(rectangle)"/>
<path d="M403.204 400.352L493.953 400.352C495.403 400.352 496.578 401.37 496.578 402.625L496.578 402.625C496.578 403.881 495.403 404.899 493.953 404.899L403.204 404.899C401.754 404.899 400.579 403.881 400.579 402.625L400.579 402.625C400.579 401.37 401.754 400.352 403.204 400.352Z" fill="#d5d5d5" fill-rule="nonzero" opacity="1" stroke="none" vectornator:layerName="(rectangle)"/>
<g opacity="1" vectornator:layerName="stock3">
<path d="M399.617 386.44L522.809 386.44L522.809 352.626L399.617 352.626L399.617 386.44Z" fill="#ffffff" fill-rule="nonzero" opacity="1" stroke="none" vectornator:layerName="path"/>
<path d="M507.259 379.425C506.264 379.425 505.457 380.232 505.457 381.227C505.457 382.222 506.264 383.028 507.259 383.028L514.464 383.028C515.459 383.028 516.265 382.222 516.265 381.227C516.265 380.232 515.459 379.425 514.464 379.425L507.259 379.425Z" fill="#0e5ecc" fill-rule="nonzero" opacity="1" stroke="none" vectornator:layerName="path"/>
<path d="M433.09 375.932L516.265 375.932L516.265 375.932L516.265 376.406L516.265 376.406L433.09 376.406L433.09 376.406L433.09 375.932L433.09 375.932Z" fill="#e6e6e6" fill-rule="nonzero" opacity="1" stroke="none" vectornator:layerName="rect"/>
<path d="M405.213 369.533C405.213 363.739 409.91 359.042 415.704 359.042C421.499 359.042 426.196 363.739 426.196 369.533C426.196 375.328 421.499 380.025 415.704 380.025C409.91 380.025 405.213 375.328 405.213 369.533Z" fill="#0e5ecc" fill-rule="nonzero" opacity="1" stroke="none" vectornator:layerName="circle"/>
<path d="M433.222 373.285L432.959 372.891L441.602 367.128L447.529 369.973L456.054 364.525L473.012 371.759L486.517 365.125L499.629 370.443L516.107 363.824L516.421 364.179L499.725 370.993L486.535 365.646L473.026 372.282L456.098 365.061L447.562 370.515L441.641 367.673L433.222 373.285Z" fill="#3f3d56" fill-rule="nonzero" opacity="1" stroke="none" vectornator:layerName="path"/>
<path d="M434.631 379.673C433.79 379.687 433.115 380.372 433.115 381.213C433.115 382.054 433.79 382.74 434.631 382.753L450.744 382.753C451.595 382.767 452.296 382.089 452.31 381.238C452.323 380.388 451.645 379.687 450.794 379.673C450.778 379.673 450.761 379.673 450.744 379.673L434.631 379.673Z" fill="#e6e6e6" fill-rule="nonzero" opacity="1" stroke="none" vectornator:layerName="path"/>
<path d="M411.484 369.663C411.73 369.909 412.128 369.909 412.374 369.664L412.374 369.663L415.075 366.962L415.075 373.623C415.077 373.969 415.357 374.248 415.702 374.249C416.048 374.251 416.33 373.973 416.333 373.627L416.333 366.962L419.035 369.663C419.28 369.91 419.678 369.911 419.924 369.666C420.171 369.421 420.172 369.022 419.927 368.776L419.924 368.774L416.149 364.998C415.903 364.753 415.505 364.753 415.259 364.998L411.484 368.774C411.238 369.019 411.238 369.418 411.484 369.663Z" fill="#ffffff" fill-rule="nonzero" opacity="1" stroke="none" vectornator:layerName="path"/>
<path d="M402.103 351.532L527.357 351.532C528.225 351.532 528.929 352.236 528.929 353.104L528.929 389.437C528.929 390.305 528.225 391.009 527.357 391.009L402.103 391.009C401.235 391.009 400.531 390.305 400.531 389.437L400.531 353.104C400.531 352.236 401.235 351.532 402.103 351.532Z" fill="none" opacity="1" stroke="#e6e6e6" stroke-linecap="butt" stroke-linejoin="round" stroke-width="1.5"/>
</g>
<g opacity="1" vectornator:layerName="stock2">
<path d="M401.189 305.377L526.444 305.377C527.312 305.377 528.016 306.081 528.016 306.949L528.016 343.281C528.016 344.15 527.312 344.853 526.444 344.853L401.189 344.853C400.321 344.853 399.617 344.15 399.617 343.281L399.617 306.949C399.617 306.081 400.321 305.377 401.189 305.377Z" fill="none" opacity="1" stroke="#e6e6e6" stroke-linecap="butt" stroke-linejoin="round" stroke-width="1.5"/>
<path d="M401.506 341.745L524.698 341.745L524.698 307.931L401.506 307.931L401.506 341.745Z" fill="#ffffff" fill-rule="nonzero" opacity="1" stroke="none" vectornator:layerName="path"/>
<path d="M509.148 334.731C508.153 334.731 507.347 335.537 507.347 336.532C507.347 337.527 508.153 338.333 509.148 338.333L516.352 338.333C517.347 338.333 518.154 337.527 518.154 336.532C518.154 335.537 517.347 334.731 516.352 334.731L509.148 334.731Z" fill="#0e5ecc" fill-rule="nonzero" opacity="1" stroke="none" vectornator:layerName="path"/>
<path d="M434.98 331.236L518.155 331.236L518.155 331.236L518.155 331.71L518.155 331.71L434.98 331.71L434.98 331.71L434.98 331.236L434.98 331.236Z" fill="#e6e6e6" fill-rule="nonzero" opacity="1" stroke="none" vectornator:layerName="rect"/>
<path d="M407.102 324.838C407.102 319.044 411.799 314.347 417.593 314.347C423.387 314.347 428.085 319.044 428.085 324.838C428.085 330.633 423.387 335.33 417.593 335.33C411.799 335.33 407.102 330.633 407.102 324.838Z" fill="#0e5ecc" fill-rule="nonzero" opacity="1" stroke="none" vectornator:layerName="circle"/>
<path d="M435.111 328.59L434.848 328.195L443.491 322.433L449.418 325.279L457.943 319.832L458.058 319.881L474.901 327.066L488.406 320.432L501.52 325.748L517.997 311.154L518.312 311.509L501.614 326.297L488.424 320.95L474.915 327.586L457.987 320.365L449.451 325.818L443.531 322.977L435.111 328.59Z" fill="#3f3d56" fill-rule="nonzero" opacity="1" stroke="none" vectornator:layerName="path"/>
<path d="M436.52 334.978C435.669 334.964 434.968 335.643 434.955 336.493C434.941 337.344 435.619 338.045 436.47 338.059L436.47 338.059C436.486 338.059 436.503 338.059 436.52 338.059L452.633 338.059C453.474 338.045 454.149 337.359 454.149 336.518C454.149 335.677 453.474 334.992 452.633 334.978L436.52 334.978Z" fill="#e6e6e6" fill-rule="nonzero" opacity="1" stroke="none" vectornator:layerName="path"/>
<path d="M413.373 324.969C413.619 325.214 414.017 325.214 414.263 324.969L414.263 324.969L416.964 322.268L416.964 328.928C416.964 329.276 417.246 329.557 417.593 329.557C417.941 329.557 418.222 329.276 418.222 328.928L418.222 322.268L420.923 324.969C421.169 325.214 421.568 325.214 421.813 324.969C422.059 324.723 422.059 324.324 421.813 324.079L418.038 320.304C417.792 320.058 417.394 320.058 417.148 320.304L413.373 324.079C413.127 324.324 413.127 324.723 413.373 324.969Z" fill="#ffffff" fill-rule="nonzero" opacity="1" stroke="none" vectornator:layerName="path"/>
</g>
<g opacity="1" vectornator:layerName="stock1">
<path d="M401.189 259.371L526.444 259.371C527.312 259.371 528.016 260.075 528.016 260.943L528.016 297.276C528.016 298.144 527.312 298.848 526.444 298.848L401.189 298.848C400.321 298.848 399.617 298.144 399.617 297.276L399.617 260.943C399.617 260.075 400.321 259.371 401.189 259.371Z" fill="none" opacity="1" stroke="#e6e6e6" stroke-linecap="butt" stroke-linejoin="round" stroke-width="1.5"/>
<path d="M400.353 294.531L523.544 294.531L523.544 260.716L400.353 260.716L400.353 294.531Z" fill="#ffffff" fill-rule="nonzero" opacity="1" stroke="none" vectornator:layerName="path"/>
<path d="M507.994 287.515C507 287.515 506.193 288.322 506.193 289.317C506.193 290.312 507 291.118 507.994 291.118L515.2 291.118C516.194 291.118 517.001 290.312 517.001 289.317C517.001 288.322 516.194 287.515 515.2 287.515L507.994 287.515Z" fill="#0e5ecc" fill-rule="nonzero" opacity="1" stroke="none" vectornator:layerName="path"/>
<path d="M433.826 284.022L517.001 284.022L517.001 284.022L517.001 284.496L517.001 284.496L433.826 284.496L433.826 284.496L433.826 284.022L433.826 284.022Z" fill="#e6e6e6" fill-rule="nonzero" opacity="1" stroke="none" vectornator:layerName="rect"/>
<path d="M405.948 277.624C405.948 271.829 410.646 267.132 416.44 267.132C422.234 267.132 426.932 271.829 426.932 277.624C426.932 283.418 422.234 288.115 416.44 288.115C410.646 288.115 405.948 283.418 405.948 277.624Z" fill="#e6e6e6" fill-rule="nonzero" opacity="1" stroke="none" vectornator:layerName="circle"/>
<path d="M433.958 281.375L433.696 280.981L442.339 275.219L448.265 278.064L456.79 272.617L456.905 272.666L473.749 279.851L487.253 273.217L500.367 278.534L516.845 281.883L517.159 282.238L500.461 279.084L487.272 273.736L473.762 280.372L456.834 273.151L448.298 278.605L442.376 275.763L433.958 281.375Z" fill="#3f3d56" fill-rule="nonzero" opacity="1" stroke="none" vectornator:layerName="path"/>
<path d="M435.366 287.764C434.525 287.777 433.851 288.463 433.851 289.304C433.851 290.145 434.525 290.831 435.366 290.844L451.48 290.844C452.33 290.857 453.029 290.179 453.043 289.329C453.057 288.479 452.379 287.779 451.529 287.764C451.513 287.764 451.497 287.764 451.48 287.764L435.366 287.764Z" fill="#e6e6e6" fill-rule="nonzero" opacity="1" stroke="none" vectornator:layerName="path"/>
<path d="M420.66 277.493C420.414 277.248 420.016 277.248 419.77 277.493L419.77 277.493L417.069 280.194L417.069 273.534C417.066 273.188 416.786 272.91 416.44 272.91C416.095 272.91 415.814 273.188 415.811 273.534L415.811 280.194L413.11 277.493C412.864 277.248 412.467 277.247 412.221 277.492C411.975 277.737 411.974 278.134 412.218 278.381L412.22 278.383L415.995 282.158C416.241 282.404 416.639 282.404 416.885 282.158L420.66 278.383C420.906 278.137 420.906 277.739 420.66 277.493Z" fill="#ffffff" fill-rule="nonzero" opacity="1" stroke="none" vectornator:layerName="path"/>
</g>
<path d="M401.496 239.888L497.486 239.888C499.02 239.888 500.263 241.439 500.263 243.352L500.263 243.352C500.263 245.266 499.02 246.817 497.486 246.817L401.496 246.817C399.962 246.817 398.719 245.266 398.719 243.352L398.719 243.352C398.719 241.439 399.962 239.888 401.496 239.888Z" fill="#000000" fill-opacity="0.800335" fill-rule="nonzero" opacity="1" stroke="none"/>
<g opacity="1" vectornator:layerName="grafico 3">
<g opacity="1" vectornator:layerName="Rettangolo">
<use fill="#ffffff" fill-rule="nonzero" stroke="none" xlink:href="#Fill_7"/>
<mask height="79" id="StrokeMask_7" maskUnits="userSpaceOnUse" width="75.2207" x="265.231" y="356.604">
<rect fill="#ffffff" height="79" stroke="none" width="75.2207" x="265.231" y="356.604"/>
<use fill="#000000" fill-rule="evenodd" stroke="none" xlink:href="#Fill_7"/>
</mask>
<use fill="none" mask="url(#StrokeMask_7)" stroke="#cacaca" stroke-linecap="round" stroke-linejoin="round" stroke-width="3" xlink:href="#Fill_7"/>
</g>
<g opacity="1" vectornator:layerName="grafico valori">
<path d="M274.069 372.035C274.069 370.338 275.5 368.962 277.265 368.962C279.03 368.962 280.461 370.338 280.461 372.035C280.461 373.733 279.03 375.109 277.265 375.109C275.5 375.109 274.069 373.733 274.069 372.035Z" fill="#3f3d56" fill-rule="nonzero" opacity="1" stroke="none" vectornator:layerName="circle"/>
<path d="M328.618 369.644C329.393 369.642 330.11 370.039 330.498 370.685C330.886 371.33 330.886 372.126 330.498 372.771C330.11 373.417 329.393 373.814 328.618 373.812L295.003 373.812C293.806 373.812 292.836 372.879 292.836 371.728C292.836 370.577 293.806 369.644 295.003 369.644L328.618 369.644M328.618 369.133L295.003 369.133C294.038 369.132 293.146 369.626 292.663 370.429C292.18 371.233 292.18 372.223 292.663 373.027C293.146 373.83 294.038 374.324 295.003 374.323L328.618 374.323C329.583 374.324 330.475 373.83 330.958 373.027C331.441 372.223 331.441 371.233 330.958 370.429C330.475 369.626 329.583 369.132 328.618 369.133Z" fill="#3f3d56" fill-rule="nonzero" opacity="1" stroke="none" vectornator:layerName="path"/>
<path d="M315.354 374.323L290.05 374.323C288.559 374.323 287.351 373.161 287.351 371.728C287.351 370.295 288.559 369.133 290.05 369.133L315.354 369.133C316.844 369.133 318.053 370.295 318.053 371.728C318.053 373.161 316.844 374.323 315.354 374.323Z" fill="#0dbbfc" fill-rule="nonzero" opacity="1" stroke="none" vectornator:layerName="path"/>
<path d="M274.069 384.798C274.069 383.1 275.5 381.724 277.265 381.724C279.03 381.724 280.461 383.1 280.461 384.798C280.461 386.495 279.03 387.871 277.265 387.871C275.5 387.871 274.069 386.495 274.069 384.798Z" fill="#3f3d56" fill-rule="nonzero" opacity="1" stroke="none" vectornator:layerName="circle"/>
<path d="M328.618 382.406C329.393 382.405 330.11 382.802 330.498 383.447C330.886 384.093 330.886 384.888 330.498 385.534C330.11 386.179 329.393 386.576 328.618 386.575L295.003 386.575C293.806 386.575 292.836 385.642 292.836 384.491C292.836 383.339 293.806 382.406 295.003 382.406L328.618 382.406M328.618 381.896L295.003 381.896C293.513 381.896 292.305 383.057 292.305 384.491C292.305 385.924 293.513 387.085 295.003 387.085L328.618 387.085C330.108 387.085 331.316 385.924 331.316 384.491C331.316 383.057 330.108 381.896 328.618 381.896Z" fill="#3f3d56" fill-rule="nonzero" opacity="1" stroke="none" vectornator:layerName="path"/>
<path d="M324.91 387.085L290.05 387.085C288.559 387.085 287.351 385.924 287.351 384.491C287.351 383.057 288.559 381.896 290.05 381.896L324.91 381.896C326.4 381.896 327.608 383.057 327.608 384.491C327.608 385.924 326.4 387.085 324.91 387.085Z" fill="#010e43" fill-rule="nonzero" opacity="1" stroke="none" vectornator:layerName="path"/>
<path d="M274.069 397.56C274.069 395.863 275.5 394.487 277.265 394.487C279.03 394.487 280.461 395.863 280.461 397.56C280.461 399.258 279.03 400.634 277.265 400.634C275.5 400.634 274.069 399.258 274.069 397.56Z" fill="#3f3d56" fill-rule="nonzero" opacity="1" stroke="none" vectornator:layerName="circle"/>
<path d="M328.618 395.169C329.393 395.167 330.11 395.564 330.498 396.21C330.886 396.855 330.886 397.651 330.498 398.296C330.11 398.942 329.393 399.339 328.618 399.337L295.003 399.337C293.806 399.337 292.836 398.404 292.836 397.253C292.836 396.102 293.806 395.169 295.003 395.169L328.618 395.169M328.618 394.658L295.003 394.658C293.513 394.658 292.305 395.82 292.305 397.253C292.305 398.686 293.513 399.848 295.003 399.848L328.618 399.848C330.108 399.848 331.316 398.686 331.316 397.253C331.316 395.82 330.108 394.658 328.618 394.658Z" fill="#3f3d56" fill-rule="nonzero" opacity="1" stroke="none" vectornator:layerName="path"/>
<path d="M304.206 399.848L290.05 399.848C289.085 399.849 288.192 399.355 287.709 398.552C287.226 397.748 287.226 396.758 287.709 395.955C288.192 395.151 289.085 394.657 290.05 394.658L304.206 394.658C305.695 394.66 306.9 395.821 306.9 397.253C306.9 398.685 305.695 399.846 304.206 399.848Z" fill="#0e5ecc" fill-rule="nonzero" opacity="1" stroke="none" vectornator:layerName="path"/>
</g>
<path d="M276.628 409.964L327.697 409.964C328.512 409.964 329.174 410.65 329.174 411.497L329.174 411.497C329.174 412.344 328.512 413.03 327.697 413.03L276.628 413.03C275.812 413.03 275.151 412.344 275.151 411.497L275.151 411.497C275.151 410.65 275.812 409.964 276.628 409.964Z" fill="#cacaca" fill-opacity="0.800335" fill-rule="nonzero" opacity="1" stroke="none"/>
<path d="M276.165 420.408L311.224 420.408C311.784 420.408 312.238 421.095 312.238 421.941L312.238 421.941C312.238 422.788 311.784 423.475 311.224 423.475L276.165 423.475C275.605 423.475 275.151 422.788 275.151 421.941L275.151 421.941C275.151 421.095 275.605 420.408 276.165 420.408Z" fill="#cacaca" fill-opacity="0.800335" fill-rule="nonzero" opacity="1" stroke="none"/>
<path d="M275.857 415.165L298.417 415.165C298.778 415.165 299.07 415.852 299.07 416.698L299.07 416.698C299.07 417.545 298.778 418.232 298.417 418.232L275.857 418.232C275.497 418.232 275.204 417.545 275.204 416.698L275.204 416.698C275.204 415.852 275.497 415.165 275.857 415.165Z" fill="#cacaca" fill-opacity="0.800335" fill-rule="nonzero" opacity="1" stroke="none"/>
</g>
<g opacity="1" vectornator:layerName="Grafico 2">
<g opacity="1" vectornator:layerName="Rettangolo">
<use fill="#ffffff" fill-rule="nonzero" stroke="none" xlink:href="#Fill_8"/>
<mask height="79" id="StrokeMask_8" maskUnits="userSpaceOnUse" width="75.88" x="173.513" y="356.604">
<rect fill="#ffffff" height="79" stroke="none" width="75.88" x="173.513" y="356.604"/>
<use fill="#000000" fill-rule="evenodd" stroke="none" xlink:href="#Fill_8"/>
</mask>
<use fill="none" mask="url(#StrokeMask_8)" stroke="#cacaca" stroke-linecap="round" stroke-linejoin="round" stroke-width="3" xlink:href="#Fill_8"/>
</g>
<g opacity="1" vectornator:layerName="Grafico a torta">
<path d="M213.594 410.215C213.606 410.215 213.617 410.215 213.628 410.215C225.621 409.621 235.062 400.314 235.197 388.953C235.332 377.592 226.113 368.087 214.137 367.24C213.993 367.229 213.851 367.276 213.745 367.369C213.639 367.46 213.578 367.589 213.577 367.725L213.079 409.718C213.077 409.99 213.307 410.212 213.594 410.215Z" fill="#3f3d56" fill-rule="nonzero" opacity="1" stroke="none" vectornator:layerName="path"/>
<path d="M195.745 374.184C195.923 374.186 196.092 374.254 196.216 374.374L211.496 389.158C211.62 389.278 211.689 389.439 211.686 389.607L211.448 409.701C211.447 409.875 211.369 410.041 211.232 410.158C211.096 410.277 210.913 410.337 210.728 410.324C202.062 409.71 194.51 404.511 191.227 396.898C187.945 389.286 189.497 380.572 195.236 374.398C195.359 374.266 195.535 374.189 195.721 374.184C195.729 374.184 195.737 374.184 195.745 374.184Z" fill="#e6e6e6" fill-rule="nonzero" opacity="1" stroke="none" vectornator:layerName="path"/>
<path d="M211.283 367.068C211.454 367.07 211.617 367.133 211.741 367.245C211.874 367.365 211.949 367.533 211.946 367.707L211.731 385.837C211.728 386.093 211.563 386.321 211.312 386.416C211.062 386.511 210.775 386.454 210.587 386.272L197.253 373.371C197.125 373.247 197.056 373.078 197.063 372.905C197.07 372.732 197.151 372.569 197.289 372.454C201.167 369.225 206.083 367.327 211.242 367.069C211.256 367.068 211.27 367.068 211.283 367.068Z" fill="#0e5ecc" fill-rule="nonzero" opacity="1" stroke="none" vectornator:layerName="path"/>
<path d="M204.414 418.923C204.389 421.059 200.281 422.747 200.281 422.747C200.281 422.747 196.214 420.972 196.239 418.837C196.264 416.701 198.115 414.989 200.372 415.013C202.629 415.039 204.437 416.788 204.414 418.923Z" fill="#0e5ecc" fill-rule="nonzero" opacity="1" stroke="none" vectornator:layerName="path"/>
<path d="M216.093 419.047C216.067 421.183 214.217 422.895 211.959 422.871C209.702 422.847 207.892 421.096 207.918 418.96C207.943 416.825 209.794 415.113 212.051 415.137C214.307 415.163 216.115 416.912 216.093 419.047Z" fill="#3f3d56" fill-rule="nonzero" opacity="1" stroke="none" vectornator:layerName="path"/>
<path d="M227.771 419.171C227.746 421.307 225.895 423.019 223.638 422.995C221.381 422.971 219.571 421.22 219.596 419.084C219.622 416.949 221.472 415.237 223.73 415.261C225.986 415.287 227.794 417.036 227.771 419.171Z" fill="#e6e6e6" fill-rule="nonzero" opacity="1" stroke="none" vectornator:layerName="path"/>
</g>
</g>
<path d="M173.402 216.882L229.348 216.882C230.242 216.882 230.967 217.9 230.967 219.155L230.967 219.155C230.967 220.411 230.242 221.429 229.348 221.429L173.402 221.429C172.508 221.429 171.784 220.411 171.784 219.155L171.784 219.155C171.784 217.9 172.508 216.882 173.402 216.882Z" fill="#d5d5d5" fill-rule="nonzero" opacity="1" stroke="none"/>
<path d="M171.248 206.882L291.015 206.882C292.929 206.882 294.48 208.433 294.48 210.346L294.48 210.346C294.48 212.26 292.929 213.811 291.015 213.811L171.248 213.811C169.335 213.811 167.784 212.26 167.784 210.346L167.784 210.346C167.784 208.433 169.335 206.882 171.248 206.882Z" fill="#000000" fill-opacity="0.800335" fill-rule="nonzero" opacity="1" stroke="none"/>
<g opacity="1" vectornator:layerName="Grafico 1">
<g opacity="1" vectornator:layerName="Rettangolo">
<use fill="#ffffff" fill-rule="nonzero" stroke="none" xlink:href="#Fill_9"/>
<mask height="108.03" id="StrokeMask_9" maskUnits="userSpaceOnUse" width="167.854" x="173.796" y="236.36">
<rect fill="#ffffff" height="108.03" stroke="none" width="167.854" x="173.796" y="236.36"/>
<use fill="#000000" fill-rule="evenodd" stroke="none" xlink:href="#Fill_9"/>
</mask>
<use fill="none" mask="url(#StrokeMask_9)" stroke="#cacaca" stroke-linecap="round" stroke-linejoin="round" stroke-width="3" xlink:href="#Fill_9"/>
</g>
<g opacity="1" vectornator:layerName="grafico a barra">
<path d="M328.807 330.305L188.967 330.305C188.726 330.305 188.53 330.082 188.53 329.807L188.53 253.62C188.53 253.345 188.726 253.123 188.967 253.123C189.209 253.123 189.405 253.345 189.405 253.62L189.405 329.31L328.807 329.31C329.049 329.31 329.245 329.532 329.245 329.807C329.245 330.082 329.049 330.305 328.807 330.305Z" fill="#3f3d56" fill-rule="nonzero" opacity="1" stroke="none" vectornator:layerName="path"/>
<path d="M218.845 324.833L206.126 324.833C205.409 324.832 204.828 324.171 204.827 323.356L204.827 303.426C204.828 302.611 205.409 301.951 206.126 301.95L218.845 301.95C219.562 301.951 220.143 302.611 220.144 303.426L220.144 323.356C220.143 324.171 219.562 324.832 218.845 324.833Z" fill="#0e5ecc" fill-rule="nonzero" opacity="1" stroke="none" vectornator:layerName="path"/>
<path d="M242.04 324.833L229.321 324.833C228.604 324.832 228.022 324.171 228.022 323.356L228.022 284.523C228.022 283.708 228.604 283.047 229.321 283.046L242.04 283.046C242.757 283.047 243.338 283.708 243.339 284.523L243.339 323.356C243.338 324.171 242.757 324.832 242.04 324.833Z" fill="#0e5ecc" fill-rule="nonzero" opacity="1" stroke="none" vectornator:layerName="path"/>
<path d="M265.234 324.833L252.515 324.833C251.798 324.832 251.217 324.171 251.216 323.356L251.216 303.426C251.217 302.611 251.798 301.951 252.515 301.95L265.234 301.95C265.951 301.951 266.533 302.611 266.533 303.426L266.533 323.356C266.533 324.171 265.951 324.832 265.234 324.833Z" fill="#0e5ecc" fill-rule="nonzero" opacity="1" stroke="none" vectornator:layerName="path"/>
<path d="M288.429 324.833L275.71 324.833C275.009 324.85 274.428 324.219 274.411 323.423L274.411 276.994C274.428 276.198 275.009 275.567 275.71 275.584L288.429 275.584C289.13 275.567 289.711 276.198 289.728 276.994L289.728 323.423C289.711 324.219 289.13 324.85 288.429 324.833Z" fill="#0e5ecc" fill-rule="nonzero" opacity="1" stroke="none" vectornator:layerName="path"/>
<path d="M311.624 324.833L298.905 324.833C298.188 324.832 297.606 324.171 297.606 323.356L297.606 263.63C297.606 262.815 298.188 262.154 298.905 262.153L311.624 262.153C312.341 262.154 312.922 262.815 312.923 263.63L312.923 323.356C312.922 324.171 312.341 324.832 311.624 324.833Z" fill="#0e5ecc" fill-rule="nonzero" opacity="1" stroke="none" vectornator:layerName="path"/>
<path d="M209.86 292.995C209.86 291.347 211.035 290.011 212.486 290.011C213.936 290.011 215.111 291.347 215.111 292.995C215.111 294.644 213.936 295.98 212.486 295.98C211.035 295.98 209.86 294.644 209.86 292.995Z" fill="#3f3d56" fill-rule="nonzero" opacity="1" stroke="none" vectornator:layerName="circle"/>
<path d="M233.054 273.595C233.054 271.946 234.23 270.61 235.68 270.61C237.13 270.61 238.306 271.946 238.306 273.595C238.306 275.243 237.13 276.579 235.68 276.579C234.23 276.579 233.054 275.243 233.054 273.595Z" fill="#3f3d56" fill-rule="nonzero" opacity="1" stroke="none" vectornator:layerName="circle"/>
<path d="M256.249 292.995C256.249 291.347 257.425 290.011 258.875 290.011C260.325 290.011 261.501 291.347 261.501 292.995C261.501 294.644 260.325 295.98 258.875 295.98C257.425 295.98 256.249 294.644 256.249 292.995Z" fill="#3f3d56" fill-rule="nonzero" opacity="1" stroke="none" vectornator:layerName="circle"/>
<path d="M279.444 264.143C279.444 262.495 280.619 261.158 282.07 261.158C283.52 261.158 284.695 262.495 284.695 264.143C284.695 265.791 283.52 267.128 282.07 267.128C280.619 267.128 279.444 265.791 279.444 264.143Z" fill="#3f3d56" fill-rule="nonzero" opacity="1" stroke="none" vectornator:layerName="circle"/>
<path d="M302.638 253.199C302.638 251.55 303.814 250.214 305.264 250.214C306.714 250.214 307.89 251.55 307.89 253.199C307.89 254.847 306.714 256.184 305.264 256.184C303.814 256.184 302.638 254.847 302.638 253.199Z" fill="#3f3d56" fill-rule="nonzero" opacity="1" stroke="none" vectornator:layerName="circle"/>
<path d="M258.93 293.664L235.68 273.869L212.748 293.393L212.223 292.598L235.68 272.626L258.819 292.327L281.814 263.724L281.906 263.681L305.101 253.059L305.428 253.981L282.325 264.562L258.93 293.664Z" fill="#3f3d56" fill-rule="nonzero" opacity="1" stroke="none" vectornator:layerName="polygon"/>
</g>
</g>
</g>
<g opacity="1" vectornator:layerName="uomo">
<path d="M158.96 413.703C156.394 415.211 153.293 415.505 150.489 414.506C147.686 413.507 145.469 411.318 144.435 408.527L108.708 409.272L118.606 393.56L151.015 395.261C155.926 393.803 161.152 396.248 163.178 400.953C165.205 405.658 163.393 411.135 158.96 413.703Z" fill="#ffb8b8" fill-rule="nonzero" opacity="1" stroke="none" vectornator:layerName="path"/>
<path d="M143.442 407.995L143.628 397.045C143.656 394.702 141.891 392.725 139.56 392.489L75.3591 386.293L21.8687 368.755C17.4748 367.314 12.6455 368.352 9.23081 371.47C5.81614 374.588 4.34543 379.303 5.38209 383.81C6.41874 388.316 9.80207 391.915 14.236 393.228L73.4425 410.757L138.829 412.418C140.861 412.467 142.674 411.151 143.258 409.205C143.374 408.812 143.435 408.405 143.442 407.995Z" fill="#3f3d56" fill-rule="nonzero" opacity="1" stroke="none" vectornator:layerName="path"/>
<path d="M48.4336 690.316L60.6936 690.315L66.5256 643.027L48.4316 643.028L48.4336 690.316Z" fill="#ffb8b8" fill-rule="nonzero" opacity="1" stroke="none" vectornator:layerName="polygon"/>
<path d="M45.307 702.199L84.8375 702.198L84.8375 701.698C84.8376 693.2 77.9487 686.311 69.451 686.312L69.45 686.312L45.3062 686.313L45.307 702.199Z" fill="#2f2e41" fill-rule="nonzero" opacity="1" stroke="none" vectornator:layerName="path"/>
<path d="M12.4336 690.316L24.6936 690.315L30.5256 643.027L12.4316 643.028L12.4336 690.316Z" fill="#ffb8b8" fill-rule="nonzero" opacity="1" stroke="none" vectornator:layerName="polygon"/>
<path d="M9.30696 702.199L48.8375 702.198L48.8375 701.698C48.8376 693.2 41.9487 686.311 33.451 686.312L33.45 686.312L9.3062 686.313L9.30696 702.199Z" fill="#2f2e41" fill-rule="nonzero" opacity="1" stroke="none" vectornator:layerName="path"/>
<path d="M4.20571 499.208L7.13313 672.901C7.15187 674.013 7.63269 675.067 8.46019 675.81C9.28769 676.553 10.3872 676.918 11.4947 676.818L25.8409 675.513C27.7839 675.337 29.316 673.784 29.4668 671.839L37.8657 563.494C37.9067 562.965 38.3526 562.561 38.8824 562.571C39.4123 562.582 39.8419 563.004 39.862 563.533L44.0599 674.359C44.1413 676.508 45.9068 678.208 48.0571 678.208L63.4427 678.208C65.5571 678.208 67.3063 676.562 67.4352 674.452L78.2057 498.208L14.2057 482.208L4.20571 499.208Z" fill="#2f2e41" fill-rule="nonzero" opacity="1" stroke="none" vectornator:layerName="path"/>
<path d="M75.188 311.55C75.188 297.985 64.1916 286.989 50.6269 286.989C37.0623 286.989 26.0659 297.985 26.0659 311.55C26.0659 325.115 37.0623 336.111 50.6269 336.111C64.1916 336.111 75.188 325.115 75.188 311.55Z" fill="#ffb8b8" fill-rule="nonzero" opacity="1" stroke="none" vectornator:layerName="circle"/>
<path d="M80.3971 504.375C81.2568 503.544 81.7482 502.405 81.7616 501.21L83.4183 382.767C83.6228 370.406 75.835 359.323 64.1363 355.326C61.8353 344.886 49.5885 343.579 42.4491 343.735C38.8326 343.813 35.4816 345.65 33.4716 348.658L28.3536 356.335L17.0734 362.947C6.36199 369.199 0.917195 381.655 3.60315 393.763L5.33972 401.663C11.4552 429.622 10.8734 458.631 3.64197 486.323L0.14734 499.647C-0.222054 501.055 0.112534 502.555 1.04536 503.672C1.97819 504.79 3.394 505.387 4.84534 505.275L8.90393 504.962C11.0789 504.798 12.8215 503.095 13.0365 500.924L13.7081 494.208C13.7337 493.952 13.9488 493.757 14.2057 493.757C14.4626 493.757 14.6776 493.952 14.7032 494.208L15.3534 500.71C15.5806 502.985 17.4766 504.727 19.7618 504.762L77.1927 505.646C77.2167 505.646 77.2403 505.647 77.2643 505.647C78.4349 505.649 79.5597 505.192 80.3971 504.375Z" fill="#3f3d56" fill-rule="nonzero" opacity="1" stroke="none" vectornator:layerName="path"/>
<path d="M48.7057 325.708C48.605 329.18 46.1945 331.188 43.2352 333.007C40.2758 334.825 36.8164 335.614 33.4272 336.375C32.5015 336.866 31.3862 336.839 30.4857 336.302C29.5853 335.766 29.0303 334.798 29.022 333.75L25.9136 321.927C24.814 318.15 24.0138 314.292 23.5206 310.39C22.7719 302.881 24.5516 294.803 29.7928 289.373C35.034 283.944 44.1236 282.015 50.4044 286.199C57.858 276.679 91.9278 297.712 83.5235 304.331C82.0284 305.509 79.7429 304.019 77.8451 303.874C75.9473 303.73 73.8206 304.064 72.6151 305.537C71.0401 307.461 71.7261 310.327 71.0771 312.728C70.5348 314.433 69.3339 315.852 67.7409 316.669C66.148 317.485 64.2949 317.632 62.5934 317.076C61.0244 316.303 59.5483 315.354 58.1936 314.247C56.7379 313.278 54.8985 312.561 53.2599 313.173C51.1 313.979 50.3326 316.623 50.1375 318.92C49.8083 321.211 49.33 323.479 48.7057 325.708Z" fill="#2f2e41" fill-rule="nonzero" opacity="1" stroke="none" vectornator:layerName="path"/>
<path d="M54.4416 391.534L58.4416 440.534L79.4416 491.534L48.4416 441.534L54.4416 391.534Z" fill="#000000" fill-rule="nonzero" opacity="0.2" stroke="none" vectornator:layerName="polygon"/>
<path d="M84.3522 510.526C82.0317 508.663 80.6557 505.867 80.5944 502.892C80.5331 499.917 81.7928 497.067 84.0346 495.11L70.656 461.974L88.8583 465.649L98.7722 496.552C101.879 500.626 101.448 506.379 97.7687 509.944C94.0898 513.509 88.3259 513.759 84.3522 510.526Z" fill="#ffb8b8" fill-rule="nonzero" opacity="1" stroke="none" vectornator:layerName="path"/>
<path d="M85.3263 495.912L95.6299 492.198C97.8301 491.393 99.0516 489.041 98.445 486.779L81.4478 424.559L78.8563 368.327C78.6437 363.707 75.9597 359.561 71.8325 357.475C67.7053 355.389 62.7747 355.688 58.9297 358.257C55.0847 360.826 52.9213 365.267 53.2683 369.878L57.8967 431.451L79.5543 493.17C80.2294 495.086 82.1034 496.315 84.1303 496.169C84.5388 496.138 84.9412 496.051 85.3263 495.912Z" fill="#3f3d56" fill-rule="nonzero" opacity="1" stroke="none" vectornator:layerName="path"/>
</g>
</g>
</svg>
