<?xml version="1.0" encoding="UTF-8" standalone="no"?>
<!DOCTYPE svg PUBLIC "-//W3C//DTD SVG 1.1//EN" "http://www.w3.org/Graphics/SVG/1.1/DTD/svg11.dtd">
<!-- Created with Vectornator (http://vectornator.io/) -->
<svg height="100%" stroke-miterlimit="10" style="fill-rule:nonzero;clip-rule:evenodd;stroke-linecap:round;stroke-linejoin:round;" version="1.1" viewBox="0 0 280 155" width="100%" xml:space="preserve" xmlns="http://www.w3.org/2000/svg" xmlns:xlink="http://www.w3.org/1999/xlink">
<defs/>
<clipPath id="ArtboardFrame">
<rect height="155" width="280" x="0" y="0"/>
</clipPath>
<g clip-path="url(#ArtboardFrame)" id="Livello-1">
<g opacity="1">
<g opacity="1">
<path d="M31.8678 107.686C31.8678 105.468 31.087 103.765 29.5254 102.578C27.9627 101.39 25.1513 100.138 21.0893 98.8202C17.0282 97.5025 13.8119 96.2039 11.4434 94.9254C4.98588 91.4293 1.7576 86.7189 1.7576 80.796C1.7576 77.7168 2.62341 74.9703 4.35502 72.5564C6.08663 70.1426 8.57307 68.2578 11.8143 66.9011C15.0556 65.5433 18.6938 64.865 22.7299 64.865C26.791 64.865 30.4102 65.6025 33.5864 67.0764C36.7627 68.5514 39.2302 70.6326 40.9868 73.32C42.7444 76.0074 43.6232 79.0605 43.6232 82.4794L31.9068 82.4794C31.9068 79.8691 31.087 77.841 29.4464 76.3921C27.8067 74.9442 25.5023 74.2198 22.5339 74.2198C19.6706 74.2198 17.4441 74.827 15.8564 76.0404C14.2678 77.2539 13.474 78.8521 13.474 80.8351C13.474 82.6878 14.4048 84.2399 16.2663 85.4924C18.1279 86.7449 20.8683 87.9193 24.4875 89.0155C31.152 91.0245 36.0079 93.5165 39.0542 96.4915C42.1005 99.4665 43.6232 103.172 43.6232 107.608C43.6232 112.54 41.7616 116.407 38.0384 119.213C34.3153 122.018 29.3034 123.421 23.0028 123.421C18.6288 123.421 14.6457 122.618 11.0525 121.014C7.45932 119.409 4.71894 117.21 2.83136 114.419C0.943788 111.626 5.88418e-15 108.39 5.88418e-15 104.711L11.7554 104.711C11.7554 111 15.5045 114.144 23.0028 114.144C25.7892 114.144 27.9627 113.577 29.5254 112.442C31.087 111.306 31.8678 109.721 31.8678 107.686Z" fill="#0e5ecc" fill-rule="nonzero" opacity="1" stroke="none"/>
<path d="M57.823 84.9052C60.8173 81.305 64.5795 79.5044 69.1095 79.5044C78.2744 79.5044 82.9213 84.8401 83.0523 95.5125L83.0523 122.638L71.7659 122.638L71.7659 95.8262C71.7659 93.3993 71.245 91.6057 70.2032 90.4444C69.1614 89.283 67.4308 88.7019 65.0094 88.7019C61.7021 88.7019 59.3077 89.9804 57.823 92.5386L57.823 122.638L46.5365 122.638L46.5365 62.5173L57.823 62.5173L57.823 84.9052Z" fill="#0e5ecc" fill-rule="nonzero" opacity="1" stroke="none"/>
<path d="M112.053 122.638C111.533 121.62 111.155 120.354 110.921 118.841C108.187 121.894 104.633 123.421 100.259 123.421C96.1194 123.421 92.6891 122.22 89.9688 119.819C87.2474 117.419 85.8877 114.391 85.8877 110.739C85.8877 106.25 87.5473 102.806 90.8666 100.405C94.1858 98.0045 98.9837 96.7911 105.258 96.765L110.452 96.765L110.452 94.3382C110.452 92.3812 109.951 90.8161 108.948 89.6417C107.946 88.4674 106.364 87.8802 104.204 87.8802C102.303 87.8802 100.812 88.3371 99.7316 89.25C98.6508 90.1638 98.1109 91.4163 98.1109 93.0075L86.8245 93.0075C86.8245 90.5546 87.5793 88.285 89.09 86.1968C90.5996 84.1096 92.7351 82.4723 95.4945 81.285C98.2539 80.0976 101.352 79.5044 104.789 79.5044C109.996 79.5044 114.129 80.815 117.189 83.4383C120.248 86.0606 121.778 89.746 121.778 94.4955L121.778 112.852C121.804 116.87 122.363 119.911 123.457 121.973L123.457 122.638L112.053 122.638ZM102.72 114.77C104.386 114.77 105.922 114.398 107.328 113.655C108.734 112.911 109.775 111.913 110.452 110.661L110.452 103.38L106.234 103.38C100.584 103.38 97.577 105.337 97.2131 109.251L97.1741 109.916C97.1741 111.326 97.668 112.487 98.6578 113.4C99.6476 114.313 101.001 114.77 102.72 114.77Z" fill="#0e5ecc" fill-rule="nonzero" opacity="1" stroke="none"/>
<path d="M150.193 90.8943C148.657 90.6858 147.303 90.5806 146.131 90.5806C141.862 90.5806 139.063 92.0295 137.735 94.9254L137.735 122.638L126.449 122.638L126.449 80.287L137.11 80.287L137.422 85.3361C139.688 81.4483 142.825 79.5044 146.834 79.5044C148.085 79.5044 149.255 79.6737 150.349 80.0134L150.193 90.8943Z" fill="#0e5ecc" fill-rule="nonzero" opacity="1" stroke="none"/>
<path d="M170.329 123.421C164.133 123.421 159.088 121.516 155.196 117.706C151.304 113.896 149.357 108.821 149.357 102.48L149.357 101.384C149.357 97.1308 150.177 93.3271 151.818 89.9744C153.458 86.6217 155.782 84.0385 158.789 82.2248C161.796 80.4112 165.226 79.5044 169.079 79.5044C174.86 79.5044 179.41 81.3311 182.729 84.9844C186.048 88.6367 187.708 93.8171 187.708 100.523L187.708 105.142L160.8 105.142C161.165 107.907 162.264 110.126 164.1 111.795C165.936 113.466 168.259 114.3 171.072 114.3C175.42 114.3 178.817 112.722 181.264 109.565L186.81 115.788C185.117 118.189 182.827 120.061 179.937 121.405C177.046 122.748 173.844 123.421 170.329 123.421ZM169.04 88.6628C166.801 88.6628 164.985 89.4203 163.592 90.9333C162.2 92.4464 161.308 94.6127 160.917 97.4304L176.617 97.4304L176.617 96.5306C176.564 94.0255 175.887 92.0877 174.586 90.7179C173.284 89.3482 171.435 88.6628 169.04 88.6628Z" fill="#0e5ecc" fill-rule="nonzero" opacity="1" stroke="none"/>
<path d="M190.856 122.638L190.856 65.6486L210.774 65.6486C217.673 65.6486 222.906 66.9722 226.473 69.6205C230.039 72.2699 231.823 76.1507 231.823 81.2659C231.823 84.0575 231.107 86.5165 229.675 88.6437C228.244 90.77 226.251 92.3291 223.7 93.3211C226.616 94.0516 228.913 95.5256 230.593 97.744C232.273 99.9615 233.112 102.676 233.112 105.885C233.112 111.365 231.368 115.514 227.879 118.332C224.39 121.15 219.417 122.586 212.96 122.638L190.856 122.638ZM202.571 97.8222L202.571 113.205L212.609 113.205C215.369 113.205 217.523 112.546 219.072 111.228C220.621 109.91 221.396 108.09 221.396 105.768C221.396 100.549 218.701 97.9003 213.312 97.8222L202.571 97.8222ZM202.571 89.5245L211.241 89.5245C217.152 89.4203 220.107 87.0586 220.107 82.4393C220.107 79.8561 219.359 77.9974 217.861 76.8621C216.364 75.7268 214.002 75.1597 210.774 75.1597L202.571 75.1597L202.571 89.5245Z" fill="#0e5ecc" fill-rule="nonzero" opacity="1" stroke="none"/>
<path d="M255.357 91.3251L267.19 65.6486L280 65.6486L261.332 101.972L261.332 122.638L249.421 122.638L249.421 101.972L230.753 65.6486L243.602 65.6486L255.357 91.3251Z" fill="#0e5ecc" fill-rule="nonzero" opacity="1" stroke="none"/>
</g>
<g opacity="1">
<path d="M188.035 147.465L180.742 147.465L180.742 154.785L179.422 154.785L179.422 139.112L189.108 139.112L189.108 140.242L180.742 140.242L180.742 146.335L188.035 146.335L188.035 147.465Z" fill="#0e5ecc" fill-rule="nonzero" opacity="1" stroke="#0e5ecc" stroke-linecap="butt" stroke-linejoin="round" stroke-width="1"/>
<path d="M194.431 154.785L193.143 154.785L193.143 143.138L194.431 143.138L194.431 154.785ZM192.918 139.769C192.918 139.525 192.996 139.319 193.154 139.15C193.311 138.982 193.525 138.898 193.797 138.898C194.07 138.898 194.286 138.982 194.447 139.15C194.608 139.319 194.689 139.525 194.689 139.769C194.689 140.013 194.608 140.217 194.447 140.383C194.286 140.548 194.07 140.63 193.797 140.63C193.525 140.63 193.311 140.548 193.154 140.383C192.996 140.217 192.918 140.013 192.918 139.769Z" fill="#0e5ecc" fill-rule="nonzero" opacity="1" stroke="#0e5ecc" stroke-linecap="butt" stroke-linejoin="round" stroke-width="1"/>
<path d="M200.646 143.138L200.689 145.129C201.126 144.412 201.67 143.865 202.321 143.488C202.973 143.111 203.692 142.923 204.48 142.923C205.726 142.923 206.654 143.274 207.261 143.978C207.87 144.681 208.178 145.735 208.185 147.142L208.185 154.785L206.907 154.785L206.907 147.131C206.9 146.091 206.679 145.317 206.247 144.807C205.814 144.298 205.121 144.042 204.168 144.042C203.374 144.042 202.67 144.291 202.059 144.79C201.446 145.289 200.993 145.962 200.7 146.809L200.7 154.785L199.421 154.785L199.421 143.138L200.646 143.138Z" fill="#0e5ecc" fill-rule="nonzero" opacity="1" stroke="#0e5ecc" stroke-linecap="butt" stroke-linejoin="round" stroke-width="1"/>
<path d="M220.338 154.785C220.209 154.419 220.127 153.877 220.091 153.159C219.641 153.747 219.066 154.201 218.368 154.521C217.67 154.841 216.93 155 216.15 155C215.034 155 214.13 154.687 213.438 154.063C212.747 153.439 212.402 152.65 212.402 151.695C212.402 150.562 212.873 149.664 213.814 149.005C214.756 148.345 216.068 148.014 217.75 148.014L220.081 148.014L220.081 146.69C220.081 145.858 219.825 145.203 219.313 144.725C218.801 144.248 218.055 144.01 217.074 144.01C216.179 144.01 215.438 144.239 214.851 144.699C214.264 145.158 213.97 145.71 213.97 146.357L212.681 146.346C212.681 145.42 213.111 144.618 213.97 143.94C214.83 143.262 215.885 142.923 217.138 142.923C218.434 142.923 219.457 143.247 220.204 143.897C220.952 144.546 221.337 145.453 221.359 146.615L221.359 152.126C221.359 153.252 221.477 154.096 221.713 154.655L221.713 154.785L220.338 154.785ZM216.3 153.859C217.16 153.859 217.928 153.651 218.604 153.234C219.281 152.819 219.774 152.263 220.081 151.566L220.081 149.005L217.783 149.005C216.501 149.019 215.499 149.253 214.776 149.709C214.053 150.165 213.691 150.792 213.691 151.588C213.691 152.24 213.933 152.783 214.416 153.213C214.899 153.643 215.528 153.859 216.3 153.859Z" fill="#0e5ecc" fill-rule="nonzero" opacity="1" stroke="#0e5ecc" stroke-linecap="butt" stroke-linejoin="round" stroke-width="1"/>
<path d="M227.509 143.138L227.552 145.129C227.989 144.412 228.533 143.865 229.184 143.488C229.836 143.111 230.555 142.923 231.343 142.923C232.589 142.923 233.516 143.274 234.124 143.978C234.733 144.681 235.041 145.735 235.048 147.142L235.048 154.785L233.77 154.785L233.77 147.131C233.763 146.091 233.543 145.317 233.11 144.807C232.677 144.298 231.984 144.042 231.032 144.042C230.237 144.042 229.533 144.291 228.921 144.79C228.309 145.289 227.857 145.962 227.563 146.809L227.563 154.785L226.285 154.785L226.285 143.138L227.509 143.138Z" fill="#0e5ecc" fill-rule="nonzero" opacity="1" stroke="#0e5ecc" stroke-linecap="butt" stroke-linejoin="round" stroke-width="1"/>
<path d="M244.162 153.913C245.058 153.913 245.808 153.66 246.413 153.154C247.017 152.648 247.345 151.993 247.395 151.189L248.63 151.189C248.594 151.9 248.372 152.547 247.964 153.132C247.556 153.717 247.013 154.174 246.338 154.505C245.661 154.835 244.936 155 244.162 155C242.637 155 241.43 154.469 240.538 153.407C239.646 152.345 239.201 150.917 239.201 149.123L239.201 148.735C239.201 147.587 239.401 146.572 239.802 145.689C240.203 144.807 240.778 144.125 241.526 143.644C242.274 143.163 243.149 142.923 244.152 142.923C245.426 142.923 246.477 143.304 247.304 144.064C248.131 144.825 248.573 145.826 248.63 147.067L247.395 147.067C247.338 146.155 247.01 145.42 246.413 144.861C245.815 144.301 245.061 144.021 244.152 144.021C242.992 144.021 242.092 144.441 241.451 145.28C240.81 146.12 240.49 147.297 240.49 148.811L240.49 149.187C240.49 150.673 240.81 151.832 241.451 152.664C242.092 153.497 242.995 153.913 244.162 153.913Z" fill="#0e5ecc" fill-rule="nonzero" opacity="1" stroke="#0e5ecc" stroke-linecap="butt" stroke-linejoin="round" stroke-width="1"/>
<path d="M257.197 155C256.208 155 255.316 154.756 254.517 154.268C253.719 153.78 253.098 153.1 252.654 152.228C252.21 151.357 251.988 150.379 251.988 149.296L251.988 148.833C251.988 147.712 252.204 146.704 252.637 145.808C253.071 144.911 253.674 144.205 254.448 143.692C255.221 143.179 256.058 142.923 256.96 142.923C258.371 142.923 259.49 143.406 260.316 144.371C261.143 145.336 261.557 146.654 261.557 148.327L261.557 149.047L253.266 149.047L253.266 149.296C253.266 150.615 253.644 151.715 254.399 152.594C255.155 153.473 256.104 153.913 257.25 153.913C257.938 153.913 258.545 153.788 259.071 153.536C259.597 153.285 260.074 152.883 260.504 152.331L261.31 152.944C260.364 154.315 258.994 155 257.197 155ZM256.96 144.021C255.993 144.021 255.18 144.376 254.517 145.086C253.855 145.797 253.452 146.751 253.309 147.95L260.279 147.95L260.279 147.81C260.243 146.69 259.925 145.778 259.323 145.076C258.722 144.373 257.934 144.021 256.96 144.021Z" fill="#0e5ecc" fill-rule="nonzero" opacity="1" stroke="#0e5ecc" stroke-linecap="butt" stroke-linejoin="round" stroke-width="1"/>
</g>
</g>
<g opacity="1">
<path d="M140.707 34.1339C134.634 34.1339 129.71 39.0686 129.71 45.156C129.71 51.2434 134.634 56.1781 140.707 56.1781C146.781 56.1781 151.705 51.2434 151.705 45.156C151.705 39.0686 146.781 34.1339 140.707 34.1339ZM140.707 37.8079C144.757 37.8079 148.039 41.0978 148.039 45.156C148.039 49.2142 144.757 52.5041 140.707 52.5041C136.658 52.5041 133.376 49.2142 133.376 45.156C133.376 41.0978 136.658 37.8079 140.707 37.8079Z" fill="#0e5ecc" fill-rule="nonzero" opacity="1" stroke="none"/>
<path d="M174.803 0.0906594C168.729 0.0906594 163.805 5.02544 163.805 11.1128C163.805 17.2002 168.729 22.1349 174.803 22.1349C180.876 22.1349 185.8 17.2002 185.8 11.1128C185.8 5.02544 180.876 0.0906594 174.803 0.0906594ZM174.803 3.7647C178.852 3.7647 182.134 7.05456 182.134 11.1128C182.134 15.171 178.852 18.4609 174.803 18.4609C170.753 18.4609 167.471 15.171 167.471 11.1128C167.471 7.05456 170.753 3.7647 174.803 3.7647Z" fill="#0e5ecc" fill-rule="nonzero" opacity="1" stroke="none"/>
<path d="M243.276-2.85882e-15C237.203-2.85882e-15 232.279 4.93478 232.279 11.0221C232.279 17.1095 237.203 22.0443 243.276 22.0443C249.35 22.0443 254.274 17.1095 254.274 11.0221C254.274 4.93478 249.35-2.85882e-15 243.276-2.85882e-15ZM243.276 3.67405C247.326 3.67405 250.608 6.9639 250.608 11.0221C250.608 15.0804 247.326 18.3702 243.276 18.3702C239.227 18.3702 235.945 15.0804 235.945 11.0221C235.945 6.9639 239.227 3.67405 243.276 3.67405Z" fill="#0e5ecc" fill-rule="nonzero" opacity="1" stroke="none"/>
<path d="M203.445 37.4195L183.651 17.5806L181.53 19.7069L201.324 39.5457L203.445 37.4195Z" fill="#0e5ecc" fill-rule="nonzero" opacity="1" stroke="none"/>
<path d="M146.685 37.2912L166.48 17.4524L168.6 19.5776L148.806 39.4165L146.685 37.2912Z" fill="#0e5ecc" fill-rule="nonzero" opacity="1" stroke="none"/>
<path d="M215.001 37.2231L234.795 17.3842L236.916 19.5105L217.121 39.3493L215.001 37.2231Z" fill="#0e5ecc" fill-rule="nonzero" opacity="1" stroke="none"/>
<path d="M208.896 34.1339C202.822 34.1339 197.899 39.0686 197.899 45.156C197.899 51.2434 202.822 56.1781 208.896 56.1781C214.97 56.1781 219.894 51.2434 219.894 45.156C219.894 39.0686 214.97 34.1339 208.896 34.1339ZM208.896 37.8079C212.945 37.8079 216.228 41.0978 216.228 45.156C216.228 49.2142 212.945 52.5041 208.896 52.5041C204.847 52.5041 201.564 49.2142 201.564 45.156C201.564 41.0978 204.847 37.8079 208.896 37.8079Z" fill="#0e5ecc" fill-rule="nonzero" opacity="1" stroke="none"/>
</g>
</g>
</svg>
