<?xml version="1.0" encoding="UTF-8" standalone="no"?>
<!DOCTYPE svg PUBLIC "-//W3C//DTD SVG 1.1//EN" "http://www.w3.org/Graphics/SVG/1.1/DTD/svg11.dtd">
<!-- Created with Vectornator (http://vectornator.io/) -->
<svg height="100%" stroke-miterlimit="10" style="fill-rule:nonzero;clip-rule:evenodd;stroke-linecap:round;stroke-linejoin:round;" version="1.1" viewBox="0 0 285 157.768" width="100%" xml:space="preserve" xmlns="http://www.w3.org/2000/svg" xmlns:xlink="http://www.w3.org/1999/xlink">
<defs/>
<clipPath id="ArtboardFrame">
<rect height="157.768" width="285" x="0" y="0"/>
</clipPath>
<g clip-path="url(#ArtboardFrame)" id="Livello-1">
<g opacity="1">
<g opacity="1">
<path d="M32.4369 107.686C32.4369 105.468 31.6421 103.765 30.0526 102.578C28.462 101.39 25.6005 100.138 21.4658 98.8202C17.3322 97.5025 14.0585 96.2039 11.6478 94.9254C5.07491 91.4293 1.78899 86.7189 1.78899 80.796C1.78899 77.7168 2.67026 74.9703 4.43279 72.5564C6.19532 70.1426 8.72616 68.2578 12.0253 66.9011C15.3245 65.5433 19.0276 64.865 23.1358 64.865C27.2694 64.865 30.9532 65.6025 34.1862 67.0764C37.4192 68.5514 39.9307 70.6326 41.7187 73.32C43.5077 76.0074 44.4022 79.0605 44.4022 82.4794L32.4766 82.4794C32.4766 79.8691 31.6421 77.841 29.9722 76.3921C28.3033 74.9442 25.9577 74.2198 22.9363 74.2198C20.0218 74.2198 17.7556 74.827 16.1396 76.0404C14.5226 77.2539 13.7146 78.8521 13.7146 80.8351C13.7146 82.6878 14.662 84.2399 16.5568 85.4924C18.4516 86.7449 21.241 87.9193 24.9248 89.0155C31.7083 91.0245 36.6509 93.5165 39.7516 96.4915C42.8523 99.4665 44.4022 103.172 44.4022 107.608C44.4022 112.54 42.5073 116.407 38.7177 119.213C34.9281 122.018 29.8267 123.421 23.4136 123.421C18.9615 123.421 14.9072 122.618 11.2499 121.014C7.59252 119.409 4.8032 117.21 2.88192 114.419C0.960641 111.626 1.46549e-14 108.39 1.46549e-14 104.711L11.9653 104.711C11.9653 111 15.7814 114.144 23.4136 114.144C26.2497 114.144 28.462 113.577 30.0526 112.442C31.6421 111.306 32.4369 109.721 32.4369 107.686Z" fill="#ffffff" fill-rule="nonzero" opacity="1" stroke="none"/>
<path d="M58.8555 84.9052C61.9033 81.305 65.7327 79.5044 70.3435 79.5044C79.6721 79.5044 84.4021 84.8401 84.5354 95.5125L84.5354 122.638L73.0474 122.638L73.0474 95.8262C73.0474 93.3993 72.5172 91.6057 71.4568 90.4444C70.3965 89.283 68.6349 88.7019 66.1703 88.7019C62.8039 88.7019 60.3667 89.9804 58.8555 92.5386L58.8555 122.638L47.3675 122.638L47.3675 62.5173L58.8555 62.5173L58.8555 84.9052Z" fill="#ffffff" fill-rule="nonzero" opacity="1" stroke="none"/>
<path d="M114.054 122.638C113.525 121.62 113.14 120.354 112.902 118.841C110.119 121.894 106.502 123.421 102.05 123.421C97.8358 123.421 94.3443 122.22 91.5753 119.819C88.8054 117.419 87.4214 114.391 87.4214 110.739C87.4214 106.25 89.1106 102.806 92.4892 100.405C95.8677 98.0045 100.751 96.7911 107.138 96.765L112.425 96.765L112.425 94.3382C112.425 92.3812 111.915 90.8161 110.894 89.6417C109.873 88.4674 108.263 87.8802 106.064 87.8802C104.13 87.8802 102.613 88.3371 101.512 89.25C100.412 90.1638 99.8629 91.4163 99.8629 93.0075L88.3749 93.0075C88.3749 90.5546 89.1432 88.285 90.6808 86.1968C92.2175 84.1096 94.3911 82.4723 97.1998 81.285C100.008 80.0976 103.162 79.5044 106.661 79.5044C111.96 79.5044 116.167 80.815 119.281 83.4383C122.395 86.0606 123.952 89.746 123.952 94.4955L123.952 112.852C123.979 116.87 124.549 119.911 125.662 121.973L125.662 122.638L114.054 122.638ZM104.554 114.77C106.25 114.77 107.814 114.398 109.244 113.655C110.675 112.911 111.736 111.913 112.425 110.661L112.425 103.38L108.131 103.38C102.381 103.38 99.3195 105.337 98.9491 109.251L98.9094 109.916C98.9094 111.326 99.4121 112.487 100.42 113.4C101.427 114.313 102.805 114.77 104.554 114.77Z" fill="#ffffff" fill-rule="nonzero" opacity="1" stroke="none"/>
<path d="M152.875 90.8943C151.311 90.6858 149.933 90.5806 148.741 90.5806C144.395 90.5806 141.546 92.0295 140.195 94.9254L140.195 122.638L128.707 122.638L128.707 80.287L139.559 80.287L139.876 85.3361C142.182 81.4483 145.375 79.5044 149.456 79.5044C150.729 79.5044 151.921 79.6737 153.034 80.0134L152.875 90.8943Z" fill="#ffffff" fill-rule="nonzero" opacity="1" stroke="none"/>
<path d="M173.37 123.421C167.064 123.421 161.929 121.516 157.967 117.706C154.006 113.896 152.024 108.821 152.024 102.48L152.024 101.384C152.024 97.1308 152.859 93.3271 154.529 89.9744C156.199 86.6217 158.564 84.0385 161.625 82.2248C164.685 80.4112 168.176 79.5044 172.098 79.5044C177.982 79.5044 182.613 81.3311 185.992 84.9844C189.37 88.6367 191.06 93.8171 191.06 100.523L191.06 105.142L163.671 105.142C164.043 107.907 165.162 110.126 167.03 111.795C168.899 113.466 171.264 114.3 174.126 114.3C178.552 114.3 182.01 112.722 184.501 109.565L190.146 115.788C188.423 118.189 186.092 120.061 183.15 121.405C180.208 122.748 176.948 123.421 173.37 123.421ZM172.059 88.6628C169.78 88.6628 167.931 89.4203 166.513 90.9333C165.096 92.4464 164.188 94.6127 163.79 97.4304L179.771 97.4304L179.771 96.5306C179.717 94.0255 179.028 92.0877 177.703 90.7179C176.378 89.3482 174.497 88.6628 172.059 88.6628Z" fill="#ffffff" fill-rule="nonzero" opacity="1" stroke="none"/>
<path d="M194.264 122.638L194.264 65.6486L214.537 65.6486C221.56 65.6486 226.886 66.9722 230.517 69.6205C234.147 72.2699 235.963 76.1507 235.963 81.2659C235.963 84.0575 235.234 86.5165 233.777 88.6437C232.319 90.77 230.291 92.3291 227.694 93.3211C230.663 94.0516 233.001 95.5256 234.711 97.744C236.42 99.9615 237.274 102.676 237.274 105.885C237.274 111.365 235.5 115.514 231.948 118.332C228.396 121.15 223.335 122.586 216.763 122.638L194.264 122.638ZM206.189 97.8222L206.189 113.205L216.406 113.205C219.214 113.205 221.407 112.546 222.984 111.228C224.561 109.91 225.35 108.09 225.35 105.768C225.35 100.549 222.606 97.9003 217.121 97.8222L206.189 97.8222ZM206.189 89.5245L215.014 89.5245C221.03 89.4203 224.038 87.0586 224.038 82.4393C224.038 79.8561 223.276 77.9974 221.751 76.8621C220.228 75.7268 217.823 75.1597 214.537 75.1597L206.189 75.1597L206.189 89.5245Z" fill="#ffffff" fill-rule="nonzero" opacity="1" stroke="none"/>
<path d="M259.916 91.3251L271.961 65.6486L285 65.6486L265.999 101.972L265.999 122.638L253.875 122.638L253.875 101.972L234.874 65.6486L247.952 65.6486L259.916 91.3251Z" fill="#ffffff" fill-rule="nonzero" opacity="1" stroke="none"/>
</g>
<g opacity="1">
<path d="M191.392 147.465L183.97 147.465L183.97 154.785L182.626 154.785L182.626 139.112L192.485 139.112L192.485 140.242L183.97 140.242L183.97 146.335L191.392 146.335L191.392 147.465Z" fill="#ffffff" fill-rule="nonzero" opacity="1" stroke="none"/>
<path d="M197.903 154.785L196.592 154.785L196.592 143.138L197.903 143.138L197.903 154.785ZM196.363 139.769C196.363 139.525 196.442 139.319 196.603 139.15C196.762 138.982 196.981 138.898 197.258 138.898C197.536 138.898 197.756 138.982 197.92 139.15C198.083 139.319 198.166 139.525 198.166 139.769C198.166 140.013 198.083 140.217 197.92 140.383C197.756 140.548 197.536 140.63 197.258 140.63C196.981 140.63 196.762 140.548 196.603 140.383C196.442 140.217 196.363 140.013 196.363 139.769Z" fill="#ffffff" fill-rule="nonzero" opacity="1" stroke="none"/>
<path d="M204.229 143.138L204.273 145.129C204.717 144.412 205.271 143.865 205.934 143.488C206.598 143.111 207.33 142.923 208.131 142.923C209.399 142.923 210.344 143.274 210.962 143.978C211.582 144.681 211.896 145.735 211.903 147.142L211.903 154.785L210.602 154.785L210.602 147.131C210.595 146.091 210.37 145.317 209.93 144.807C209.489 144.298 208.784 144.042 207.814 144.042C207.006 144.042 206.29 144.291 205.667 144.79C205.043 145.289 204.582 145.962 204.284 146.809L204.284 154.785L202.982 154.785L202.982 143.138L204.229 143.138Z" fill="#ffffff" fill-rule="nonzero" opacity="1" stroke="none"/>
<path d="M224.273 154.785C224.142 154.419 224.058 153.877 224.022 153.159C223.563 153.747 222.978 154.201 222.267 154.521C221.557 154.841 220.804 155 220.01 155C218.874 155 217.954 154.687 217.249 154.063C216.546 153.439 216.195 152.65 216.195 151.695C216.195 150.562 216.674 149.664 217.632 149.005C218.591 148.345 219.927 148.014 221.638 148.014L224.012 148.014L224.012 146.69C224.012 145.858 223.75 145.203 223.229 144.725C222.708 144.248 221.949 144.01 220.95 144.01C220.04 144.01 219.285 144.239 218.687 144.699C218.09 145.158 217.791 145.71 217.791 146.357L216.479 146.346C216.479 145.42 216.917 144.618 217.791 143.94C218.666 143.262 219.741 142.923 221.016 142.923C222.334 142.923 223.375 143.247 224.137 143.897C224.898 144.546 225.29 145.453 225.312 146.615L225.312 152.126C225.312 153.252 225.432 154.096 225.672 154.655L225.672 154.785L224.273 154.785ZM220.163 153.859C221.038 153.859 221.82 153.651 222.507 153.234C223.196 152.819 223.698 152.263 224.012 151.566L224.012 149.005L221.672 149.005C220.367 149.019 219.347 149.253 218.611 149.709C217.875 150.165 217.507 150.792 217.507 151.588C217.507 152.24 217.753 152.783 218.245 153.213C218.736 153.643 219.376 153.859 220.163 153.859Z" fill="#ffffff" fill-rule="nonzero" opacity="1" stroke="none"/>
<path d="M231.571 143.138L231.615 145.129C232.06 144.412 232.614 143.865 233.277 143.488C233.941 143.111 234.672 142.923 235.474 142.923C236.742 142.923 237.686 143.274 238.305 143.978C238.925 144.681 239.238 145.735 239.245 147.142L239.245 154.785L237.945 154.785L237.945 147.131C237.938 146.091 237.714 145.317 237.272 144.807C236.832 144.298 236.126 144.042 235.158 144.042C234.349 144.042 233.632 144.291 233.009 144.79C232.386 145.289 231.926 145.962 231.626 146.809L231.626 154.785L230.326 154.785L230.326 143.138L231.571 143.138Z" fill="#ffffff" fill-rule="nonzero" opacity="1" stroke="none"/>
<path d="M248.522 153.913C249.434 153.913 250.197 153.66 250.813 153.154C251.428 152.648 251.762 151.993 251.813 151.189L253.07 151.189C253.033 151.9 252.807 152.547 252.392 153.132C251.977 153.717 251.424 154.174 250.736 154.505C250.048 154.835 249.31 155 248.522 155C246.97 155 245.741 154.469 244.833 153.407C243.925 152.345 243.473 150.917 243.473 149.123L243.473 148.735C243.473 147.587 243.676 146.572 244.084 145.689C244.492 144.807 245.077 144.125 245.839 143.644C246.601 143.163 247.491 142.923 248.512 142.923C249.808 142.923 250.878 143.304 251.721 144.064C252.562 144.825 253.012 145.826 253.07 147.067L251.813 147.067C251.755 146.155 251.421 145.42 250.813 144.861C250.204 144.301 249.437 144.021 248.512 144.021C247.331 144.021 246.415 144.441 245.762 145.28C245.11 146.12 244.784 147.297 244.784 148.811L244.784 149.187C244.784 150.673 245.11 151.832 245.762 152.664C246.415 153.497 247.335 153.913 248.522 153.913Z" fill="#ffffff" fill-rule="nonzero" opacity="1" stroke="none"/>
<path d="M261.79 155C260.784 155 259.875 154.756 259.062 154.268C258.25 153.78 257.618 153.1 257.166 152.228C256.714 151.357 256.488 150.379 256.488 149.296L256.488 148.833C256.488 147.712 256.708 146.704 257.149 145.808C257.59 144.911 258.204 144.205 258.991 143.692C259.778 143.179 260.631 142.923 261.549 142.923C262.985 142.923 264.123 143.406 264.965 144.371C265.807 145.336 266.228 146.654 266.228 148.327L266.228 149.047L257.789 149.047L257.789 149.296C257.789 150.615 258.173 151.715 258.942 152.594C259.711 153.473 260.678 153.913 261.844 153.913C262.544 153.913 263.162 153.788 263.697 153.536C264.232 153.285 264.719 152.883 265.156 152.331L265.976 152.944C265.014 154.315 263.619 155 261.79 155ZM261.549 144.021C260.565 144.021 259.736 144.376 259.062 145.086C258.388 145.797 257.978 146.751 257.832 147.95L264.927 147.95L264.927 147.81C264.891 146.69 264.566 145.778 263.953 145.076C263.342 144.373 262.54 144.021 261.549 144.021Z" fill="#ffffff" fill-rule="nonzero" opacity="1" stroke="none"/>
</g>
</g>
<g opacity="1">
<path d="M143.22 34.1339C137.038 34.1339 132.026 39.0686 132.026 45.156C132.026 51.2434 137.038 56.1781 143.22 56.1781C149.402 56.1781 154.414 51.2434 154.414 45.156C154.414 39.0686 149.402 34.1339 143.22 34.1339ZM143.22 37.8079C147.341 37.8079 150.683 41.0978 150.683 45.156C150.683 49.2142 147.341 52.5041 143.22 52.5041C139.099 52.5041 135.757 49.2142 135.757 45.156C135.757 41.0978 139.099 37.8079 143.22 37.8079Z" fill="#ffffff" fill-rule="nonzero" opacity="1" stroke="none"/>
<path d="M177.924 0.0906594C171.742 0.0906594 166.73 5.02544 166.73 11.1128C166.73 17.2002 171.742 22.1349 177.924 22.1349C184.106 22.1349 189.118 17.2002 189.118 11.1128C189.118 5.02544 184.106 0.0906594 177.924 0.0906594ZM177.924 3.7647C182.046 3.7647 185.387 7.05456 185.387 11.1128C185.387 15.171 182.046 18.4609 177.924 18.4609C173.803 18.4609 170.461 15.171 170.461 11.1128C170.461 7.05456 173.803 3.7647 177.924 3.7647Z" fill="#ffffff" fill-rule="nonzero" opacity="1" stroke="none"/>
<path d="M247.621-8.88178e-16C241.438-8.88178e-16 236.427 4.93478 236.427 11.0221C236.427 17.1095 241.438 22.0443 247.621 22.0443C253.803 22.0443 258.815 17.1095 258.815 11.0221C258.815 4.93478 253.803-8.88178e-16 247.621-8.88178e-16ZM247.621 3.67405C251.742 3.67405 255.083 6.9639 255.083 11.0221C255.083 15.0804 251.742 18.3702 247.621 18.3702C243.499 18.3702 240.158 15.0804 240.158 11.0221C240.158 6.9639 243.499 3.67405 247.621 3.67405Z" fill="#ffffff" fill-rule="nonzero" opacity="1" stroke="none"/>
<path d="M207.078 37.4195L186.93 17.5806L184.772 19.7069L204.919 39.5457L207.078 37.4195Z" fill="#ffffff" fill-rule="nonzero" opacity="1" stroke="none"/>
<path d="M149.304 37.2912L169.452 17.4524L171.611 19.5776L151.463 39.4165L149.304 37.2912Z" fill="#ffffff" fill-rule="nonzero" opacity="1" stroke="none"/>
<path d="M218.84 37.2231L238.988 17.3842L241.146 19.5105L220.998 39.3493L218.84 37.2231Z" fill="#ffffff" fill-rule="nonzero" opacity="1" stroke="none"/>
<path d="M212.626 34.1339C206.444 34.1339 201.433 39.0686 201.433 45.156C201.433 51.2434 206.444 56.1781 212.626 56.1781C218.809 56.1781 223.82 51.2434 223.82 45.156C223.82 39.0686 218.809 34.1339 212.626 34.1339ZM212.626 37.8079C216.748 37.8079 220.089 41.0978 220.089 45.156C220.089 49.2142 216.748 52.5041 212.626 52.5041C208.505 52.5041 205.164 49.2142 205.164 45.156C205.164 41.0978 208.505 37.8079 212.626 37.8079Z" fill="#ffffff" fill-rule="nonzero" opacity="1" stroke="none"/>
</g>
</g>
</svg>
