<?xml version="1.0" encoding="UTF-8" standalone="no"?>
<!DOCTYPE svg PUBLIC "-//W3C//DTD SVG 1.1//EN" "http://www.w3.org/Graphics/SVG/1.1/DTD/svg11.dtd">
<!-- Created with Vectornator (http://vectornator.io/) -->
<svg height="100%" stroke-miterlimit="10" style="fill-rule:nonzero;clip-rule:evenodd;stroke-linecap:round;stroke-linejoin:round;" version="1.1" viewBox="0 0 942.39 457.88" width="100%" xml:space="preserve" xmlns="http://www.w3.org/2000/svg" xmlns:vectornator="http://vectornator.io" xmlns:xlink="http://www.w3.org/1999/xlink">
<defs/>
<g id="Senza-Titolo" vectornator:layerName="Senza Titolo">
<g opacity="1" vectornator:layerName="Raggruppa">
<g opacity="1">
<path d="M585.454 15.2004L585.974 10.0936L585.974 10.0936L684.462 20.1241L684.462 20.1241L683.942 25.2309L683.942 25.2309L585.454 15.2004L585.454 15.2004Z" fill="#e6e6e6" fill-rule="nonzero" opacity="1" stroke="none" vectornator:layerName="rect"/>
<path d="M549.225 9.53311C549.225 4.26812 553.493 0 558.758 0C564.023 0 568.291 4.26812 568.291 9.53311C568.291 14.7981 564.023 19.0662 558.758 19.0662C553.493 19.0662 549.225 14.7981 549.225 9.53311Z" fill="#e6e6e6" fill-rule="nonzero" opacity="1" stroke="none" vectornator:layerName="circle"/>
<path d="M585.454 43.2004L585.974 38.0936L585.974 38.0936L684.462 48.1241L684.462 48.1241L683.942 53.2309L683.942 53.2309L585.454 43.2004L585.454 43.2004Z" fill="#e4e4e4" fill-rule="nonzero" opacity="1" stroke="none" vectornator:layerName="rect"/>
<path d="M549.225 37.5331C549.225 32.2681 553.493 28 558.758 28C564.023 28 568.291 32.2681 568.291 37.5331C568.291 42.7981 564.023 47.0662 558.758 47.0662C553.493 47.0662 549.225 42.7981 549.225 37.5331Z" fill="#e4e4e4" fill-rule="nonzero" opacity="1" stroke="none" vectornator:layerName="circle"/>
<path d="M585.454 71.2004L585.974 66.0936L585.974 66.0936L684.462 76.1241L684.462 76.1241L683.942 81.2309L683.942 81.2309L585.454 71.2004L585.454 71.2004Z" fill="#0e5ecc" fill-rule="nonzero" opacity="1" stroke="none" vectornator:layerName="rect"/>
<path d="M549.225 65.5331C549.225 60.2681 553.493 56 558.758 56C564.023 56 568.291 60.2681 568.291 65.5331C568.291 70.7981 564.023 75.0662 558.758 75.0662C553.493 75.0662 549.225 70.7981 549.225 65.5331Z" fill="#0e5ecc" fill-rule="nonzero" opacity="1" stroke="none" vectornator:layerName="circle"/>
</g>
<g opacity="1">
<path d="M257.328 16.7443L364.399 2.0848L364.399 93.9043L257.328 111.649L257.328 16.7443Z" fill="#0e5ecc" fill-rule="nonzero" opacity="1" stroke="none" vectornator:layerName="polygon"/>
</g>
<g opacity="1">
<path d="M15.6314 163.266L70.5129 120.512L70.5129 202.937L15.6314 245.005L15.6314 163.266Z" fill="#e4e4e4" fill-rule="nonzero" opacity="1" stroke="none" vectornator:layerName="polygon"/>
<path d="M1.30957 152.074L81.1906 93.5973L80.5586 98.6003L1.55857 157.6L1.30957 152.074Z" fill="#0e5ecc" fill-rule="nonzero" opacity="1" stroke="none" vectornator:layerName="polygon"/>
</g>
<g opacity="1">
<path d="M871.559 173.49L871.559 254.893L924.132 305.42L926.586 222.901L871.559 173.49Z" fill="#0e5ecc" fill-rule="nonzero" opacity="1" stroke="none" vectornator:layerName="polygon"/>
<path d="M872.451 120.976L871.871 132.996L941.121 198.226L939.981 184.496L872.451 120.976Z" fill="#e6e6e6" fill-rule="nonzero" opacity="1" stroke="none" vectornator:layerName="path"/>
<path d="M871.871 143.296L871.871 154.736L941.121 221.126L941.121 206.246L871.871 143.296Z" fill="#e6e6e6" fill-rule="nonzero" opacity="1" stroke="none" vectornator:layerName="path"/>
<path d="M871.871 100.376L871.871 112.386L908.501 142.146L910.221 131.846L871.871 100.376Z" fill="#0e5ecc" fill-rule="nonzero" opacity="1" stroke="none" vectornator:layerName="path"/>
</g>
</g>
<g opacity="1">
<path d="M103.559 449.6C103.559 445.734 123.706 442.6 148.559 442.6C173.412 442.6 193.559 445.734 193.559 449.6C193.559 453.466 173.412 456.6 148.559 456.6C123.706 456.6 103.559 453.466 103.559 449.6Z" fill="#f0f0f0" fill-rule="nonzero" opacity="1" stroke="none" vectornator:layerName="ellipse"/>
<path d="M151.159 441.229L145.672 441.229L143.061 420.062L151.16 420.062L151.159 441.229Z" fill="#9e616a" fill-rule="nonzero" opacity="1" stroke="none" vectornator:layerName="polygon"/>
<path d="M152.558 446.548L134.864 446.548L134.864 446.324C134.864 442.52 137.947 439.437 141.751 439.437L141.751 439.437L152.559 439.437L152.558 446.548Z" fill="#2f2e41" fill-rule="nonzero" opacity="1" stroke="none" vectornator:layerName="path"/>
<path d="M170.619 435.788L165.546 437.881L155.058 419.312L162.544 416.222L170.619 435.788Z" fill="#9e616a" fill-rule="nonzero" opacity="1" stroke="none" vectornator:layerName="polygon"/>
<path d="M173.942 440.171L157.585 446.922L157.5 446.715C156.049 443.199 157.723 439.172 161.239 437.721L161.239 437.721L171.229 433.598L173.942 440.171Z" fill="#2f2e41" fill-rule="nonzero" opacity="1" stroke="none" vectornator:layerName="path"/>
<path d="M154.774 282.046C154.774 282.046 175.136 291.696 161.607 335.898L160.577 370.868L153.829 435.155L142.849 434.456L137.993 372.569L121.807 321.452L125.019 296.763L154.774 282.046Z" fill="#2f2e41" fill-rule="nonzero" opacity="1" stroke="none" vectornator:layerName="path"/>
<path d="M123.698 303.287L125.353 271.192C114.093 252.283 125.634 241.48 126.572 240.651L136.89 225.584L145.917 223.106C149.511 222.119 153.36 222.874 156.315 225.145C159.27 227.417 160.99 230.942 160.961 234.668L160.556 287.255L123.698 303.287Z" fill="#0e5ecc" fill-rule="nonzero" opacity="1" stroke="none" vectornator:layerName="path"/>
<path d="M144.294 381.915L155.641 428.977L168.644 423.692L151.023 381.095L144.294 381.915Z" fill="#2f2e41" fill-rule="nonzero" opacity="1" stroke="none" vectornator:layerName="polygon"/>
<path d="M126.993 319.933C128.549 319.274 129.733 317.959 130.226 316.343C130.72 314.727 130.472 312.975 129.55 311.559L141.055 295.266L131.47 294.717L121.274 310.068C118.947 311.814 118.293 315.024 119.752 317.54C121.211 320.057 124.321 321.085 126.993 319.933Z" fill="#9e616a" fill-rule="nonzero" opacity="1" stroke="none" vectornator:layerName="path"/>
<path d="M130.985 241.324L136.015 276.809L121.807 303.565L133.696 311.007L154.179 280.726L145.602 237.822L130.985 241.324Z" fill="#0e5ecc" fill-rule="nonzero" opacity="1" stroke="none" vectornator:layerName="polygon"/>
<path d="M126.237 202.033C126.237 193.649 133.033 186.853 141.417 186.853C149.801 186.853 156.597 193.649 156.597 202.033C156.597 210.417 149.801 217.213 141.417 217.213C133.033 217.213 126.237 210.417 126.237 202.033Z" fill="#9e616a" fill-rule="nonzero" opacity="1" stroke="none" vectornator:layerName="circle"/>
<path d="M164.306 258.638C164.873 250.145 168.428 242.192 171.294 234.177C174.16 226.163 176.386 217.44 174.219 209.209C172.952 204.967 170.96 200.976 168.333 197.412C163.591 190.536 157.546 184.141 149.712 181.243C141.878 178.345 132.005 179.79 126.851 186.363C124.961 188.676 123.943 191.58 123.975 194.567C124.048 197.579 125.599 200.362 128.122 202.009C129.553 202.875 131.254 203.281 132.557 204.331C133.86 205.38 134.573 207.514 133.388 208.695L133.861 208.928C138.107 209.843 140.475 214.655 140.439 218.998C140.403 223.34 138.637 227.452 137.544 231.655C136.45 235.858 136.13 240.679 138.655 244.213C141.164 247.727 146.015 249.272 147.846 253.182C150.345 258.518 145.816 264.627 146.359 270.494C146.881 276.126 152.161 280.38 157.686 281.594C163.211 282.808 168.949 281.659 174.488 280.511C166.951 276.558 163.738 267.13 164.306 258.638Z" fill="#2f2e41" fill-rule="nonzero" opacity="1" stroke="none" vectornator:layerName="path"/>
</g>
<g opacity="1">
<path d="M430.559 304.6C430.559 300.734 491 297.6 565.559 297.6C640.117 297.6 700.559 300.734 700.559 304.6C700.559 308.466 640.117 311.6 565.559 311.6C491 311.6 430.559 308.466 430.559 304.6Z" fill="#f0f0f0" fill-rule="nonzero" opacity="1" stroke="none" vectornator:layerName="ellipse"/>
<path d="M515.902 180.732L516.644 156.069L513.351 133.132L508.425 133.466L504.28 157.6L508.911 183.476C507.079 185.989 507.125 189.41 509.026 191.872C510.926 194.335 514.224 195.246 517.119 194.11C520.014 192.974 521.812 190.062 521.53 186.964C521.248 183.867 518.955 181.327 515.902 180.732Z" fill="#9e616a" fill-rule="nonzero" opacity="1" stroke="none" vectornator:layerName="path"/>
<path d="M515.28 238.6L501.472 297.057L511.876 297.796L531.816 241.218L515.28 238.6Z" fill="#9e616a" fill-rule="nonzero" opacity="1" stroke="none" vectornator:layerName="polygon"/>
<path d="M539.894 234.758L558.95 291.721L568.182 286.868L553.559 229.6L539.894 234.758Z" fill="#9e616a" fill-rule="nonzero" opacity="1" stroke="none" vectornator:layerName="polygon"/>
<path d="M514.561 185.696C514.561 185.696 507.945 193.012 519.362 207.056L504.559 284.6L515.559 288.6L535.559 236.6L553.559 281.6L567.559 275.6L548.434 207.056L550.559 189.6L545.271 184.714L514.561 185.696Z" fill="#e4e4e4" fill-rule="nonzero" opacity="1" stroke="none" vectornator:layerName="path"/>
<path d="M528.301 106.756C528.301 106.756 508.28 114.6 510.28 126.6L515.205 174.036L510.139 190.486C510.139 190.486 543.923 195.912 550.101 189.756L551.28 137.6L553.493 116.985L542.791 112.656L540.121 108.696L528.301 106.756Z" fill="#3f3d56" fill-rule="nonzero" opacity="1" stroke="none" vectornator:layerName="path"/>
<path d="M513.352 120.651L506.05 137.092L516.906 141.296L513.352 120.651Z" fill="#3f3d56" fill-rule="nonzero" opacity="1" stroke="none" vectornator:layerName="polygon"/>
<path d="M568.085 187.56L559.28 140.556L545.272 139.386L549.22 162.982L558.758 189.68C557.146 192.061 557.152 195.185 558.774 197.559C560.396 199.934 563.304 201.075 566.108 200.437C568.912 199.8 571.041 197.513 571.478 194.671C571.914 191.829 570.569 189.009 568.085 187.56Z" fill="#9e616a" fill-rule="nonzero" opacity="1" stroke="none" vectornator:layerName="path"/>
<path d="M537.562 122.73L545.641 145.666L561.28 143.6C561.28 143.6 564.706 122.37 553.493 116.985L537.562 122.73Z" fill="#3f3d56" fill-rule="nonzero" opacity="1" stroke="none" vectornator:layerName="path"/>
<path d="M548.533 89.2594C548.126 108.895 517.881 105.542 521.889 86.251C524.975 70.8999 548.945 73.6284 548.533 89.2594Z" fill="#9e616a" fill-rule="nonzero" opacity="1" stroke="none" vectornator:layerName="path"/>
<path d="M541.163 71.1994C531.681 72.8158 516.996 69.0141 517.284 83.8598C516.312 85.3136 515.243 86.9064 515.934 88.7295C519.278 92.8084 521.026 99.1253 525.392 101.99C529.284 101.962 534.364 102.505 536.974 99.1098C538.082 96.3258 536.121 92.932 537.793 90.3194C539.986 89.6196 542.127 92.4267 542.983 88.4289C542.739 86.4521 543.594 84.4997 545.213 83.3395C548.647 79.4075 546.307 72.1619 541.163 71.1994Z" fill="#3f3d56" fill-rule="nonzero" opacity="1" stroke="none" vectornator:layerName="path"/>
<path d="M498.777 295.601L515.128 295.6L515.129 295.6C520.883 295.6 525.548 300.265 525.549 306.02L525.549 306.358L498.778 306.359L498.777 295.601Z" fill="#2f2e41" fill-rule="nonzero" opacity="1" stroke="none" vectornator:layerName="path"/>
<path d="M554.944 288.542L570.928 285.096L570.928 285.096C576.554 283.883 582.097 287.46 583.31 293.086L583.382 293.417L557.212 299.06L554.944 288.542Z" fill="#2f2e41" fill-rule="nonzero" opacity="1" stroke="none" vectornator:layerName="path"/>
<path d="M622.873 299.656L628.156 299.656L630.669 279.28L622.872 279.28L622.873 299.656Z" fill="#ffb6b6" fill-rule="nonzero" opacity="1" stroke="none" vectornator:layerName="polygon"/>
<path d="M621.525 297.931L631.929 297.931L631.929 297.931C635.59 297.931 638.558 300.899 638.559 304.561L638.559 304.776L621.526 304.777L621.525 297.931Z" fill="#2f2e41" fill-rule="nonzero" opacity="1" stroke="none" vectornator:layerName="path"/>
<path d="M595.873 299.656L601.156 299.656L603.669 279.28L595.872 279.28L595.873 299.656Z" fill="#ffb6b6" fill-rule="nonzero" opacity="1" stroke="none" vectornator:layerName="polygon"/>
<path d="M594.525 297.931L604.929 297.931L604.929 297.931C608.59 297.931 611.558 300.899 611.559 304.561L611.559 304.776L594.526 304.777L594.525 297.931Z" fill="#2f2e41" fill-rule="nonzero" opacity="1" stroke="none" vectornator:layerName="path"/>
<path d="M657.559 72.6C657.56 70.1749 656.101 67.9876 653.861 67.057C651.622 66.1263 649.042 66.6353 647.324 68.3469C645.606 70.0585 645.087 72.6361 646.009 74.8791L633.87 94.0857L626.313 109.316L632.549 114.851L637.348 109.8L653.045 78.407C655.699 77.7297 657.557 75.3396 657.559 72.6Z" fill="#ffb6b6" fill-rule="nonzero" opacity="1" stroke="none" vectornator:layerName="path"/>
<path d="M594.559 135.6L582.659 133.756L579.825 155.283L564.38 188.517C561.568 190.271 560.708 193.972 562.46 196.785C564.212 199.599 567.913 200.46 570.727 198.709C573.541 196.958 574.404 193.257 572.654 190.442L588.801 161.284L594.559 135.6Z" fill="#ffb6b6" fill-rule="nonzero" opacity="1" stroke="none" vectornator:layerName="path"/>
<path d="M601.153 171.463C601.153 171.463 590.689 181.139 592.018 205.469L594.95 243.056L594.211 295.45L604.958 294.606L614.348 206.8L623.348 242.8L620.117 290.756L630.47 290.996L641.348 236.8L638.77 196.626L634.439 171.463L601.153 171.463Z" fill="#2f2e41" fill-rule="nonzero" opacity="1" stroke="none" vectornator:layerName="path"/>
<path d="M612.348 114.8L587.348 121.8L600.06 159.886L598.16 174.456L636.706 174.705L627.779 146.544C627.779 146.544 632.789 136.242 627.069 129.021L612.348 114.8Z" fill="#e4e4e4" fill-rule="nonzero" opacity="1" stroke="none" vectornator:layerName="path"/>
<path d="M609.348 120.8L612.348 114.8C612.348 114.8 612.251 113.292 619.3 112.546L627.57 104.326L635.14 111.87L622.348 130.8L609.348 120.8Z" fill="#e4e4e4" fill-rule="nonzero" opacity="1" stroke="none" vectornator:layerName="path"/>
<path d="M597.348 126.8C597.348 126.8 588.348 116.8 583.348 121.8C578.348 126.8 580.912 142.699 580.912 142.699L596.485 145.115L597.348 126.8Z" fill="#e4e4e4" fill-rule="nonzero" opacity="1" stroke="none" vectornator:layerName="path"/>
<path d="M601.913 88.3603C617.24 88.4291 617.239 111.734 601.912 111.8C586.586 111.732 586.587 88.427 601.913 88.3603Z" fill="#ffb6b6" fill-rule="nonzero" opacity="1" stroke="none" vectornator:layerName="path"/>
<path d="M603.619 99.3057C605.691 100.526 607.844 101.774 610.234 102.035C612.624 102.297 615.33 101.291 616.289 99.0861C616.589 98.3222 616.748 97.5103 616.759 96.6897C616.969 92.5022 615.52 88.4006 612.726 85.2744C609.889 82.1737 605.841 80.4625 601.64 80.5872C597.68 80.7593 594.02 82.634 590.506 84.468C587.274 86.1546 583.862 88.013 582.106 91.2076C579.504 95.9414 581.4 101.737 581.906 107.115C582.622 115.218 580.014 123.264 574.681 129.405L596.488 131.472C599.13 131.861 601.817 131.834 604.45 131.39C609.023 130.369 612.665 126.917 613.93 122.406C615.195 117.894 613.878 113.052 610.503 109.803C607.407 106.822 602.429 104.713 602.307 100.418" fill="#2f2e41" fill-rule="nonzero" opacity="1" stroke="none" vectornator:layerName="path"/>
</g>
<g opacity="1">
<path d="M713.26 336.057C735.286 335.967 735.286 340.828 713.259 340.737C691.233 340.828 691.233 335.966 713.26 336.057Z" fill="#f0f0f0" fill-rule="nonzero" opacity="1" stroke="none" vectornator:layerName="path"/>
<path d="M711.5 332.504C711.545 330.37 710.014 328.051 707.879 328.037C706.127 328.157 704.689 329.469 704.41 331.204C704.192 332.913 704.698 334.636 705.806 335.957C706.909 337.254 708.188 338.392 709.606 339.336L709.983 337.961C709.72 338.127 709.44 338.264 709.148 338.371C710.296 336.571 711.456 334.639 711.5 332.504Z" fill="#f0f0f0" fill-rule="nonzero" opacity="1" stroke="none" vectornator:layerName="path"/>
<path d="M709.983 337.961C710.311 337.75 710.612 337.501 710.88 337.218C710.633 337.268 710.39 337.334 710.142 337.379L709.983 337.961Z" fill="#f0f0f0" fill-rule="nonzero" opacity="1" stroke="none" vectornator:layerName="path"/>
<path d="M726.011 321.253C724.005 319.678 721.324 319.261 718.935 320.152C716.574 321.083 714.749 323.014 713.954 325.424C713.182 327.719 713.341 330.212 712.966 332.604C712.751 334.317 712.024 335.925 710.88 337.218C714.711 336.453 718.435 335.226 721.969 333.562C724.525 332.354 727.17 330.69 728.056 328.006C728.786 325.549 727.982 322.892 726.011 321.253Z" fill="#f0f0f0" fill-rule="nonzero" opacity="1" stroke="none" vectornator:layerName="path"/>
</g>
<g opacity="1">
<path d="M418.26 423.057C440.286 422.967 440.286 427.828 418.259 427.737C396.233 427.828 396.233 422.966 418.26 423.057Z" fill="#f0f0f0" fill-rule="nonzero" opacity="1" stroke="none" vectornator:layerName="path"/>
<path d="M418.5 419.504C418.545 417.37 417.014 415.051 414.879 415.037C413.127 415.157 411.689 416.469 411.41 418.204C411.192 419.913 411.698 421.636 412.806 422.957C413.909 424.254 415.188 425.392 416.606 426.336L416.983 424.961C416.72 425.127 416.44 425.264 416.148 425.371C417.296 423.571 418.456 421.639 418.5 419.504Z" fill="#f0f0f0" fill-rule="nonzero" opacity="1" stroke="none" vectornator:layerName="path"/>
<path d="M416.983 424.961C417.311 424.75 417.612 424.501 417.88 424.218C417.633 424.268 417.39 424.334 417.142 424.379L416.983 424.961Z" fill="#f0f0f0" fill-rule="nonzero" opacity="1" stroke="none" vectornator:layerName="path"/>
<path d="M433.011 408.253C431.005 406.678 428.324 406.261 425.935 407.152C423.574 408.083 421.749 410.014 420.954 412.424C420.182 414.719 420.341 417.212 419.966 419.604C419.751 421.317 419.024 422.925 417.88 424.218C421.711 423.453 425.435 422.226 428.969 420.562C431.525 419.354 434.17 417.69 435.056 415.006C435.786 412.549 434.982 409.892 433.011 408.253Z" fill="#f0f0f0" fill-rule="nonzero" opacity="1" stroke="none" vectornator:layerName="path"/>
</g>
<g opacity="1">
<path d="M97.2595 421.057C119.286 420.967 119.286 425.828 97.259 425.737C75.2332 425.828 75.233 420.966 97.2595 421.057Z" fill="#f0f0f0" fill-rule="nonzero" opacity="1" stroke="none" vectornator:layerName="path"/>
<path d="M97.5005 417.504C97.5453 415.37 96.0139 413.051 93.879 413.037C92.1268 413.157 90.6888 414.469 90.4102 416.204C90.1916 417.913 90.6977 419.636 91.806 420.957C92.9093 422.254 94.1883 423.392 95.606 424.336L95.9829 422.961C95.7197 423.127 95.4398 423.264 95.1477 423.371C96.2961 421.571 97.4557 419.639 97.5005 417.504Z" fill="#f0f0f0" fill-rule="nonzero" opacity="1" stroke="none" vectornator:layerName="path"/>
<path d="M95.9829 422.961C96.3106 422.75 96.6118 422.501 96.8801 422.218C96.6332 422.268 96.3899 422.334 96.1423 422.379L95.9829 422.961Z" fill="#f0f0f0" fill-rule="nonzero" opacity="1" stroke="none" vectornator:layerName="path"/>
<path d="M112.011 406.253C110.005 404.678 107.324 404.261 104.935 405.152C102.574 406.083 100.749 408.014 99.9544 410.424C99.1822 412.719 99.3413 415.212 98.9664 417.604C98.7515 419.317 98.0243 420.925 96.8801 422.218C100.711 421.453 104.435 420.226 107.969 418.562C110.525 417.354 113.17 415.69 114.056 413.006C114.786 410.549 113.982 407.892 112.011 406.253Z" fill="#f0f0f0" fill-rule="nonzero" opacity="1" stroke="none" vectornator:layerName="path"/>
</g>
</g>
</svg>
