<?xml version="1.0" encoding="UTF-8" standalone="no"?>
<!DOCTYPE svg PUBLIC "-//W3C//DTD SVG 1.1//EN" "http://www.w3.org/Graphics/SVG/1.1/DTD/svg11.dtd">
<!-- Created with Vectornator (http://vectornator.io/) -->
<svg height="100%" stroke-miterlimit="10" style="fill-rule:nonzero;clip-rule:evenodd;stroke-linecap:round;stroke-linejoin:round;" version="1.1" viewBox="0 0 741.537 611.043" width="100%" xml:space="preserve" xmlns="http://www.w3.org/2000/svg" xmlns:vectornator="http://vectornator.io" xmlns:xlink="http://www.w3.org/1999/xlink">
<defs>
<filter color-interpolation-filters="sRGB" filterUnits="userSpaceOnUse" height="600" id="Filter" width="474.677" x="295.785" y="-16.2847">
<feDropShadow dx="-2.93856e-05" dy="8" flood-color="#000000" flood-opacity="1" in="SourceGraphic" result="Shadow" stdDeviation="10"/>
</filter>
<filter color-interpolation-filters="sRGB" filterUnits="userSpaceOnUse" height="370" id="Filter_2" width="452" x="-26" y="273">
<feDropShadow dx="-2.93856e-05" dy="8" flood-color="#000000" flood-opacity="1" in="SourceGraphic" result="Shadow" stdDeviation="10"/>
</filter>
</defs>
<clipPath id="ArtboardFrame">
<rect height="611.043" width="741.537" x="0" y="0"/>
</clipPath>
<g clip-path="url(#ArtboardFrame)" id="Livello-1" vectornator:layerName="Livello 1">
<g filter="url(#Filter)" vectornator:shadowAngle="1.5708" vectornator:shadowColor="#000000" vectornator:shadowOffset="8" vectornator:shadowOpacity="1" vectornator:shadowRadius="20">
<g opacity="1">
<path d="M365.785 0.715268L695.785 0.715268C720.638 0.715268 740.785 20.8057 740.785 45.5884L740.785 505.842C740.785 530.625 720.638 550.715 695.785 550.715L365.785 550.715C340.932 550.715 320.785 530.625 320.785 505.842L320.785 45.5884C320.785 20.8057 340.932 0.715268 365.785 0.715268Z" fill="#282944" fill-rule="nonzero" opacity="1" stroke="none"/>
<path d="M661.171 0.715268L741.171 0.715268L741.171 550.715L661.171 550.715L661.171 0.715268Z" fill="#282944" fill-rule="nonzero" opacity="1" stroke="none"/>
</g>
<path d="M645.785 397.207L695.785 397.207C698.547 397.207 700.785 399.445 700.785 402.207L700.785 402.207C700.785 404.968 698.547 407.207 695.785 407.207L645.785 407.207C643.024 407.207 640.785 404.968 640.785 402.207L640.785 402.207C640.785 399.445 643.024 397.207 645.785 397.207Z" fill="#0e5ecc" fill-rule="nonzero" opacity="1" stroke="none"/>
<path d="M645.785 432.949L695.785 432.949C698.547 432.949 700.785 435.187 700.785 437.949L700.785 437.949C700.785 440.71 698.547 442.949 695.785 442.949L645.785 442.949C643.024 442.949 640.785 440.71 640.785 437.949L640.785 437.949C640.785 435.187 643.024 432.949 645.785 432.949Z" fill="#0e5ecc" fill-rule="nonzero" opacity="1" stroke="none"/>
<path d="M645.785 467.949L695.785 467.949C698.547 467.949 700.785 470.187 700.785 472.949L700.785 472.949C700.785 475.71 698.547 477.949 695.785 477.949L645.785 477.949C643.024 477.949 640.785 475.71 640.785 472.949L640.785 472.949C640.785 470.187 643.024 467.949 645.785 467.949Z" fill="#0e5ecc" fill-rule="nonzero" opacity="1" stroke="none"/>
<path d="M645.785 502.949L695.785 502.949C698.547 502.949 700.785 505.187 700.785 507.949L700.785 507.949C700.785 510.71 698.547 512.949 695.785 512.949L645.785 512.949C643.024 512.949 640.785 510.71 640.785 507.949L640.785 507.949C640.785 505.187 643.024 502.949 645.785 502.949Z" fill="#0e5ecc" fill-rule="nonzero" opacity="1" stroke="none"/>
<g opacity="1" vectornator:layerName="aziende">
<path d="M370.785 402.439C370.785 395.964 376.034 390.715 382.509 390.715C388.984 390.715 394.233 395.964 394.233 402.439C394.233 408.914 388.984 414.164 382.509 414.164C376.034 414.164 370.785 408.914 370.785 402.439Z" fill="#454763" fill-rule="nonzero" opacity="1" stroke="none"/>
<path d="M370.785 437.612C370.785 431.137 376.034 425.888 382.509 425.888C388.984 425.888 394.233 431.137 394.233 437.612C394.233 444.087 388.984 449.336 382.509 449.336C376.034 449.336 370.785 444.087 370.785 437.612Z" fill="#454763" fill-rule="nonzero" opacity="1" stroke="none"/>
<path d="M370.785 472.784C370.785 466.309 376.034 461.06 382.509 461.06C388.984 461.06 394.233 466.309 394.233 472.784C394.233 479.259 388.984 484.508 382.509 484.508C376.034 484.508 370.785 479.259 370.785 472.784Z" fill="#454763" fill-rule="nonzero" opacity="1" stroke="none"/>
<path d="M370.785 507.957C370.785 501.482 376.034 496.233 382.509 496.233C388.984 496.233 394.233 501.482 394.233 507.957C394.233 514.432 388.984 519.681 382.509 519.681C376.034 519.681 370.785 514.432 370.785 507.957Z" fill="#454763" fill-rule="nonzero" opacity="1" stroke="none"/>
<path d="M416.357 398.336L536.247 398.336C538.753 398.336 540.785 400.173 540.785 402.439L540.785 402.439C540.785 404.706 538.753 406.543 536.247 406.543L416.357 406.543C413.851 406.543 411.82 404.706 411.82 402.439L411.82 402.439C411.82 400.173 413.851 398.336 416.357 398.336Z" fill="#ffffff" fill-opacity="0.5" fill-rule="nonzero" opacity="1" stroke="none"/>
<path d="M416.357 433.508L536.247 433.508C538.753 433.508 540.785 435.346 540.785 437.612L540.785 437.612C540.785 439.878 538.753 441.715 536.247 441.715L416.357 441.715C413.851 441.715 411.82 439.878 411.82 437.612L411.82 437.612C411.82 435.346 413.851 433.508 416.357 433.508Z" fill="#ffffff" fill-opacity="0.5" fill-rule="nonzero" opacity="1" stroke="none"/>
<path d="M416.357 468.681L536.247 468.681C538.753 468.681 540.785 470.518 540.785 472.784L540.785 472.784C540.785 475.051 538.753 476.888 536.247 476.888L416.357 476.888C413.851 476.888 411.82 475.051 411.82 472.784L411.82 472.784C411.82 470.518 413.851 468.681 416.357 468.681Z" fill="#ffffff" fill-opacity="0.5" fill-rule="nonzero" opacity="1" stroke="none"/>
<path d="M416.357 503.853L536.247 503.853C538.753 503.853 540.785 505.69 540.785 507.957L540.785 507.957C540.785 510.223 538.753 512.06 536.247 512.06L416.357 512.06C413.851 512.06 411.82 510.223 411.82 507.957L411.82 507.957C411.82 505.69 413.851 503.853 416.357 503.853Z" fill="#ffffff" fill-opacity="0.5" fill-rule="nonzero" opacity="1" stroke="none"/>
</g>
<g opacity="1" vectornator:layerName="titoli">
<path d="M378.285 360.715L403.285 360.715C407.427 360.715 410.785 363.402 410.785 366.715L410.785 366.715C410.785 370.029 407.427 372.715 403.285 372.715L378.285 372.715C374.143 372.715 370.785 370.029 370.785 366.715L370.785 366.715C370.785 363.402 374.143 360.715 378.285 360.715Z" fill="#ffffff" fill-opacity="0.3" fill-rule="nonzero" opacity="1" stroke="none"/>
<path d="M428.285 360.715L453.285 360.715C457.427 360.715 460.785 363.402 460.785 366.715L460.785 366.715C460.785 370.029 457.427 372.715 453.285 372.715L428.285 372.715C424.143 372.715 420.785 370.029 420.785 366.715L420.785 366.715C420.785 363.402 424.143 360.715 428.285 360.715Z" fill="#ffffff" fill-opacity="0.3" fill-rule="nonzero" opacity="1" stroke="none"/>
<path d="M478.285 360.715L503.285 360.715C507.427 360.715 510.785 363.402 510.785 366.715L510.785 366.715C510.785 370.029 507.427 372.715 503.285 372.715L478.285 372.715C474.143 372.715 470.785 370.029 470.785 366.715L470.785 366.715C470.785 363.402 474.143 360.715 478.285 360.715Z" fill="#ffffff" fill-opacity="0.3" fill-rule="nonzero" opacity="1" stroke="none"/>
</g>
<path d="M370.785 209.025C388.796 208.553 427.318 262.094 445.115 259.533C473.648 255.427 472.799 180.772 513.574 186.411C554.349 192.05 570.65 337.3 602.918 312.541C635.186 287.783 621.753 139.366 660.928 122.837C696.561 107.803 687.676 177.202 711.101 188.275C724.722 194.714 727.705 216.948 740.462 216.557" fill="none" opacity="1" stroke="#0e5ecc" stroke-linecap="butt" stroke-linejoin="round" stroke-opacity="0.9" stroke-width="10"/>
<g fill="#f4f5fb" opacity="1" stroke="none">
<path d="M384.772 84.294C382.616 84.294 380.684 83.944 378.976 83.244C377.268 82.544 375.903 81.508 374.881 80.136C373.859 78.764 373.32 77.112 373.264 75.18L380.908 75.18C381.02 76.272 381.398 77.105 382.042 77.679C382.686 78.253 383.526 78.54 384.562 78.54C385.626 78.54 386.466 78.295 387.082 77.805C387.698 77.315 388.006 76.636 388.006 75.768C388.006 75.04 387.761 74.438 387.271 73.962C386.781 73.486 386.179 73.094 385.465 72.786C384.751 72.478 383.736 72.128 382.42 71.736C380.516 71.148 378.962 70.56 377.758 69.972C376.554 69.384 375.518 68.516 374.65 67.368C373.782 66.22 373.348 64.722 373.348 62.874C373.348 60.13 374.342 57.981 376.33 56.427C378.318 54.873 380.908 54.096 384.1 54.096C387.348 54.096 389.966 54.873 391.954 56.427C393.942 57.981 395.006 60.144 395.146 62.916L387.376 62.916C387.32 61.964 386.97 61.215 386.326 60.669C385.682 60.123 384.856 59.85 383.848 59.85C382.98 59.85 382.28 60.081 381.748 60.543C381.216 61.005 380.95 61.67 380.95 62.538C380.95 63.49 381.398 64.232 382.294 64.764C383.19 65.296 384.59 65.87 386.494 66.486C388.398 67.13 389.945 67.746 391.135 68.334C392.325 68.922 393.354 69.776 394.222 70.896C395.09 72.016 395.524 73.458 395.524 75.222C395.524 76.902 395.097 78.428 394.243 79.8C393.389 81.172 392.15 82.264 390.526 83.076C388.902 83.888 386.984 84.294 384.772 84.294Z"/>
<path d="M412.996 77.91L412.996 84L409.342 84C406.738 84 404.708 83.363 403.252 82.089C401.796 80.815 401.068 78.736 401.068 75.852L401.068 66.528L398.212 66.528L398.212 60.564L401.068 60.564L401.068 54.852L408.25 54.852L408.25 60.564L412.954 60.564L412.954 66.528L408.25 66.528L408.25 75.936C408.25 76.636 408.418 77.14 408.754 77.448C409.09 77.756 409.65 77.91 410.434 77.91L412.996 77.91Z"/>
<path d="M415.558 72.24C415.558 69.832 416.013 67.718 416.923 65.898C417.833 64.078 419.072 62.678 420.64 61.698C422.208 60.718 423.958 60.228 425.89 60.228C427.542 60.228 428.991 60.564 430.237 61.236C431.483 61.908 432.442 62.79 433.114 63.882L433.114 60.564L440.296 60.564L440.296 84L433.114 84L433.114 80.682C432.414 81.774 431.441 82.656 430.195 83.328C428.949 84 427.5 84.336 425.848 84.336C423.944 84.336 422.208 83.839 420.64 82.845C419.072 81.851 417.833 80.437 416.923 78.603C416.013 76.769 415.558 74.648 415.558 72.24ZM433.114 72.282C433.114 70.49 432.617 69.076 431.623 68.04C430.629 67.004 429.418 66.486 427.99 66.486C426.562 66.486 425.351 66.997 424.357 68.019C423.363 69.041 422.866 70.448 422.866 72.24C422.866 74.032 423.363 75.453 424.357 76.503C425.351 77.553 426.562 78.078 427.99 78.078C429.418 78.078 430.629 77.56 431.623 76.524C432.617 75.488 433.114 74.074 433.114 72.282Z"/>
<path d="M458.566 77.91L458.566 84L454.912 84C452.308 84 450.278 83.363 448.822 82.089C447.366 80.815 446.638 78.736 446.638 75.852L446.638 66.528L443.782 66.528L443.782 60.564L446.638 60.564L446.638 54.852L453.82 54.852L453.82 60.564L458.524 60.564L458.524 66.528L453.82 66.528L453.82 75.936C453.82 76.636 453.988 77.14 454.324 77.448C454.66 77.756 455.22 77.91 456.004 77.91L458.566 77.91Z"/>
<path d="M466.168 58.128C464.908 58.128 463.879 57.757 463.081 57.015C462.283 56.273 461.884 55.356 461.884 54.264C461.884 53.144 462.283 52.213 463.081 51.471C463.879 50.729 464.908 50.358 466.168 50.358C467.4 50.358 468.415 50.729 469.213 51.471C470.011 52.213 470.41 53.144 470.41 54.264C470.41 55.356 470.011 56.273 469.213 57.015C468.415 57.757 467.4 58.128 466.168 58.128ZM469.738 60.564L469.738 84L462.556 84L462.556 60.564L469.738 60.564Z"/>
<path d="M484.48 84.336C482.436 84.336 480.616 83.986 479.02 83.286C477.424 82.586 476.164 81.627 475.24 80.409C474.316 79.191 473.798 77.826 473.686 76.314L480.784 76.314C480.868 77.126 481.246 77.784 481.918 78.288C482.59 78.792 483.416 79.044 484.396 79.044C485.292 79.044 485.985 78.869 486.475 78.519C486.965 78.169 487.21 77.714 487.21 77.154C487.21 76.482 486.86 75.985 486.16 75.663C485.46 75.341 484.326 74.984 482.758 74.592C481.078 74.2 479.678 73.787 478.558 73.353C477.438 72.919 476.472 72.233 475.66 71.295C474.848 70.357 474.442 69.09 474.442 67.494C474.442 66.15 474.813 64.925 475.555 63.819C476.297 62.713 477.389 61.838 478.831 61.194C480.273 60.55 481.988 60.228 483.976 60.228C486.916 60.228 489.233 60.956 490.927 62.412C492.621 63.868 493.594 65.8 493.846 68.208L487.21 68.208C487.098 67.396 486.741 66.752 486.139 66.276C485.537 65.8 484.746 65.562 483.766 65.562C482.926 65.562 482.282 65.723 481.834 66.045C481.386 66.367 481.162 66.808 481.162 67.368C481.162 68.04 481.519 68.544 482.233 68.88C482.947 69.216 484.06 69.552 485.572 69.888C487.308 70.336 488.722 70.777 489.814 71.211C490.906 71.645 491.865 72.345 492.691 73.311C493.517 74.277 493.944 75.572 493.972 77.196C493.972 78.568 493.587 79.793 492.817 80.871C492.047 81.949 490.941 82.796 489.499 83.412C488.057 84.028 486.384 84.336 484.48 84.336Z"/>
<path d="M511.444 77.91L511.444 84L507.79 84C505.186 84 503.156 83.363 501.7 82.089C500.244 80.815 499.516 78.736 499.516 75.852L499.516 66.528L496.66 66.528L496.66 60.564L499.516 60.564L499.516 54.852L506.698 54.852L506.698 60.564L511.402 60.564L511.402 66.528L506.698 66.528L506.698 75.936C506.698 76.636 506.866 77.14 507.202 77.448C507.538 77.756 508.098 77.91 508.882 77.91L511.444 77.91Z"/>
<path d="M519.046 58.128C517.786 58.128 516.757 57.757 515.959 57.015C515.161 56.273 514.762 55.356 514.762 54.264C514.762 53.144 515.161 52.213 515.959 51.471C516.757 50.729 517.786 50.358 519.046 50.358C520.278 50.358 521.293 50.729 522.091 51.471C522.889 52.213 523.288 53.144 523.288 54.264C523.288 55.356 522.889 56.273 522.091 57.015C521.293 57.757 520.278 58.128 519.046 58.128ZM522.616 60.564L522.616 84L515.434 84L515.434 60.564L522.616 60.564Z"/>
<path d="M526.396 72.282C526.396 69.846 526.893 67.718 527.887 65.898C528.881 64.078 530.267 62.678 532.045 61.698C533.823 60.718 535.86 60.228 538.156 60.228C541.096 60.228 543.553 60.998 545.527 62.538C547.501 64.078 548.796 66.248 549.412 69.048L541.768 69.048C541.124 67.256 539.878 66.36 538.03 66.36C536.714 66.36 535.664 66.871 534.88 67.893C534.096 68.915 533.704 70.378 533.704 72.282C533.704 74.186 534.096 75.649 534.88 76.671C535.664 77.693 536.714 78.204 538.03 78.204C539.878 78.204 541.124 77.308 541.768 75.516L549.412 75.516C548.796 78.26 547.494 80.416 545.506 81.984C543.518 83.552 541.068 84.336 538.156 84.336C535.86 84.336 533.823 83.846 532.045 82.866C530.267 81.886 528.881 80.486 527.887 78.666C526.893 76.846 526.396 74.718 526.396 72.282Z"/>
<path d="M567.64 60.312C570.328 60.312 572.484 61.201 574.108 62.979C575.732 64.757 576.544 67.2 576.544 70.308L576.544 84L569.404 84L569.404 71.274C569.404 69.706 568.998 68.488 568.186 67.62C567.374 66.752 566.282 66.318 564.91 66.318C563.538 66.318 562.446 66.752 561.634 67.62C560.822 68.488 560.416 69.706 560.416 71.274L560.416 84L553.234 84L553.234 52.92L560.416 52.92L560.416 63.714C561.144 62.678 562.138 61.852 563.398 61.236C564.658 60.62 566.072 60.312 567.64 60.312Z"/>
<path d="M603.634 71.904C603.634 72.576 603.592 73.276 603.508 74.004L587.254 74.004C587.366 75.46 587.835 76.573 588.661 77.343C589.487 78.113 590.502 78.498 591.706 78.498C593.498 78.498 594.744 77.742 595.444 76.23L603.088 76.23C602.696 77.77 601.989 79.156 600.967 80.388C599.945 81.62 598.664 82.586 597.124 83.286C595.584 83.986 593.862 84.336 591.958 84.336C589.662 84.336 587.618 83.846 585.826 82.866C584.034 81.886 582.634 80.486 581.626 78.666C580.618 76.846 580.114 74.718 580.114 72.282C580.114 69.846 580.611 67.718 581.605 65.898C582.599 64.078 583.992 62.678 585.784 61.698C587.576 60.718 589.634 60.228 591.958 60.228C594.226 60.228 596.242 60.704 598.006 61.656C599.77 62.608 601.149 63.966 602.143 65.73C603.137 67.494 603.634 69.552 603.634 71.904ZM596.284 70.014C596.284 68.782 595.864 67.802 595.024 67.074C594.184 66.346 593.134 65.982 591.874 65.982C590.67 65.982 589.655 66.332 588.829 67.032C588.003 67.732 587.492 68.726 587.296 70.014L596.284 70.014Z"/>
</g>
</g>
<g filter="url(#Filter_2)" vectornator:shadowAngle="1.5708" vectornator:shadowColor="#000000" vectornator:shadowOffset="8" vectornator:shadowOpacity="1" vectornator:shadowRadius="20">
<path d="M40 290L360 290C382.091 290 400 309.103 400 332.667L400 567.333C400 590.897 382.091 610 360 610L40 610C17.9086 610 0 590.897 0 567.333L0 332.667C0 309.103 17.9086 290 40 290Z" fill="#282944" fill-rule="nonzero" opacity="1" stroke="none"/>
<g opacity="1">
<g fill="#ffffff" opacity="1" stroke="none">
<path d="M49.0442 399.389C49.0442 400.269 48.8162 401.081 48.3602 401.825C47.9042 402.569 47.2322 403.177 46.3442 403.649C45.4562 404.121 44.4042 404.381 43.1882 404.429L43.1882 406.373L41.6522 406.373L41.6522 404.405C39.9562 404.261 38.5882 403.753 37.5482 402.881C36.5082 402.009 35.9562 400.821 35.8922 399.317L40.2602 399.317C40.3562 400.277 40.8202 400.893 41.6522 401.165L41.6522 397.373C40.4042 397.053 39.4082 396.741 38.6642 396.437C37.9202 396.133 37.2682 395.645 36.7082 394.973C36.1482 394.301 35.8682 393.381 35.8682 392.213C35.8682 390.757 36.4082 389.589 37.4882 388.709C38.5682 387.829 39.9562 387.333 41.6522 387.221L41.6522 385.277L43.1882 385.277L43.1882 387.221C44.8682 387.349 46.1962 387.837 47.1722 388.685C48.1482 389.533 48.6922 390.709 48.8042 392.213L44.4122 392.213C44.3162 391.349 43.9082 390.789 43.1882 390.533L43.1882 394.253C44.5162 394.621 45.5402 394.949 46.2602 395.237C46.9802 395.525 47.6242 396.001 48.1922 396.665C48.7602 397.329 49.0442 398.237 49.0442 399.389ZM40.2122 392.021C40.2122 392.421 40.3362 392.757 40.5842 393.029C40.8322 393.301 41.1882 393.541 41.6522 393.749L41.6522 390.413C41.2042 390.493 40.8522 390.665 40.5962 390.929C40.3402 391.193 40.2122 391.557 40.2122 392.021ZM43.1882 401.237C43.6682 401.157 44.0482 400.965 44.3282 400.661C44.6082 400.357 44.7482 399.981 44.7482 399.533C44.7482 399.117 44.6162 398.777 44.3522 398.513C44.0882 398.249 43.7002 398.021 43.1882 397.829L43.1882 401.237Z"/>
<path d="M52.2522 390.581L52.2522 386.765L58.9002 386.765L58.9002 404.285L54.6282 404.285L54.6282 390.581L52.2522 390.581Z"/>
<path d="M75.0442 390.341L67.5562 390.341L67.5562 393.653C67.8762 393.301 68.3242 393.013 68.9002 392.789C69.4762 392.565 70.1002 392.453 70.7722 392.453C71.9722 392.453 72.9682 392.725 73.7602 393.269C74.5522 393.813 75.1322 394.517 75.5002 395.381C75.8682 396.245 76.0522 397.181 76.0522 398.189C76.0522 400.061 75.5242 401.545 74.4682 402.641C73.4122 403.737 71.9242 404.285 70.0042 404.285C68.7242 404.285 67.6122 404.065 66.6682 403.625C65.7242 403.185 64.9962 402.573 64.4842 401.789C63.9722 401.005 63.6922 400.101 63.6442 399.077L67.6522 399.077C67.7482 399.573 67.9802 399.985 68.3482 400.313C68.7162 400.641 69.2202 400.805 69.8602 400.805C70.6122 400.805 71.1722 400.565 71.5402 400.085C71.9082 399.605 72.0922 398.965 72.0922 398.165C72.0922 397.381 71.9002 396.781 71.5162 396.365C71.1322 395.949 70.5722 395.741 69.8362 395.741C69.2922 395.741 68.8442 395.873 68.4922 396.137C68.1402 396.401 67.9082 396.749 67.7962 397.181L63.8362 397.181L63.8362 386.741L75.0442 386.741L75.0442 390.341Z"/>
<path d="M79.3082 395.285C79.3082 392.533 79.8402 390.365 80.9042 388.781C81.9682 387.197 83.6842 386.405 86.0522 386.405C88.4202 386.405 90.1362 387.197 91.2002 388.781C92.2642 390.365 92.7962 392.533 92.7962 395.285C92.7962 398.069 92.2642 400.253 91.2002 401.837C90.1362 403.421 88.4202 404.213 86.0522 404.213C83.6842 404.213 81.9682 403.421 80.9042 401.837C79.8402 400.253 79.3082 398.069 79.3082 395.285ZM88.7642 395.285C88.7642 393.669 88.5882 392.425 88.2362 391.553C87.8842 390.681 87.1562 390.245 86.0522 390.245C84.9482 390.245 84.2202 390.681 83.8682 391.553C83.5162 392.425 83.3402 393.669 83.3402 395.285C83.3402 396.373 83.4042 397.273 83.5322 397.985C83.6602 398.697 83.9202 399.273 84.3122 399.713C84.7042 400.153 85.2842 400.373 86.0522 400.373C86.8202 400.373 87.4002 400.153 87.7922 399.713C88.1842 399.273 88.4442 398.697 88.5722 397.985C88.7002 397.273 88.7642 396.373 88.7642 395.285Z"/>
</g>
<path d="M35.6875 413.769L89.3125 413.769C92.4536 413.769 95 416.194 95 419.186L95 419.186C95 422.177 92.4536 424.603 89.3125 424.603L35.6875 424.603C32.5464 424.603 30 422.177 30 419.186L30 419.186C30 416.194 32.5464 413.769 35.6875 413.769Z" fill="#ffffff" fill-opacity="0.5" fill-rule="nonzero" opacity="1" stroke="none"/>
</g>
<g opacity="1">
<g fill="#ffffff" opacity="1" stroke="none">
<path d="M49.0442 469.389C49.0442 470.269 48.8162 471.081 48.3602 471.825C47.9042 472.569 47.2322 473.177 46.3442 473.649C45.4562 474.121 44.4042 474.381 43.1882 474.429L43.1882 476.373L41.6522 476.373L41.6522 474.405C39.9562 474.261 38.5882 473.753 37.5482 472.881C36.5082 472.009 35.9562 470.821 35.8922 469.317L40.2602 469.317C40.3562 470.277 40.8202 470.893 41.6522 471.165L41.6522 467.373C40.4042 467.053 39.4082 466.741 38.6642 466.437C37.9202 466.133 37.2682 465.645 36.7082 464.973C36.1482 464.301 35.8682 463.381 35.8682 462.213C35.8682 460.757 36.4082 459.589 37.4882 458.709C38.5682 457.829 39.9562 457.333 41.6522 457.221L41.6522 455.277L43.1882 455.277L43.1882 457.221C44.8682 457.349 46.1962 457.837 47.1722 458.685C48.1482 459.533 48.6922 460.709 48.8042 462.213L44.4122 462.213C44.3162 461.349 43.9082 460.789 43.1882 460.533L43.1882 464.253C44.5162 464.621 45.5402 464.949 46.2602 465.237C46.9802 465.525 47.6242 466.001 48.1922 466.665C48.7602 467.329 49.0442 468.237 49.0442 469.389ZM40.2122 462.021C40.2122 462.421 40.3362 462.757 40.5842 463.029C40.8322 463.301 41.1882 463.541 41.6522 463.749L41.6522 460.413C41.2042 460.493 40.8522 460.665 40.5962 460.929C40.3402 461.193 40.2122 461.557 40.2122 462.021ZM43.1882 471.237C43.6682 471.157 44.0482 470.965 44.3282 470.661C44.6082 470.357 44.7482 469.981 44.7482 469.533C44.7482 469.117 44.6162 468.777 44.3522 468.513C44.0882 468.249 43.7002 468.021 43.1882 467.829L43.1882 471.237Z"/>
<path d="M52.2522 460.581L52.2522 456.765L58.9002 456.765L58.9002 474.285L54.6282 474.285L54.6282 460.581L52.2522 460.581Z"/>
<path d="M75.0442 460.341L67.5562 460.341L67.5562 463.653C67.8762 463.301 68.3242 463.013 68.9002 462.789C69.4762 462.565 70.1002 462.453 70.7722 462.453C71.9722 462.453 72.9682 462.725 73.7602 463.269C74.5522 463.813 75.1322 464.517 75.5002 465.381C75.8682 466.245 76.0522 467.181 76.0522 468.189C76.0522 470.061 75.5242 471.545 74.4682 472.641C73.4122 473.737 71.9242 474.285 70.0042 474.285C68.7242 474.285 67.6122 474.065 66.6682 473.625C65.7242 473.185 64.9962 472.573 64.4842 471.789C63.9722 471.005 63.6922 470.101 63.6442 469.077L67.6522 469.077C67.7482 469.573 67.9802 469.985 68.3482 470.313C68.7162 470.641 69.2202 470.805 69.8602 470.805C70.6122 470.805 71.1722 470.565 71.5402 470.085C71.9082 469.605 72.0922 468.965 72.0922 468.165C72.0922 467.381 71.9002 466.781 71.5162 466.365C71.1322 465.949 70.5722 465.741 69.8362 465.741C69.2922 465.741 68.8442 465.873 68.4922 466.137C68.1402 466.401 67.9082 466.749 67.7962 467.181L63.8362 467.181L63.8362 456.741L75.0442 456.741L75.0442 460.341Z"/>
<path d="M79.3082 465.285C79.3082 462.533 79.8402 460.365 80.9042 458.781C81.9682 457.197 83.6842 456.405 86.0522 456.405C88.4202 456.405 90.1362 457.197 91.2002 458.781C92.2642 460.365 92.7962 462.533 92.7962 465.285C92.7962 468.069 92.2642 470.253 91.2002 471.837C90.1362 473.421 88.4202 474.213 86.0522 474.213C83.6842 474.213 81.9682 473.421 80.9042 471.837C79.8402 470.253 79.3082 468.069 79.3082 465.285ZM88.7642 465.285C88.7642 463.669 88.5882 462.425 88.2362 461.553C87.8842 460.681 87.1562 460.245 86.0522 460.245C84.9482 460.245 84.2202 460.681 83.8682 461.553C83.5162 462.425 83.3402 463.669 83.3402 465.285C83.3402 466.373 83.4042 467.273 83.5322 467.985C83.6602 468.697 83.9202 469.273 84.3122 469.713C84.7042 470.153 85.2842 470.373 86.0522 470.373C86.8202 470.373 87.4002 470.153 87.7922 469.713C88.1842 469.273 88.4442 468.697 88.5722 467.985C88.7002 467.273 88.7642 466.373 88.7642 465.285Z"/>
</g>
<path d="M35.6875 483.769L89.3125 483.769C92.4536 483.769 95 486.194 95 489.186L95 489.186C95 492.177 92.4536 494.603 89.3125 494.603L35.6875 494.603C32.5464 494.603 30 492.177 30 489.186L30 489.186C30 486.194 32.5464 483.769 35.6875 483.769Z" fill="#ffffff" fill-opacity="0.5" fill-rule="nonzero" opacity="1" stroke="none"/>
</g>
<g opacity="1">
<g fill="#ffffff" opacity="1" stroke="none">
<path d="M49.0442 539.389C49.0442 540.269 48.8162 541.081 48.3602 541.825C47.9042 542.569 47.2322 543.177 46.3442 543.649C45.4562 544.121 44.4042 544.381 43.1882 544.429L43.1882 546.373L41.6522 546.373L41.6522 544.405C39.9562 544.261 38.5882 543.753 37.5482 542.881C36.5082 542.009 35.9562 540.821 35.8922 539.317L40.2602 539.317C40.3562 540.277 40.8202 540.893 41.6522 541.165L41.6522 537.373C40.4042 537.053 39.4082 536.741 38.6642 536.437C37.9202 536.133 37.2682 535.645 36.7082 534.973C36.1482 534.301 35.8682 533.381 35.8682 532.213C35.8682 530.757 36.4082 529.589 37.4882 528.709C38.5682 527.829 39.9562 527.333 41.6522 527.221L41.6522 525.277L43.1882 525.277L43.1882 527.221C44.8682 527.349 46.1962 527.837 47.1722 528.685C48.1482 529.533 48.6922 530.709 48.8042 532.213L44.4122 532.213C44.3162 531.349 43.9082 530.789 43.1882 530.533L43.1882 534.253C44.5162 534.621 45.5402 534.949 46.2602 535.237C46.9802 535.525 47.6242 536.001 48.1922 536.665C48.7602 537.329 49.0442 538.237 49.0442 539.389ZM40.2122 532.021C40.2122 532.421 40.3362 532.757 40.5842 533.029C40.8322 533.301 41.1882 533.541 41.6522 533.749L41.6522 530.413C41.2042 530.493 40.8522 530.665 40.5962 530.929C40.3402 531.193 40.2122 531.557 40.2122 532.021ZM43.1882 541.237C43.6682 541.157 44.0482 540.965 44.3282 540.661C44.6082 540.357 44.7482 539.981 44.7482 539.533C44.7482 539.117 44.6162 538.777 44.3522 538.513C44.0882 538.249 43.7002 538.021 43.1882 537.829L43.1882 541.237Z"/>
<path d="M52.2522 530.581L52.2522 526.765L58.9002 526.765L58.9002 544.285L54.6282 544.285L54.6282 530.581L52.2522 530.581Z"/>
<path d="M75.0442 530.341L67.5562 530.341L67.5562 533.653C67.8762 533.301 68.3242 533.013 68.9002 532.789C69.4762 532.565 70.1002 532.453 70.7722 532.453C71.9722 532.453 72.9682 532.725 73.7602 533.269C74.5522 533.813 75.1322 534.517 75.5002 535.381C75.8682 536.245 76.0522 537.181 76.0522 538.189C76.0522 540.061 75.5242 541.545 74.4682 542.641C73.4122 543.737 71.9242 544.285 70.0042 544.285C68.7242 544.285 67.6122 544.065 66.6682 543.625C65.7242 543.185 64.9962 542.573 64.4842 541.789C63.9722 541.005 63.6922 540.101 63.6442 539.077L67.6522 539.077C67.7482 539.573 67.9802 539.985 68.3482 540.313C68.7162 540.641 69.2202 540.805 69.8602 540.805C70.6122 540.805 71.1722 540.565 71.5402 540.085C71.9082 539.605 72.0922 538.965 72.0922 538.165C72.0922 537.381 71.9002 536.781 71.5162 536.365C71.1322 535.949 70.5722 535.741 69.8362 535.741C69.2922 535.741 68.8442 535.873 68.4922 536.137C68.1402 536.401 67.9082 536.749 67.7962 537.181L63.8362 537.181L63.8362 526.741L75.0442 526.741L75.0442 530.341Z"/>
<path d="M79.3082 535.285C79.3082 532.533 79.8402 530.365 80.9042 528.781C81.9682 527.197 83.6842 526.405 86.0522 526.405C88.4202 526.405 90.1362 527.197 91.2002 528.781C92.2642 530.365 92.7962 532.533 92.7962 535.285C92.7962 538.069 92.2642 540.253 91.2002 541.837C90.1362 543.421 88.4202 544.213 86.0522 544.213C83.6842 544.213 81.9682 543.421 80.9042 541.837C79.8402 540.253 79.3082 538.069 79.3082 535.285ZM88.7642 535.285C88.7642 533.669 88.5882 532.425 88.2362 531.553C87.8842 530.681 87.1562 530.245 86.0522 530.245C84.9482 530.245 84.2202 530.681 83.8682 531.553C83.5162 532.425 83.3402 533.669 83.3402 535.285C83.3402 536.373 83.4042 537.273 83.5322 537.985C83.6602 538.697 83.9202 539.273 84.3122 539.713C84.7042 540.153 85.2842 540.373 86.0522 540.373C86.8202 540.373 87.4002 540.153 87.7922 539.713C88.1842 539.273 88.4442 538.697 88.5722 537.985C88.7002 537.273 88.7642 536.373 88.7642 535.285Z"/>
</g>
<path d="M35.6875 553.769L89.3125 553.769C92.4536 553.769 95 556.194 95 559.186L95 559.186C95 562.177 92.4536 564.603 89.3125 564.603L35.6875 564.603C32.5464 564.603 30 562.177 30 559.186L30 559.186C30 556.194 32.5464 553.769 35.6875 553.769Z" fill="#ffffff" fill-opacity="0.5" fill-rule="nonzero" opacity="1" stroke="none"/>
</g>
<g fill="#ffffff" opacity="1" stroke="none">
<path d="M46.284 334.845C45.9293 334.191 45.4207 333.692 44.758 333.347C44.0953 333.001 43.316 332.829 42.42 332.829C40.8707 332.829 39.6293 333.337 38.696 334.355C37.7627 335.372 37.296 336.73 37.296 338.429C37.296 340.239 37.786 341.653 38.766 342.671C39.746 343.688 41.0947 344.197 42.812 344.197C43.988 344.197 44.982 343.898 45.794 343.301C46.606 342.703 47.1987 341.845 47.572 340.725L41.496 340.725L41.496 337.197L51.912 337.197L51.912 341.649C51.5573 342.843 50.9553 343.954 50.106 344.981C49.2567 346.007 48.1787 346.838 46.872 347.473C45.5653 348.107 44.0907 348.425 42.448 348.425C40.5067 348.425 38.7753 348 37.254 347.151C35.7327 346.301 34.5473 345.121 33.698 343.609C32.8487 342.097 32.424 340.37 32.424 338.429C32.424 336.487 32.8487 334.756 33.698 333.235C34.5473 331.713 35.728 330.528 37.24 329.679C38.752 328.829 40.4787 328.405 42.42 328.405C44.772 328.405 46.7553 328.974 48.37 330.113C49.9847 331.251 51.0533 332.829 51.576 334.845L46.284 334.845Z"/>
<path d="M71 332.661L71 348.285L66.212 348.285L66.212 346.157C65.7267 346.847 65.0687 347.403 64.238 347.823C63.4073 348.243 62.488 348.453 61.48 348.453C60.2853 348.453 59.2307 348.187 58.316 347.655C57.4013 347.123 56.692 346.353 56.188 345.345C55.684 344.337 55.432 343.151 55.432 341.789L55.432 332.661L60.192 332.661L60.192 341.145C60.192 342.19 60.4627 343.002 61.004 343.581C61.5453 344.159 62.2733 344.449 63.188 344.449C64.1213 344.449 64.8587 344.159 65.4 343.581C65.9413 343.002 66.212 342.19 66.212 341.145L66.212 332.661L71 332.661Z"/>
<path d="M74.492 340.445C74.492 338.839 74.7953 337.43 75.402 336.217C76.0087 335.003 76.8347 334.07 77.88 333.417C78.9253 332.763 80.092 332.437 81.38 332.437C82.4813 332.437 83.4473 332.661 84.278 333.109C85.1087 333.557 85.748 334.145 86.196 334.873L86.196 332.661L90.984 332.661L90.984 348.285L86.196 348.285L86.196 346.073C85.7293 346.801 85.0807 347.389 84.25 347.837C83.4193 348.285 82.4533 348.509 81.352 348.509C80.0827 348.509 78.9253 348.177 77.88 347.515C76.8347 346.852 76.0087 345.909 75.402 344.687C74.7953 343.464 74.492 342.05 74.492 340.445ZM86.196 340.473C86.196 339.278 85.8647 338.335 85.202 337.645C84.5393 336.954 83.732 336.609 82.78 336.609C81.828 336.609 81.0207 336.949 80.358 337.631C79.6953 338.312 79.364 339.25 79.364 340.445C79.364 341.639 79.6953 342.587 80.358 343.287C81.0207 343.987 81.828 344.337 82.78 344.337C83.732 344.337 84.5393 343.991 85.202 343.301C85.8647 342.61 86.196 341.667 86.196 340.473Z"/>
<path d="M94.504 340.445C94.504 338.839 94.8073 337.43 95.414 336.217C96.0207 335.003 96.8467 334.07 97.892 333.417C98.9373 332.763 100.104 332.437 101.392 332.437C102.419 332.437 103.357 332.651 104.206 333.081C105.055 333.51 105.723 334.089 106.208 334.817L106.208 327.565L110.996 327.565L110.996 348.285L106.208 348.285L106.208 346.045C105.76 346.791 105.121 347.389 104.29 347.837C103.459 348.285 102.493 348.509 101.392 348.509C100.104 348.509 98.9373 348.177 97.892 347.515C96.8467 346.852 96.0207 345.909 95.414 344.687C94.8073 343.464 94.504 342.05 94.504 340.445ZM106.208 340.473C106.208 339.278 105.877 338.335 105.214 337.645C104.551 336.954 103.744 336.609 102.792 336.609C101.84 336.609 101.033 336.949 100.37 337.631C99.7073 338.312 99.376 339.25 99.376 340.445C99.376 341.639 99.7073 342.587 100.37 343.287C101.033 343.987 101.84 344.337 102.792 344.337C103.744 344.337 104.551 343.991 105.214 343.301C105.877 342.61 106.208 341.667 106.208 340.473Z"/>
<path d="M114.516 340.445C114.516 338.839 114.819 337.43 115.426 336.217C116.033 335.003 116.859 334.07 117.904 333.417C118.949 332.763 120.116 332.437 121.404 332.437C122.505 332.437 123.471 332.661 124.302 333.109C125.133 333.557 125.772 334.145 126.22 334.873L126.22 332.661L131.008 332.661L131.008 348.285L126.22 348.285L126.22 346.073C125.753 346.801 125.105 347.389 124.274 347.837C123.443 348.285 122.477 348.509 121.376 348.509C120.107 348.509 118.949 348.177 117.904 347.515C116.859 346.852 116.033 345.909 115.426 344.687C114.819 343.464 114.516 342.05 114.516 340.445ZM126.22 340.473C126.22 339.278 125.889 338.335 125.226 337.645C124.563 336.954 123.756 336.609 122.804 336.609C121.852 336.609 121.045 336.949 120.382 337.631C119.719 338.312 119.388 339.25 119.388 340.445C119.388 341.639 119.719 342.587 120.382 343.287C121.045 343.987 121.852 344.337 122.804 344.337C123.756 344.337 124.563 343.991 125.226 343.301C125.889 342.61 126.22 341.667 126.22 340.473Z"/>
<path d="M141.416 332.437C142.517 332.437 143.483 332.661 144.314 333.109C145.145 333.557 145.784 334.145 146.232 334.873L146.232 332.661L151.02 332.661L151.02 348.257C151.02 349.694 150.735 350.996 150.166 352.163C149.597 353.329 148.729 354.258 147.562 354.949C146.395 355.639 144.944 355.985 143.208 355.985C140.893 355.985 139.017 355.439 137.58 354.347C136.143 353.255 135.321 351.775 135.116 349.909L139.848 349.909C139.997 350.506 140.352 350.977 140.912 351.323C141.472 351.668 142.163 351.841 142.984 351.841C143.973 351.841 144.762 351.556 145.35 350.987C145.938 350.417 146.232 349.507 146.232 348.257L146.232 346.045C145.765 346.773 145.121 347.365 144.3 347.823C143.479 348.28 142.517 348.509 141.416 348.509C140.128 348.509 138.961 348.177 137.916 347.515C136.871 346.852 136.045 345.909 135.438 344.687C134.831 343.464 134.528 342.05 134.528 340.445C134.528 338.839 134.831 337.43 135.438 336.217C136.045 335.003 136.871 334.07 137.916 333.417C138.961 332.763 140.128 332.437 141.416 332.437ZM146.232 340.473C146.232 339.278 145.901 338.335 145.238 337.645C144.575 336.954 143.768 336.609 142.816 336.609C141.864 336.609 141.057 336.949 140.394 337.631C139.731 338.312 139.4 339.25 139.4 340.445C139.4 341.639 139.731 342.587 140.394 343.287C141.057 343.987 141.864 344.337 142.816 344.337C143.768 344.337 144.575 343.991 145.238 343.301C145.901 342.61 146.232 341.667 146.232 340.473Z"/>
<path d="M165.012 332.493C166.841 332.493 168.302 333.085 169.394 334.271C170.486 335.456 171.032 337.085 171.032 339.157L171.032 348.285L166.272 348.285L166.272 339.801C166.272 338.755 166.001 337.943 165.46 337.365C164.919 336.786 164.191 336.497 163.276 336.497C162.361 336.497 161.633 336.786 161.092 337.365C160.551 337.943 160.28 338.755 160.28 339.801L160.28 348.285L155.492 348.285L155.492 332.661L160.28 332.661L160.28 334.733C160.765 334.042 161.419 333.496 162.24 333.095C163.061 332.693 163.985 332.493 165.012 332.493Z"/>
<path d="M177.772 331.037C176.932 331.037 176.246 330.789 175.714 330.295C175.182 329.8 174.916 329.189 174.916 328.461C174.916 327.714 175.182 327.093 175.714 326.599C176.246 326.104 176.932 325.857 177.772 325.857C178.593 325.857 179.27 326.104 179.802 326.599C180.334 327.093 180.6 327.714 180.6 328.461C180.6 329.189 180.334 329.8 179.802 330.295C179.27 330.789 178.593 331.037 177.772 331.037ZM180.152 332.661L180.152 348.285L175.364 348.285L175.364 332.661L180.152 332.661Z"/>
</g>
<path d="M0 439.285L400 439.285" fill="none" opacity="1" stroke="#ffffff" stroke-linecap="butt" stroke-linejoin="round" stroke-opacity="0.3" stroke-width="2"/>
<path d="M0 509.285L400 509.285" fill="none" opacity="1" stroke="#ffffff" stroke-linecap="butt" stroke-linejoin="round" stroke-opacity="0.3" stroke-width="2"/>
<path d="M280 399.285L360 399.285C365.523 399.285 370 403.762 370 409.285L370 409.285C370 414.808 365.523 419.285 360 419.285L280 419.285C274.477 419.285 270 414.808 270 409.285L270 409.285C270 403.762 274.477 399.285 280 399.285Z" fill="#0e5ecc" fill-rule="nonzero" opacity="1" stroke="none"/>
<path d="M280 464.285L360 464.285C365.523 464.285 370 468.762 370 474.285L370 474.285C370 479.808 365.523 484.285 360 484.285L280 484.285C274.477 484.285 270 479.808 270 474.285L270 474.285C270 468.762 274.477 464.285 280 464.285Z" fill="#0e5ecc" fill-rule="nonzero" opacity="1" stroke="none"/>
<path d="M280 533.365L360 533.365C365.523 533.365 370 537.842 370 543.365L370 543.365C370 548.888 365.523 553.365 360 553.365L280 553.365C274.477 553.365 270 548.888 270 543.365L270 543.365C270 537.842 274.477 533.365 280 533.365Z" fill="#0e5ecc" fill-rule="nonzero" opacity="1" stroke="none"/>
</g>
</g>
</svg>
