<?xml version="1.0" encoding="UTF-8" standalone="no"?>
<!DOCTYPE svg PUBLIC "-//W3C//DTD SVG 1.1//EN" "http://www.w3.org/Graphics/SVG/1.1/DTD/svg11.dtd">
<!-- Created with Vectornator (http://vectornator.io/) -->
<svg height="100%" stroke-miterlimit="10" style="fill-rule:nonzero;clip-rule:evenodd;stroke-linecap:round;stroke-linejoin:round;" version="1.1" viewBox="0 0 855.157 581.907" width="100%" xml:space="preserve" xmlns="http://www.w3.org/2000/svg" xmlns:xlink="http://www.w3.org/1999/xlink">
<defs/>
<clipPath id="ArtboardFrame">
<rect height="581.907" width="855.157" x="0" y="0"/>
</clipPath>
<g clip-path="url(#ArtboardFrame)" id="Senza-Titolo">
<path d="M519.741 326.238C522.779 326.238 525.241 328.7 525.241 331.737L525.241 384.944L630.741 384.944C633.779 384.944 636.241 387.406 636.241 390.444C636.241 393.481 633.779 395.944 630.741 395.944L525.241 395.944L525.241 579.944L514.241 579.944L514.241 331.737C514.241 328.7 516.704 326.238 519.741 326.238Z" fill="#e6e6e6" fill-rule="nonzero" opacity="1" stroke="none"/>
<path d="M226.147 578.694L206.315 579.242C203.302 579.397 200.322 578.561 197.829 576.863C195.675 575.261 194.687 573.095 195.121 570.92L199.023 551.307C199.759 547.607 204.293 544.81 209.803 544.658L220.756 544.356C226.266 544.204 230.947 546.746 231.886 550.4L236.865 569.768C237.418 571.915 236.551 574.132 234.489 575.851C232.093 577.684 229.164 578.683 226.147 578.694Z" fill="#3f3d56" fill-rule="nonzero" opacity="1" stroke="none"/>
<path d="M346.777 578.134L326.945 578.681C323.933 578.836 320.952 578.001 318.46 576.302C316.306 574.7 315.318 572.535 315.751 570.36L319.654 550.747C320.389 547.047 324.923 544.25 330.434 544.098L341.386 543.795C346.896 543.643 351.578 546.186 352.517 549.839L357.496 569.207C358.048 571.355 357.181 573.572 355.119 575.29C352.724 577.123 349.794 578.122 346.777 578.134Z" fill="#3f3d56" fill-rule="nonzero" opacity="1" stroke="none"/>
<path d="M157.282 411.629C155.415 410.825 154.359 408.831 154.742 406.835C155.125 404.839 156.845 403.378 158.877 403.322L384.345 397.096C386.735 397.029 388.727 398.913 388.793 401.304L388.793 401.304C388.857 403.694 386.974 405.684 384.584 405.753L384.584 405.752L159.116 411.978C158.486 411.997 157.86 411.878 157.282 411.629Z" fill="#3f3d56" fill-rule="nonzero" opacity="1" stroke="none"/>
<path d="M176.042 338.768L240.491 336.988L240.491 336.988L246.5 554.586L246.5 554.586L182.051 556.366L182.051 556.366L176.042 338.768L176.042 338.768Z" fill="#e6e6e6" fill-rule="nonzero" opacity="1" stroke="none"/>
<path d="M242.126 333.079L229.737 366.828L229.748 520.587L244.844 524.916L242.126 333.079Z" fill="#cccccc" fill-rule="nonzero" opacity="1" stroke="none"/>
<path d="M207.931 280.122C195.873 280.464 186.674 301.331 186.895 309.474L187.302 324.215L230.961 323.01L230.554 308.268C230.325 300.126 219.988 279.798 207.931 280.122Z" fill="#3f3d56" fill-rule="nonzero" opacity="1" stroke="none"/>
<path d="M176.878 428.881C172.187 429.005 168.282 425.309 168.147 420.619L167.484 396.628C167.355 391.935 171.054 388.026 175.746 387.896C180.439 387.767 184.348 391.466 184.478 396.158L185.14 420.149C185.264 424.84 181.568 428.746 176.878 428.881Z" fill="#3f3d56" fill-rule="nonzero" opacity="1" stroke="none"/>
<path d="M193.233 339.284L192.928 323.429L197.086 323.326L197.391 339.13L201.16 569.476L197.001 569.591" fill="#3f3d56" fill-rule="nonzero" opacity="1" stroke="none"/>
<path d="M247.881 376.361L173.143 378.425C166.004 369.719 165.356 332.632 180.254 325.574L186.096 315.653L231.138 313.454L236.403 323.9C243.813 330.205 247.634 367.061 247.881 376.361Z" fill="#e6e6e6" fill-rule="nonzero" opacity="1" stroke="none"/>
<path d="M219.751 358.573L200.851 359.095C197.204 359.196 194.103 354.464 193.94 348.549C193.776 342.634 196.611 337.738 200.258 337.637L219.158 337.115C222.806 337.015 225.906 341.746 226.07 347.662C226.233 353.577 223.398 358.473 219.751 358.573Z" fill="#ffffff" fill-rule="nonzero" opacity="1" stroke="none"/>
<path d="M183.151 465.568L144.192 493.088L137.386 555.138L182.834 539.953L183.151 465.568Z" fill="#e6e6e6" fill-rule="nonzero" opacity="1" stroke="none"/>
<path d="M300.452 336.103L364.902 334.324L364.902 334.324L370.91 551.921L370.91 551.921L306.461 553.701L306.461 553.701L300.452 336.103L300.452 336.103Z" fill="#e6e6e6" fill-rule="nonzero" opacity="1" stroke="none"/>
<path d="M301.996 333.806L315.257 367.222L319.236 520.93L304.257 525.649L301.996 333.806Z" fill="#cccccc" fill-rule="nonzero" opacity="1" stroke="none"/>
<path d="M388.685 262.584C388.685 256.328 392.467 251.256 397.132 251.256C401.797 251.256 405.579 256.328 405.579 262.584C405.579 268.84 401.797 273.911 397.132 273.911C392.467 273.911 388.685 268.84 388.685 262.584Z" fill="#e6e6e6" fill-rule="nonzero" opacity="1" stroke="none"/>
<path d="M331.083 277.492C319.026 277.834 309.826 298.701 310.047 306.844L310.454 321.585L354.114 320.38L353.707 305.638C353.478 297.495 343.141 277.168 331.083 277.492Z" fill="#3f3d56" fill-rule="nonzero" opacity="1" stroke="none"/>
<path d="M343.567 344.247L343.262 328.392L347.42 328.288L347.725 344.093L351.494 574.439L347.335 574.554" fill="#3f3d56" fill-rule="nonzero" opacity="1" stroke="none"/>
<path d="M371.034 373.731L296.295 375.794C294.992 367.918 296.678 331.162 303.406 322.943L309.249 313.023L354.291 310.824L359.555 321.269C372.854 322.353 377.506 358.473 371.034 373.731Z" fill="#e6e6e6" fill-rule="nonzero" opacity="1" stroke="none"/>
<path d="M342.995 359.254L324.095 359.776C320.448 359.877 317.326 354.402 317.138 347.574C316.949 340.746 319.764 335.108 323.411 335.007L342.311 334.485C345.958 334.384 349.079 339.859 349.268 346.687C349.456 353.515 346.642 359.153 342.995 359.254Z" fill="#ffffff" fill-rule="nonzero" opacity="1" stroke="none"/>
<path d="M368.086 449.662L405.749 478.93L409.715 541.227L365.009 523.983L368.086 449.662Z" fill="#e6e6e6" fill-rule="nonzero" opacity="1" stroke="none"/>
<path d="M357.568 161.121C317.155 161.121 270.711 116.275 229.619 137.582C105.204 202.096 122.331 94.1422 86.5872 53.9933L87.7607 51.6396C114.82 154.858 139.304 319.332 230.159 134.844C252.919 88.6305 327.615 160.064 371.583 157.957L371.659 160.786C367.016 161.01 362.319 161.122 357.568 161.121Z" fill="#f2f2f2" fill-rule="nonzero" opacity="1" stroke="none"/>
<path d="M454.565 167.467C422.35 191.867 358.249 184.158 338.357 225.954C278.129 352.499 226.603 256.102 173.869 245.677L173.384 243.093C226.174 247.471 282.798 240.677 337.135 223.445C386.239 207.874 430.049 184.71 463.827 156.483L465.596 158.692C462.03 161.675 458.353 164.599 454.565 167.467Z" fill="#f2f2f2" fill-rule="nonzero" opacity="1" stroke="none"/>
<path d="M95.6847 150.584C95.6847 144.328 99.4668 139.256 104.132 139.256C108.797 139.256 112.579 144.328 112.579 150.584C112.579 156.84 108.797 161.911 104.132 161.911C99.4668 161.911 95.6847 156.84 95.6847 150.584Z" fill="#e6e6e6" fill-rule="nonzero" opacity="1" stroke="none"/>
<path d="M357.685 58.5836C357.685 52.3276 361.467 47.2561 366.132 47.2561C370.797 47.2561 374.579 52.3276 374.579 58.5836C374.579 64.8396 370.797 69.9111 366.132 69.9111C361.467 69.9111 357.685 64.8396 357.685 58.5836Z" fill="#e6e6e6" fill-rule="nonzero" opacity="1" stroke="none"/>
<path d="M181.471 207.629C177.609 210.202 173.656 204.078 177.592 201.619C181.454 199.046 185.407 205.17 181.471 207.629Z" fill="#e6e6e6" fill-rule="nonzero" opacity="1" stroke="none"/>
<path d="M324.471 6.62918C320.609 9.20237 316.656 3.07794 320.592 0.618998C324.454-1.95405 328.407 4.17039 324.471 6.62918Z" fill="#e6e6e6" fill-rule="nonzero" opacity="1" stroke="none"/>
<path d="M408.749 125.801L406.292 125.262L406.83 122.804L405.192 122.445L404.653 124.903L402.196 124.365L401.837 126.003L404.294 126.542L403.756 128.999L405.394 129.358L405.933 126.9L408.39 127.439L408.749 125.801Z" fill="#e6e6e6" fill-rule="nonzero" opacity="1" stroke="none"/>
<path d="M172.833 32.7371C172.833 26.8264 177.624 22.0348 183.535 22.0348C189.446 22.0348 194.237 26.8264 194.237 32.7371C194.237 38.6479 189.446 43.4395 183.535 43.4395C177.624 43.4395 172.833 38.6479 172.833 32.7371Z" fill="#ff6584" fill-rule="nonzero" opacity="1" stroke="none"/>
<path d="M261.816 19.1905C249.758 19.5329 240.559 40.3996 240.78 48.5423L241.187 63.2839L284.846 62.0784L284.439 47.3368C284.211 39.1942 273.874 18.867 261.816 19.1905Z" fill="#3f3d56" fill-rule="nonzero" opacity="1" stroke="none"/>
<path d="M287.813 577.409L267.98 577.957C264.968 578.112 261.988 577.276 259.495 575.578C257.341 573.976 256.353 571.81 256.786 569.635L260.689 550.023C261.424 546.323 265.958 543.525 271.469 543.373L282.421 543.071C287.932 542.919 292.613 545.461 293.552 549.115L298.531 568.483C299.083 570.63 298.216 572.847 296.154 574.566C293.759 576.399 290.829 577.398 287.813 577.409Z" fill="#3f3d56" fill-rule="nonzero" opacity="1" stroke="none"/>
<path d="M232.207 114.816L296.656 113.036L296.656 113.036L308.802 552.884L308.802 552.884L244.353 554.664L244.353 554.664L232.207 114.816L232.207 114.816Z" fill="#e6e6e6" fill-rule="nonzero" opacity="1" stroke="none"/>
<path d="M270.868 325.949L270.563 310.094L274.721 309.991L275.026 325.795L278.795 556.141L274.636 556.256" fill="#3f3d56" fill-rule="nonzero" opacity="1" stroke="none"/>
<path d="M309.345 153.292L222.019 155.703C220.497 146.5 222.466 103.553 230.328 93.9507L232.482 82.4887L292.779 80.8237L295.933 91.9947C304.592 99.3627 309.057 142.426 309.345 153.292Z" fill="#e6e6e6" fill-rule="nonzero" opacity="1" stroke="none"/>
<path d="M294.685 82.1762L232.462 83.8944C230.165 83.9578 228.269 82.752 228.226 81.201C228.221 80.9776 228.253 80.7549 228.323 80.5425L237.988 50.7674C238.402 49.4924 240.049 48.556 241.972 48.5029L283.237 47.3635C285.159 47.3104 286.856 48.1544 287.34 49.4047L298.633 78.6011C299.211 80.0944 297.877 81.6483 295.653 82.0719C295.334 82.1325 295.01 82.1674 294.685 82.1762Z" fill="#e6e6e6" fill-rule="nonzero" opacity="1" stroke="none"/>
<path d="M238.6 323.926C238.038 323.686 237.508 323.379 237.019 323.011C235.601 322.016 234.722 320.421 234.64 318.69L232.379 236.812C232.286 233.423 235.605 230.572 239.777 230.456L295.48 228.918C299.653 228.802 303.123 231.467 303.217 234.856L305.478 316.734C305.491 318.467 304.703 320.108 303.341 321.18C301.853 322.392 299.999 323.065 298.08 323.09L242.377 324.628C241.082 324.671 239.793 324.432 238.6 323.926Z" fill="#3f3d56" fill-rule="nonzero" opacity="1" stroke="none"/>
<path d="M274.253 76.9068L255.353 77.4287C251.705 77.5294 248.621 73.4089 248.479 68.2445C248.336 63.0802 251.188 58.7957 254.835 58.695L273.735 58.1731C277.382 58.0723 280.466 62.1929 280.609 67.3573C280.752 72.5216 277.9 76.8061 274.253 76.9068Z" fill="#ffffff" fill-rule="nonzero" opacity="1" stroke="none"/>
<path d="M721.009 562.528L699.009 562.528L699.009 402.651C717.411 401.331 731.241 395.696 731.241 388.944C731.241 381.212 713.109 374.944 690.741 374.944C668.374 374.944 650.241 381.212 650.241 388.944C650.241 395.761 664.341 401.438 683.009 402.686L683.009 562.528L661.009 562.528C656.59 562.528 653.009 566.11 653.009 570.528C653.009 574.947 656.59 578.528 661.009 578.528L721.009 578.528C725.427 578.528 729.009 574.947 729.009 570.528C729.009 566.11 725.427 562.528 721.009 562.528Z" fill="#e6e6e6" fill-rule="nonzero" opacity="1" stroke="none"/>
<path d="M676.847 481.363L669.62 489.238L635.806 465.112L646.471 453.489L676.847 481.363Z" fill="#a0616a" fill-rule="nonzero" opacity="1" stroke="none"/>
<path d="M658.368 502.148C658.512 505.705 660.073 509.057 662.704 511.456L663.022 511.752L672.5 501.423L686.32 486.359L676.118 476.993L674.275 479.005L674.083 479.212L664.901 483.555L662.956 484.48L662.623 484.635L661.89 492.5L661.89 492.508C659.472 495.119 658.203 498.593 658.368 502.148Z" fill="#2f2e41" fill-rule="nonzero" opacity="1" stroke="none"/>
<path d="M714.287 559.924L704.06 563.031L687.21 525.063L702.304 520.478L714.287 559.924Z" fill="#a0616a" fill-rule="nonzero" opacity="1" stroke="none"/>
<path d="M686.801 578.643L686.927 579.064L719.903 569.047L715.878 555.796L713.274 556.587L713 556.669L700.74 555.544L700.378 555.515L695.739 561.914C688.652 564.066 684.651 571.555 686.801 578.643Z" fill="#2f2e41" fill-rule="nonzero" opacity="1" stroke="none"/>
<path d="M629.957 361.128C629.957 361.128 564.663 424.17 605.941 443.684L618.699 443.684C621.472 434.669 625.735 426.183 631.31 418.576C632.516 416.999 637.031 417.319 638.285 415.782C645.942 406.395 654.244 398.334 659.977 398.654L658.605 442.212L656.386 457.749C655.22 465.781 688.113 535.91 688.113 535.91L708.787 527.785C708.787 527.785 687.247 470.023 686.995 461.696L704.256 370.134L629.957 361.128Z" fill="#2f2e41" fill-rule="nonzero" opacity="1" stroke="none"/>
<path d="M624.512 364.237C624.845 364.712 625.28 365.106 625.785 365.391C626.617 365.862 627.518 366.197 628.456 366.383C643.157 369.72 691.181 376.637 703.648 373.338C705.18 372.938 706.178 372.376 706.504 371.636C707.547 369.298 707.414 359.421 706.8 347.494C706.689 345.26 704.225 342.84 704.077 340.502C703.974 338.749 706.186 337.099 706.068 335.316C705.254 323.256 704.203 310.967 703.5 303.198C703.056 298.204 702.753 295.082 702.753 295.082L710.336 247.265L709.981 246.68L709.582 246.48L685.129 234.376L683.798 230.973C683.008 228.968 681.077 227.646 678.922 227.636L662.815 227.57C661.12 227.56 659.524 228.37 658.531 229.745L654.166 235.789L625.311 254.286L625.422 254.626L638.962 295.829L639.028 299.04L639.028 299.048L639.531 324.869L638.133 328.369L639.709 334.11C639.709 334.11 638.984 340.821 635.1 345.807C631.578 350.335 627.094 355.056 625.067 358.888L625.067 358.895C623.942 361.011 623.565 362.846 624.512 364.237Z" fill="#ffffff" fill-rule="nonzero" opacity="1" stroke="none"/>
<path d="M602.806 439.939L606.296 444.349C606.296 444.349 638.393 466.805 639.496 468.903L644.568 473.703L656.842 460.583L650.459 452.583C645.351 446.18 638.752 441.128 631.238 437.867L631.238 437.867L621.456 429.188L602.806 439.939Z" fill="#2f2e41" fill-rule="nonzero" opacity="1" stroke="none"/>
<path d="M718.425 379.131L712.58 322.553L711.037 299.268L727.397 296.31C727.397 296.31 726.749 312.96 728.892 322.354C731.007 331.623 729.173 377.889 729.042 379.126C731.502 381.326 732.35 384.815 731.173 387.898C729.996 390.98 727.04 393.018 723.74 393.019C720.44 393.021 717.482 390.986 716.302 387.905C715.123 384.823 715.967 381.333 718.425 379.131Z" fill="#a0616a" fill-rule="nonzero" opacity="1" stroke="none"/>
<path d="M698.943 293.447L703.5 303.198L705.091 306.594L709.375 329.027L711.513 331.299L713.355 338.631L714.221 338.453L729.832 335.22L734.382 334.28C736.496 330.757 735.841 326.234 732.814 323.456C732.503 323.175 732.244 322.901 732.251 322.642C732.51 307.038 731.556 278.546 722.936 266.819C720.199 263.098 718.556 259.391 716.167 256.802C716.159 256.794 716.159 256.787 716.152 256.787L710.336 247.265L709.981 246.68L709.582 246.48L698.943 293.447Z" fill="#ffffff" fill-rule="nonzero" opacity="1" stroke="none"/>
<path d="M650.697 202.131C650.697 190.295 660.292 180.7 672.128 180.7C683.964 180.7 693.559 190.295 693.559 202.131C693.559 213.967 683.964 223.562 672.128 223.562C660.292 223.562 650.697 213.967 650.697 202.131Z" fill="#a0616a" fill-rule="nonzero" opacity="1" stroke="none"/>
<path d="M697.575 197.52C698.203 193.918 698.692 189.25 696.894 185.099C695.375 181.607 691.574 178.332 687.349 178.774C687.758 177.166 687.227 175.465 685.977 174.375C684.601 173.295 682.998 172.541 681.288 172.17C677.317 171.003 673.204 169.793 668.957 169.771C664.19 169.745 659.967 171.378 657.377 174.257L657.313 174.35L656.537 176.204C656.327 176.707 655.907 177.093 655.388 177.261C654.868 177.433 654.298 177.363 653.835 177.071C653.324 176.756 652.684 176.736 652.154 177.016C651.624 177.297 651.281 177.837 651.254 178.437L651.213 179.228L650.101 178.784C649.533 178.555 648.885 178.651 648.408 179.035C647.931 179.419 647.699 180.031 647.802 180.635L647.95 181.576C647.467 181.488 646.969 181.6 646.57 181.887C645.99 182.313 645.752 183.065 645.981 183.747C646.844 186.208 648.318 188.41 650.265 190.146C651.138 190.936 652.117 191.602 653.173 192.124C653.392 192.234 653.621 192.339 653.858 192.438C662.398 196.1 671.536 198.17 680.821 198.546C679.943 200.221 679.376 202.041 679.147 203.918C678.888 206.089 679.857 208.224 681.661 209.46C682.045 209.679 682.448 209.864 682.865 210.011C683.263 210.158 683.649 210.337 684.019 210.546C685.123 211.213 685.785 212.421 685.754 213.71C685.724 215 685.005 216.174 683.871 216.789C683.871 216.789 685.466 218.736 685.721 218.703C686.737 218.472 687.655 217.929 688.346 217.15C692.987 212.643 696.093 206.043 697.575 197.52Z" fill="#2f2e41" fill-rule="nonzero" opacity="1" stroke="none"/>
<path d="M791.398 528.793L792.329 507.85C802.039 502.659 812.869 499.918 823.879 499.863C808.726 512.252 810.62 536.132 800.347 552.792C793.775 563.268 782.797 570.186 770.511 571.593L757.831 579.357C754.31 559.727 759.561 539.538 772.201 524.111C775.747 519.87 779.813 516.091 784.304 512.866C787.341 520.874 791.398 528.793 791.398 528.793Z" fill="#f2f2f2" fill-rule="nonzero" opacity="1" stroke="none"/>
<path d="M855.157 580.354C855.158 580.766 854.995 581.162 854.703 581.453C854.412 581.745 854.016 581.908 853.603 581.907L1.55323 581.907C0.695405 581.907 5.19531e-06 581.211 5.19531e-06 580.354C5.19531e-06 579.496 0.695405 578.8 1.55323 578.8L853.603 578.8C854.016 578.799 854.412 578.962 854.703 579.254C854.995 579.545 855.158 579.941 855.157 580.354Z" fill="#cccccc" fill-rule="nonzero" opacity="1" stroke="none"/>
<path d="M366.498 423.566C361.808 423.69 357.902 419.994 357.767 415.304L357.104 391.313C356.981 386.624 360.678 382.722 365.367 382.592C370.055 382.463 373.962 386.156 374.098 390.844L374.76 414.835C374.884 419.525 371.188 423.431 366.498 423.566Z" fill="#3f3d56" fill-rule="nonzero" opacity="1" stroke="none"/>
<path d="M741.354 511.248C728.442 511.248 714.29 510.76 698.898 509.784C619.284 504.728 516.16 487.151 408.522 460.292C300.884 433.433 201.592 400.498 128.937 367.558C93.5439 351.511 66.3804 336.321 48.2012 322.41C28.9541 307.683 20.5352 294.846 23.1772 284.257C28.3252 263.628 73.9082 259.115 111.241 258.962L111.254 261.962C59.9859 262.172 29.7402 270.349 26.0884 284.984C21.4365 303.624 59.375 332.725 130.175 364.825C202.671 397.693 301.781 430.564 409.249 457.382C516.716 484.198 619.65 501.745 699.088 506.79C776.667 511.718 823.832 503.852 828.483 485.212C832.345 469.735 806.885 446.936 756.793 421.014L758.172 418.35C794.569 437.185 836.818 464.201 831.394 485.938C828.752 496.527 815.289 503.903 791.379 507.861C777.75 510.117 761.009 511.248 741.354 511.248Z" fill="#cccccc" fill-rule="nonzero" opacity="1" stroke="none"/>
<path d="M56.0586 491.595C45.8125 491.595 39.1514 489.049 36.2031 483.988C30.3891 474.007 40.1264 456.494 65.144 431.937L67.2456 434.077C44.0068 456.89 33.9028 474.078 38.7949 482.478C41.8906 487.79 51.1035 489.695 65.4433 487.982C79.6787 486.283 98.5439 481.217 121.515 472.927C168.806 455.86 228.138 427.071 288.58 391.863C349.021 356.656 403.331 319.246 441.507 286.528C448.839 280.242 455.494 274.195 461.286 268.556C468.889 261.335 475.903 253.517 482.262 245.179C490.825 233.552 493.715 224.598 490.62 219.284C485.45 210.41 463.732 211.244 429.463 221.637L428.593 218.766C465.359 207.617 487.101 207.283 493.212 217.775C497.009 224.293 494.138 234.112 484.678 246.958C478.222 255.429 471.1 263.37 463.379 270.706C457.542 276.389 450.84 282.478 443.459 288.805C405.149 321.639 350.682 359.159 290.09 394.454C229.496 429.751 169.99 458.622 122.534 475.749C99.3487 484.116 80.2603 489.235 65.7989 490.96C62.5674 491.363 59.315 491.575 56.0586 491.595Z" fill="#cccccc" fill-rule="nonzero" opacity="1" stroke="none"/>
<path d="M603.602 368.423C596.187 368.275 556.362 367.132 549.831 367.413C549.462 366.12 537.081 381.986 536.78 382.084C536.373 382.514 536.202 383.116 536.323 383.696C536.443 384.276 536.84 384.76 537.385 384.991C538.113 385.434 602.317 384.246 603.095 384.401C603.781 384.39 604.401 383.986 604.688 383.363L605.117 382.401C605.162 380.757 605.7 372.353 605.217 370.917C605.458 370.369 605.407 369.736 605.082 369.234C604.756 368.732 604.2 368.427 603.602 368.423Z" fill="#e6e6e6" fill-rule="nonzero" opacity="1" stroke="none"/>
<path d="M605.117 382.4C604.741 383.305 604.259 384.443 603.094 384.401L538.063 385.131C537.437 385.124 536.861 384.792 536.541 384.254C536.221 383.716 536.205 383.051 536.498 382.498L605.117 382.4Z" fill="#000000" fill-rule="nonzero" opacity="0.17" stroke="none"/>
<path d="M550.135 367.218C549.435 366.008 532.049 279.98 530.598 279.261L518.727 264.74L517.666 263.942C516.191 263.131 512.652 263.679 512.971 265.933L512.971 265.933C515.76 279.303 533.696 355.451 534.089 367.323L536.249 382.447C536.327 382.968 536.621 383.431 537.059 383.722C537.497 384.014 538.038 384.106 538.548 383.977C539.807 383.841 540.901 383.051 541.426 381.898C541.588 381.364 550.948 367.528 550.135 367.218Z" fill="#e6e6e6" fill-rule="nonzero" opacity="1" stroke="none"/>
<path d="M518.725 264.74L541.428 381.901C540.669 383.823 537.116 385.169 536.288 382.648C536.274 382.645 512.997 266.005 512.974 265.935C512.726 263.128 517.364 263.039 518.725 264.74Z" fill="#000000" fill-rule="nonzero" opacity="0.17" stroke="none"/>
<path d="M519.409 269.531L530.939 285.603L543.881 347.068L537.865 352.316L519.409 269.531Z" fill="#ffffff" fill-rule="nonzero" opacity="1" stroke="none"/>
<path d="M596.159 376.71L599.349 376.84C599.399 375.906 599.553 374.98 599.809 374.08C600.289 371.8 600.719 369.09 598.729 369.1C597.379 368.97 596.919 370.68 596.679 372.54C596.617 373.942 596.443 375.336 596.159 376.71Z" fill="#2f2e41" fill-rule="nonzero" opacity="1" stroke="none"/>
<path d="M577.859 372.42L580.009 372.5L581.049 372.54C581.029 371.4 581.559 369.05 580.269 368.47C580.064 368.382 579.842 368.338 579.619 368.34C578.409 368.27 578.049 369.19 577.939 370.25C577.869 370.89 577.899 371.57 577.879 372.1C577.879 372.21 577.869 372.32 577.859 372.42Z" fill="#2f2e41" fill-rule="nonzero" opacity="1" stroke="none"/>
<path d="M571.489 372.16L573.649 372.25L574.679 372.29C574.659 370.98 575.349 368.12 573.249 368.08C571.309 367.97 571.559 370.44 571.509 371.84C571.509 371.95 571.499 372.06 571.489 372.16Z" fill="#2f2e41" fill-rule="nonzero" opacity="1" stroke="none"/>
<path d="M565.119 371.91L567.269 371.99L568.309 372.03C568.289 370.73 568.979 367.87 566.879 367.83C564.939 367.71 565.189 370.18 565.139 371.59C565.139 371.7 565.129 371.81 565.119 371.91Z" fill="#2f2e41" fill-rule="nonzero" opacity="1" stroke="none"/>
<path d="M558.749 371.65L560.909 371.74L561.939 371.78C561.919 370.47 562.609 367.62 560.509 367.57C558.569 367.46 558.819 369.93 558.769 371.33C558.769 371.44 558.759 371.55 558.749 371.65Z" fill="#2f2e41" fill-rule="nonzero" opacity="1" stroke="none"/>
<path d="M552.379 371.4L554.529 371.48L555.569 371.52C555.549 370.32 556.129 367.81 554.589 367.38L554.579 367.38C554.436 367.338 554.288 367.318 554.139 367.32C553.957 367.304 553.774 367.321 553.599 367.37L553.589 367.37C552.249 367.72 552.439 369.82 552.399 371.08C552.399 371.19 552.389 371.3 552.379 371.4Z" fill="#2f2e41" fill-rule="nonzero" opacity="1" stroke="none"/>
<path d="M589.729 370.72L592.919 370.85C592.919 370.73 592.919 370.6 592.929 370.45C593.008 369.69 593.021 368.923 592.969 368.16C592.859 367.32 592.499 366.66 591.489 366.64C590.459 366.58 590.049 367.24 589.889 368.09C589.852 368.235 589.825 368.382 589.809 368.53L589.809 368.54C589.729 369.32 589.779 370.16 589.729 370.72Z" fill="#2f2e41" fill-rule="nonzero" opacity="1" stroke="none"/>
<path d="M583.359 370.46L586.549 370.59C586.616 369.732 586.637 368.871 586.609 368.01C586.519 367.13 586.169 366.41 585.119 366.39C584.059 366.32 583.649 367.04 583.489 367.93C583.339 368.79 583.419 369.82 583.359 370.46Z" fill="#2f2e41" fill-rule="nonzero" opacity="1" stroke="none"/>
<path d="M576.989 370.21L577.939 370.25L580.179 370.34C580.169 369.86 580.259 369.16 580.269 368.47C580.277 368.263 580.271 368.056 580.249 367.85C580.169 366.92 579.839 366.15 578.749 366.13C577.639 366.07 577.249 366.84 577.109 367.78C576.969 368.62 577.049 369.59 576.989 370.21Z" fill="#2f2e41" fill-rule="nonzero" opacity="1" stroke="none"/>
<path d="M589.789 376.46L592.979 376.58C592.969 375.28 593.649 372.42 591.549 372.38C589.449 372.25 589.909 375.15 589.789 376.46Z" fill="#2f2e41" fill-rule="nonzero" opacity="1" stroke="none"/>
<path d="M583.419 376.2L586.609 376.33C586.599 375.02 587.279 372.16 585.179 372.12C583.079 372 583.539 374.9 583.419 376.2Z" fill="#2f2e41" fill-rule="nonzero" opacity="1" stroke="none"/>
<path d="M577.049 375.95L580.239 376.07C580.229 375.14 580.579 373.42 580.009 372.5C579.755 372.085 579.294 371.843 578.809 371.87C578.481 371.836 578.152 371.917 577.879 372.1C576.859 372.77 577.149 374.89 577.049 375.95Z" fill="#2f2e41" fill-rule="nonzero" opacity="1" stroke="none"/>
<path d="M570.679 375.69L573.869 375.82C573.859 374.89 574.199 373.18 573.649 372.25C573.396 371.829 572.93 371.582 572.439 371.61C572.111 371.574 571.782 371.656 571.509 371.84C570.489 372.53 570.779 374.64 570.679 375.69Z" fill="#2f2e41" fill-rule="nonzero" opacity="1" stroke="none"/>
<path d="M564.309 375.44L567.499 375.56C567.489 374.63 567.839 372.91 567.269 371.99C567.015 371.575 566.554 371.333 566.069 371.36C565.741 371.326 565.412 371.407 565.139 371.59C564.119 372.26 564.409 374.38 564.309 375.44Z" fill="#2f2e41" fill-rule="nonzero" opacity="1" stroke="none"/>
<path d="M557.939 375.18L561.129 375.31C561.119 374.38 561.459 372.67 560.909 371.74C560.657 371.317 560.19 371.07 559.699 371.1C559.371 371.064 559.042 371.146 558.769 371.33C557.749 372.02 558.039 374.13 557.939 375.18Z" fill="#2f2e41" fill-rule="nonzero" opacity="1" stroke="none"/>
<path d="M551.569 374.93L554.759 375.05C554.749 374.12 555.089 372.41 554.529 371.48C554.277 371.063 553.815 370.821 553.329 370.85C553.001 370.816 552.672 370.897 552.399 371.08C551.379 371.76 551.669 373.87 551.569 374.93Z" fill="#2f2e41" fill-rule="nonzero" opacity="1" stroke="none"/>
<path d="M587.595 365.686L611.908 314.266L621.101 292.816L606.653 284.589C606.653 284.589 601.732 300.509 596.589 308.657C591.514 316.697 577.87 360.943 577.583 362.153C574.532 363.411 572.573 366.42 572.658 369.719C572.743 373.017 574.855 375.921 577.967 377.019C581.078 378.117 584.545 377.181 586.681 374.667C588.818 372.152 589.181 368.58 587.595 365.686Z" fill="#a0616a" fill-rule="nonzero" opacity="1" stroke="none"/>
<path d="M587.447 318.079L605.834 329.172L610.004 322.869L612.782 321.436L624.276 301.699L634.439 291.345L647.866 248.426L630.396 251.047L630.373 251.055C627.261 252.705 624.477 255.656 620.66 258.257C608.634 266.453 598.265 293.009 593.325 307.816C593.244 308.059 592.911 308.228 592.524 308.394C588.748 310.008 586.627 314.054 587.447 318.079Z" fill="#ffffff" fill-rule="nonzero" opacity="1" stroke="none"/>
</g>
</svg>
