<?xml version="1.0" encoding="UTF-8" standalone="no"?>
<!DOCTYPE svg PUBLIC "-//W3C//DTD SVG 1.1//EN" "http://www.w3.org/Graphics/SVG/1.1/DTD/svg11.dtd">
<!-- Created with Vectornator (http://vectornator.io/) -->
<svg height="100%" stroke-miterlimit="10" style="fill-rule:nonzero;clip-rule:evenodd;stroke-linecap:round;stroke-linejoin:round;" version="1.1" viewBox="0 0 582 432" width="100%" xml:space="preserve" xmlns="http://www.w3.org/2000/svg" xmlns:vectornator="http://vectornator.io" xmlns:xlink="http://www.w3.org/1999/xlink">
<defs>
<path d="M-1.49012e-05 136.504C-1.49012e-05 92.321 35.8172 56.5038 80 56.5038L277.048 56.5038L277.048 152.18C277.048 196.362 241.231 232.18 197.048 232.18L80 232.18C35.8172 232.18-1.49012e-05 196.362-1.49012e-05 152.18L-1.49012e-05 136.504Z" id="Fill"/>
<path d="M1.56164e-05 335.809C1.56164e-05 291.626 35.8172 255.809 80 255.809L277.048 255.809L277.048 351.484C277.048 395.667 241.231 431.484 197.048 431.484L80 431.484C35.8173 431.484 1.56164e-05 395.667 1.56164e-05 351.484L1.56164e-05 335.809Z" id="Fill_2"/>
<path d="M60.5503 306.502L66.3758 318.913L79.4018 320.903L69.9761 330.563L72.2012 344.204L60.5503 337.764L48.8995 344.204L51.1246 330.563L41.6989 320.903L54.7249 318.913L60.5503 306.502Z" id="Fill_3"/>
<path d="M102.041 306.417L107.866 318.828L120.892 320.818L111.467 330.479L113.692 344.12L102.041 337.679L90.3901 344.12L92.6152 330.479L83.1895 320.818L96.2155 318.828L102.041 306.417Z" id="Fill_4"/>
<path d="M143.29 306.502L149.115 318.913L162.141 320.903L152.716 330.563L154.941 344.204L143.29 337.764L131.639 344.204L133.864 330.563L124.439 320.903L137.465 318.913L143.29 306.502Z" id="Fill_5"/>
<path d="M184.935 306.502L190.76 318.913L203.786 320.903L194.36 330.563L196.585 344.204L184.935 337.764L173.284 344.204L175.509 330.563L166.083 320.903L179.109 318.913L184.935 306.502Z" id="Fill_6"/>
<path d="M226.256 306.714L232.081 319.125L245.107 321.115L235.681 330.776L237.906 344.417L226.256 337.977L214.605 344.417L216.83 330.776L207.404 321.115L220.43 319.125L226.256 306.714Z" id="Fill_7"/>
<path d="M582 298.062C582 342.245 546.183 378.062 502 378.062L304.952 378.062L304.952 282.387C304.952 238.204 340.769 202.387 384.952 202.387L502 202.387C546.183 202.387 582 238.204 582 282.387L582 298.062Z" id="Fill_8"/>
<path d="M582 95.6758C582 139.859 546.183 175.676 502 175.676L304.952 175.676L304.952 80C304.952 35.8173 340.769 6.98126e-05 384.952 7.37944e-05L502 8.4343e-05C546.183 8.83248e-05 582 35.8173 582 80.0001L582 95.6758Z" id="Fill_9"/>
</defs>
<clipPath id="ArtboardFrame">
<rect height="432" width="582" x="0" y="0"/>
</clipPath>
<g clip-path="url(#ArtboardFrame)" id="Senza-Titolo" vectornator:layerName="Senza Titolo">
<g opacity="1" vectornator:layerName="path">
<use fill="#010e43" fill-opacity="0.9" fill-rule="nonzero" opacity="1" stroke="none" vectornator:layerName="path" xlink:href="#Fill"/>
<clipPath id="ClipPath">
<use xlink:href="#Fill"/>
</clipPath>
<g clip-path="url(#ClipPath)">
<g fill="#ffffff" opacity="1" stroke="none" vectornator:layerName="Text">
<path d="M52.2709 170.058L52.2709 172.25L49.2949 172.25L49.2949 181.29L46.5589 181.29L46.5589 172.25L43.5829 172.25L43.5829 170.058L52.2709 170.058Z"/>
<path d="M61.5629 176.682C61.5629 176.938 61.5469 177.204 61.5149 177.482L55.3229 177.482C55.3656 178.036 55.5443 178.46 55.8589 178.754C56.1736 179.047 56.5603 179.194 57.0189 179.194C57.7016 179.194 58.1763 178.906 58.4429 178.33L61.3549 178.33C61.2056 178.916 60.9363 179.444 60.5469 179.914C60.1576 180.383 59.6696 180.751 59.0829 181.018C58.4963 181.284 57.8403 181.418 57.1149 181.418C56.2403 181.418 55.4616 181.231 54.7789 180.858C54.0963 180.484 53.5629 179.951 53.1789 179.258C52.7949 178.564 52.6029 177.754 52.6029 176.826C52.6029 175.898 52.7923 175.087 53.1709 174.394C53.5496 173.7 54.0803 173.167 54.7629 172.794C55.4456 172.42 56.2296 172.234 57.1149 172.234C57.9789 172.234 58.7469 172.415 59.4189 172.778C60.0909 173.14 60.6163 173.658 60.9949 174.33C61.3736 175.002 61.5629 175.786 61.5629 176.682ZM58.7629 175.962C58.7629 175.492 58.6029 175.119 58.2829 174.842C57.9629 174.564 57.5629 174.426 57.0829 174.426C56.6243 174.426 56.2376 174.559 55.9229 174.826C55.6083 175.092 55.4136 175.471 55.3389 175.962L58.7629 175.962Z"/>
<path d="M73.8949 172.266C75.0043 172.266 75.8869 172.602 76.5429 173.274C77.1989 173.946 77.5269 174.879 77.5269 176.074L77.5269 181.29L74.8069 181.29L74.8069 176.442C74.8069 175.866 74.6549 175.42 74.3509 175.106C74.0469 174.791 73.6283 174.634 73.0949 174.634C72.5616 174.634 72.1429 174.791 71.8389 175.106C71.5349 175.42 71.3829 175.866 71.3829 176.442L71.3829 181.29L68.6629 181.29L68.6629 176.442C68.6629 175.866 68.5109 175.42 68.2069 175.106C67.9029 174.791 67.4843 174.634 66.9509 174.634C66.4176 174.634 65.9989 174.791 65.6949 175.106C65.3909 175.42 65.2389 175.866 65.2389 176.442L65.2389 181.29L62.5029 181.29L62.5029 172.362L65.2389 172.362L65.2389 173.482C65.5163 173.108 65.8789 172.812 66.3269 172.594C66.7749 172.375 67.2816 172.266 67.8469 172.266C68.5189 172.266 69.1189 172.41 69.6469 172.698C70.1749 172.986 70.5883 173.396 70.8869 173.93C71.1963 173.439 71.6176 173.039 72.1509 172.73C72.6843 172.42 73.2656 172.266 73.8949 172.266Z"/>
<path d="M81.6829 173.626C81.9496 173.21 82.3176 172.874 82.7869 172.618C83.2563 172.362 83.8056 172.234 84.4349 172.234C85.1709 172.234 85.8376 172.42 86.4349 172.794C87.0323 173.167 87.5043 173.7 87.8509 174.394C88.1976 175.087 88.3709 175.892 88.3709 176.81C88.3709 177.727 88.1976 178.535 87.8509 179.234C87.5043 179.932 87.0323 180.471 86.4349 180.85C85.8376 181.228 85.1709 181.418 84.4349 181.418C83.8163 181.418 83.2696 181.29 82.7949 181.034C82.3203 180.778 81.9496 180.447 81.6829 180.042L81.6829 185.546L78.9469 185.546L78.9469 172.362L81.6829 172.362L81.6829 173.626ZM85.5869 176.81C85.5869 176.127 85.3976 175.591 85.0189 175.202C84.6403 174.812 84.1736 174.618 83.6189 174.618C83.0749 174.618 82.6136 174.815 82.2349 175.21C81.8563 175.604 81.6669 176.143 81.6669 176.826C81.6669 177.508 81.8563 178.047 82.2349 178.442C82.6136 178.836 83.0749 179.034 83.6189 179.034C84.1629 179.034 84.6269 178.834 85.0109 178.434C85.3949 178.034 85.5869 177.492 85.5869 176.81Z"/>
<path d="M93.3749 181.418C92.5003 181.418 91.7136 181.231 91.0149 180.858C90.3163 180.484 89.7669 179.951 89.3669 179.258C88.9669 178.564 88.7669 177.754 88.7669 176.826C88.7669 175.908 88.9696 175.1 89.3749 174.402C89.7803 173.703 90.3349 173.167 91.0389 172.794C91.7429 172.42 92.5323 172.234 93.4069 172.234C94.2816 172.234 95.0709 172.42 95.7749 172.794C96.4789 173.167 97.0336 173.703 97.4389 174.402C97.8443 175.1 98.0469 175.908 98.0469 176.826C98.0469 177.743 97.8416 178.551 97.4309 179.25C97.0203 179.948 96.4603 180.484 95.7509 180.858C95.0416 181.231 94.2496 181.418 93.3749 181.418ZM93.3749 179.05C93.8976 179.05 94.3429 178.858 94.7109 178.474C95.0789 178.09 95.2629 177.54 95.2629 176.826C95.2629 176.111 95.0843 175.562 94.7269 175.178C94.3696 174.794 93.9296 174.602 93.4069 174.602C92.8736 174.602 92.4309 174.791 92.0789 175.17C91.7269 175.548 91.5509 176.1 91.5509 176.826C91.5509 177.54 91.7243 178.09 92.0709 178.474C92.4176 178.858 92.8523 179.05 93.3749 179.05Z"/>
<path d="M101.351 176.81C101.351 175.892 101.524 175.087 101.871 174.394C102.218 173.7 102.69 173.167 103.287 172.794C103.884 172.42 104.551 172.234 105.287 172.234C105.874 172.234 106.41 172.356 106.895 172.602C107.38 172.847 107.762 173.178 108.039 173.594L108.039 169.45L110.775 169.45L110.775 181.29L108.039 181.29L108.039 180.01C107.783 180.436 107.418 180.778 106.943 181.034C106.468 181.29 105.916 181.418 105.287 181.418C104.551 181.418 103.884 181.228 103.287 180.85C102.69 180.471 102.218 179.932 101.871 179.234C101.524 178.535 101.351 177.727 101.351 176.81ZM108.039 176.826C108.039 176.143 107.85 175.604 107.471 175.21C107.092 174.815 106.631 174.618 106.087 174.618C105.543 174.618 105.082 174.812 104.703 175.202C104.324 175.591 104.135 176.127 104.135 176.81C104.135 177.492 104.324 178.034 104.703 178.434C105.082 178.834 105.543 179.034 106.087 179.034C106.631 179.034 107.092 178.836 107.471 178.442C107.85 178.047 108.039 177.508 108.039 176.826Z"/>
<path d="M113.635 171.434C113.155 171.434 112.763 171.292 112.459 171.01C112.155 170.727 112.003 170.378 112.003 169.962C112.003 169.535 112.155 169.18 112.459 168.898C112.763 168.615 113.155 168.474 113.635 168.474C114.104 168.474 114.491 168.615 114.795 168.898C115.099 169.18 115.251 169.535 115.251 169.962C115.251 170.378 115.099 170.727 114.795 171.01C114.491 171.292 114.104 171.434 113.635 171.434ZM114.995 172.362L114.995 181.29L112.259 181.29L112.259 172.362L114.995 172.362Z"/>
<path d="M118.827 176.81C118.827 175.892 119 175.087 119.347 174.394C119.694 173.7 120.166 173.167 120.763 172.794C121.36 172.42 122.027 172.234 122.763 172.234C123.392 172.234 123.944 172.362 124.419 172.618C124.894 172.874 125.259 173.21 125.515 173.626L125.515 172.362L128.251 172.362L128.251 181.29L125.515 181.29L125.515 180.026C125.248 180.442 124.878 180.778 124.403 181.034C123.928 181.29 123.376 181.418 122.747 181.418C122.022 181.418 121.36 181.228 120.763 180.85C120.166 180.471 119.694 179.932 119.347 179.234C119 178.535 118.827 177.727 118.827 176.81ZM125.515 176.826C125.515 176.143 125.326 175.604 124.947 175.21C124.568 174.815 124.107 174.618 123.563 174.618C123.019 174.618 122.558 174.812 122.179 175.202C121.8 175.591 121.611 176.127 121.611 176.81C121.611 177.492 121.8 178.034 122.179 178.434C122.558 178.834 123.019 179.034 123.563 179.034C124.107 179.034 124.568 178.836 124.947 178.442C125.326 178.047 125.515 177.508 125.515 176.826Z"/>
<path d="M135.175 172.266C136.22 172.266 137.055 172.604 137.679 173.282C138.303 173.959 138.615 174.89 138.615 176.074L138.615 181.29L135.895 181.29L135.895 176.442C135.895 175.844 135.74 175.38 135.431 175.05C135.122 174.719 134.706 174.554 134.183 174.554C133.66 174.554 133.244 174.719 132.935 175.05C132.626 175.38 132.471 175.844 132.471 176.442L132.471 181.29L129.735 181.29L129.735 172.362L132.471 172.362L132.471 173.546C132.748 173.151 133.122 172.839 133.591 172.61C134.06 172.38 134.588 172.266 135.175 172.266Z"/>
<path d="M139.475 176.81C139.475 175.892 139.648 175.087 139.995 174.394C140.342 173.7 140.814 173.167 141.411 172.794C142.008 172.42 142.675 172.234 143.411 172.234C144.04 172.234 144.592 172.362 145.067 172.618C145.542 172.874 145.907 173.21 146.163 173.626L146.163 172.362L148.899 172.362L148.899 181.29L146.163 181.29L146.163 180.026C145.896 180.442 145.526 180.778 145.051 181.034C144.576 181.29 144.024 181.418 143.395 181.418C142.67 181.418 142.008 181.228 141.411 180.85C140.814 180.471 140.342 179.932 139.995 179.234C139.648 178.535 139.475 177.727 139.475 176.81ZM146.163 176.826C146.163 176.143 145.974 175.604 145.595 175.21C145.216 174.815 144.755 174.618 144.211 174.618C143.667 174.618 143.206 174.812 142.827 175.202C142.448 175.591 142.259 176.127 142.259 176.81C142.259 177.492 142.448 178.034 142.827 178.434C143.206 178.834 143.667 179.034 144.211 179.034C144.755 179.034 145.216 178.836 145.595 178.442C145.974 178.047 146.163 177.508 146.163 176.826Z"/>
<path d="M153.119 169.45L153.119 181.29L150.383 181.29L150.383 169.45L153.119 169.45Z"/>
<path d="M155.979 171.434C155.499 171.434 155.107 171.292 154.803 171.01C154.499 170.727 154.347 170.378 154.347 169.962C154.347 169.535 154.499 169.18 154.803 168.898C155.107 168.615 155.499 168.474 155.979 168.474C156.448 168.474 156.835 168.615 157.139 168.898C157.443 169.18 157.595 169.535 157.595 169.962C157.595 170.378 157.443 170.727 157.139 171.01C156.835 171.292 156.448 171.434 155.979 171.434ZM157.339 172.362L157.339 181.29L154.603 181.29L154.603 172.362L157.339 172.362Z"/>
<path d="M162.455 181.418C161.676 181.418 160.983 181.284 160.375 181.018C159.767 180.751 159.287 180.386 158.935 179.922C158.583 179.458 158.386 178.938 158.343 178.362L161.047 178.362C161.079 178.671 161.223 178.922 161.479 179.114C161.735 179.306 162.05 179.402 162.423 179.402C162.764 179.402 163.028 179.335 163.215 179.202C163.402 179.068 163.495 178.895 163.495 178.682C163.495 178.426 163.362 178.236 163.095 178.114C162.828 177.991 162.396 177.855 161.799 177.706C161.159 177.556 160.626 177.399 160.199 177.234C159.772 177.068 159.404 176.807 159.095 176.45C158.786 176.092 158.631 175.61 158.631 175.002C158.631 174.49 158.772 174.023 159.055 173.602C159.338 173.18 159.754 172.847 160.303 172.602C160.852 172.356 161.506 172.234 162.263 172.234C163.383 172.234 164.266 172.511 164.911 173.066C165.556 173.62 165.927 174.356 166.023 175.274L163.495 175.274C163.452 174.964 163.316 174.719 163.087 174.538C162.858 174.356 162.556 174.266 162.183 174.266C161.863 174.266 161.618 174.327 161.447 174.45C161.276 174.572 161.191 174.74 161.191 174.954C161.191 175.21 161.327 175.402 161.599 175.53C161.871 175.658 162.295 175.786 162.871 175.914C163.532 176.084 164.071 176.252 164.487 176.418C164.903 176.583 165.268 176.85 165.583 177.218C165.898 177.586 166.06 178.079 166.071 178.698C166.071 179.22 165.924 179.687 165.631 180.098C165.338 180.508 164.916 180.831 164.367 181.066C163.818 181.3 163.18 181.418 162.455 181.418Z"/>
<path d="M168.627 171.434C168.147 171.434 167.755 171.292 167.451 171.01C167.147 170.727 166.995 170.378 166.995 169.962C166.995 169.535 167.147 169.18 167.451 168.898C167.755 168.615 168.147 168.474 168.627 168.474C169.096 168.474 169.483 168.615 169.787 168.898C170.091 169.18 170.243 169.535 170.243 169.962C170.243 170.378 170.091 170.727 169.787 171.01C169.483 171.292 169.096 171.434 168.627 171.434ZM169.987 172.362L169.987 181.29L167.251 181.29L167.251 172.362L169.987 172.362Z"/>
</g>
<g fill="#ffffff" opacity="1" stroke="none">
<path d="M54.6389 139.629L45.7069 129.905L54.6389 120.181L64.0989 120.181L55.1229 129.905L64.0989 139.629L54.6389 139.629Z"/>
<path d="M70.1309 120.181L70.1309 113.185L82.3189 113.185L82.3189 145.305L74.4869 145.305L74.4869 120.181L70.1309 120.181Z"/>
<path d="M88.9669 128.805C88.9669 123.759 89.9423 119.785 91.8929 116.881C93.8436 113.977 96.9896 112.525 101.331 112.525C105.672 112.525 108.818 113.977 110.769 116.881C112.72 119.785 113.695 123.759 113.695 128.805C113.695 133.909 112.72 137.913 110.769 140.817C108.818 143.721 105.672 145.173 101.331 145.173C96.9896 145.173 93.8436 143.721 91.8929 140.817C89.9423 137.913 88.9669 133.909 88.9669 128.805ZM106.303 128.805C106.303 125.842 105.98 123.561 105.335 121.963C104.69 120.364 103.355 119.565 101.331 119.565C99.3069 119.565 97.9723 120.364 97.3269 121.963C96.6816 123.561 96.3589 125.842 96.3589 128.805C96.3589 130.799 96.4763 132.449 96.7109 133.755C96.9456 135.06 97.4223 136.116 98.1409 136.923C98.8596 137.729 99.9229 138.133 101.331 138.133C102.739 138.133 103.802 137.729 104.521 136.923C105.24 136.116 105.716 135.06 105.951 133.755C106.186 132.449 106.303 130.799 106.303 128.805Z"/>
<path d="M140.719 145.657C138.578 145.657 136.671 145.29 134.999 144.557C133.327 143.823 132.007 142.819 131.039 141.543C130.071 140.267 129.528 138.837 129.411 137.253L136.847 137.253C136.935 138.103 137.331 138.793 138.035 139.321C138.739 139.849 139.604 140.113 140.631 140.113C141.57 140.113 142.296 139.929 142.809 139.563C143.322 139.196 143.579 138.719 143.579 138.133C143.579 137.429 143.212 136.908 142.479 136.571C141.746 136.233 140.558 135.859 138.915 135.449C137.155 135.038 135.688 134.605 134.515 134.151C133.342 133.696 132.33 132.977 131.479 131.995C130.628 131.012 130.203 129.685 130.203 128.013C130.203 126.605 130.592 125.321 131.369 124.163C132.146 123.004 133.29 122.087 134.801 121.413C136.312 120.738 138.108 120.401 140.191 120.401C143.271 120.401 145.698 121.163 147.473 122.689C149.248 124.214 150.267 126.238 150.531 128.761L143.579 128.761C143.462 127.91 143.088 127.235 142.457 126.737C141.826 126.238 140.998 125.989 139.971 125.989C139.091 125.989 138.416 126.157 137.947 126.495C137.478 126.832 137.243 127.294 137.243 127.881C137.243 128.585 137.617 129.113 138.365 129.465C139.113 129.817 140.279 130.169 141.863 130.521C143.682 130.99 145.163 131.452 146.307 131.907C147.451 132.361 148.456 133.095 149.321 134.107C150.186 135.119 150.634 136.475 150.663 138.177C150.663 139.614 150.26 140.897 149.453 142.027C148.646 143.156 147.488 144.043 145.977 144.689C144.466 145.334 142.714 145.657 140.719 145.657Z"/>
<path d="M179.927 132.633C179.927 133.337 179.883 134.07 179.795 134.833L162.767 134.833C162.884 136.358 163.376 137.524 164.241 138.331C165.106 139.137 166.17 139.541 167.431 139.541C169.308 139.541 170.614 138.749 171.347 137.165L179.355 137.165C178.944 138.778 178.204 140.23 177.133 141.521C176.062 142.811 174.72 143.823 173.107 144.557C171.494 145.29 169.69 145.657 167.695 145.657C165.29 145.657 163.148 145.143 161.271 144.117C159.394 143.09 157.927 141.623 156.871 139.717C155.815 137.81 155.287 135.581 155.287 133.029C155.287 130.477 155.808 128.247 156.849 126.341C157.89 124.434 159.35 122.967 161.227 121.941C163.104 120.914 165.26 120.401 167.695 120.401C170.071 120.401 172.183 120.899 174.031 121.897C175.879 122.894 177.324 124.317 178.365 126.165C179.406 128.013 179.927 130.169 179.927 132.633ZM172.227 130.653C172.227 129.362 171.787 128.335 170.907 127.573C170.027 126.81 168.927 126.429 167.607 126.429C166.346 126.429 165.282 126.795 164.417 127.529C163.552 128.262 163.016 129.303 162.811 130.653L172.227 130.653Z"/>
<path d="M183.891 133.029C183.891 130.477 184.412 128.247 185.453 126.341C186.494 124.434 187.946 122.967 189.809 121.941C191.672 120.914 193.806 120.401 196.211 120.401C199.291 120.401 201.865 121.207 203.933 122.821C206.001 124.434 207.358 126.707 208.003 129.641L199.995 129.641C199.32 127.763 198.015 126.825 196.079 126.825C194.7 126.825 193.6 127.36 192.779 128.431C191.958 129.501 191.547 131.034 191.547 133.029C191.547 135.023 191.958 136.556 192.779 137.627C193.6 138.697 194.7 139.233 196.079 139.233C198.015 139.233 199.32 138.294 199.995 136.417L208.003 136.417C207.358 139.291 205.994 141.55 203.911 143.193C201.828 144.835 199.262 145.657 196.211 145.657C193.806 145.657 191.672 145.143 189.809 144.117C187.946 143.09 186.494 141.623 185.453 139.717C184.412 137.81 183.891 135.581 183.891 133.029Z"/>
</g>
</g>
</g>
<g opacity="1" vectornator:layerName="path">
<use fill="#010e43" fill-opacity="0.9" fill-rule="nonzero" opacity="1" stroke="none" vectornator:layerName="path" xlink:href="#Fill_2"/>
<clipPath id="ClipPath_2">
<use xlink:href="#Fill_2"/>
</clipPath>
<g clip-path="url(#ClipPath_2)">
<g opacity="1" vectornator:layerName="stelle">
<g opacity="1">
<use fill="#fcfcfc" fill-rule="nonzero" stroke="none" xlink:href="#Fill_3"/>
<mask height="38.7028" id="StrokeMask" maskUnits="userSpaceOnUse" width="38.7028" x="41.1989" y="306.002">
<rect fill="#ffffff" height="38.7028" stroke="none" width="38.7028" x="41.1989" y="306.002"/>
<use fill="#000000" fill-rule="evenodd" stroke="none" xlink:href="#Fill_3"/>
</mask>
<use fill="none" mask="url(#StrokeMask)" stroke="#cacaca" stroke-linecap="butt" stroke-linejoin="round" stroke-width="1" xlink:href="#Fill_3"/>
</g>
<g opacity="1">
<use fill="#fcfcfc" fill-rule="nonzero" stroke="none" xlink:href="#Fill_4"/>
<mask height="38.7028" id="StrokeMask_2" maskUnits="userSpaceOnUse" width="38.7028" x="82.6895" y="305.917">
<rect fill="#ffffff" height="38.7028" stroke="none" width="38.7028" x="82.6895" y="305.917"/>
<use fill="#000000" fill-rule="evenodd" stroke="none" xlink:href="#Fill_4"/>
</mask>
<use fill="none" mask="url(#StrokeMask_2)" stroke="#cacaca" stroke-linecap="butt" stroke-linejoin="round" stroke-width="1" xlink:href="#Fill_4"/>
</g>
<g opacity="1">
<use fill="#fcfcfc" fill-rule="nonzero" stroke="none" xlink:href="#Fill_5"/>
<mask height="38.7028" id="StrokeMask_3" maskUnits="userSpaceOnUse" width="38.7028" x="123.939" y="306.002">
<rect fill="#ffffff" height="38.7028" stroke="none" width="38.7028" x="123.939" y="306.002"/>
<use fill="#000000" fill-rule="evenodd" stroke="none" xlink:href="#Fill_5"/>
</mask>
<use fill="none" mask="url(#StrokeMask_3)" stroke="#cacaca" stroke-linecap="butt" stroke-linejoin="round" stroke-width="1" xlink:href="#Fill_5"/>
</g>
<g opacity="1">
<use fill="#fcfcfc" fill-rule="nonzero" stroke="none" xlink:href="#Fill_6"/>
<mask height="38.7028" id="StrokeMask_4" maskUnits="userSpaceOnUse" width="38.7028" x="165.583" y="306.002">
<rect fill="#ffffff" height="38.7028" stroke="none" width="38.7028" x="165.583" y="306.002"/>
<use fill="#000000" fill-rule="evenodd" stroke="none" xlink:href="#Fill_6"/>
</mask>
<use fill="none" mask="url(#StrokeMask_4)" stroke="#cacaca" stroke-linecap="butt" stroke-linejoin="round" stroke-width="1" xlink:href="#Fill_6"/>
</g>
<g opacity="1">
<use fill="#fcfcfc" fill-rule="nonzero" stroke="none" xlink:href="#Fill_7"/>
<mask height="38.7028" id="StrokeMask_5" maskUnits="userSpaceOnUse" width="38.7028" x="206.904" y="306.214">
<rect fill="#ffffff" height="38.7028" stroke="none" width="38.7028" x="206.904" y="306.214"/>
<use fill="#000000" fill-rule="evenodd" stroke="none" xlink:href="#Fill_7"/>
</mask>
<use fill="none" mask="url(#StrokeMask_5)" stroke="#cacaca" stroke-linecap="butt" stroke-linejoin="round" stroke-width="1" xlink:href="#Fill_7"/>
</g>
</g>
<g fill="#ffffff" opacity="1" stroke="none" vectornator:layerName="Text">
<path d="M54.7349 369.055L50.7509 380.287L47.3269 380.287L43.3429 369.055L46.2549 369.055L49.0389 377.535L51.8389 369.055L54.7349 369.055Z"/>
<path d="M59.4349 380.415C58.5603 380.415 57.7736 380.228 57.0749 379.855C56.3763 379.481 55.8269 378.948 55.4269 378.255C55.0269 377.561 54.8269 376.751 54.8269 375.823C54.8269 374.905 55.0296 374.097 55.4349 373.399C55.8403 372.7 56.3949 372.164 57.0989 371.791C57.8029 371.417 58.5923 371.231 59.4669 371.231C60.3416 371.231 61.1309 371.417 61.8349 371.791C62.5389 372.164 63.0936 372.7 63.4989 373.399C63.9043 374.097 64.1069 374.905 64.1069 375.823C64.1069 376.74 63.9016 377.548 63.4909 378.247C63.0803 378.945 62.5203 379.481 61.8109 379.855C61.1016 380.228 60.3096 380.415 59.4349 380.415ZM59.4349 378.047C59.9576 378.047 60.4029 377.855 60.7709 377.471C61.1389 377.087 61.3229 376.537 61.3229 375.823C61.3229 375.108 61.1443 374.559 60.7869 374.175C60.4296 373.791 59.9896 373.599 59.4669 373.599C58.9336 373.599 58.4909 373.788 58.1389 374.167C57.7869 374.545 57.6109 375.097 57.6109 375.823C57.6109 376.537 57.7843 377.087 58.1309 377.471C58.4776 377.855 58.9123 378.047 59.4349 378.047Z"/>
<path d="M70.0389 377.967L70.0389 380.287L68.6469 380.287C67.6549 380.287 66.8816 380.044 66.3269 379.559C65.7723 379.073 65.4949 378.281 65.4949 377.183L65.4949 373.631L64.4069 373.631L64.4069 371.359L65.4949 371.359L65.4949 369.183L68.2309 369.183L68.2309 371.359L70.0229 371.359L70.0229 373.631L68.2309 373.631L68.2309 377.215C68.2309 377.481 68.2949 377.673 68.4229 377.791C68.5509 377.908 68.7643 377.967 69.0629 377.967L70.0389 377.967Z"/>
<path d="M75.1229 380.415C74.2483 380.415 73.4616 380.228 72.7629 379.855C72.0643 379.481 71.5149 378.948 71.1149 378.255C70.7149 377.561 70.5149 376.751 70.5149 375.823C70.5149 374.905 70.7176 374.097 71.1229 373.399C71.5283 372.7 72.0829 372.164 72.7869 371.791C73.4909 371.417 74.2803 371.231 75.1549 371.231C76.0296 371.231 76.8189 371.417 77.5229 371.791C78.2269 372.164 78.7816 372.7 79.1869 373.399C79.5923 374.097 79.7949 374.905 79.7949 375.823C79.7949 376.74 79.5896 377.548 79.1789 378.247C78.7683 378.945 78.2083 379.481 77.4989 379.855C76.7896 380.228 75.9976 380.415 75.1229 380.415ZM75.1229 378.047C75.6456 378.047 76.0909 377.855 76.4589 377.471C76.8269 377.087 77.0109 376.537 77.0109 375.823C77.0109 375.108 76.8323 374.559 76.4749 374.175C76.1176 373.791 75.6776 373.599 75.1549 373.599C74.6216 373.599 74.1789 373.788 73.8269 374.167C73.4749 374.545 73.2989 375.097 73.2989 375.823C73.2989 376.537 73.4723 377.087 73.8189 377.471C74.1656 377.855 74.6003 378.047 75.1229 378.047Z"/>
<path d="M83.0989 375.807C83.0989 374.889 83.2723 374.084 83.6189 373.391C83.9656 372.697 84.4376 372.164 85.0349 371.791C85.6323 371.417 86.2989 371.231 87.0349 371.231C87.6216 371.231 88.1576 371.353 88.6429 371.599C89.1283 371.844 89.5096 372.175 89.7869 372.591L89.7869 368.447L92.5229 368.447L92.5229 380.287L89.7869 380.287L89.7869 379.007C89.5309 379.433 89.1656 379.775 88.6909 380.031C88.2163 380.287 87.6643 380.415 87.0349 380.415C86.2989 380.415 85.6323 380.225 85.0349 379.847C84.4376 379.468 83.9656 378.929 83.6189 378.231C83.2723 377.532 83.0989 376.724 83.0989 375.807ZM89.7869 375.823C89.7869 375.14 89.5976 374.601 89.2189 374.207C88.8403 373.812 88.3789 373.615 87.8349 373.615C87.2909 373.615 86.8296 373.809 86.4509 374.199C86.0723 374.588 85.8829 375.124 85.8829 375.807C85.8829 376.489 86.0723 377.031 86.4509 377.431C86.8296 377.831 87.2909 378.031 87.8349 378.031C88.3789 378.031 88.8403 377.833 89.2189 377.439C89.5976 377.044 89.7869 376.505 89.7869 375.823Z"/>
<path d="M102.423 375.679C102.423 375.935 102.407 376.201 102.375 376.479L96.1829 376.479C96.2256 377.033 96.4043 377.457 96.7189 377.751C97.0336 378.044 97.4203 378.191 97.8789 378.191C98.5616 378.191 99.0363 377.903 99.3029 377.327L102.215 377.327C102.066 377.913 101.796 378.441 101.407 378.911C101.018 379.38 100.53 379.748 99.9429 380.015C99.3563 380.281 98.7003 380.415 97.9749 380.415C97.1003 380.415 96.3216 380.228 95.6389 379.855C94.9563 379.481 94.4229 378.948 94.0389 378.255C93.6549 377.561 93.4629 376.751 93.4629 375.823C93.4629 374.895 93.6523 374.084 94.0309 373.391C94.4096 372.697 94.9403 372.164 95.6229 371.791C96.3056 371.417 97.0896 371.231 97.9749 371.231C98.8389 371.231 99.6069 371.412 100.279 371.775C100.951 372.137 101.476 372.655 101.855 373.327C102.234 373.999 102.423 374.783 102.423 375.679ZM99.6229 374.959C99.6229 374.489 99.4629 374.116 99.1429 373.839C98.8229 373.561 98.4229 373.423 97.9429 373.423C97.4843 373.423 97.0976 373.556 96.7829 373.823C96.4683 374.089 96.2736 374.468 96.1989 374.959L99.6229 374.959Z"/>
<path d="M106.755 371.231C107.384 371.231 107.936 371.359 108.411 371.615C108.886 371.871 109.251 372.207 109.507 372.623L109.507 371.359L112.243 371.359L112.243 380.271C112.243 381.092 112.08 381.836 111.755 382.503C111.43 383.169 110.934 383.7 110.267 384.095C109.6 384.489 108.771 384.687 107.779 384.687C106.456 384.687 105.384 384.375 104.563 383.751C103.742 383.127 103.272 382.281 103.155 381.215L105.859 381.215C105.944 381.556 106.147 381.825 106.467 382.023C106.787 382.22 107.182 382.319 107.651 382.319C108.216 382.319 108.667 382.156 109.003 381.831C109.339 381.505 109.507 380.985 109.507 380.271L109.507 379.007C109.24 379.423 108.872 379.761 108.403 380.023C107.934 380.284 107.384 380.415 106.755 380.415C106.019 380.415 105.352 380.225 104.755 379.847C104.158 379.468 103.686 378.929 103.339 378.231C102.992 377.532 102.819 376.724 102.819 375.807C102.819 374.889 102.992 374.084 103.339 373.391C103.686 372.697 104.158 372.164 104.755 371.791C105.352 371.417 106.019 371.231 106.755 371.231ZM109.507 375.823C109.507 375.14 109.318 374.601 108.939 374.207C108.56 373.812 108.099 373.615 107.555 373.615C107.011 373.615 106.55 373.809 106.171 374.199C105.792 374.588 105.603 375.124 105.603 375.807C105.603 376.489 105.792 377.031 106.171 377.431C106.55 377.831 107.011 378.031 107.555 378.031C108.099 378.031 108.56 377.833 108.939 377.439C109.318 377.044 109.507 376.505 109.507 375.823Z"/>
<path d="M116.463 368.447L116.463 380.287L113.727 380.287L113.727 368.447L116.463 368.447Z"/>
<path d="M119.323 370.431C118.843 370.431 118.451 370.289 118.147 370.007C117.843 369.724 117.691 369.375 117.691 368.959C117.691 368.532 117.843 368.177 118.147 367.895C118.451 367.612 118.843 367.471 119.323 367.471C119.792 367.471 120.179 367.612 120.483 367.895C120.787 368.177 120.939 368.532 120.939 368.959C120.939 369.375 120.787 369.724 120.483 370.007C120.179 370.289 119.792 370.431 119.323 370.431ZM120.683 371.359L120.683 380.287L117.947 380.287L117.947 371.359L120.683 371.359Z"/>
<path d="M133.875 371.359L133.875 380.287L131.139 380.287L131.139 379.071C130.862 379.465 130.486 379.783 130.011 380.023C129.536 380.263 129.011 380.383 128.435 380.383C127.752 380.383 127.15 380.231 126.627 379.927C126.104 379.623 125.699 379.183 125.411 378.607C125.123 378.031 124.979 377.353 124.979 376.575L124.979 371.359L127.699 371.359L127.699 376.207C127.699 376.804 127.854 377.268 128.163 377.599C128.472 377.929 128.888 378.095 129.411 378.095C129.944 378.095 130.366 377.929 130.675 377.599C130.984 377.268 131.139 376.804 131.139 376.207L131.139 371.359L133.875 371.359Z"/>
<path d="M140.319 377.967L140.319 380.287L138.927 380.287C137.935 380.287 137.162 380.044 136.607 379.559C136.052 379.073 135.775 378.281 135.775 377.183L135.775 373.631L134.687 373.631L134.687 371.359L135.775 371.359L135.775 369.183L138.511 369.183L138.511 371.359L140.303 371.359L140.303 373.631L138.511 373.631L138.511 377.215C138.511 377.481 138.575 377.673 138.703 377.791C138.831 377.908 139.044 377.967 139.343 377.967L140.319 377.967Z"/>
<path d="M149.755 375.679C149.755 375.935 149.739 376.201 149.707 376.479L143.515 376.479C143.558 377.033 143.736 377.457 144.051 377.751C144.366 378.044 144.752 378.191 145.211 378.191C145.894 378.191 146.368 377.903 146.635 377.327L149.547 377.327C149.398 377.913 149.128 378.441 148.739 378.911C148.35 379.38 147.862 379.748 147.275 380.015C146.688 380.281 146.032 380.415 145.307 380.415C144.432 380.415 143.654 380.228 142.971 379.855C142.288 379.481 141.755 378.948 141.371 378.255C140.987 377.561 140.795 376.751 140.795 375.823C140.795 374.895 140.984 374.084 141.363 373.391C141.742 372.697 142.272 372.164 142.955 371.791C143.638 371.417 144.422 371.231 145.307 371.231C146.171 371.231 146.939 371.412 147.611 371.775C148.283 372.137 148.808 372.655 149.187 373.327C149.566 373.999 149.755 374.783 149.755 375.679ZM146.955 374.959C146.955 374.489 146.795 374.116 146.475 373.839C146.155 373.561 145.755 373.423 145.275 373.423C144.816 373.423 144.43 373.556 144.115 373.823C143.8 374.089 143.606 374.468 143.531 374.959L146.955 374.959Z"/>
<path d="M156.135 371.263C157.18 371.263 158.015 371.601 158.639 372.279C159.263 372.956 159.575 373.887 159.575 375.071L159.575 380.287L156.855 380.287L156.855 375.439C156.855 374.841 156.7 374.377 156.391 374.047C156.082 373.716 155.666 373.551 155.143 373.551C154.62 373.551 154.204 373.716 153.895 374.047C153.586 374.377 153.431 374.841 153.431 375.439L153.431 380.287L150.695 380.287L150.695 371.359L153.431 371.359L153.431 372.543C153.708 372.148 154.082 371.836 154.551 371.607C155.02 371.377 155.548 371.263 156.135 371.263Z"/>
<path d="M165.955 377.967L165.955 380.287L164.563 380.287C163.571 380.287 162.798 380.044 162.243 379.559C161.688 379.073 161.411 378.281 161.411 377.183L161.411 373.631L160.323 373.631L160.323 371.359L161.411 371.359L161.411 369.183L164.147 369.183L164.147 371.359L165.939 371.359L165.939 373.631L164.147 373.631L164.147 377.215C164.147 377.481 164.211 377.673 164.339 377.791C164.467 377.908 164.68 377.967 164.979 377.967L165.955 377.967Z"/>
<path d="M168.351 370.431C167.871 370.431 167.479 370.289 167.175 370.007C166.871 369.724 166.719 369.375 166.719 368.959C166.719 368.532 166.871 368.177 167.175 367.895C167.479 367.612 167.871 367.471 168.351 367.471C168.82 367.471 169.207 367.612 169.511 367.895C169.815 368.177 169.967 368.532 169.967 368.959C169.967 369.375 169.815 369.724 169.511 370.007C169.207 370.289 168.82 370.431 168.351 370.431ZM169.711 371.359L169.711 380.287L166.975 380.287L166.975 371.359L169.711 371.359Z"/>
</g>
</g>
</g>
<g opacity="1" vectornator:layerName="path">
<use fill="#cfdff5" fill-opacity="0.9" fill-rule="nonzero" opacity="1" stroke="none" vectornator:layerName="path" xlink:href="#Fill_8"/>
<clipPath id="ClipPath_3">
<use xlink:href="#Fill_8"/>
</clipPath>
<g clip-path="url(#ClipPath_3)">
<g fill="#0e5ecc" opacity="1" stroke="none">
<path d="M370.37 275.088L362.714 275.088L362.714 282.92L355.586 282.92L355.586 275.088L347.93 275.088L347.93 268.356L355.586 268.356L355.586 260.48L362.714 260.48L362.714 268.356L370.37 268.356L370.37 275.088Z"/>
<path d="M376.182 281.072C377.18 280.28 377.634 279.914 377.546 279.972C380.421 277.596 382.687 275.646 384.344 274.12C386.002 272.595 387.402 270.996 388.546 269.324C389.69 267.652 390.262 266.024 390.262 264.44C390.262 263.238 389.984 262.299 389.426 261.624C388.869 260.95 388.033 260.612 386.918 260.612C385.804 260.612 384.931 261.03 384.3 261.866C383.67 262.702 383.354 263.883 383.354 265.408L376.094 265.408C376.153 262.915 376.688 260.832 377.7 259.16C378.712 257.488 380.047 256.256 381.704 255.464C383.362 254.672 385.202 254.276 387.226 254.276C390.717 254.276 393.35 255.171 395.124 256.96C396.899 258.75 397.786 261.082 397.786 263.956C397.786 267.095 396.716 270.006 394.574 272.69C392.433 275.374 389.705 277.992 386.39 280.544L398.27 280.544L398.27 286.66L376.182 286.66L376.182 281.072Z"/>
<path d="M403.07 270.6C403.07 265.555 404.046 261.58 405.996 258.676C407.947 255.772 411.093 254.32 415.434 254.32C419.776 254.32 422.922 255.772 424.872 258.676C426.823 261.58 427.798 265.555 427.798 270.6C427.798 275.704 426.823 279.708 424.872 282.612C422.922 285.516 419.776 286.968 415.434 286.968C411.093 286.968 407.947 285.516 405.996 282.612C404.046 279.708 403.07 275.704 403.07 270.6ZM420.406 270.6C420.406 267.638 420.084 265.357 419.438 263.758C418.793 262.16 417.458 261.36 415.434 261.36C413.41 261.36 412.076 262.16 411.43 263.758C410.785 265.357 410.462 267.638 410.462 270.6C410.462 272.595 410.58 274.245 410.814 275.55C411.049 276.856 411.526 277.912 412.244 278.718C412.963 279.525 414.026 279.928 415.434 279.928C416.842 279.928 417.906 279.525 418.624 278.718C419.343 277.912 419.82 276.856 420.054 275.55C420.289 274.245 420.406 272.595 420.406 270.6Z"/>
</g>
<g fill="#0e5ecc" opacity="1" stroke="none" vectornator:layerName="Text">
<path d="M349.062 311.351L349.062 322.583L346.326 322.583L346.326 311.351L349.062 311.351Z"/>
<path d="M356.486 313.559C357.532 313.559 358.366 313.898 358.99 314.575C359.614 315.252 359.926 316.183 359.926 317.367L359.926 322.583L357.206 322.583L357.206 317.735C357.206 317.138 357.052 316.674 356.742 316.343C356.433 316.012 356.017 315.847 355.494 315.847C354.972 315.847 354.556 316.012 354.246 316.343C353.937 316.674 353.782 317.138 353.782 317.735L353.782 322.583L351.046 322.583L351.046 313.655L353.782 313.655L353.782 314.839C354.06 314.444 354.433 314.132 354.902 313.903C355.372 313.674 355.9 313.559 356.486 313.559Z"/>
<path d="M361.286 318.103C361.286 317.186 361.46 316.38 361.806 315.687C362.153 314.994 362.625 314.46 363.222 314.087C363.82 313.714 364.486 313.527 365.222 313.527C365.809 313.527 366.345 313.65 366.83 313.895C367.316 314.14 367.697 314.471 367.974 314.887L367.974 310.743L370.71 310.743L370.71 322.583L367.974 322.583L367.974 321.303C367.718 321.73 367.353 322.071 366.878 322.327C366.404 322.583 365.852 322.711 365.222 322.711C364.486 322.711 363.82 322.522 363.222 322.143C362.625 321.764 362.153 321.226 361.806 320.527C361.46 319.828 361.286 319.02 361.286 318.103ZM367.974 318.119C367.974 317.436 367.785 316.898 367.406 316.503C367.028 316.108 366.566 315.911 366.022 315.911C365.478 315.911 365.017 316.106 364.638 316.495C364.26 316.884 364.07 317.42 364.07 318.103C364.07 318.786 364.26 319.327 364.638 319.727C365.017 320.127 365.478 320.327 366.022 320.327C366.566 320.327 367.028 320.13 367.406 319.735C367.785 319.34 367.974 318.802 367.974 318.119Z"/>
<path d="M374.07 312.727C373.59 312.727 373.198 312.586 372.894 312.303C372.59 312.02 372.438 311.671 372.438 311.255C372.438 310.828 372.59 310.474 372.894 310.191C373.198 309.908 373.59 309.767 374.07 309.767C374.54 309.767 374.926 309.908 375.23 310.191C375.534 310.474 375.686 310.828 375.686 311.255C375.686 311.671 375.534 312.02 375.23 312.303C374.926 312.586 374.54 312.727 374.07 312.727ZM375.43 313.655L375.43 322.583L372.694 322.583L372.694 313.655L375.43 313.655Z"/>
<path d="M376.87 318.119C376.87 317.191 377.06 316.38 377.438 315.687C377.817 314.994 378.345 314.46 379.022 314.087C379.7 313.714 380.476 313.527 381.35 313.527C382.47 313.527 383.406 313.82 384.158 314.407C384.91 314.994 385.404 315.82 385.638 316.887L382.726 316.887C382.481 316.204 382.006 315.863 381.302 315.863C380.801 315.863 380.401 316.058 380.102 316.447C379.804 316.836 379.654 317.394 379.654 318.119C379.654 318.844 379.804 319.402 380.102 319.791C380.401 320.18 380.801 320.375 381.302 320.375C382.006 320.375 382.481 320.034 382.726 319.351L385.638 319.351C385.404 320.396 384.908 321.218 384.15 321.815C383.393 322.412 382.46 322.711 381.35 322.711C380.476 322.711 379.7 322.524 379.022 322.151C378.345 321.778 377.817 321.244 377.438 320.551C377.06 319.858 376.87 319.047 376.87 318.119Z"/>
<path d="M388.47 312.727C387.99 312.727 387.598 312.586 387.294 312.303C386.99 312.02 386.838 311.671 386.838 311.255C386.838 310.828 386.99 310.474 387.294 310.191C387.598 309.908 387.99 309.767 388.47 309.767C388.94 309.767 389.326 309.908 389.63 310.191C389.934 310.474 390.086 310.828 390.086 311.255C390.086 311.671 389.934 312.02 389.63 312.303C389.326 312.586 388.94 312.727 388.47 312.727ZM389.83 313.655L389.83 322.583L387.094 322.583L387.094 313.655L389.83 313.655Z"/>
<path d="M404.022 313.655L404.022 322.583L401.286 322.583L401.286 321.367C401.009 321.762 400.633 322.079 400.158 322.319C399.684 322.559 399.158 322.679 398.582 322.679C397.9 322.679 397.297 322.527 396.774 322.223C396.252 321.919 395.846 321.479 395.558 320.903C395.27 320.327 395.126 319.65 395.126 318.871L395.126 313.655L397.846 313.655L397.846 318.503C397.846 319.1 398.001 319.564 398.31 319.895C398.62 320.226 399.036 320.391 399.558 320.391C400.092 320.391 400.513 320.226 400.822 319.895C401.132 319.564 401.286 319.1 401.286 318.503L401.286 313.655L404.022 313.655Z"/>
<path d="M410.966 320.263L410.966 322.583L409.574 322.583C408.582 322.583 407.809 322.34 407.254 321.855C406.7 321.37 406.422 320.578 406.422 319.479L406.422 315.927L405.334 315.927L405.334 313.655L406.422 313.655L406.422 311.479L409.158 311.479L409.158 313.655L410.95 313.655L410.95 315.927L409.158 315.927L409.158 319.511C409.158 319.778 409.222 319.97 409.35 320.087C409.478 320.204 409.692 320.263 409.99 320.263L410.966 320.263Z"/>
<path d="M413.862 312.727C413.382 312.727 412.99 312.586 412.686 312.303C412.382 312.02 412.23 311.671 412.23 311.255C412.23 310.828 412.382 310.474 412.686 310.191C412.99 309.908 413.382 309.767 413.862 309.767C414.332 309.767 414.718 309.908 415.022 310.191C415.326 310.474 415.478 310.828 415.478 311.255C415.478 311.671 415.326 312.02 415.022 312.303C414.718 312.586 414.332 312.727 413.862 312.727ZM415.222 313.655L415.222 322.583L412.486 322.583L412.486 313.655L415.222 313.655Z"/>
<path d="M419.942 310.743L419.942 322.583L417.206 322.583L417.206 310.743L419.942 310.743Z"/>
<path d="M423.302 312.727C422.822 312.727 422.43 312.586 422.126 312.303C421.822 312.02 421.67 311.671 421.67 311.255C421.67 310.828 421.822 310.474 422.126 310.191C422.43 309.908 422.822 309.767 423.302 309.767C423.772 309.767 424.158 309.908 424.462 310.191C424.766 310.474 424.918 310.828 424.918 311.255C424.918 311.671 424.766 312.02 424.462 312.303C424.158 312.586 423.772 312.727 423.302 312.727ZM424.662 313.655L424.662 322.583L421.926 322.583L421.926 313.655L424.662 313.655Z"/>
<path d="M429.206 320.327L433.078 320.327L433.078 322.583L426.15 322.583L426.15 320.407L429.862 315.911L426.182 315.911L426.182 313.655L432.998 313.655L432.998 315.831L429.206 320.327Z"/>
<path d="M437.142 320.327L441.014 320.327L441.014 322.583L434.086 322.583L434.086 320.407L437.798 315.911L434.118 315.911L434.118 313.655L440.934 313.655L440.934 315.831L437.142 320.327Z"/>
<path d="M441.974 318.103C441.974 317.186 442.148 316.38 442.494 315.687C442.841 314.994 443.313 314.46 443.91 314.087C444.508 313.714 445.174 313.527 445.91 313.527C446.54 313.527 447.092 313.655 447.566 313.911C448.041 314.167 448.406 314.503 448.662 314.919L448.662 313.655L451.398 313.655L451.398 322.583L448.662 322.583L448.662 321.319C448.396 321.735 448.025 322.071 447.55 322.327C447.076 322.583 446.524 322.711 445.894 322.711C445.169 322.711 444.508 322.522 443.91 322.143C443.313 321.764 442.841 321.226 442.494 320.527C442.148 319.828 441.974 319.02 441.974 318.103ZM448.662 318.119C448.662 317.436 448.473 316.898 448.094 316.503C447.716 316.108 447.254 315.911 446.71 315.911C446.166 315.911 445.705 316.106 445.326 316.495C444.948 316.884 444.758 317.42 444.758 318.103C444.758 318.786 444.948 319.327 445.326 319.727C445.705 320.127 446.166 320.327 446.71 320.327C447.254 320.327 447.716 320.13 448.094 319.735C448.473 319.34 448.662 318.802 448.662 318.119Z"/>
<path d="M458.358 320.263L458.358 322.583L456.966 322.583C455.974 322.583 455.201 322.34 454.646 321.855C454.092 321.37 453.814 320.578 453.814 319.479L453.814 315.927L452.726 315.927L452.726 313.655L453.814 313.655L453.814 311.479L456.55 311.479L456.55 313.655L458.342 313.655L458.342 315.927L456.55 315.927L456.55 319.511C456.55 319.778 456.614 319.97 456.742 320.087C456.87 320.204 457.084 320.263 457.382 320.263L458.358 320.263Z"/>
<path d="M461.254 312.727C460.774 312.727 460.382 312.586 460.078 312.303C459.774 312.02 459.622 311.671 459.622 311.255C459.622 310.828 459.774 310.474 460.078 310.191C460.382 309.908 460.774 309.767 461.254 309.767C461.724 309.767 462.11 309.908 462.414 310.191C462.718 310.474 462.87 310.828 462.87 311.255C462.87 311.671 462.718 312.02 462.414 312.303C462.11 312.586 461.724 312.727 461.254 312.727ZM462.614 313.655L462.614 322.583L459.878 322.583L459.878 313.655L462.614 313.655Z"/>
</g>
</g>
</g>
<g opacity="1" vectornator:layerName="path">
<use fill="#cfdff5" fill-opacity="0.9" fill-rule="nonzero" opacity="1" stroke="none" vectornator:layerName="path" xlink:href="#Fill_9"/>
<clipPath id="ClipPath_4">
<use xlink:href="#Fill_9"/>
</clipPath>
<g clip-path="url(#ClipPath_4)">
<g fill="#0e5ecc" opacity="1" stroke="none">
<path d="M370.37 76.5956L362.714 76.5956L362.714 84.4276L355.586 84.4276L355.586 76.5956L347.93 76.5956L347.93 69.8636L355.586 69.8636L355.586 61.9876L362.714 61.9876L362.714 69.8636L370.37 69.8636L370.37 76.5956Z"/>
<path d="M376.182 82.5796C377.18 81.7876 377.634 81.421 377.546 81.4796C380.421 79.1036 382.687 77.153 384.344 75.6276C386.002 74.1023 387.402 72.5036 388.546 70.8316C389.69 69.1596 390.262 67.5316 390.262 65.9476C390.262 64.745 389.984 63.8063 389.426 63.1316C388.869 62.457 388.033 62.1196 386.918 62.1196C385.804 62.1196 384.931 62.5376 384.3 63.3736C383.67 64.2096 383.354 65.3903 383.354 66.9156L376.094 66.9156C376.153 64.4223 376.688 62.3396 377.7 60.6676C378.712 58.9956 380.047 57.7636 381.704 56.9716C383.362 56.1796 385.202 55.7836 387.226 55.7836C390.717 55.7836 393.35 56.6783 395.124 58.4676C396.899 60.257 397.786 62.589 397.786 65.4636C397.786 68.6023 396.716 71.5136 394.574 74.1976C392.433 76.8816 389.705 79.4996 386.39 82.0516L398.27 82.0516L398.27 88.1676L376.182 88.1676L376.182 82.5796Z"/>
<path d="M403.07 72.1076C403.07 67.0623 404.046 63.0876 405.996 60.1836C407.947 57.2796 411.093 55.8276 415.434 55.8276C419.776 55.8276 422.922 57.2796 424.872 60.1836C426.823 63.0876 427.798 67.0623 427.798 72.1076C427.798 77.2116 426.823 81.2156 424.872 84.1196C422.922 87.0236 419.776 88.4756 415.434 88.4756C411.093 88.4756 407.947 87.0236 405.996 84.1196C404.046 81.2156 403.07 77.2116 403.07 72.1076ZM420.406 72.1076C420.406 69.145 420.084 66.8643 419.438 65.2656C418.793 63.667 417.458 62.8676 415.434 62.8676C413.41 62.8676 412.076 63.667 411.43 65.2656C410.785 66.8643 410.462 69.145 410.462 72.1076C410.462 74.1023 410.58 75.7523 410.814 77.0576C411.049 78.363 411.526 79.419 412.244 80.2256C412.963 81.0323 414.026 81.4356 415.434 81.4356C416.842 81.4356 417.906 81.0323 418.624 80.2256C419.343 79.419 419.82 78.363 420.054 77.0576C420.289 75.7523 420.406 74.1023 420.406 72.1076Z"/>
</g>
<g fill="#0e5ecc" opacity="1" stroke="none" vectornator:layerName="Text">
<path d="M349.062 110.188L349.062 121.42L346.326 121.42L346.326 110.188L349.062 110.188Z"/>
<path d="M356.486 112.396C357.532 112.396 358.366 112.734 358.99 113.412C359.614 114.089 359.926 115.02 359.926 116.204L359.926 121.42L357.206 121.42L357.206 116.572C357.206 115.974 357.052 115.51 356.742 115.18C356.433 114.849 356.017 114.684 355.494 114.684C354.972 114.684 354.556 114.849 354.246 115.18C353.937 115.51 353.782 115.974 353.782 116.572L353.782 121.42L351.046 121.42L351.046 112.492L353.782 112.492L353.782 113.676C354.06 113.281 354.433 112.969 354.902 112.74C355.372 112.51 355.9 112.396 356.486 112.396Z"/>
<path d="M361.286 116.94C361.286 116.022 361.46 115.217 361.806 114.524C362.153 113.83 362.625 113.297 363.222 112.924C363.82 112.55 364.486 112.364 365.222 112.364C365.809 112.364 366.345 112.486 366.83 112.732C367.316 112.977 367.697 113.308 367.974 113.724L367.974 109.58L370.71 109.58L370.71 121.42L367.974 121.42L367.974 120.14C367.718 120.566 367.353 120.908 366.878 121.164C366.404 121.42 365.852 121.548 365.222 121.548C364.486 121.548 363.82 121.358 363.222 120.98C362.625 120.601 362.153 120.062 361.806 119.364C361.46 118.665 361.286 117.857 361.286 116.94ZM367.974 116.956C367.974 116.273 367.785 115.734 367.406 115.34C367.028 114.945 366.566 114.748 366.022 114.748C365.478 114.748 365.017 114.942 364.638 115.332C364.26 115.721 364.07 116.257 364.07 116.94C364.07 117.622 364.26 118.164 364.638 118.564C365.017 118.964 365.478 119.164 366.022 119.164C366.566 119.164 367.028 118.966 367.406 118.572C367.785 118.177 367.974 117.638 367.974 116.956Z"/>
<path d="M374.07 111.564C373.59 111.564 373.198 111.422 372.894 111.14C372.59 110.857 372.438 110.508 372.438 110.092C372.438 109.665 372.59 109.31 372.894 109.028C373.198 108.745 373.59 108.604 374.07 108.604C374.54 108.604 374.926 108.745 375.23 109.028C375.534 109.31 375.686 109.665 375.686 110.092C375.686 110.508 375.534 110.857 375.23 111.14C374.926 111.422 374.54 111.564 374.07 111.564ZM375.43 112.492L375.43 121.42L372.694 121.42L372.694 112.492L375.43 112.492Z"/>
<path d="M376.87 116.956C376.87 116.028 377.06 115.217 377.438 114.524C377.817 113.83 378.345 113.297 379.022 112.924C379.7 112.55 380.476 112.364 381.35 112.364C382.47 112.364 383.406 112.657 384.158 113.244C384.91 113.83 385.404 114.657 385.638 115.724L382.726 115.724C382.481 115.041 382.006 114.7 381.302 114.7C380.801 114.7 380.401 114.894 380.102 115.284C379.804 115.673 379.654 116.23 379.654 116.956C379.654 117.681 379.804 118.238 380.102 118.628C380.401 119.017 380.801 119.212 381.302 119.212C382.006 119.212 382.481 118.87 382.726 118.188L385.638 118.188C385.404 119.233 384.908 120.054 384.15 120.652C383.393 121.249 382.46 121.548 381.35 121.548C380.476 121.548 379.7 121.361 379.022 120.988C378.345 120.614 377.817 120.081 377.438 119.388C377.06 118.694 376.87 117.884 376.87 116.956Z"/>
<path d="M388.47 111.564C387.99 111.564 387.598 111.422 387.294 111.14C386.99 110.857 386.838 110.508 386.838 110.092C386.838 109.665 386.99 109.31 387.294 109.028C387.598 108.745 387.99 108.604 388.47 108.604C388.94 108.604 389.326 108.745 389.63 109.028C389.934 109.31 390.086 109.665 390.086 110.092C390.086 110.508 389.934 110.857 389.63 111.14C389.326 111.422 388.94 111.564 388.47 111.564ZM389.83 112.492L389.83 121.42L387.094 121.42L387.094 112.492L389.83 112.492Z"/>
<path d="M404.022 112.492L404.022 121.42L401.286 121.42L401.286 120.204C401.009 120.598 400.633 120.916 400.158 121.156C399.684 121.396 399.158 121.516 398.582 121.516C397.9 121.516 397.297 121.364 396.774 121.06C396.252 120.756 395.846 120.316 395.558 119.74C395.27 119.164 395.126 118.486 395.126 117.708L395.126 112.492L397.846 112.492L397.846 117.34C397.846 117.937 398.001 118.401 398.31 118.732C398.62 119.062 399.036 119.228 399.558 119.228C400.092 119.228 400.513 119.062 400.822 118.732C401.132 118.401 401.286 117.937 401.286 117.34L401.286 112.492L404.022 112.492Z"/>
<path d="M410.966 119.1L410.966 121.42L409.574 121.42C408.582 121.42 407.809 121.177 407.254 120.692C406.7 120.206 406.422 119.414 406.422 118.316L406.422 114.764L405.334 114.764L405.334 112.492L406.422 112.492L406.422 110.316L409.158 110.316L409.158 112.492L410.95 112.492L410.95 114.764L409.158 114.764L409.158 118.348C409.158 118.614 409.222 118.806 409.35 118.924C409.478 119.041 409.692 119.1 409.99 119.1L410.966 119.1Z"/>
<path d="M413.862 111.564C413.382 111.564 412.99 111.422 412.686 111.14C412.382 110.857 412.23 110.508 412.23 110.092C412.23 109.665 412.382 109.31 412.686 109.028C412.99 108.745 413.382 108.604 413.862 108.604C414.332 108.604 414.718 108.745 415.022 109.028C415.326 109.31 415.478 109.665 415.478 110.092C415.478 110.508 415.326 110.857 415.022 111.14C414.718 111.422 414.332 111.564 413.862 111.564ZM415.222 112.492L415.222 121.42L412.486 121.42L412.486 112.492L415.222 112.492Z"/>
<path d="M419.942 109.58L419.942 121.42L417.206 121.42L417.206 109.58L419.942 109.58Z"/>
<path d="M423.302 111.564C422.822 111.564 422.43 111.422 422.126 111.14C421.822 110.857 421.67 110.508 421.67 110.092C421.67 109.665 421.822 109.31 422.126 109.028C422.43 108.745 422.822 108.604 423.302 108.604C423.772 108.604 424.158 108.745 424.462 109.028C424.766 109.31 424.918 109.665 424.918 110.092C424.918 110.508 424.766 110.857 424.462 111.14C424.158 111.422 423.772 111.564 423.302 111.564ZM424.662 112.492L424.662 121.42L421.926 121.42L421.926 112.492L424.662 112.492Z"/>
<path d="M429.206 119.164L433.078 119.164L433.078 121.42L426.15 121.42L426.15 119.244L429.862 114.748L426.182 114.748L426.182 112.492L432.998 112.492L432.998 114.668L429.206 119.164Z"/>
<path d="M437.142 119.164L441.014 119.164L441.014 121.42L434.086 121.42L434.086 119.244L437.798 114.748L434.118 114.748L434.118 112.492L440.934 112.492L440.934 114.668L437.142 119.164Z"/>
<path d="M441.974 116.94C441.974 116.022 442.148 115.217 442.494 114.524C442.841 113.83 443.313 113.297 443.91 112.924C444.508 112.55 445.174 112.364 445.91 112.364C446.54 112.364 447.092 112.492 447.566 112.748C448.041 113.004 448.406 113.34 448.662 113.756L448.662 112.492L451.398 112.492L451.398 121.42L448.662 121.42L448.662 120.156C448.396 120.572 448.025 120.908 447.55 121.164C447.076 121.42 446.524 121.548 445.894 121.548C445.169 121.548 444.508 121.358 443.91 120.98C443.313 120.601 442.841 120.062 442.494 119.364C442.148 118.665 441.974 117.857 441.974 116.94ZM448.662 116.956C448.662 116.273 448.473 115.734 448.094 115.34C447.716 114.945 447.254 114.748 446.71 114.748C446.166 114.748 445.705 114.942 445.326 115.332C444.948 115.721 444.758 116.257 444.758 116.94C444.758 117.622 444.948 118.164 445.326 118.564C445.705 118.964 446.166 119.164 446.71 119.164C447.254 119.164 447.716 118.966 448.094 118.572C448.473 118.177 448.662 117.638 448.662 116.956Z"/>
<path d="M458.358 119.1L458.358 121.42L456.966 121.42C455.974 121.42 455.201 121.177 454.646 120.692C454.092 120.206 453.814 119.414 453.814 118.316L453.814 114.764L452.726 114.764L452.726 112.492L453.814 112.492L453.814 110.316L456.55 110.316L456.55 112.492L458.342 112.492L458.342 114.764L456.55 114.764L456.55 118.348C456.55 118.614 456.614 118.806 456.742 118.924C456.87 119.041 457.084 119.1 457.382 119.1L458.358 119.1Z"/>
<path d="M461.254 111.564C460.774 111.564 460.382 111.422 460.078 111.14C459.774 110.857 459.622 110.508 459.622 110.092C459.622 109.665 459.774 109.31 460.078 109.028C460.382 108.745 460.774 108.604 461.254 108.604C461.724 108.604 462.11 108.745 462.414 109.028C462.718 109.31 462.87 109.665 462.87 110.092C462.87 110.508 462.718 110.857 462.414 111.14C462.11 111.422 461.724 111.564 461.254 111.564ZM462.614 112.492L462.614 121.42L459.878 121.42L459.878 112.492L462.614 112.492Z"/>
</g>
</g>
</g>
</g>
</svg>
