<?xml version="1.0" encoding="UTF-8" standalone="no"?>
<!DOCTYPE svg PUBLIC "-//W3C//DTD SVG 1.1//EN" "http://www.w3.org/Graphics/SVG/1.1/DTD/svg11.dtd">
<!-- Created with Vectornator (http://vectornator.io/) -->
<svg height="100%" stroke-miterlimit="10" style="fill-rule:nonzero;clip-rule:evenodd;stroke-linecap:round;stroke-linejoin:round;" version="1.1" viewBox="0 0 546.666 451.561" width="100%" xml:space="preserve" xmlns="http://www.w3.org/2000/svg" xmlns:vectornator="http://vectornator.io" xmlns:xlink="http://www.w3.org/1999/xlink">
<defs/>
<clipPath id="ArtboardFrame">
<rect height="451.561" width="546.666" x="0" y="0"/>
</clipPath>
<g clip-path="url(#ArtboardFrame)" id="Senza-Titolo" vectornator:layerName="Senza Titolo">
<g opacity="1" vectornator:layerName="man">
<path d="M43.9574 443.845L51.1499 443.844L54.5712 416.103L43.9565 416.104L43.9574 443.845Z" fill="#ffb7b7" fill-rule="nonzero" opacity="1" stroke="none" vectornator:layerName="polygon"/>
<path d="M42.1233 450.816L65.3139 450.816L65.3139 450.522C65.3136 445.537 61.2725 441.496 56.2875 441.496L56.2869 441.496L42.1229 441.496L42.1233 450.816Z" fill="#2f2e41" fill-rule="nonzero" opacity="1" stroke="none" vectornator:layerName="path"/>
<path d="M70.3566 443.845L77.5487 443.844L80.9705 416.103L70.3552 416.104L70.3566 443.845Z" fill="#ffb7b7" fill-rule="nonzero" opacity="1" stroke="none" vectornator:layerName="polygon"/>
<path d="M68.5225 450.816L91.713 450.816L91.713 450.522C91.7127 445.537 87.6716 441.496 82.6866 441.496L82.686 441.496L68.522 441.496L68.5225 450.816Z" fill="#2f2e41" fill-rule="nonzero" opacity="1" stroke="none" vectornator:layerName="path"/>
<path d="M83.9126 353.865C82.6516 352.835 81.9115 351.3 81.8914 349.672C81.8713 348.044 82.5733 346.491 83.8085 345.43L79.8992 333.483L86.5802 329.337L91.8638 346.286C93.5449 348.529 93.2831 351.674 91.2545 353.607C89.2259 355.541 86.0717 355.652 83.9126 353.865Z" fill="#ffb7b7" fill-rule="nonzero" opacity="1" stroke="none" vectornator:layerName="path"/>
<path d="M76.7857 345.978C76.7857 345.978 83.4988 382.317 83.4151 389.37C83.314 397.882 79.5266 434.362 79.5266 434.362L69.8839 431.952L68.0612 389.669L60.4348 362.683L57.5016 397.295L54.5572 433.705L43.3706 433.705L40.865 342.362L77.3884 341.156L76.7857 345.978Z" fill="#2f2e41" fill-rule="nonzero" opacity="1" stroke="none" vectornator:layerName="path"/>
<path d="M43.3374 272.753L62.6229 273.356L74.6763 348.087C74.6763 348.087 49.0628 359.839 38.2147 351.402C27.3666 342.964 43.3374 272.753 43.3374 272.753Z" fill="#cbcbcb" fill-rule="nonzero" opacity="1" stroke="none" vectornator:layerName="path"/>
<path d="M59.9109 288.724L76.183 382.138L86.4285 379.125L79.1964 345.375L75.5804 311.626L76.183 277.876L63.5269 272.452L59.9109 268.233C59.9109 268.233 52.6788 277.273 59.9109 288.724Z" fill="#929292" fill-rule="nonzero" opacity="1" stroke="none" vectornator:layerName="path"/>
<path d="M51.4735 286.444L50.2681 384.549L25.5586 380.33L27.3666 289.327L24.9559 276.671L37.0094 271.247L41.8901 268.233C41.8901 268.233 52.6788 271.508 51.4735 286.444Z" fill="#929292" fill-rule="nonzero" opacity="1" stroke="none" vectornator:layerName="path"/>
<path d="M70.759 279.684L76.1828 277.876L84.0177 312.831L90.6472 340.554L81.0045 342.362L71.9643 312.228L70.759 279.684Z" fill="#929292" fill-rule="nonzero" opacity="1" stroke="none" vectornator:layerName="polygon"/>
<path d="M16.4245 359.731C17.6854 358.702 18.4255 357.166 18.4456 355.538C18.4657 353.911 17.7637 352.357 16.5286 351.297L20.4378 339.35L13.7568 335.203L8.47321 352.153C6.79223 354.395 7.05404 357.54 9.08261 359.474C11.1112 361.407 14.2653 361.518 16.4245 359.731Z" fill="#ffb7b7" fill-rule="nonzero" opacity="1" stroke="none" vectornator:layerName="path"/>
<path d="M30.1646 278.511L24.7408 276.703L16.9059 311.658L9.68978 346.42L20.543 348.017L28.9593 311.055L30.1646 278.511Z" fill="#929292" fill-rule="nonzero" opacity="1" stroke="none" vectornator:layerName="polygon"/>
<path d="M63.4103 257.976C66.9588 251.484 64.5731 243.345 58.0817 239.797C51.5903 236.248 43.4514 238.634 39.9029 245.125C36.3544 251.617 38.74 259.756 45.2314 263.304C51.7228 266.853 59.8617 264.467 63.4103 257.976Z" fill="#ffb7b7" fill-rule="nonzero" opacity="1" stroke="none" vectornator:layerName="circle"/>
<path d="M18.2682 451.116L126.895 451.116C127.156 451.116 127.368 450.905 127.368 450.644C127.368 450.383 127.156 450.172 126.895 450.172L18.2682 450.172C18.0074 450.172 17.7959 450.383 17.7959 450.644C17.7959 450.905 18.0074 451.116 18.2682 451.116Z" fill="#cbcbcb" fill-rule="nonzero" opacity="1" stroke="none" vectornator:layerName="path"/>
<path d="M56.3274 234.022C43.522 230.329 39.8871 240.943 39.8871 240.943C33.7147 245.038 37.5791 250.172 37.5791 250.172C36.0217 250.518 39.1358 259.632 40.1742 259.402C40.7282 259.279 42.1529 260.979 43.3613 262.592C43.7757 262.592 44.1891 262.631 44.5958 262.711L42.2513 254.037C42.2513 254.037 50.154 252.827 52.5769 249.02C54.8951 245.377 62.5263 244.227 64.698 246.66C64.8264 245.961 65.0895 245.293 65.4725 244.694C65.7691 244.239 66.1568 243.85 66.6112 243.552C64.6911 235.392 56.3274 234.022 56.3274 234.022Z" fill="#2f2e41" fill-rule="nonzero" opacity="1" stroke="none" vectornator:layerName="path"/>
</g>
<g opacity="1" vectornator:layerName="stock3">
<path d="M517.82 374.554L252.677 374.554C237.529 374.554 225.248 362.274 225.248 347.125L225.248 292.268C225.248 277.12 237.529 264.84 252.677 264.84L517.82 264.84C532.968 264.84 545.248 277.12 545.248 292.268L545.248 347.125C545.248 362.274 532.968 374.554 517.82 374.554Z" fill="#191a33" fill-rule="nonzero" opacity="1" stroke="none" vectornator:layerName="path"/>
<g opacity="1" vectornator:layerName="content">
<path d="M275.267 342.526C277.639 342.526 279.562 344.449 279.562 346.821C279.562 349.193 277.639 351.115 275.267 351.115L258.089 351.115C255.717 351.115 253.794 349.193 253.794 346.821C253.794 344.449 255.717 342.526 258.089 342.526L275.267 342.526Z" fill="#0e5ecc" fill-rule="nonzero" opacity="1" stroke="none" vectornator:layerName="path"/>
<path d="M452.1 334.196L253.793 334.196L253.793 334.196L253.793 335.326L253.793 335.326L452.1 335.326L452.1 335.326L452.1 334.196L452.1 334.196Z" fill="#bababa" fill-rule="nonzero" opacity="1" stroke="none" vectornator:layerName="rect"/>
<path d="M518.565 318.941C518.565 305.126 507.366 293.927 493.551 293.927C479.737 293.927 468.537 305.126 468.537 318.941C468.537 332.756 479.737 343.955 493.551 343.955C507.366 343.955 518.565 332.756 518.565 318.941Z" fill="#4fe9a4" fill-rule="nonzero" opacity="1" stroke="none" vectornator:layerName="circle"/>
<path d="M431.806 313.207L417.675 319.99L397.349 307.001L356.918 324.247L324.72 308.43L293.458 321.11L254.172 305.328L253.423 306.174L293.229 322.421L324.675 309.672L356.884 325.494L397.244 308.277L417.596 321.281L431.714 314.504L431.806 313.207Z" fill="#ffffff" fill-rule="nonzero" opacity="1" stroke="none" vectornator:layerName="path"/>
<path d="M448.427 343.116C450.432 343.148 452.041 344.783 452.041 346.788C452.041 348.793 450.432 350.428 448.427 350.46L410.009 350.46C407.981 350.493 406.31 348.876 406.277 346.848C406.244 344.82 407.861 343.149 409.889 343.116C409.929 343.115 409.969 343.115 410.009 343.116L448.427 343.116Z" fill="#e6e6e6" fill-rule="nonzero" opacity="1" stroke="none" vectornator:layerName="path"/>
<path d="M503.613 319.251C503.027 319.837 502.077 319.837 501.492 319.251L501.492 319.251L495.052 312.811L495.052 328.692C495.048 329.516 494.38 330.182 493.556 330.185C492.732 330.188 492.06 329.525 492.051 328.701L492.051 312.811L485.611 319.251C485.027 319.839 484.077 319.841 483.49 319.257C482.902 318.672 482.9 317.723 483.484 317.135L483.49 317.13L492.491 308.129C493.077 307.543 494.026 307.543 494.612 308.129L503.613 317.13C504.199 317.716 504.199 318.665 503.613 319.251Z" fill="#ffffff" fill-rule="nonzero" opacity="1" stroke="none" vectornator:layerName="path"/>
</g>
</g>
<g opacity="1" vectornator:layerName="stock2">
<path d="M517.82 110.153L252.677 110.153C237.529 110.153 225.248 97.8728 225.248 82.7244L225.248 27.8673C225.248 12.7189 237.529 0.43868 252.677 0.43868L517.82 0.43868C532.968 0.43868 545.248 12.7189 545.248 27.8673L545.248 82.7244C545.248 97.8728 532.968 110.153 517.82 110.153Z" fill="#191a33" fill-rule="nonzero" opacity="1" stroke="none" vectornator:layerName="path"/>
<g opacity="1" vectornator:layerName="content">
<path d="M275.269 78.929C277.641 78.929 279.563 80.8518 279.563 83.2237C279.563 85.5957 277.641 87.5185 275.269 87.5185L258.092 87.5185C255.72 87.5185 253.798 85.5957 253.798 83.2237C253.798 80.8518 255.72 78.929 258.092 78.929L275.269 78.929Z" fill="#0e5ecc" fill-rule="nonzero" opacity="1" stroke="none" vectornator:layerName="path"/>
<path d="M452.098 70.5981L253.795 70.5981L253.795 70.5981L253.795 71.7285L253.795 71.7285L452.098 71.7285L452.098 71.7285L452.098 70.5981L452.098 70.5981Z" fill="#bababa" fill-rule="nonzero" opacity="1" stroke="none" vectornator:layerName="rect"/>
<path d="M518.564 55.3443C518.564 41.5297 507.365 30.3307 493.55 30.3307C479.735 30.3307 468.536 41.5297 468.536 55.3443C468.536 69.1589 479.735 80.3579 493.55 80.3579C507.365 80.3579 518.564 69.1589 518.564 55.3443Z" fill="#4fe9a4" fill-rule="nonzero" opacity="1" stroke="none" vectornator:layerName="circle"/>
<path d="M431.806 49.6107L417.674 56.3938L397.35 43.4083L397.075 43.5253L356.919 60.6558L324.721 44.8391L293.455 57.5137L254.17 22.7185L253.421 23.5646L293.231 58.8219L324.677 46.0731L356.885 61.8945L397.244 44.6785L417.597 57.6811L431.71 50.9074L431.806 49.6107Z" fill="#ffffff" fill-rule="nonzero" opacity="1" stroke="none" vectornator:layerName="path"/>
<path d="M448.425 79.5194C450.453 79.4864 452.124 81.1036 452.157 83.1316C452.19 85.1596 450.573 86.8304 448.545 86.8635L448.545 86.8635C448.505 86.8641 448.465 86.8641 448.425 86.8635L410.008 86.8635C408.003 86.8312 406.395 85.1967 406.395 83.1914C406.395 81.1862 408.003 79.5516 410.008 79.5194L448.425 79.5194Z" fill="#e6e6e6" fill-rule="nonzero" opacity="1" stroke="none" vectornator:layerName="path"/>
<path d="M503.612 55.655C503.026 56.2408 502.076 56.2409 501.49 55.655L501.49 55.655L495.05 49.2152L495.05 65.0951C495.05 65.9236 494.379 66.5952 493.55 66.5952C492.722 66.5952 492.05 65.9236 492.05 65.0951L492.05 49.2152L485.61 55.655C485.024 56.2409 484.074 56.2409 483.488 55.6551C482.903 55.0692 482.903 54.1193 483.489 53.5335L492.489 44.5327C493.075 43.9469 494.025 43.9469 494.611 44.5327L503.612 53.5335C504.197 54.1193 504.197 55.0691 503.612 55.655Z" fill="#ffffff" fill-rule="nonzero" opacity="1" stroke="none" vectornator:layerName="path"/>
</g>
</g>
<g opacity="1" vectornator:layerName="stock1">
<path d="M458.627 241.823L193.484 241.823C178.336 241.823 166.055 229.542 166.055 214.394L166.055 159.537C166.055 144.388 178.336 132.108 193.484 132.108L458.627 132.108C473.775 132.108 486.055 144.388 486.055 159.537L486.055 214.394C486.055 229.542 473.775 241.823 458.627 241.823Z" fill="#191a33" fill-rule="nonzero" opacity="1" stroke="none" vectornator:layerName="path"/>
<g opacity="1" vectornator:layerName="content">
<path d="M215.088 206.754C217.459 206.754 219.382 208.686 219.382 211.069C219.382 213.453 217.459 215.385 215.088 215.385L197.912 215.385C195.54 215.385 193.618 213.453 193.618 211.069C193.618 208.686 195.54 206.754 197.912 206.754L215.088 206.754Z" fill="#0e5ecc" fill-rule="nonzero" opacity="1" stroke="none" vectornator:layerName="path"/>
<path d="M391.893 198.383L193.617 198.383L193.617 198.383L193.617 199.519L193.617 199.519L391.893 199.519L391.893 199.519L391.893 198.383L391.893 198.383Z" fill="#bababa" fill-rule="nonzero" opacity="1" stroke="none" vectornator:layerName="rect"/>
<path d="M458.384 183.055C458.384 169.173 447.186 157.919 433.373 157.919C419.561 157.919 408.363 169.173 408.363 183.055C408.363 196.937 419.561 208.19 433.373 208.19C447.186 208.19 458.384 196.937 458.384 183.055Z" fill="#fc4141" fill-opacity="0.904656" fill-rule="nonzero" opacity="1" stroke="none" vectornator:layerName="circle"/>
<path d="M391.578 192.042L392.204 191.098L371.601 177.293L357.472 184.109L337.15 171.06L336.876 171.178L296.724 188.392L264.531 172.498L233.27 185.236L193.99 193.26L193.241 194.111L233.046 186.553L264.487 173.741L296.692 189.64L337.046 172.34L357.395 185.406L371.511 178.596L391.578 192.042Z" fill="#ffffff" fill-rule="nonzero" opacity="1" stroke="none" vectornator:layerName="path"/>
<path d="M388.221 207.349C390.226 207.381 391.834 209.024 391.834 211.039C391.834 213.054 390.226 214.696 388.221 214.729L349.809 214.729C347.783 214.759 346.116 213.134 346.083 211.098C346.051 209.062 347.665 207.384 349.691 207.349C349.73 207.348 349.77 207.348 349.809 207.349L388.221 207.349Z" fill="#e6e6e6" fill-rule="nonzero" opacity="1" stroke="none" vectornator:layerName="path"/>
<path d="M423.279 182.743C423.864 182.154 424.814 182.154 425.4 182.742L425.4 182.743L431.839 189.214L431.839 173.256C431.846 172.429 432.515 171.761 433.339 171.761C434.162 171.761 434.832 172.429 434.839 173.256L434.839 189.214L441.278 182.742C441.862 182.155 442.81 182.153 443.396 182.739C443.983 183.326 443.986 184.278 443.404 184.869L443.399 184.874L434.399 193.919C433.814 194.508 432.864 194.508 432.278 193.919L423.279 184.874C422.693 184.286 422.693 183.331 423.279 182.743Z" fill="#ffffff" fill-rule="nonzero" opacity="1" stroke="none" vectornator:layerName="path"/>
</g>
</g>
<g opacity="1" vectornator:layerName="Question mark">
<path d="M88.3192 207.078C92.8521 204.867 98.9305 207.482 99.1406 212.914C99.2354 215.366 97.816 217.812 95.6034 218.893C94.3748 219.494 92.9689 219.624 91.6363 219.847C90.1534 220.096 88.6565 220.449 87.3257 221.173C84.1961 222.877 82.2005 225.924 80.4163 228.899C79.0329 231.205 82.5324 233.511 83.9228 231.193C85.4647 228.622 87.211 225.506 90.2165 224.453C91.8435 223.883 93.6222 223.859 95.2852 223.425C96.9768 222.985 98.5529 222.209 99.8424 221.014C102.423 218.623 103.677 215.135 103.212 211.656C102.765 208.315 100.551 205.101 97.5838 203.5C94.1226 201.632 89.9748 201.607 86.4494 203.327C84.02 204.513 85.8951 208.261 88.3192 207.078C88.3192 207.078 88.3192 207.078 88.3192 207.078Z" fill="#0e5ecc" fill-rule="nonzero" opacity="1" stroke="none" vectornator:layerName="path"/>
<path d="M79.3597 237.147L79.024 236.802C78.8388 236.576 78.6126 236.414 78.3454 236.313C78.1051 236.171 77.8425 236.098 77.5574 236.095C77.281 236.071 77.0185 236.114 76.77 236.224C76.5042 236.292 76.2696 236.423 76.0661 236.615L75.6985 237.04C75.4924 237.358 75.3792 237.705 75.3588 238.082L75.4008 238.616C75.4774 238.977 75.6369 239.296 75.8794 239.573L76.215 239.918C76.4003 240.144 76.6265 240.307 76.8937 240.407C77.1339 240.549 77.3966 240.622 77.6817 240.625C77.9581 240.649 78.2206 240.606 78.4691 240.496C78.7348 240.428 78.9695 240.297 79.173 240.105L79.5406 239.68C79.7467 239.362 79.8599 239.015 79.8803 238.638L79.8383 238.104C79.7617 237.743 79.6022 237.424 79.3597 237.147L79.3597 237.147Z" fill="#0e5ecc" fill-rule="nonzero" opacity="1" stroke="none" vectornator:layerName="path"/>
</g>
<g opacity="1" vectornator:layerName="Question mark">
<path d="M4.16093 213.911C5.18888 208.973 10.9793 205.77 15.4014 208.931C17.3985 210.358 18.4621 212.978 17.9618 215.389C17.684 216.728 16.9257 217.919 16.2861 219.109C15.5743 220.434 14.9366 221.833 14.6941 223.329C14.1238 226.846 15.3102 230.29 16.5692 233.523C17.5453 236.029 21.5116 234.675 20.5305 232.156C19.4426 229.362 18.0488 226.073 19.0574 223.053C19.6034 221.418 20.6736 219.997 21.3496 218.417C22.0372 216.81 22.3893 215.089 22.2345 213.337C21.9249 209.833 19.9363 206.705 16.9013 204.942C13.9858 203.249 10.0896 203.031 7.00632 204.396C3.40981 205.988 0.850135 209.251 0.0506709 213.092C-0.500265 215.738 3.6112 216.552 4.16092 213.911C4.16092 213.911 4.16092 213.911 4.16093 213.911Z" fill="#0e5ecc" fill-rule="nonzero" opacity="1" stroke="none" vectornator:layerName="path"/>
<path d="M22.442 239.41L21.9639 239.464C21.6722 239.472 21.4048 239.551 21.1619 239.701C20.9024 239.804 20.684 239.967 20.5066 240.19C20.3187 240.394 20.1921 240.628 20.1268 240.892C20.0178 241.144 19.9771 241.409 20.0047 241.688L20.1156 242.239C20.24 242.596 20.4451 242.898 20.7309 243.145L21.1789 243.439C21.5107 243.599 21.8606 243.669 22.2286 243.647L22.7067 243.593C22.9984 243.585 23.2658 243.505 23.5087 243.356C23.7682 243.253 23.9866 243.09 24.164 242.867C24.3519 242.663 24.4785 242.429 24.5438 242.165C24.6528 241.913 24.6936 241.648 24.6659 241.369L24.555 240.818C24.4306 240.461 24.2255 240.159 23.9397 239.912L23.4917 239.618C23.1599 239.457 22.81 239.388 22.442 239.41L22.442 239.41Z" fill="#0e5ecc" fill-rule="nonzero" opacity="1" stroke="none" vectornator:layerName="path"/>
</g>
<g opacity="1" vectornator:layerName="Question mark">
<path d="M49.2395 205.521C50.8893 203.173 54.6368 202.804 56.2354 205.452C56.9574 206.648 56.9229 208.256 56.1181 209.404C55.6712 210.041 55.0066 210.492 54.4042 210.97C53.7338 211.502 53.0852 212.089 52.6215 212.816C51.531 214.526 51.375 216.593 51.3044 218.566C51.2497 220.095 53.6274 220.281 53.6824 218.744C53.7433 217.039 53.7561 215.006 54.9638 213.655C55.6176 212.924 56.497 212.422 57.2062 211.749C57.9277 211.064 58.4995 210.244 58.8132 209.294C59.4409 207.393 59.1066 205.311 57.9179 203.706C56.776 202.164 54.7892 201.172 52.8705 201.19C50.6324 201.212 48.5594 202.341 47.2763 204.167C46.3921 205.426 48.3572 206.777 49.2395 205.521C49.2395 205.521 49.2395 205.521 49.2395 205.521Z" fill="#0e5ecc" fill-rule="nonzero" opacity="1" stroke="none" vectornator:layerName="path"/>
<path d="M53.0468 222.965L52.7847 222.886C52.6304 222.824 52.4729 222.805 52.3122 222.829C52.1534 222.824 52.0026 222.86 51.8596 222.937C51.7154 223.001 51.5965 223.095 51.503 223.218C51.3893 223.325 51.3082 223.454 51.2598 223.606L51.1936 223.919C51.1782 224.134 51.2173 224.338 51.3109 224.531L51.4788 224.786C51.616 224.945 51.7833 225.06 51.9805 225.131L52.2425 225.211C52.3968 225.272 52.5543 225.291 52.715 225.267C52.8738 225.272 53.0247 225.236 53.1677 225.16C53.3118 225.095 53.4307 225.002 53.5242 224.878C53.638 224.771 53.719 224.642 53.7674 224.49L53.8336 224.177C53.849 223.962 53.81 223.758 53.7163 223.565L53.5485 223.31C53.4112 223.152 53.2439 223.037 53.0468 222.965L53.0468 222.965Z" fill="#0e5ecc" fill-rule="nonzero" opacity="1" stroke="none" vectornator:layerName="path"/>
</g>
</g>
</svg>
