<?xml version="1.0" encoding="UTF-8" standalone="no"?>
<!DOCTYPE svg PUBLIC "-//W3C//DTD SVG 1.1//EN" "http://www.w3.org/Graphics/SVG/1.1/DTD/svg11.dtd">
<!-- Created with Vectornator (http://vectornator.io/) -->
<svg height="100%" stroke-miterlimit="10" style="fill-rule:nonzero;clip-rule:evenodd;stroke-linecap:round;stroke-linejoin:round;" version="1.1" viewBox="0 0 681.528 594.927" width="100%" xml:space="preserve" xmlns="http://www.w3.org/2000/svg" xmlns:vectornator="http://vectornator.io" xmlns:xlink="http://www.w3.org/1999/xlink">
<defs/>
<clipPath id="ArtboardFrame">
<rect height="594.927" width="681.528" x="0" y="0"/>
</clipPath>
<g clip-path="url(#ArtboardFrame)" id="Senza-Titolo" vectornator:layerName="Senza Titolo">
<path d="M77.4727 578.744L92.7017 578.743L99.9457 520.006L77.4707 520.007L77.4727 578.744Z" fill="#ffb7b7" fill-rule="nonzero" opacity="1" stroke="none" vectornator:layerName="polygon"/>
<path d="M73.5894 593.505L122.692 593.503L122.692 592.882C122.691 582.327 114.134 573.771 103.58 573.771L103.578 573.771L73.5884 573.772L73.5894 593.505Z" fill="#2f2e41" fill-rule="nonzero" opacity="1" stroke="none" vectornator:layerName="path"/>
<path d="M133.369 578.744L148.597 578.743L155.842 520.006L133.366 520.007L133.369 578.744Z" fill="#ffb7b7" fill-rule="nonzero" opacity="1" stroke="none" vectornator:layerName="polygon"/>
<path d="M129.485 593.505L178.587 593.503L178.587 592.882C178.587 582.327 170.03 573.771 159.475 573.771L159.474 573.771L129.484 573.772L129.485 593.505Z" fill="#2f2e41" fill-rule="nonzero" opacity="1" stroke="none" vectornator:layerName="path"/>
<path d="M162.071 388.227C159.401 386.046 157.834 382.795 157.792 379.349C157.749 375.902 159.235 372.614 161.851 370.368L153.574 345.071L167.719 336.292L178.907 372.18C182.466 376.928 181.912 383.587 177.616 387.681C173.321 391.775 166.643 392.009 162.071 388.227Z" fill="#ffb7b7" fill-rule="nonzero" opacity="1" stroke="none" vectornator:layerName="path"/>
<path d="M146.981 371.527C146.981 371.527 161.195 448.468 161.018 463.403C160.804 481.426 152.785 558.666 152.785 558.666L132.368 553.562L128.509 464.036L112.361 406.898L106.15 480.184L99.9159 557.274L76.2303 557.274L70.9251 363.871L148.257 361.319L146.981 371.527Z" fill="#2f2e41" fill-rule="nonzero" opacity="1" stroke="none" vectornator:layerName="path"/>
<path d="M76.16 216.486L116.994 217.762L142.515 375.993C142.515 375.993 88.2825 400.876 65.3135 383.012C42.3444 365.147 76.16 216.486 76.16 216.486Z" fill="#cbcbcb" fill-rule="nonzero" opacity="1" stroke="none" vectornator:layerName="path"/>
<path d="M111.252 250.302L145.705 448.09L167.398 441.71L152.085 370.251L144.429 298.792L145.705 227.333L118.908 215.848L111.252 206.916C111.252 206.916 95.9388 226.057 111.252 250.302Z" fill="#2f2e41" fill-rule="nonzero" opacity="1" stroke="none" vectornator:layerName="path"/>
<path d="M93.3867 245.474L90.8346 453.195L38.5163 444.262L42.3444 251.578L37.2402 224.78L62.7614 213.296L73.0954 206.916C73.0954 206.916 95.9388 213.849 93.3867 245.474Z" fill="#2f2e41" fill-rule="nonzero" opacity="1" stroke="none" vectornator:layerName="path"/>
<path d="M134.221 231.161L145.705 227.333L162.294 301.344L176.331 360.043L155.914 363.871L136.773 300.068L134.221 231.161Z" fill="#2f2e41" fill-rule="nonzero" opacity="1" stroke="none" vectornator:layerName="polygon"/>
<path d="M19.1762 400.648C21.8461 398.468 23.4131 395.217 23.4557 391.77C23.4982 388.323 22.0119 385.035 19.3967 382.789L27.6738 357.493L13.5279 348.713L2.34077 384.601C-1.21842 389.349-0.664087 396.008 3.63109 400.102C7.92626 404.196 14.6046 404.431 19.1762 400.648Z" fill="#ffb7b7" fill-rule="nonzero" opacity="1" stroke="none" vectornator:layerName="path"/>
<path d="M48.2687 228.677L36.7847 224.849L20.1957 298.86L4.91665 372.464L27.8967 375.845L45.7167 297.584L48.2687 228.677Z" fill="#2f2e41" fill-rule="nonzero" opacity="1" stroke="none" vectornator:layerName="polygon"/>
<path d="M118.661 185.197C126.174 171.452 121.123 154.219 107.379 146.706C93.6341 139.193 76.4013 144.244 68.8879 157.988C61.3745 171.733 66.4257 188.966 80.1702 196.479C93.9146 203.992 111.147 198.941 118.661 185.197Z" fill="#ffb7b7" fill-rule="nonzero" opacity="1" stroke="none" vectornator:layerName="circle"/>
<path d="M23.0801 594.141L253.08 594.141C253.632 594.141 254.08 593.693 254.08 593.141C254.08 592.588 253.632 592.141 253.08 592.141L23.0801 592.141C22.5278 592.141 22.0801 592.588 22.0801 593.141C22.0801 593.693 22.5278 594.141 23.0801 594.141Z" fill="#cbcbcb" fill-rule="nonzero" opacity="1" stroke="none" vectornator:layerName="path"/>
<path d="M103.664 134.479C76.5507 126.661 68.8545 149.133 68.8545 149.133C55.7853 157.804 63.9677 168.674 63.9677 168.674C60.67 169.407 67.2636 188.705 69.4623 188.216C70.6354 187.956 73.652 191.557 76.2106 194.972C77.0879 194.971 77.9633 195.055 78.8243 195.223L73.8602 176.858C73.8602 176.858 90.5929 174.295 95.7231 166.234C100.631 158.522 116.789 156.088 121.388 161.239C121.659 159.758 122.216 158.343 123.027 157.075C123.655 156.111 124.476 155.288 125.438 154.658C121.373 137.38 103.664 134.479 103.664 134.479Z" fill="#2f2e41" fill-rule="nonzero" opacity="1" stroke="none" vectornator:layerName="path"/>
<g opacity="1" vectornator:layerName="stock3">
<path d="M651.254 322.531L397.868 322.531L397.868 252.981L651.254 252.981L651.254 322.531Z" fill="#ffffff" fill-rule="nonzero" opacity="1" stroke="none" vectornator:layerName="path"/>
<path d="M429.853 308.102C431.9 308.102 433.558 309.761 433.558 311.808C433.558 313.854 431.9 315.513 429.853 315.513L415.034 315.513C412.987 315.513 411.329 313.854 411.329 311.808C411.329 309.761 412.987 308.102 415.034 308.102L429.853 308.102Z" fill="#0e5ecc" fill-rule="nonzero" opacity="1" stroke="none" vectornator:layerName="path"/>
<path d="M582.405 300.916L411.328 300.916L411.328 300.916L411.328 301.891L411.328 301.891L582.405 301.891L582.405 301.891L582.405 300.916L582.405 300.916Z" fill="#e6e6e6" fill-rule="nonzero" opacity="1" stroke="none" vectornator:layerName="rect"/>
<path d="M639.745 287.756C639.745 275.838 630.084 266.176 618.166 266.176C606.248 266.176 596.586 275.838 596.586 287.756C596.586 299.674 606.248 309.335 618.166 309.335C630.084 309.335 639.745 299.674 639.745 287.756Z" fill="#4fe9a4" fill-rule="nonzero" opacity="1" stroke="none" vectornator:layerName="circle"/>
<path d="M582.135 295.473L582.675 294.662L564.898 282.809L552.708 288.661L535.173 277.455L500.293 292.334L472.516 278.689L445.546 289.627L411.655 276.013L411.008 276.742L445.349 290.758L472.477 279.76L500.264 293.409L535.082 278.557L552.639 289.775L564.819 283.929L582.135 295.473Z" fill="#3f3d56" fill-rule="nonzero" opacity="1" stroke="none" vectornator:layerName="path"/>
<path d="M579.237 308.612C580.967 308.64 582.355 310.05 582.355 311.78C582.355 313.51 580.967 314.92 579.237 314.948L546.094 314.948C544.345 314.976 542.903 313.581 542.875 311.831C542.846 310.082 544.241 308.64 545.991 308.612C546.025 308.611 546.06 308.611 546.094 308.612L579.237 308.612Z" fill="#e6e6e6" fill-rule="nonzero" opacity="1" stroke="none" vectornator:layerName="path"/>
<path d="M626.846 288.024C626.34 288.529 625.521 288.529 625.016 288.024L625.016 288.024L619.46 282.468L619.46 296.168C619.457 296.879 618.881 297.454 618.17 297.456C617.459 297.458 616.879 296.887 616.871 296.176L616.871 282.468L611.316 288.024C610.812 288.53 609.992 288.533 609.486 288.028C608.979 287.524 608.977 286.705 609.481 286.198L609.485 286.194L617.25 278.429C617.756 277.923 618.575 277.923 619.081 278.429L626.846 286.194C627.351 286.699 627.351 287.518 626.846 288.024Z" fill="#ffffff" fill-rule="nonzero" opacity="1" stroke="none" vectornator:layerName="path"/>
<path d="M646.141 250.731L388.514 250.731C386.728 250.731 385.28 252.178 385.28 253.964L385.28 328.694C385.28 330.48 386.728 331.927 388.514 331.927L646.141 331.927C647.927 331.927 649.375 330.48 649.375 328.694L649.375 253.964C649.375 252.178 647.927 250.731 646.141 250.731Z" fill="none" opacity="1" stroke="#e6e6e6" stroke-linecap="butt" stroke-linejoin="round" stroke-width="3.08525"/>
</g>
<g opacity="1" vectornator:layerName="stock2">
<path d="M677.186-1.42109e-14L419.558-1.42109e-14C417.773-1.42109e-14 416.325 1.44755 416.325 3.2332L416.325 77.9635C416.325 79.7491 417.773 81.1967 419.558 81.1967L677.186 81.1967C678.972 81.1967 680.419 79.7491 680.419 77.9635L680.419 3.2332C680.419 1.44755 678.972-1.42109e-14 677.186-1.42109e-14Z" fill="none" opacity="1" stroke="#e6e6e6" stroke-linecap="butt" stroke-linejoin="round" stroke-width="3.08525"/>
<path d="M676.534 74.8033L423.149 74.8033L423.149 5.25304L676.534 5.25304L676.534 74.8033Z" fill="#ffffff" fill-rule="nonzero" opacity="1" stroke="none" vectornator:layerName="path"/>
<path d="M455.133 60.3757C457.179 60.3757 458.838 62.0346 458.838 64.0809C458.838 66.1271 457.179 67.786 455.133 67.786L440.315 67.786C438.269 67.786 436.61 66.1271 436.61 64.0809C436.61 62.0346 438.269 60.3757 440.315 60.3757L455.133 60.3757Z" fill="#0e5ecc" fill-rule="nonzero" opacity="1" stroke="none" vectornator:layerName="path"/>
<path d="M607.685 53.1886L436.608 53.1886L436.608 53.1886L436.608 54.1638L436.608 54.1638L607.685 54.1638L607.685 54.1638L607.685 53.1886L607.685 53.1886Z" fill="#e6e6e6" fill-rule="nonzero" opacity="1" stroke="none" vectornator:layerName="rect"/>
<path d="M665.026 40.029C665.026 28.111 655.364 18.4496 643.446 18.4496C631.528 18.4496 621.867 28.111 621.867 40.029C621.867 51.947 631.528 61.6085 643.446 61.6085C655.364 61.6085 665.026 51.947 665.026 40.029Z" fill="#4fe9a4" fill-rule="nonzero" opacity="1" stroke="none" vectornator:layerName="circle"/>
<path d="M607.415 47.7451L607.956 46.934L590.179 35.0826L577.988 40.9345L560.453 29.7318L560.216 29.8327L525.573 44.6113L497.796 30.9661L470.823 41.9006L436.931 11.8825L436.285 12.6124L470.63 43.0292L497.758 32.0307L525.545 45.68L560.363 30.8275L577.921 42.045L590.097 36.2013L607.415 47.7451Z" fill="#3f3d56" fill-rule="nonzero" opacity="1" stroke="none" vectornator:layerName="path"/>
<path d="M604.517 60.8851C606.267 60.8566 607.708 62.2518 607.736 64.0014C607.765 65.751 606.37 67.1924 604.62 67.2209L604.62 67.2209C604.586 67.2214 604.551 67.2214 604.517 67.2209L571.374 67.2209C569.644 67.193 568.257 65.7829 568.257 64.053C568.257 62.323 569.644 60.9129 571.374 60.8851L604.517 60.8851Z" fill="#e6e6e6" fill-rule="nonzero" opacity="1" stroke="none" vectornator:layerName="path"/>
<path d="M652.126 40.297C651.621 40.8025 650.802 40.8025 650.296 40.2971L650.296 40.297L644.74 34.7414L644.74 48.4411C644.74 49.1559 644.161 49.7353 643.446 49.7353C642.732 49.7353 642.152 49.1559 642.152 48.4411L642.152 34.7414L636.596 40.297C636.091 40.8025 635.272 40.8026 634.766 40.2971C634.261 39.7917 634.261 38.9722 634.766 38.4668L642.531 30.7018C643.037 30.1964 643.856 30.1964 644.361 30.7018L652.126 38.4668C652.632 38.9722 652.632 39.7916 652.126 40.297Z" fill="#ffffff" fill-rule="nonzero" opacity="1" stroke="none" vectornator:layerName="path"/>
</g>
<g opacity="1" vectornator:layerName="stock1">
<path d="M527.28 123.287L269.653 123.287C267.867 123.287 266.419 124.735 266.419 126.52L266.419 201.251C266.419 203.036 267.867 204.484 269.653 204.484L527.28 204.484C529.066 204.484 530.514 203.036 530.514 201.251L530.514 126.52C530.514 124.735 529.066 123.287 527.28 123.287Z" fill="none" opacity="1" stroke="#e6e6e6" stroke-linecap="butt" stroke-linejoin="round" stroke-width="3.08525"/>
<path d="M529.001 195.604L275.617 195.604L275.617 126.054L529.001 126.054L529.001 195.604Z" fill="#ffffff" fill-rule="nonzero" opacity="1" stroke="none" vectornator:layerName="path"/>
<path d="M307.6 181.175C309.646 181.175 311.305 182.834 311.305 184.88C311.305 186.926 309.646 188.585 307.6 188.585L292.78 188.585C290.734 188.585 289.075 186.926 289.075 184.88C289.075 182.834 290.734 181.175 292.78 181.175L307.6 181.175Z" fill="#0e5ecc" fill-rule="nonzero" opacity="1" stroke="none" vectornator:layerName="path"/>
<path d="M460.152 173.988L289.075 173.988L289.075 173.988L289.075 174.964L289.075 174.964L460.152 174.964L460.152 174.964L460.152 173.988L460.152 173.988Z" fill="#e6e6e6" fill-rule="nonzero" opacity="1" stroke="none" vectornator:layerName="rect"/>
<path d="M517.492 160.829C517.492 148.911 507.83 139.249 495.912 139.249C483.994 139.249 474.333 148.911 474.333 160.829C474.333 172.747 483.994 182.408 495.912 182.408C507.83 182.408 517.492 172.747 517.492 160.829Z" fill="#fc4141" fill-opacity="0.904656" fill-rule="nonzero" opacity="1" stroke="none" vectornator:layerName="circle"/>
<path d="M459.88 168.545L460.42 167.734L442.643 155.882L430.453 161.734L412.919 150.532L412.681 150.632L378.038 165.411L350.261 151.766L323.288 162.701L289.396 169.591L288.75 170.321L323.094 163.832L350.223 152.833L378.011 166.482L412.828 151.63L430.386 162.847L442.566 157.001L459.88 168.545Z" fill="#3f3d56" fill-rule="nonzero" opacity="1" stroke="none" vectornator:layerName="path"/>
<path d="M456.984 181.686C458.713 181.714 460.101 183.124 460.101 184.854C460.101 186.584 458.713 187.994 456.984 188.022L423.841 188.022C422.093 188.047 420.654 186.652 420.626 184.904C420.598 183.156 421.991 181.716 423.739 181.686C423.773 181.685 423.807 181.685 423.841 181.686L456.984 181.686Z" fill="#e6e6e6" fill-rule="nonzero" opacity="1" stroke="none" vectornator:layerName="path"/>
<path d="M487.232 160.561C487.737 160.055 488.557 160.055 489.062 160.561L489.062 160.561L494.618 166.116L494.618 152.417C494.624 151.706 495.202 151.133 495.912 151.133C496.623 151.133 497.2 151.706 497.206 152.417L497.206 166.116L502.762 160.561C503.267 160.056 504.084 160.055 504.59 160.558C505.096 161.061 505.099 161.879 504.597 162.386L504.592 162.391L496.827 170.156C496.322 170.661 495.502 170.661 494.997 170.156L487.232 162.391C486.727 161.886 486.727 161.066 487.232 160.561Z" fill="#ffffff" fill-rule="nonzero" opacity="1" stroke="none" vectornator:layerName="path"/>
</g>
</g>
</svg>
