<svg width="72" height="70" viewBox="0 0 72 70" fill="none" xmlns="http://www.w3.org/2000/svg">
<path opacity="0.4" d="M3.46449 47.9388C3.46449 47.9388 3.96703 54.0896 4.08381 56.029C4.23953 58.6302 5.24461 61.5357 6.92209 63.5529C9.28969 66.4124 12.0784 67.421 15.8014 67.4281C20.1792 67.4352 52.0125 67.4352 56.3903 67.4281C60.1133 67.421 62.902 66.4124 65.2696 63.5529C66.9471 61.5357 67.9522 58.6302 68.1114 56.029C68.2247 54.0896 68.7272 47.9388 68.7272 47.9388" stroke="white" stroke-width="5" stroke-linecap="round" stroke-linejoin="round"/>
<path d="M23.6083 12.0264V10.7134C23.6083 6.39583 27.1049 2.89929 31.4224 2.89929H40.5601C44.8742 2.89929 48.3742 6.39583 48.3742 10.7134L48.3778 12.0264" stroke="white" stroke-width="5" stroke-linecap="round" stroke-linejoin="round"/>
<path d="M35.9917 52.1892V47.6097" stroke="white" stroke-width="5" stroke-linecap="round" stroke-linejoin="round"/>
<path fill-rule="evenodd" clip-rule="evenodd" d="M3.27273 22.8538V35.1235C10.0605 39.6003 18.1932 42.7359 27.1185 43.9781C28.1873 40.0816 31.7015 37.2256 35.9731 37.2256C40.1774 37.2256 43.7624 40.0816 44.7604 44.0135C53.7212 42.7713 61.8857 39.6357 68.7089 35.1235V22.8538C68.7089 16.8587 63.8852 12.0315 57.8901 12.0315H14.1268C8.13178 12.0315 3.27273 16.8587 3.27273 22.8538Z" stroke="white" stroke-width="5" stroke-linecap="round" stroke-linejoin="round"/>
</svg>
